%TF.GenerationSoftware,KiCad,Pcbnew,9.0.7*%
%TF.CreationDate,2026-03-24T14:08:32-04:00*%
%TF.ProjectId,linesorter,6c696e65-736f-4727-9465-722e6b696361,rev?*%
%TF.SameCoordinates,Original*%
%TF.FileFunction,Drillmap*%
%TF.FilePolarity,Positive*%
%FSLAX45Y45*%
G04 Gerber Fmt 4.5, Leading zero omitted, Abs format (unit mm)*
G04 Created by KiCad (PCBNEW 9.0.7) date 2026-03-24 14:08:32*
%MOMM*%
%LPD*%
G01*
G04 APERTURE LIST*
%ADD10C,0.050000*%
%ADD11C,0.200000*%
G04 APERTURE END LIST*
D10*
X2025000Y-9250000D02*
X21525000Y-9250000D01*
X21525000Y-17350000D01*
X2025000Y-17350000D01*
X2025000Y-9250000D01*
D11*
X2283277Y-17663984D02*
X2283277Y-17463984D01*
X2283277Y-17463984D02*
X2330896Y-17463984D01*
X2330896Y-17463984D02*
X2359467Y-17473508D01*
X2359467Y-17473508D02*
X2378515Y-17492555D01*
X2378515Y-17492555D02*
X2388039Y-17511603D01*
X2388039Y-17511603D02*
X2397563Y-17549698D01*
X2397563Y-17549698D02*
X2397563Y-17578270D01*
X2397563Y-17578270D02*
X2388039Y-17616365D01*
X2388039Y-17616365D02*
X2378515Y-17635412D01*
X2378515Y-17635412D02*
X2359467Y-17654460D01*
X2359467Y-17654460D02*
X2330896Y-17663984D01*
X2330896Y-17663984D02*
X2283277Y-17663984D01*
X2483277Y-17663984D02*
X2483277Y-17530650D01*
X2483277Y-17568746D02*
X2492801Y-17549698D01*
X2492801Y-17549698D02*
X2502324Y-17540174D01*
X2502324Y-17540174D02*
X2521372Y-17530650D01*
X2521372Y-17530650D02*
X2540420Y-17530650D01*
X2607086Y-17663984D02*
X2607086Y-17530650D01*
X2607086Y-17463984D02*
X2597563Y-17473508D01*
X2597563Y-17473508D02*
X2607086Y-17483031D01*
X2607086Y-17483031D02*
X2616610Y-17473508D01*
X2616610Y-17473508D02*
X2607086Y-17463984D01*
X2607086Y-17463984D02*
X2607086Y-17483031D01*
X2730896Y-17663984D02*
X2711848Y-17654460D01*
X2711848Y-17654460D02*
X2702324Y-17635412D01*
X2702324Y-17635412D02*
X2702324Y-17463984D01*
X2835658Y-17663984D02*
X2816610Y-17654460D01*
X2816610Y-17654460D02*
X2807086Y-17635412D01*
X2807086Y-17635412D02*
X2807086Y-17463984D01*
X3064229Y-17663984D02*
X3064229Y-17463984D01*
X3064229Y-17463984D02*
X3130896Y-17606841D01*
X3130896Y-17606841D02*
X3197562Y-17463984D01*
X3197562Y-17463984D02*
X3197562Y-17663984D01*
X3378515Y-17663984D02*
X3378515Y-17559222D01*
X3378515Y-17559222D02*
X3368991Y-17540174D01*
X3368991Y-17540174D02*
X3349943Y-17530650D01*
X3349943Y-17530650D02*
X3311848Y-17530650D01*
X3311848Y-17530650D02*
X3292801Y-17540174D01*
X3378515Y-17654460D02*
X3359467Y-17663984D01*
X3359467Y-17663984D02*
X3311848Y-17663984D01*
X3311848Y-17663984D02*
X3292801Y-17654460D01*
X3292801Y-17654460D02*
X3283277Y-17635412D01*
X3283277Y-17635412D02*
X3283277Y-17616365D01*
X3283277Y-17616365D02*
X3292801Y-17597317D01*
X3292801Y-17597317D02*
X3311848Y-17587793D01*
X3311848Y-17587793D02*
X3359467Y-17587793D01*
X3359467Y-17587793D02*
X3378515Y-17578270D01*
X3473753Y-17530650D02*
X3473753Y-17730650D01*
X3473753Y-17540174D02*
X3492801Y-17530650D01*
X3492801Y-17530650D02*
X3530896Y-17530650D01*
X3530896Y-17530650D02*
X3549943Y-17540174D01*
X3549943Y-17540174D02*
X3559467Y-17549698D01*
X3559467Y-17549698D02*
X3568991Y-17568746D01*
X3568991Y-17568746D02*
X3568991Y-17625889D01*
X3568991Y-17625889D02*
X3559467Y-17644936D01*
X3559467Y-17644936D02*
X3549943Y-17654460D01*
X3549943Y-17654460D02*
X3530896Y-17663984D01*
X3530896Y-17663984D02*
X3492801Y-17663984D01*
X3492801Y-17663984D02*
X3473753Y-17654460D01*
X3654705Y-17644936D02*
X3664229Y-17654460D01*
X3664229Y-17654460D02*
X3654705Y-17663984D01*
X3654705Y-17663984D02*
X3645182Y-17654460D01*
X3645182Y-17654460D02*
X3654705Y-17644936D01*
X3654705Y-17644936D02*
X3654705Y-17663984D01*
X3654705Y-17540174D02*
X3664229Y-17549698D01*
X3664229Y-17549698D02*
X3654705Y-17559222D01*
X3654705Y-17559222D02*
X3645182Y-17549698D01*
X3645182Y-17549698D02*
X3654705Y-17540174D01*
X3654705Y-17540174D02*
X3654705Y-17559222D01*
M02*
