%TF.GenerationSoftware,KiCad,Pcbnew,9.0.7*%
%TF.CreationDate,2026-03-24T14:08:32-04:00*%
%TF.ProjectId,linesorter,6c696e65-736f-4727-9465-722e6b696361,rev?*%
%TF.SameCoordinates,Original*%
%TF.FileFunction,Drillmap*%
%TF.FilePolarity,Positive*%
%FSLAX45Y45*%
G04 Gerber Fmt 4.5, Leading zero omitted, Abs format (unit mm)*
G04 Created by KiCad (PCBNEW 9.0.7) date 2026-03-24 14:08:32*
%MOMM*%
%LPD*%
G01*
G04 APERTURE LIST*
%ADD10C,0.050000*%
%ADD11C,0.200000*%
%ADD12C,0.100000*%
%ADD13C,0.110000*%
%ADD14C,0.124000*%
%ADD15C,0.230000*%
G04 APERTURE END LIST*
D10*
X2025000Y-9250000D02*
X21525000Y-9250000D01*
X21525000Y-17350000D01*
X2025000Y-17350000D01*
X2025000Y-9250000D01*
D11*
D12*
X2122176Y-10076273D02*
X2152686Y-10106783D01*
X2152686Y-10076273D02*
X2122176Y-10106783D01*
X2122176Y-11694358D02*
X2152686Y-11724868D01*
X2152686Y-11694358D02*
X2122176Y-11724868D01*
X2122176Y-12963707D02*
X2152686Y-12994218D01*
X2152686Y-12963707D02*
X2122176Y-12994218D01*
X2122176Y-14233057D02*
X2152686Y-14263567D01*
X2152686Y-14233057D02*
X2122176Y-14263567D01*
X2122176Y-15502406D02*
X2152686Y-15532917D01*
X2152686Y-15502406D02*
X2122176Y-15532917D01*
X2122176Y-16934278D02*
X2152686Y-16964788D01*
X2152686Y-16934278D02*
X2122176Y-16964788D01*
X3153870Y-15827011D02*
X3184381Y-15857521D01*
X3184381Y-15827011D02*
X3153870Y-15857521D01*
X3174279Y-14018348D02*
X3204789Y-14048859D01*
X3204789Y-14018348D02*
X3174279Y-14048859D01*
X3287760Y-17205525D02*
X3318270Y-17236035D01*
X3318270Y-17205525D02*
X3287760Y-17236035D01*
X3419683Y-11249762D02*
X3450193Y-11280273D01*
X3450193Y-11249762D02*
X3419683Y-11280273D01*
X3419683Y-12519112D02*
X3450193Y-12549622D01*
X3450193Y-12519112D02*
X3419683Y-12549622D01*
X3419683Y-13788461D02*
X3450193Y-13818972D01*
X3450193Y-13788461D02*
X3419683Y-13818972D01*
X3419683Y-15057811D02*
X3450193Y-15088321D01*
X3450193Y-15057811D02*
X3419683Y-15088321D01*
X3444551Y-9457629D02*
X3475062Y-9488139D01*
X3475062Y-9457629D02*
X3444551Y-9488139D01*
X4689033Y-11189957D02*
X4719543Y-11220468D01*
X4719543Y-11189957D02*
X4689033Y-11220468D01*
X4756592Y-17222314D02*
X4787102Y-17252824D01*
X4787102Y-17222314D02*
X4756592Y-17252824D01*
X5138825Y-13365973D02*
X5169335Y-13396484D01*
X5169335Y-13365973D02*
X5138825Y-13396484D01*
X5338202Y-9347176D02*
X5368712Y-9377686D01*
X5368712Y-9347176D02*
X5338202Y-9377686D01*
X5792807Y-15625460D02*
X5823317Y-15655970D01*
X5823317Y-15625460D02*
X5792807Y-15655970D01*
X5902454Y-14397476D02*
X5932964Y-14427986D01*
X5932964Y-14397476D02*
X5902454Y-14427986D01*
X6140372Y-10638039D02*
X6170882Y-10668549D01*
X6170882Y-10638039D02*
X6140372Y-10668549D01*
X6176610Y-16887375D02*
X6207121Y-16917885D01*
X6207121Y-16887375D02*
X6176610Y-16917885D01*
X6558598Y-12311930D02*
X6589108Y-12342441D01*
X6589108Y-12311930D02*
X6558598Y-12342441D01*
X6698331Y-13313248D02*
X6728841Y-13343759D01*
X6728841Y-13313248D02*
X6698331Y-13343759D01*
X6770070Y-13948904D02*
X6800580Y-13979414D01*
X6800580Y-13948904D02*
X6770070Y-13979414D01*
X6942011Y-13327893D02*
X6972522Y-13358403D01*
X6972522Y-13327893D02*
X6942011Y-13358403D01*
X7007581Y-14020306D02*
X7038092Y-14050817D01*
X7038092Y-14020306D02*
X7007581Y-14050817D01*
X7082911Y-11062021D02*
X7113422Y-11092531D01*
X7113422Y-11062021D02*
X7082911Y-11092531D01*
X7231314Y-10842207D02*
X7261825Y-10872717D01*
X7261825Y-10842207D02*
X7231314Y-10872717D01*
X7308961Y-15975616D02*
X7339471Y-16006126D01*
X7339471Y-15975616D02*
X7308961Y-16006126D01*
X7353150Y-12872179D02*
X7383661Y-12902690D01*
X7383661Y-12872179D02*
X7353150Y-12902690D01*
X7445562Y-9347176D02*
X7476072Y-9377686D01*
X7476072Y-9347176D02*
X7445562Y-9377686D01*
X7445638Y-16883717D02*
X7476149Y-16914228D01*
X7476149Y-16883717D02*
X7445638Y-16914228D01*
X7575647Y-13715232D02*
X7606157Y-13745742D01*
X7606157Y-13715232D02*
X7575647Y-13745742D01*
X7575647Y-15369609D02*
X7606157Y-15400120D01*
X7606157Y-15369609D02*
X7575647Y-15400120D01*
X7854339Y-13298810D02*
X7884850Y-13329321D01*
X7884850Y-13298810D02*
X7854339Y-13329321D01*
X7873398Y-13680344D02*
X7903909Y-13710855D01*
X7903909Y-13680344D02*
X7873398Y-13710855D01*
X7904240Y-10625273D02*
X7934750Y-10655783D01*
X7934750Y-10625273D02*
X7904240Y-10655783D01*
X7931928Y-11531553D02*
X7962439Y-11562063D01*
X7962439Y-11531553D02*
X7931928Y-11562063D01*
X8409479Y-11425530D02*
X8439990Y-11456040D01*
X8439990Y-11425530D02*
X8409479Y-11456040D01*
X8492119Y-13284405D02*
X8522629Y-13314916D01*
X8522629Y-13284405D02*
X8492119Y-13314916D01*
X8516455Y-11459762D02*
X8546965Y-11490272D01*
X8546965Y-11459762D02*
X8516455Y-11490272D01*
X8536297Y-13014899D02*
X8566808Y-13045409D01*
X8566808Y-13014899D02*
X8536297Y-13045409D01*
X8564640Y-17222314D02*
X8595150Y-17252824D01*
X8595150Y-17222314D02*
X8564640Y-17252824D01*
X8718761Y-9851764D02*
X8749271Y-9882274D01*
X8749271Y-9851764D02*
X8718761Y-9882274D01*
X8813918Y-13273706D02*
X8844429Y-13304216D01*
X8844429Y-13273706D02*
X8813918Y-13304216D01*
X9006837Y-16378362D02*
X9037347Y-16408872D01*
X9037347Y-16378362D02*
X9006837Y-16408872D01*
X9193651Y-15256700D02*
X9224161Y-15287210D01*
X9224161Y-15256700D02*
X9193651Y-15287210D01*
X9738244Y-16802580D02*
X9768754Y-16833091D01*
X9768754Y-16802580D02*
X9738244Y-16833091D01*
X10243489Y-14336882D02*
X10273999Y-14367392D01*
X10273999Y-14336882D02*
X10243489Y-14367392D01*
X10305482Y-9654877D02*
X10335992Y-9685388D01*
X10335992Y-9654877D02*
X10305482Y-9685388D01*
X10399554Y-15766079D02*
X10430064Y-15796589D01*
X10430064Y-15766079D02*
X10399554Y-15796589D01*
X10549761Y-13900589D02*
X10580272Y-13931099D01*
X10580272Y-13900589D02*
X10549761Y-13931099D01*
X11158754Y-12021539D02*
X11189265Y-12052049D01*
X11189265Y-12021539D02*
X11158754Y-12052049D01*
X11267542Y-14131200D02*
X11298052Y-14161710D01*
X11298052Y-14131200D02*
X11267542Y-14161710D01*
X11277866Y-14684385D02*
X11308377Y-14714895D01*
X11308377Y-14684385D02*
X11277866Y-14714895D01*
X11322194Y-13157331D02*
X11352705Y-13187841D01*
X11352705Y-13157331D02*
X11322194Y-13187841D01*
X11335534Y-15697775D02*
X11366044Y-15728285D01*
X11366044Y-15697775D02*
X11335534Y-15728285D01*
X11528500Y-14142896D02*
X11559010Y-14173406D01*
X11559010Y-14142896D02*
X11528500Y-14173406D01*
X11565619Y-14514061D02*
X11596129Y-14544571D01*
X11596129Y-14514061D02*
X11565619Y-14544571D01*
X11663752Y-15105285D02*
X11694263Y-15135795D01*
X11694263Y-15105285D02*
X11663752Y-15135795D01*
X11693881Y-16354855D02*
X11724392Y-16385366D01*
X11724392Y-16354855D02*
X11693881Y-16385366D01*
X11738344Y-13338072D02*
X11768855Y-13368582D01*
X11768855Y-13338072D02*
X11738344Y-13368582D01*
X11844536Y-16688453D02*
X11875046Y-16718963D01*
X11875046Y-16688453D02*
X11844536Y-16718963D01*
X12303996Y-9347176D02*
X12334506Y-9377686D01*
X12334506Y-9347176D02*
X12303996Y-9377686D01*
X12483402Y-15919566D02*
X12513912Y-15950077D01*
X12513912Y-15919566D02*
X12483402Y-15950077D01*
X12569559Y-15136231D02*
X12600069Y-15166741D01*
X12600069Y-15136231D02*
X12569559Y-15166741D01*
X12679435Y-11629430D02*
X12709946Y-11659940D01*
X12709946Y-11629430D02*
X12679435Y-11659940D01*
X12881281Y-15244621D02*
X12911791Y-15275131D01*
X12911791Y-15244621D02*
X12881281Y-15275131D01*
X12897940Y-10944335D02*
X12928450Y-10974845D01*
X12928450Y-10944335D02*
X12897940Y-10974845D01*
X13010250Y-10596455D02*
X13040760Y-10626965D01*
X13040760Y-10596455D02*
X13010250Y-10626965D01*
X13027419Y-10786342D02*
X13057929Y-10816853D01*
X13057929Y-10786342D02*
X13027419Y-10816853D01*
X13151508Y-12448939D02*
X13182019Y-12479449D01*
X13182019Y-12448939D02*
X13151508Y-12479449D01*
X13181592Y-12255131D02*
X13212103Y-12285642D01*
X13212103Y-12255131D02*
X13181592Y-12285642D01*
X13372595Y-11083515D02*
X13403106Y-11114025D01*
X13403106Y-11083515D02*
X13372595Y-11114025D01*
X13416885Y-10741327D02*
X13447396Y-10771838D01*
X13447396Y-10741327D02*
X13416885Y-10771838D01*
X13535350Y-9676283D02*
X13565860Y-9706793D01*
X13565860Y-9676283D02*
X13535350Y-9706793D01*
X13568685Y-13574989D02*
X13599195Y-13605499D01*
X13599195Y-13574989D02*
X13568685Y-13605499D01*
X13617032Y-14816522D02*
X13647543Y-14847032D01*
X13647543Y-14816522D02*
X13617032Y-14847032D01*
X13633939Y-14900985D02*
X13664449Y-14931495D01*
X13664449Y-14900985D02*
X13633939Y-14931495D01*
X13634260Y-10625465D02*
X13664771Y-10655975D01*
X13664771Y-10625465D02*
X13634260Y-10655975D01*
X13744059Y-11266343D02*
X13774570Y-11296853D01*
X13774570Y-11266343D02*
X13744059Y-11296853D01*
X14089242Y-11382918D02*
X14119753Y-11413429D01*
X14119753Y-11382918D02*
X14089242Y-11413429D01*
X14216852Y-16869519D02*
X14247362Y-16900030D01*
X14247362Y-16869519D02*
X14216852Y-16900030D01*
X14421147Y-12666553D02*
X14451657Y-12697063D01*
X14451657Y-12666553D02*
X14421147Y-12697063D01*
X14454102Y-11624095D02*
X14484612Y-11654605D01*
X14484612Y-11624095D02*
X14454102Y-11654605D01*
X14589591Y-13483051D02*
X14620102Y-13513561D01*
X14620102Y-13483051D02*
X14589591Y-13513561D01*
X14860845Y-10493147D02*
X14891355Y-10523658D01*
X14891355Y-10493147D02*
X14860845Y-10523658D01*
X14921335Y-9910460D02*
X14951845Y-9940970D01*
X14951845Y-9910460D02*
X14921335Y-9940970D01*
X15136670Y-15060744D02*
X15167181Y-15091255D01*
X15167181Y-15060744D02*
X15136670Y-15091255D01*
X15160833Y-13665106D02*
X15191343Y-13695617D01*
X15191343Y-13665106D02*
X15160833Y-13695617D01*
X15462614Y-11755106D02*
X15493125Y-11785616D01*
X15493125Y-11755106D02*
X15462614Y-11785616D01*
X15486005Y-16847187D02*
X15516515Y-16877697D01*
X15516515Y-16847187D02*
X15486005Y-16877697D01*
X15658150Y-11989309D02*
X15688660Y-12019819D01*
X15688660Y-11989309D02*
X15658150Y-12019819D01*
X15711077Y-10418609D02*
X15741587Y-10449120D01*
X15741587Y-10418609D02*
X15711077Y-10449120D01*
X15725630Y-10682535D02*
X15756141Y-10713046D01*
X15756141Y-10682535D02*
X15725630Y-10713046D01*
X16056386Y-9576450D02*
X16086896Y-9606961D01*
X16086896Y-9576450D02*
X16056386Y-9606961D01*
X16542040Y-13272895D02*
X16572551Y-13303406D01*
X16572551Y-13272895D02*
X16542040Y-13303406D01*
X16642627Y-12731278D02*
X16673137Y-12761788D01*
X16673137Y-12731278D02*
X16642627Y-12761788D01*
X16755158Y-16824854D02*
X16785668Y-16855364D01*
X16785668Y-16824854D02*
X16755158Y-16855364D01*
X16938980Y-11189098D02*
X16969490Y-11219609D01*
X16969490Y-11189098D02*
X16938980Y-11219609D01*
X17072397Y-14730886D02*
X17102907Y-14761397D01*
X17102907Y-14730886D02*
X17072397Y-14761397D01*
X17113979Y-13064060D02*
X17144490Y-13094571D01*
X17144490Y-13064060D02*
X17113979Y-13094571D01*
X17325735Y-9576450D02*
X17356246Y-9606961D01*
X17356246Y-9576450D02*
X17325735Y-9606961D01*
X17645778Y-10931841D02*
X17676288Y-10962352D01*
X17676288Y-10931841D02*
X17645778Y-10962352D01*
X17821924Y-12702432D02*
X17852434Y-12732943D01*
X17852434Y-12702432D02*
X17821924Y-12732943D01*
X18024311Y-16802521D02*
X18054821Y-16833031D01*
X18054821Y-16802521D02*
X18024311Y-16833031D01*
X18272779Y-13665106D02*
X18303289Y-13695617D01*
X18303289Y-13665106D02*
X18272779Y-13695617D01*
X18397510Y-12119435D02*
X18428020Y-12149945D01*
X18428020Y-12119435D02*
X18397510Y-12149945D01*
X18477400Y-12040539D02*
X18507910Y-12071049D01*
X18507910Y-12040539D02*
X18477400Y-12071049D01*
X18595085Y-9576450D02*
X18625595Y-9606961D01*
X18625595Y-9576450D02*
X18595085Y-9606961D01*
X18758910Y-13757045D02*
X18789421Y-13787555D01*
X18789421Y-13757045D02*
X18758910Y-13787555D01*
X19133088Y-10931841D02*
X19163598Y-10962352D01*
X19163598Y-10931841D02*
X19133088Y-10962352D01*
X19195844Y-16538847D02*
X19226354Y-16569357D01*
X19226354Y-16538847D02*
X19195844Y-16569357D01*
X19197367Y-11023780D02*
X19227877Y-11054290D01*
X19227877Y-11023780D02*
X19197367Y-11054290D01*
X19497033Y-14461245D02*
X19527543Y-14491756D01*
X19527543Y-14461245D02*
X19497033Y-14491756D01*
X19557366Y-13001731D02*
X19587876Y-13032241D01*
X19587876Y-13001731D02*
X19557366Y-13032241D01*
X19638632Y-13158956D02*
X19669142Y-13189466D01*
X19669142Y-13158956D02*
X19638632Y-13189466D01*
X19758430Y-15670011D02*
X19788940Y-15700522D01*
X19788940Y-15670011D02*
X19758430Y-15700522D01*
X19970156Y-11889507D02*
X20000666Y-11920018D01*
X20000666Y-11889507D02*
X19970156Y-11920018D01*
X20123254Y-15686371D02*
X20153764Y-15716881D01*
X20153764Y-15686371D02*
X20123254Y-15716881D01*
X20459459Y-10169824D02*
X20489969Y-10200334D01*
X20489969Y-10169824D02*
X20459459Y-10200334D01*
X20919585Y-13563670D02*
X20950096Y-13594180D01*
X20950096Y-13563670D02*
X20919585Y-13594180D01*
X21397314Y-11014746D02*
X21427824Y-11045257D01*
X21427824Y-11014746D02*
X21397314Y-11045257D01*
X21397314Y-12284096D02*
X21427824Y-12314606D01*
X21427824Y-12284096D02*
X21397314Y-12314606D01*
X21397314Y-14822794D02*
X21427824Y-14853305D01*
X21427824Y-14822794D02*
X21397314Y-14853305D01*
X21397314Y-16092144D02*
X21427824Y-16122654D01*
X21427824Y-16092144D02*
X21397314Y-16122654D01*
X11951000Y-13316000D02*
G75*
G02*
X11871000Y-13316000I-40000J0D01*
G01*
X11871000Y-13316000D02*
G75*
G02*
X11951000Y-13316000I40000J0D01*
G01*
X11951000Y-14586000D02*
G75*
G02*
X11871000Y-14586000I-40000J0D01*
G01*
X11871000Y-14586000D02*
G75*
G02*
X11951000Y-14586000I40000J0D01*
G01*
X12205000Y-13316000D02*
G75*
G02*
X12125000Y-13316000I-40000J0D01*
G01*
X12125000Y-13316000D02*
G75*
G02*
X12205000Y-13316000I40000J0D01*
G01*
X12205000Y-14586000D02*
G75*
G02*
X12125000Y-14586000I-40000J0D01*
G01*
X12125000Y-14586000D02*
G75*
G02*
X12205000Y-14586000I40000J0D01*
G01*
X12459000Y-13316000D02*
G75*
G02*
X12379000Y-13316000I-40000J0D01*
G01*
X12379000Y-13316000D02*
G75*
G02*
X12459000Y-13316000I40000J0D01*
G01*
X12459000Y-14586000D02*
G75*
G02*
X12379000Y-14586000I-40000J0D01*
G01*
X12379000Y-14586000D02*
G75*
G02*
X12459000Y-14586000I40000J0D01*
G01*
X12713000Y-13316000D02*
G75*
G02*
X12633000Y-13316000I-40000J0D01*
G01*
X12633000Y-13316000D02*
G75*
G02*
X12713000Y-13316000I40000J0D01*
G01*
X12713000Y-14586000D02*
G75*
G02*
X12633000Y-14586000I-40000J0D01*
G01*
X12633000Y-14586000D02*
G75*
G02*
X12713000Y-14586000I40000J0D01*
G01*
X12967000Y-13316000D02*
G75*
G02*
X12887000Y-13316000I-40000J0D01*
G01*
X12887000Y-13316000D02*
G75*
G02*
X12967000Y-13316000I40000J0D01*
G01*
X12967000Y-14586000D02*
G75*
G02*
X12887000Y-14586000I-40000J0D01*
G01*
X12887000Y-14586000D02*
G75*
G02*
X12967000Y-14586000I40000J0D01*
G01*
X13221000Y-13316000D02*
G75*
G02*
X13141000Y-13316000I-40000J0D01*
G01*
X13141000Y-13316000D02*
G75*
G02*
X13221000Y-13316000I40000J0D01*
G01*
X13221000Y-14586000D02*
G75*
G02*
X13141000Y-14586000I-40000J0D01*
G01*
X13141000Y-14586000D02*
G75*
G02*
X13221000Y-14586000I40000J0D01*
G01*
X13475000Y-13316000D02*
G75*
G02*
X13395000Y-13316000I-40000J0D01*
G01*
X13395000Y-13316000D02*
G75*
G02*
X13475000Y-13316000I40000J0D01*
G01*
X13475000Y-14586000D02*
G75*
G02*
X13395000Y-14586000I-40000J0D01*
G01*
X13395000Y-14586000D02*
G75*
G02*
X13475000Y-14586000I40000J0D01*
G01*
X13729000Y-13316000D02*
G75*
G02*
X13649000Y-13316000I-40000J0D01*
G01*
X13649000Y-13316000D02*
G75*
G02*
X13729000Y-13316000I40000J0D01*
G01*
X13729000Y-14586000D02*
G75*
G02*
X13649000Y-14586000I-40000J0D01*
G01*
X13649000Y-14586000D02*
G75*
G02*
X13729000Y-14586000I40000J0D01*
G01*
X16158344Y-12380000D02*
G75*
G02*
X16078344Y-12380000I-40000J0D01*
G01*
X16078344Y-12380000D02*
G75*
G02*
X16158344Y-12380000I40000J0D01*
G01*
X16158616Y-14919632D02*
G75*
G02*
X16078616Y-14919632I-40000J0D01*
G01*
X16078616Y-14919632D02*
G75*
G02*
X16158616Y-14919632I40000J0D01*
G01*
X16412344Y-12380000D02*
G75*
G02*
X16332344Y-12380000I-40000J0D01*
G01*
X16332344Y-12380000D02*
G75*
G02*
X16412344Y-12380000I40000J0D01*
G01*
X16412616Y-14919632D02*
G75*
G02*
X16332616Y-14919632I-40000J0D01*
G01*
X16332616Y-14919632D02*
G75*
G02*
X16412616Y-14919632I40000J0D01*
G01*
X16666344Y-12380000D02*
G75*
G02*
X16586344Y-12380000I-40000J0D01*
G01*
X16586344Y-12380000D02*
G75*
G02*
X16666344Y-12380000I40000J0D01*
G01*
X16666344Y-14920000D02*
G75*
G02*
X16586344Y-14920000I-40000J0D01*
G01*
X16586344Y-14920000D02*
G75*
G02*
X16666344Y-14920000I40000J0D01*
G01*
X16920344Y-12380000D02*
G75*
G02*
X16840344Y-12380000I-40000J0D01*
G01*
X16840344Y-12380000D02*
G75*
G02*
X16920344Y-12380000I40000J0D01*
G01*
X16920344Y-14920000D02*
G75*
G02*
X16840344Y-14920000I-40000J0D01*
G01*
X16840344Y-14920000D02*
G75*
G02*
X16920344Y-14920000I40000J0D01*
G01*
X17174344Y-12380000D02*
G75*
G02*
X17094344Y-12380000I-40000J0D01*
G01*
X17094344Y-12380000D02*
G75*
G02*
X17174344Y-12380000I40000J0D01*
G01*
X17174344Y-14920000D02*
G75*
G02*
X17094344Y-14920000I-40000J0D01*
G01*
X17094344Y-14920000D02*
G75*
G02*
X17174344Y-14920000I40000J0D01*
G01*
X17428344Y-12380000D02*
G75*
G02*
X17348344Y-12380000I-40000J0D01*
G01*
X17348344Y-12380000D02*
G75*
G02*
X17428344Y-12380000I40000J0D01*
G01*
X17428344Y-14920000D02*
G75*
G02*
X17348344Y-14920000I-40000J0D01*
G01*
X17348344Y-14920000D02*
G75*
G02*
X17428344Y-14920000I40000J0D01*
G01*
X17682344Y-12380000D02*
G75*
G02*
X17602344Y-12380000I-40000J0D01*
G01*
X17602344Y-12380000D02*
G75*
G02*
X17682344Y-12380000I40000J0D01*
G01*
X17682344Y-14920000D02*
G75*
G02*
X17602344Y-14920000I-40000J0D01*
G01*
X17602344Y-14920000D02*
G75*
G02*
X17682344Y-14920000I40000J0D01*
G01*
X17936344Y-12380000D02*
G75*
G02*
X17856344Y-12380000I-40000J0D01*
G01*
X17856344Y-12380000D02*
G75*
G02*
X17936344Y-12380000I40000J0D01*
G01*
X17936344Y-14920000D02*
G75*
G02*
X17856344Y-14920000I-40000J0D01*
G01*
X17856344Y-14920000D02*
G75*
G02*
X17936344Y-14920000I40000J0D01*
G01*
X18190344Y-12380000D02*
G75*
G02*
X18110344Y-12380000I-40000J0D01*
G01*
X18110344Y-12380000D02*
G75*
G02*
X18190344Y-12380000I40000J0D01*
G01*
X18190344Y-14920000D02*
G75*
G02*
X18110344Y-14920000I-40000J0D01*
G01*
X18110344Y-14920000D02*
G75*
G02*
X18190344Y-14920000I40000J0D01*
G01*
X18444344Y-12380000D02*
G75*
G02*
X18364344Y-12380000I-40000J0D01*
G01*
X18364344Y-12380000D02*
G75*
G02*
X18444344Y-12380000I40000J0D01*
G01*
X18444344Y-14920000D02*
G75*
G02*
X18364344Y-14920000I-40000J0D01*
G01*
X18364344Y-14920000D02*
G75*
G02*
X18444344Y-14920000I40000J0D01*
G01*
X18698344Y-12380000D02*
G75*
G02*
X18618344Y-12380000I-40000J0D01*
G01*
X18618344Y-12380000D02*
G75*
G02*
X18698344Y-12380000I40000J0D01*
G01*
X18698344Y-14920000D02*
G75*
G02*
X18618344Y-14920000I-40000J0D01*
G01*
X18618344Y-14920000D02*
G75*
G02*
X18698344Y-14920000I40000J0D01*
G01*
X18952344Y-12380000D02*
G75*
G02*
X18872344Y-12380000I-40000J0D01*
G01*
X18872344Y-12380000D02*
G75*
G02*
X18952344Y-12380000I40000J0D01*
G01*
X18952344Y-14920000D02*
G75*
G02*
X18872344Y-14920000I-40000J0D01*
G01*
X18872344Y-14920000D02*
G75*
G02*
X18952344Y-14920000I40000J0D01*
G01*
X19206344Y-12380000D02*
G75*
G02*
X19126344Y-12380000I-40000J0D01*
G01*
X19126344Y-12380000D02*
G75*
G02*
X19206344Y-12380000I40000J0D01*
G01*
X19206344Y-14920000D02*
G75*
G02*
X19126344Y-14920000I-40000J0D01*
G01*
X19126344Y-14920000D02*
G75*
G02*
X19206344Y-14920000I40000J0D01*
G01*
X19460344Y-12380000D02*
G75*
G02*
X19380344Y-12380000I-40000J0D01*
G01*
X19380344Y-12380000D02*
G75*
G02*
X19460344Y-12380000I40000J0D01*
G01*
X19460344Y-14920000D02*
G75*
G02*
X19380344Y-14920000I-40000J0D01*
G01*
X19380344Y-14920000D02*
G75*
G02*
X19460344Y-14920000I40000J0D01*
G01*
X19714344Y-12380000D02*
G75*
G02*
X19634344Y-12380000I-40000J0D01*
G01*
X19634344Y-12380000D02*
G75*
G02*
X19714344Y-12380000I40000J0D01*
G01*
X19714344Y-14920000D02*
G75*
G02*
X19634344Y-14920000I-40000J0D01*
G01*
X19634344Y-14920000D02*
G75*
G02*
X19714344Y-14920000I40000J0D01*
G01*
X19968344Y-12380000D02*
G75*
G02*
X19888344Y-12380000I-40000J0D01*
G01*
X19888344Y-12380000D02*
G75*
G02*
X19968344Y-12380000I40000J0D01*
G01*
X19968344Y-14920000D02*
G75*
G02*
X19888344Y-14920000I-40000J0D01*
G01*
X19888344Y-14920000D02*
G75*
G02*
X19968344Y-14920000I40000J0D01*
G01*
X20222344Y-12380000D02*
G75*
G02*
X20142344Y-12380000I-40000J0D01*
G01*
X20142344Y-12380000D02*
G75*
G02*
X20222344Y-12380000I40000J0D01*
G01*
X20222344Y-14920000D02*
G75*
G02*
X20142344Y-14920000I-40000J0D01*
G01*
X20142344Y-14920000D02*
G75*
G02*
X20222344Y-14920000I40000J0D01*
G01*
X20476344Y-12380000D02*
G75*
G02*
X20396344Y-12380000I-40000J0D01*
G01*
X20396344Y-12380000D02*
G75*
G02*
X20476344Y-12380000I40000J0D01*
G01*
X20476344Y-14920000D02*
G75*
G02*
X20396344Y-14920000I-40000J0D01*
G01*
X20396344Y-14920000D02*
G75*
G02*
X20476344Y-14920000I40000J0D01*
G01*
X20730344Y-12380000D02*
G75*
G02*
X20650344Y-12380000I-40000J0D01*
G01*
X20650344Y-12380000D02*
G75*
G02*
X20730344Y-12380000I40000J0D01*
G01*
X20730344Y-14920000D02*
G75*
G02*
X20650344Y-14920000I-40000J0D01*
G01*
X20650344Y-14920000D02*
G75*
G02*
X20730344Y-14920000I40000J0D01*
G01*
X4510490Y-9635370D02*
X4510490Y-9716650D01*
X4469850Y-9676010D02*
X4551130Y-9676010D01*
X4710490Y-9635370D02*
X4710490Y-9716650D01*
X4669850Y-9676010D02*
X4751130Y-9676010D01*
X4910490Y-9635370D02*
X4910490Y-9716650D01*
X4869850Y-9676010D02*
X4951130Y-9676010D01*
X5110490Y-9635370D02*
X5110490Y-9716650D01*
X5069850Y-9676010D02*
X5151130Y-9676010D01*
X5310490Y-9635370D02*
X5310490Y-9716650D01*
X5269850Y-9676010D02*
X5351130Y-9676010D01*
X6088848Y-9632390D02*
X6088848Y-9713670D01*
X6048208Y-9673030D02*
X6129488Y-9673030D01*
X6288848Y-9632390D02*
X6288848Y-9713670D01*
X6248208Y-9673030D02*
X6329488Y-9673030D01*
X6488848Y-9632390D02*
X6488848Y-9713670D01*
X6448208Y-9673030D02*
X6529488Y-9673030D01*
X6688848Y-9632390D02*
X6688848Y-9713670D01*
X6648208Y-9673030D02*
X6729488Y-9673030D01*
X6888848Y-9632390D02*
X6888848Y-9713670D01*
X6848208Y-9673030D02*
X6929488Y-9673030D01*
X7660490Y-9635370D02*
X7660490Y-9716650D01*
X7619850Y-9676010D02*
X7701130Y-9676010D01*
X7860490Y-9635370D02*
X7860490Y-9716650D01*
X7819850Y-9676010D02*
X7901130Y-9676010D01*
X8060490Y-9635370D02*
X8060490Y-9716650D01*
X8019850Y-9676010D02*
X8101130Y-9676010D01*
X8260490Y-9635370D02*
X8260490Y-9716650D01*
X8219850Y-9676010D02*
X8301130Y-9676010D01*
X8460490Y-9635370D02*
X8460490Y-9716650D01*
X8419850Y-9676010D02*
X8501130Y-9676010D01*
X9310490Y-9635370D02*
X9310490Y-9716650D01*
X9269850Y-9676010D02*
X9351130Y-9676010D01*
X9510490Y-9635370D02*
X9510490Y-9716650D01*
X9469850Y-9676010D02*
X9551130Y-9676010D01*
X9710490Y-9635370D02*
X9710490Y-9716650D01*
X9669850Y-9676010D02*
X9751130Y-9676010D01*
X9910490Y-9635370D02*
X9910490Y-9716650D01*
X9869850Y-9676010D02*
X9951130Y-9676010D01*
X10110490Y-9635370D02*
X10110490Y-9716650D01*
X10069850Y-9676010D02*
X10151130Y-9676010D01*
X10960490Y-9635370D02*
X10960490Y-9716650D01*
X10919850Y-9676010D02*
X11001130Y-9676010D01*
X11160490Y-9635370D02*
X11160490Y-9716650D01*
X11119850Y-9676010D02*
X11201130Y-9676010D01*
X11360490Y-9635370D02*
X11360490Y-9716650D01*
X11319850Y-9676010D02*
X11401130Y-9676010D01*
X11560490Y-9635370D02*
X11560490Y-9716650D01*
X11519850Y-9676010D02*
X11601130Y-9676010D01*
X11760490Y-9635370D02*
X11760490Y-9716650D01*
X11719850Y-9676010D02*
X11801130Y-9676010D01*
X12510490Y-9635370D02*
X12510490Y-9716650D01*
X12469850Y-9676010D02*
X12551130Y-9676010D01*
X12710490Y-9635370D02*
X12710490Y-9716650D01*
X12669850Y-9676010D02*
X12751130Y-9676010D01*
X12910490Y-9635370D02*
X12910490Y-9716650D01*
X12869850Y-9676010D02*
X12951130Y-9676010D01*
X13110490Y-9635370D02*
X13110490Y-9716650D01*
X13069850Y-9676010D02*
X13151130Y-9676010D01*
X13310490Y-9635370D02*
X13310490Y-9716650D01*
X13269850Y-9676010D02*
X13351130Y-9676010D01*
X7148119Y-10554866D02*
X7148119Y-10492004D01*
X7085256Y-10492004D01*
X7085256Y-10554866D01*
X7148119Y-10554866D01*
X7148119Y-11444882D02*
X7148119Y-11382020D01*
X7085256Y-11382020D01*
X7085256Y-11444882D01*
X7148119Y-11444882D01*
X2607000Y-17067000D02*
X2653000Y-17021000D01*
X2607000Y-16975000D01*
X2561000Y-17021000D01*
X2607000Y-17067000D01*
X2643000Y-9702750D02*
X2689000Y-9656750D01*
X2643000Y-9610750D01*
X2597000Y-9656750D01*
X2643000Y-9702750D01*
X2857000Y-17067000D02*
X2903000Y-17021000D01*
X2857000Y-16975000D01*
X2811000Y-17021000D01*
X2857000Y-17067000D01*
X2893000Y-9702750D02*
X2939000Y-9656750D01*
X2893000Y-9610750D01*
X2847000Y-9656750D01*
X2893000Y-9702750D01*
X3057000Y-17067000D02*
X3103000Y-17021000D01*
X3057000Y-16975000D01*
X3011000Y-17021000D01*
X3057000Y-17067000D01*
X3093000Y-9702750D02*
X3139000Y-9656750D01*
X3093000Y-9610750D01*
X3047000Y-9656750D01*
X3093000Y-9702750D01*
X3307000Y-17067000D02*
X3353000Y-17021000D01*
X3307000Y-16975000D01*
X3261000Y-17021000D01*
X3307000Y-17067000D01*
X3343000Y-9702750D02*
X3389000Y-9656750D01*
X3343000Y-9610750D01*
X3297000Y-9656750D01*
X3343000Y-9702750D01*
X5150470Y-16150470D02*
X5249530Y-16249530D01*
X5249530Y-16150470D02*
X5150470Y-16249530D01*
X5249530Y-16200000D02*
G75*
G02*
X5150470Y-16200000I-49530J0D01*
G01*
X5150470Y-16200000D02*
G75*
G02*
X5249530Y-16200000I49530J0D01*
G01*
X5500470Y-16650470D02*
X5599530Y-16749530D01*
X5599530Y-16650470D02*
X5500470Y-16749530D01*
X5599530Y-16700000D02*
G75*
G02*
X5500470Y-16700000I-49530J0D01*
G01*
X5500470Y-16700000D02*
G75*
G02*
X5599530Y-16700000I49530J0D01*
G01*
X5850470Y-16150470D02*
X5949530Y-16249530D01*
X5949530Y-16150470D02*
X5850470Y-16249530D01*
X5949530Y-16200000D02*
G75*
G02*
X5850470Y-16200000I-49530J0D01*
G01*
X5850470Y-16200000D02*
G75*
G02*
X5949530Y-16200000I49530J0D01*
G01*
X6200470Y-16650470D02*
X6299530Y-16749530D01*
X6299530Y-16650470D02*
X6200470Y-16749530D01*
X6299530Y-16700000D02*
G75*
G02*
X6200470Y-16700000I-49530J0D01*
G01*
X6200470Y-16700000D02*
G75*
G02*
X6299530Y-16700000I49530J0D01*
G01*
X6550470Y-16150470D02*
X6649530Y-16249530D01*
X6649530Y-16150470D02*
X6550470Y-16249530D01*
X6649530Y-16200000D02*
G75*
G02*
X6550470Y-16200000I-49530J0D01*
G01*
X6550470Y-16200000D02*
G75*
G02*
X6649530Y-16200000I49530J0D01*
G01*
X6900470Y-16650470D02*
X6999530Y-16749530D01*
X6999530Y-16650470D02*
X6900470Y-16749530D01*
X6999530Y-16700000D02*
G75*
G02*
X6900470Y-16700000I-49530J0D01*
G01*
X6900470Y-16700000D02*
G75*
G02*
X6999530Y-16700000I49530J0D01*
G01*
X7850470Y-16150470D02*
X7949530Y-16249530D01*
X7949530Y-16150470D02*
X7850470Y-16249530D01*
X7949530Y-16200000D02*
G75*
G02*
X7850470Y-16200000I-49530J0D01*
G01*
X7850470Y-16200000D02*
G75*
G02*
X7949530Y-16200000I49530J0D01*
G01*
X8200470Y-16650470D02*
X8299530Y-16749530D01*
X8299530Y-16650470D02*
X8200470Y-16749530D01*
X8299530Y-16700000D02*
G75*
G02*
X8200470Y-16700000I-49530J0D01*
G01*
X8200470Y-16700000D02*
G75*
G02*
X8299530Y-16700000I49530J0D01*
G01*
X8550470Y-16150470D02*
X8649530Y-16249530D01*
X8649530Y-16150470D02*
X8550470Y-16249530D01*
X8649530Y-16200000D02*
G75*
G02*
X8550470Y-16200000I-49530J0D01*
G01*
X8550470Y-16200000D02*
G75*
G02*
X8649530Y-16200000I49530J0D01*
G01*
X8900470Y-16650470D02*
X8999530Y-16749530D01*
X8999530Y-16650470D02*
X8900470Y-16749530D01*
X8999530Y-16700000D02*
G75*
G02*
X8900470Y-16700000I-49530J0D01*
G01*
X8900470Y-16700000D02*
G75*
G02*
X8999530Y-16700000I49530J0D01*
G01*
X9250470Y-16150470D02*
X9349530Y-16249530D01*
X9349530Y-16150470D02*
X9250470Y-16249530D01*
X9349530Y-16200000D02*
G75*
G02*
X9250470Y-16200000I-49530J0D01*
G01*
X9250470Y-16200000D02*
G75*
G02*
X9349530Y-16200000I49530J0D01*
G01*
X9600470Y-16650470D02*
X9699530Y-16749530D01*
X9699530Y-16650470D02*
X9600470Y-16749530D01*
X9699530Y-16700000D02*
G75*
G02*
X9600470Y-16700000I-49530J0D01*
G01*
X9600470Y-16700000D02*
G75*
G02*
X9699530Y-16700000I49530J0D01*
G01*
X10400470Y-16150470D02*
X10499530Y-16249530D01*
X10499530Y-16150470D02*
X10400470Y-16249530D01*
X10499530Y-16200000D02*
G75*
G02*
X10400470Y-16200000I-49530J0D01*
G01*
X10400470Y-16200000D02*
G75*
G02*
X10499530Y-16200000I49530J0D01*
G01*
X10750470Y-16650470D02*
X10849530Y-16749530D01*
X10849530Y-16650470D02*
X10750470Y-16749530D01*
X10849530Y-16700000D02*
G75*
G02*
X10750470Y-16700000I-49530J0D01*
G01*
X10750470Y-16700000D02*
G75*
G02*
X10849530Y-16700000I49530J0D01*
G01*
X11100470Y-16150470D02*
X11199530Y-16249530D01*
X11199530Y-16150470D02*
X11100470Y-16249530D01*
X11199530Y-16200000D02*
G75*
G02*
X11100470Y-16200000I-49530J0D01*
G01*
X11100470Y-16200000D02*
G75*
G02*
X11199530Y-16200000I49530J0D01*
G01*
X11450470Y-16650470D02*
X11549530Y-16749530D01*
X11549530Y-16650470D02*
X11450470Y-16749530D01*
X11549530Y-16700000D02*
G75*
G02*
X11450470Y-16700000I-49530J0D01*
G01*
X11450470Y-16700000D02*
G75*
G02*
X11549530Y-16700000I49530J0D01*
G01*
X11800470Y-16150470D02*
X11899530Y-16249530D01*
X11899530Y-16150470D02*
X11800470Y-16249530D01*
X11899530Y-16200000D02*
G75*
G02*
X11800470Y-16200000I-49530J0D01*
G01*
X11800470Y-16200000D02*
G75*
G02*
X11899530Y-16200000I49530J0D01*
G01*
X12150470Y-16650470D02*
X12249530Y-16749530D01*
X12249530Y-16650470D02*
X12150470Y-16749530D01*
X12249530Y-16700000D02*
G75*
G02*
X12150470Y-16700000I-49530J0D01*
G01*
X12150470Y-16700000D02*
G75*
G02*
X12249530Y-16700000I49530J0D01*
G01*
X13947130Y-9831200D02*
X14046190Y-9930260D01*
X14046190Y-9831200D02*
X13947130Y-9930260D01*
X14046190Y-9880730D02*
G75*
G02*
X13947130Y-9880730I-49530J0D01*
G01*
X13947130Y-9880730D02*
G75*
G02*
X14046190Y-9880730I49530J0D01*
G01*
X14197130Y-9831200D02*
X14296190Y-9930260D01*
X14296190Y-9831200D02*
X14197130Y-9930260D01*
X14296190Y-9880730D02*
G75*
G02*
X14197130Y-9880730I-49530J0D01*
G01*
X14197130Y-9880730D02*
G75*
G02*
X14296190Y-9880730I49530J0D01*
G01*
X14447130Y-9831200D02*
X14546190Y-9930260D01*
X14546190Y-9831200D02*
X14447130Y-9930260D01*
X14546190Y-9880730D02*
G75*
G02*
X14447130Y-9880730I-49530J0D01*
G01*
X14447130Y-9880730D02*
G75*
G02*
X14546190Y-9880730I49530J0D01*
G01*
X15197130Y-9853450D02*
X15296190Y-9952510D01*
X15296190Y-9853450D02*
X15197130Y-9952510D01*
X15296190Y-9902980D02*
G75*
G02*
X15197130Y-9902980I-49530J0D01*
G01*
X15197130Y-9902980D02*
G75*
G02*
X15296190Y-9902980I49530J0D01*
G01*
X15447130Y-9853450D02*
X15546190Y-9952510D01*
X15546190Y-9853450D02*
X15447130Y-9952510D01*
X15546190Y-9902980D02*
G75*
G02*
X15447130Y-9902980I-49530J0D01*
G01*
X15447130Y-9902980D02*
G75*
G02*
X15546190Y-9902980I49530J0D01*
G01*
X15697130Y-9853450D02*
X15796190Y-9952510D01*
X15796190Y-9853450D02*
X15697130Y-9952510D01*
X15796190Y-9902980D02*
G75*
G02*
X15697130Y-9902980I-49530J0D01*
G01*
X15697130Y-9902980D02*
G75*
G02*
X15796190Y-9902980I49530J0D01*
G01*
X16450470Y-9828220D02*
X16549530Y-9927280D01*
X16549530Y-9828220D02*
X16450470Y-9927280D01*
X16549530Y-9877750D02*
G75*
G02*
X16450470Y-9877750I-49530J0D01*
G01*
X16450470Y-9877750D02*
G75*
G02*
X16549530Y-9877750I49530J0D01*
G01*
X16700470Y-9828220D02*
X16799530Y-9927280D01*
X16799530Y-9828220D02*
X16700470Y-9927280D01*
X16799530Y-9877750D02*
G75*
G02*
X16700470Y-9877750I-49530J0D01*
G01*
X16700470Y-9877750D02*
G75*
G02*
X16799530Y-9877750I49530J0D01*
G01*
X16950470Y-9828220D02*
X17049530Y-9927280D01*
X17049530Y-9828220D02*
X16950470Y-9927280D01*
X17049530Y-9877750D02*
G75*
G02*
X16950470Y-9877750I-49530J0D01*
G01*
X16950470Y-9877750D02*
G75*
G02*
X17049530Y-9877750I49530J0D01*
G01*
X17700470Y-9828220D02*
X17799530Y-9927280D01*
X17799530Y-9828220D02*
X17700470Y-9927280D01*
X17799530Y-9877750D02*
G75*
G02*
X17700470Y-9877750I-49530J0D01*
G01*
X17700470Y-9877750D02*
G75*
G02*
X17799530Y-9877750I49530J0D01*
G01*
X17950470Y-9828220D02*
X18049530Y-9927280D01*
X18049530Y-9828220D02*
X17950470Y-9927280D01*
X18049530Y-9877750D02*
G75*
G02*
X17950470Y-9877750I-49530J0D01*
G01*
X17950470Y-9877750D02*
G75*
G02*
X18049530Y-9877750I49530J0D01*
G01*
X18200470Y-9828220D02*
X18299530Y-9927280D01*
X18299530Y-9828220D02*
X18200470Y-9927280D01*
X18299530Y-9877750D02*
G75*
G02*
X18200470Y-9877750I-49530J0D01*
G01*
X18200470Y-9877750D02*
G75*
G02*
X18299530Y-9877750I49530J0D01*
G01*
X19000470Y-9828220D02*
X19099530Y-9927280D01*
X19099530Y-9828220D02*
X19000470Y-9927280D01*
X19099530Y-9877750D02*
G75*
G02*
X19000470Y-9877750I-49530J0D01*
G01*
X19000470Y-9877750D02*
G75*
G02*
X19099530Y-9877750I49530J0D01*
G01*
X19250470Y-9828220D02*
X19349530Y-9927280D01*
X19349530Y-9828220D02*
X19250470Y-9927280D01*
X19349530Y-9877750D02*
G75*
G02*
X19250470Y-9877750I-49530J0D01*
G01*
X19250470Y-9877750D02*
G75*
G02*
X19349530Y-9877750I49530J0D01*
G01*
X19500470Y-9828220D02*
X19599530Y-9927280D01*
X19599530Y-9828220D02*
X19500470Y-9927280D01*
X19599530Y-9877750D02*
G75*
G02*
X19500470Y-9877750I-49530J0D01*
G01*
X19500470Y-9877750D02*
G75*
G02*
X19599530Y-9877750I49530J0D01*
G01*
X20322112Y-9831200D02*
X20421172Y-9930260D01*
X20421172Y-9831200D02*
X20322112Y-9930260D01*
X20421172Y-9880730D02*
G75*
G02*
X20322112Y-9880730I-49530J0D01*
G01*
X20322112Y-9880730D02*
G75*
G02*
X20421172Y-9880730I49530J0D01*
G01*
X20572124Y-9831200D02*
X20671184Y-9930260D01*
X20671184Y-9831200D02*
X20572124Y-9930260D01*
X20671184Y-9880730D02*
G75*
G02*
X20572124Y-9880730I-49530J0D01*
G01*
X20572124Y-9880730D02*
G75*
G02*
X20671184Y-9880730I49530J0D01*
G01*
X20822136Y-9831200D02*
X20921196Y-9930260D01*
X20921196Y-9831200D02*
X20822136Y-9930260D01*
X20921196Y-9880730D02*
G75*
G02*
X20822136Y-9880730I-49530J0D01*
G01*
X20822136Y-9880730D02*
G75*
G02*
X20921196Y-9880730I49530J0D01*
G01*
X21072148Y-9831200D02*
X21171208Y-9930260D01*
X21171208Y-9831200D02*
X21072148Y-9930260D01*
X21171208Y-9880730D02*
G75*
G02*
X21072148Y-9880730I-49530J0D01*
G01*
X21072148Y-9880730D02*
G75*
G02*
X21171208Y-9880730I49530J0D01*
G01*
D13*
X6510745Y-11064417D02*
X6620745Y-11174417D01*
X6620745Y-11064417D02*
X6510745Y-11174417D01*
X6565745Y-11064417D02*
X6565745Y-11174417D01*
X6510745Y-11119417D02*
X6620745Y-11119417D01*
X6510745Y-12080417D02*
X6620745Y-12190417D01*
X6620745Y-12080417D02*
X6510745Y-12190417D01*
X6565745Y-12080417D02*
X6565745Y-12190417D01*
X6510745Y-12135417D02*
X6620745Y-12135417D01*
X8034182Y-10761614D02*
X8144182Y-10871614D01*
X8144182Y-10761614D02*
X8034182Y-10871614D01*
X8089182Y-10761614D02*
X8089182Y-10871614D01*
X8034182Y-10816614D02*
X8144182Y-10816614D01*
X8034182Y-11777614D02*
X8144182Y-11887614D01*
X8144182Y-11777614D02*
X8034182Y-11887614D01*
X8089182Y-11777614D02*
X8089182Y-11887614D01*
X8034182Y-11832614D02*
X8144182Y-11832614D01*
X11024729Y-12736726D02*
X11134729Y-12846726D01*
X11134729Y-12736726D02*
X11024729Y-12846726D01*
X11079729Y-12736726D02*
X11079729Y-12846726D01*
X11024729Y-12791726D02*
X11134729Y-12791726D01*
X12040729Y-12736726D02*
X12150729Y-12846726D01*
X12150729Y-12736726D02*
X12040729Y-12846726D01*
X12095729Y-12736726D02*
X12095729Y-12846726D01*
X12040729Y-12791726D02*
X12150729Y-12791726D01*
X12091136Y-12023618D02*
X12201136Y-12133618D01*
X12201136Y-12023618D02*
X12091136Y-12133618D01*
X12146136Y-12023618D02*
X12146136Y-12133618D01*
X12091136Y-12078618D02*
X12201136Y-12078618D01*
X13107136Y-12023618D02*
X13217136Y-12133618D01*
X13217136Y-12023618D02*
X13107136Y-12133618D01*
X13162136Y-12023618D02*
X13162136Y-12133618D01*
X13107136Y-12078618D02*
X13217136Y-12078618D01*
D14*
X11422245Y-11705221D02*
X11546245Y-11829221D01*
X11546245Y-11705221D02*
X11422245Y-11829221D01*
X11528086Y-11811062D02*
X11528086Y-11723380D01*
X11440404Y-11723380D01*
X11440404Y-11811062D01*
X11528086Y-11811062D01*
X11422245Y-11959221D02*
X11546245Y-12083221D01*
X11546245Y-11959221D02*
X11422245Y-12083221D01*
X11528086Y-12065062D02*
X11528086Y-11977380D01*
X11440404Y-11977380D01*
X11440404Y-12065062D01*
X11528086Y-12065062D01*
X11422245Y-12213221D02*
X11546245Y-12337221D01*
X11546245Y-12213221D02*
X11422245Y-12337221D01*
X11528086Y-12319062D02*
X11528086Y-12231380D01*
X11440404Y-12231380D01*
X11440404Y-12319062D01*
X11528086Y-12319062D01*
D15*
X2185000Y-16635000D02*
X2415000Y-16865000D01*
X2415000Y-16635000D02*
X2185000Y-16865000D01*
X2300000Y-16865000D02*
X2415000Y-16750000D01*
X2300000Y-16635000D01*
X2185000Y-16750000D01*
X2300000Y-16865000D01*
X2221000Y-9812750D02*
X2451000Y-10042750D01*
X2451000Y-9812750D02*
X2221000Y-10042750D01*
X2336000Y-10042750D02*
X2451000Y-9927750D01*
X2336000Y-9812750D01*
X2221000Y-9927750D01*
X2336000Y-10042750D01*
X3499000Y-16635000D02*
X3729000Y-16865000D01*
X3729000Y-16635000D02*
X3499000Y-16865000D01*
X3614000Y-16865000D02*
X3729000Y-16750000D01*
X3614000Y-16635000D01*
X3499000Y-16750000D01*
X3614000Y-16865000D01*
X3535000Y-9812750D02*
X3765000Y-10042750D01*
X3765000Y-9812750D02*
X3535000Y-10042750D01*
X3650000Y-10042750D02*
X3765000Y-9927750D01*
X3650000Y-9812750D01*
X3535000Y-9927750D01*
X3650000Y-10042750D01*
D11*
X2283277Y-17663984D02*
X2283277Y-17463984D01*
X2283277Y-17463984D02*
X2330896Y-17463984D01*
X2330896Y-17463984D02*
X2359467Y-17473508D01*
X2359467Y-17473508D02*
X2378515Y-17492555D01*
X2378515Y-17492555D02*
X2388039Y-17511603D01*
X2388039Y-17511603D02*
X2397563Y-17549698D01*
X2397563Y-17549698D02*
X2397563Y-17578270D01*
X2397563Y-17578270D02*
X2388039Y-17616365D01*
X2388039Y-17616365D02*
X2378515Y-17635412D01*
X2378515Y-17635412D02*
X2359467Y-17654460D01*
X2359467Y-17654460D02*
X2330896Y-17663984D01*
X2330896Y-17663984D02*
X2283277Y-17663984D01*
X2483277Y-17663984D02*
X2483277Y-17530650D01*
X2483277Y-17568746D02*
X2492801Y-17549698D01*
X2492801Y-17549698D02*
X2502324Y-17540174D01*
X2502324Y-17540174D02*
X2521372Y-17530650D01*
X2521372Y-17530650D02*
X2540420Y-17530650D01*
X2607086Y-17663984D02*
X2607086Y-17530650D01*
X2607086Y-17463984D02*
X2597563Y-17473508D01*
X2597563Y-17473508D02*
X2607086Y-17483031D01*
X2607086Y-17483031D02*
X2616610Y-17473508D01*
X2616610Y-17473508D02*
X2607086Y-17463984D01*
X2607086Y-17463984D02*
X2607086Y-17483031D01*
X2730896Y-17663984D02*
X2711848Y-17654460D01*
X2711848Y-17654460D02*
X2702324Y-17635412D01*
X2702324Y-17635412D02*
X2702324Y-17463984D01*
X2835658Y-17663984D02*
X2816610Y-17654460D01*
X2816610Y-17654460D02*
X2807086Y-17635412D01*
X2807086Y-17635412D02*
X2807086Y-17463984D01*
X3064229Y-17663984D02*
X3064229Y-17463984D01*
X3064229Y-17463984D02*
X3130896Y-17606841D01*
X3130896Y-17606841D02*
X3197562Y-17463984D01*
X3197562Y-17463984D02*
X3197562Y-17663984D01*
X3378515Y-17663984D02*
X3378515Y-17559222D01*
X3378515Y-17559222D02*
X3368991Y-17540174D01*
X3368991Y-17540174D02*
X3349943Y-17530650D01*
X3349943Y-17530650D02*
X3311848Y-17530650D01*
X3311848Y-17530650D02*
X3292801Y-17540174D01*
X3378515Y-17654460D02*
X3359467Y-17663984D01*
X3359467Y-17663984D02*
X3311848Y-17663984D01*
X3311848Y-17663984D02*
X3292801Y-17654460D01*
X3292801Y-17654460D02*
X3283277Y-17635412D01*
X3283277Y-17635412D02*
X3283277Y-17616365D01*
X3283277Y-17616365D02*
X3292801Y-17597317D01*
X3292801Y-17597317D02*
X3311848Y-17587793D01*
X3311848Y-17587793D02*
X3359467Y-17587793D01*
X3359467Y-17587793D02*
X3378515Y-17578270D01*
X3473753Y-17530650D02*
X3473753Y-17730650D01*
X3473753Y-17540174D02*
X3492801Y-17530650D01*
X3492801Y-17530650D02*
X3530896Y-17530650D01*
X3530896Y-17530650D02*
X3549943Y-17540174D01*
X3549943Y-17540174D02*
X3559467Y-17549698D01*
X3559467Y-17549698D02*
X3568991Y-17568746D01*
X3568991Y-17568746D02*
X3568991Y-17625889D01*
X3568991Y-17625889D02*
X3559467Y-17644936D01*
X3559467Y-17644936D02*
X3549943Y-17654460D01*
X3549943Y-17654460D02*
X3530896Y-17663984D01*
X3530896Y-17663984D02*
X3492801Y-17663984D01*
X3492801Y-17663984D02*
X3473753Y-17654460D01*
X3654705Y-17644936D02*
X3664229Y-17654460D01*
X3664229Y-17654460D02*
X3654705Y-17663984D01*
X3654705Y-17663984D02*
X3645182Y-17654460D01*
X3645182Y-17654460D02*
X3654705Y-17644936D01*
X3654705Y-17644936D02*
X3654705Y-17663984D01*
X3654705Y-17540174D02*
X3664229Y-17549698D01*
X3664229Y-17549698D02*
X3654705Y-17559222D01*
X3654705Y-17559222D02*
X3645182Y-17549698D01*
X3645182Y-17549698D02*
X3654705Y-17540174D01*
X3654705Y-17540174D02*
X3654705Y-17559222D01*
D12*
X1991990Y-17977245D02*
X2022500Y-18007755D01*
X2022500Y-17977245D02*
X1991990Y-18007755D01*
D11*
X2321372Y-17883984D02*
X2340420Y-17883984D01*
X2340420Y-17883984D02*
X2359467Y-17893508D01*
X2359467Y-17893508D02*
X2368991Y-17903031D01*
X2368991Y-17903031D02*
X2378515Y-17922079D01*
X2378515Y-17922079D02*
X2388039Y-17960174D01*
X2388039Y-17960174D02*
X2388039Y-18007793D01*
X2388039Y-18007793D02*
X2378515Y-18045889D01*
X2378515Y-18045889D02*
X2368991Y-18064936D01*
X2368991Y-18064936D02*
X2359467Y-18074460D01*
X2359467Y-18074460D02*
X2340420Y-18083984D01*
X2340420Y-18083984D02*
X2321372Y-18083984D01*
X2321372Y-18083984D02*
X2302324Y-18074460D01*
X2302324Y-18074460D02*
X2292801Y-18064936D01*
X2292801Y-18064936D02*
X2283277Y-18045889D01*
X2283277Y-18045889D02*
X2273753Y-18007793D01*
X2273753Y-18007793D02*
X2273753Y-17960174D01*
X2273753Y-17960174D02*
X2283277Y-17922079D01*
X2283277Y-17922079D02*
X2292801Y-17903031D01*
X2292801Y-17903031D02*
X2302324Y-17893508D01*
X2302324Y-17893508D02*
X2321372Y-17883984D01*
X2473753Y-18064936D02*
X2483277Y-18074460D01*
X2483277Y-18074460D02*
X2473753Y-18083984D01*
X2473753Y-18083984D02*
X2464229Y-18074460D01*
X2464229Y-18074460D02*
X2473753Y-18064936D01*
X2473753Y-18064936D02*
X2473753Y-18083984D01*
X2549944Y-17883984D02*
X2673753Y-17883984D01*
X2673753Y-17883984D02*
X2607086Y-17960174D01*
X2607086Y-17960174D02*
X2635658Y-17960174D01*
X2635658Y-17960174D02*
X2654705Y-17969698D01*
X2654705Y-17969698D02*
X2664229Y-17979222D01*
X2664229Y-17979222D02*
X2673753Y-17998270D01*
X2673753Y-17998270D02*
X2673753Y-18045889D01*
X2673753Y-18045889D02*
X2664229Y-18064936D01*
X2664229Y-18064936D02*
X2654705Y-18074460D01*
X2654705Y-18074460D02*
X2635658Y-18083984D01*
X2635658Y-18083984D02*
X2578515Y-18083984D01*
X2578515Y-18083984D02*
X2559467Y-18074460D01*
X2559467Y-18074460D02*
X2549944Y-18064936D01*
X2797562Y-17883984D02*
X2816610Y-17883984D01*
X2816610Y-17883984D02*
X2835658Y-17893508D01*
X2835658Y-17893508D02*
X2845182Y-17903031D01*
X2845182Y-17903031D02*
X2854705Y-17922079D01*
X2854705Y-17922079D02*
X2864229Y-17960174D01*
X2864229Y-17960174D02*
X2864229Y-18007793D01*
X2864229Y-18007793D02*
X2854705Y-18045889D01*
X2854705Y-18045889D02*
X2845182Y-18064936D01*
X2845182Y-18064936D02*
X2835658Y-18074460D01*
X2835658Y-18074460D02*
X2816610Y-18083984D01*
X2816610Y-18083984D02*
X2797562Y-18083984D01*
X2797562Y-18083984D02*
X2778515Y-18074460D01*
X2778515Y-18074460D02*
X2768991Y-18064936D01*
X2768991Y-18064936D02*
X2759467Y-18045889D01*
X2759467Y-18045889D02*
X2749944Y-18007793D01*
X2749944Y-18007793D02*
X2749944Y-17960174D01*
X2749944Y-17960174D02*
X2759467Y-17922079D01*
X2759467Y-17922079D02*
X2768991Y-17903031D01*
X2768991Y-17903031D02*
X2778515Y-17893508D01*
X2778515Y-17893508D02*
X2797562Y-17883984D01*
X3045182Y-17883984D02*
X2949943Y-17883984D01*
X2949943Y-17883984D02*
X2940420Y-17979222D01*
X2940420Y-17979222D02*
X2949943Y-17969698D01*
X2949943Y-17969698D02*
X2968991Y-17960174D01*
X2968991Y-17960174D02*
X3016610Y-17960174D01*
X3016610Y-17960174D02*
X3035658Y-17969698D01*
X3035658Y-17969698D02*
X3045182Y-17979222D01*
X3045182Y-17979222D02*
X3054705Y-17998270D01*
X3054705Y-17998270D02*
X3054705Y-18045889D01*
X3054705Y-18045889D02*
X3045182Y-18064936D01*
X3045182Y-18064936D02*
X3035658Y-18074460D01*
X3035658Y-18074460D02*
X3016610Y-18083984D01*
X3016610Y-18083984D02*
X2968991Y-18083984D01*
X2968991Y-18083984D02*
X2949943Y-18074460D01*
X2949943Y-18074460D02*
X2940420Y-18064936D01*
X3140420Y-18083984D02*
X3140420Y-17950650D01*
X3140420Y-17969698D02*
X3149943Y-17960174D01*
X3149943Y-17960174D02*
X3168991Y-17950650D01*
X3168991Y-17950650D02*
X3197563Y-17950650D01*
X3197563Y-17950650D02*
X3216610Y-17960174D01*
X3216610Y-17960174D02*
X3226134Y-17979222D01*
X3226134Y-17979222D02*
X3226134Y-18083984D01*
X3226134Y-17979222D02*
X3235658Y-17960174D01*
X3235658Y-17960174D02*
X3254705Y-17950650D01*
X3254705Y-17950650D02*
X3283277Y-17950650D01*
X3283277Y-17950650D02*
X3302324Y-17960174D01*
X3302324Y-17960174D02*
X3311848Y-17979222D01*
X3311848Y-17979222D02*
X3311848Y-18083984D01*
X3407086Y-18083984D02*
X3407086Y-17950650D01*
X3407086Y-17969698D02*
X3416610Y-17960174D01*
X3416610Y-17960174D02*
X3435658Y-17950650D01*
X3435658Y-17950650D02*
X3464229Y-17950650D01*
X3464229Y-17950650D02*
X3483277Y-17960174D01*
X3483277Y-17960174D02*
X3492801Y-17979222D01*
X3492801Y-17979222D02*
X3492801Y-18083984D01*
X3492801Y-17979222D02*
X3502324Y-17960174D01*
X3502324Y-17960174D02*
X3521372Y-17950650D01*
X3521372Y-17950650D02*
X3549943Y-17950650D01*
X3549943Y-17950650D02*
X3568991Y-17960174D01*
X3568991Y-17960174D02*
X3578515Y-17979222D01*
X3578515Y-17979222D02*
X3578515Y-18083984D01*
X3968991Y-17874460D02*
X3797563Y-18131603D01*
X4226134Y-17883984D02*
X4245182Y-17883984D01*
X4245182Y-17883984D02*
X4264229Y-17893508D01*
X4264229Y-17893508D02*
X4273753Y-17903031D01*
X4273753Y-17903031D02*
X4283277Y-17922079D01*
X4283277Y-17922079D02*
X4292801Y-17960174D01*
X4292801Y-17960174D02*
X4292801Y-18007793D01*
X4292801Y-18007793D02*
X4283277Y-18045889D01*
X4283277Y-18045889D02*
X4273753Y-18064936D01*
X4273753Y-18064936D02*
X4264229Y-18074460D01*
X4264229Y-18074460D02*
X4245182Y-18083984D01*
X4245182Y-18083984D02*
X4226134Y-18083984D01*
X4226134Y-18083984D02*
X4207087Y-18074460D01*
X4207087Y-18074460D02*
X4197563Y-18064936D01*
X4197563Y-18064936D02*
X4188039Y-18045889D01*
X4188039Y-18045889D02*
X4178515Y-18007793D01*
X4178515Y-18007793D02*
X4178515Y-17960174D01*
X4178515Y-17960174D02*
X4188039Y-17922079D01*
X4188039Y-17922079D02*
X4197563Y-17903031D01*
X4197563Y-17903031D02*
X4207087Y-17893508D01*
X4207087Y-17893508D02*
X4226134Y-17883984D01*
X4378515Y-18064936D02*
X4388039Y-18074460D01*
X4388039Y-18074460D02*
X4378515Y-18083984D01*
X4378515Y-18083984D02*
X4368991Y-18074460D01*
X4368991Y-18074460D02*
X4378515Y-18064936D01*
X4378515Y-18064936D02*
X4378515Y-18083984D01*
X4511848Y-17883984D02*
X4530896Y-17883984D01*
X4530896Y-17883984D02*
X4549944Y-17893508D01*
X4549944Y-17893508D02*
X4559468Y-17903031D01*
X4559468Y-17903031D02*
X4568991Y-17922079D01*
X4568991Y-17922079D02*
X4578515Y-17960174D01*
X4578515Y-17960174D02*
X4578515Y-18007793D01*
X4578515Y-18007793D02*
X4568991Y-18045889D01*
X4568991Y-18045889D02*
X4559468Y-18064936D01*
X4559468Y-18064936D02*
X4549944Y-18074460D01*
X4549944Y-18074460D02*
X4530896Y-18083984D01*
X4530896Y-18083984D02*
X4511848Y-18083984D01*
X4511848Y-18083984D02*
X4492801Y-18074460D01*
X4492801Y-18074460D02*
X4483277Y-18064936D01*
X4483277Y-18064936D02*
X4473753Y-18045889D01*
X4473753Y-18045889D02*
X4464229Y-18007793D01*
X4464229Y-18007793D02*
X4464229Y-17960174D01*
X4464229Y-17960174D02*
X4473753Y-17922079D01*
X4473753Y-17922079D02*
X4483277Y-17903031D01*
X4483277Y-17903031D02*
X4492801Y-17893508D01*
X4492801Y-17893508D02*
X4511848Y-17883984D01*
X4768991Y-18083984D02*
X4654706Y-18083984D01*
X4711848Y-18083984D02*
X4711848Y-17883984D01*
X4711848Y-17883984D02*
X4692801Y-17912555D01*
X4692801Y-17912555D02*
X4673753Y-17931603D01*
X4673753Y-17931603D02*
X4654706Y-17941127D01*
X4845182Y-17903031D02*
X4854706Y-17893508D01*
X4854706Y-17893508D02*
X4873753Y-17883984D01*
X4873753Y-17883984D02*
X4921372Y-17883984D01*
X4921372Y-17883984D02*
X4940420Y-17893508D01*
X4940420Y-17893508D02*
X4949944Y-17903031D01*
X4949944Y-17903031D02*
X4959468Y-17922079D01*
X4959468Y-17922079D02*
X4959468Y-17941127D01*
X4959468Y-17941127D02*
X4949944Y-17969698D01*
X4949944Y-17969698D02*
X4835658Y-18083984D01*
X4835658Y-18083984D02*
X4959468Y-18083984D01*
X5083277Y-17883984D02*
X5102325Y-17883984D01*
X5102325Y-17883984D02*
X5121372Y-17893508D01*
X5121372Y-17893508D02*
X5130896Y-17903031D01*
X5130896Y-17903031D02*
X5140420Y-17922079D01*
X5140420Y-17922079D02*
X5149944Y-17960174D01*
X5149944Y-17960174D02*
X5149944Y-18007793D01*
X5149944Y-18007793D02*
X5140420Y-18045889D01*
X5140420Y-18045889D02*
X5130896Y-18064936D01*
X5130896Y-18064936D02*
X5121372Y-18074460D01*
X5121372Y-18074460D02*
X5102325Y-18083984D01*
X5102325Y-18083984D02*
X5083277Y-18083984D01*
X5083277Y-18083984D02*
X5064229Y-18074460D01*
X5064229Y-18074460D02*
X5054706Y-18064936D01*
X5054706Y-18064936D02*
X5045182Y-18045889D01*
X5045182Y-18045889D02*
X5035658Y-18007793D01*
X5035658Y-18007793D02*
X5035658Y-17960174D01*
X5035658Y-17960174D02*
X5045182Y-17922079D01*
X5045182Y-17922079D02*
X5054706Y-17903031D01*
X5054706Y-17903031D02*
X5064229Y-17893508D01*
X5064229Y-17893508D02*
X5083277Y-17883984D01*
X5226134Y-17883984D02*
X5226134Y-17922079D01*
X5302325Y-17883984D02*
X5302325Y-17922079D01*
X5597563Y-18160174D02*
X5588039Y-18150650D01*
X5588039Y-18150650D02*
X5568991Y-18122079D01*
X5568991Y-18122079D02*
X5559468Y-18103031D01*
X5559468Y-18103031D02*
X5549944Y-18074460D01*
X5549944Y-18074460D02*
X5540420Y-18026841D01*
X5540420Y-18026841D02*
X5540420Y-17988746D01*
X5540420Y-17988746D02*
X5549944Y-17941127D01*
X5549944Y-17941127D02*
X5559468Y-17912555D01*
X5559468Y-17912555D02*
X5568991Y-17893508D01*
X5568991Y-17893508D02*
X5588039Y-17864936D01*
X5588039Y-17864936D02*
X5597563Y-17855412D01*
X5778515Y-18083984D02*
X5664229Y-18083984D01*
X5721372Y-18083984D02*
X5721372Y-17883984D01*
X5721372Y-17883984D02*
X5702325Y-17912555D01*
X5702325Y-17912555D02*
X5683277Y-17931603D01*
X5683277Y-17931603D02*
X5664229Y-17941127D01*
X5854706Y-17903031D02*
X5864229Y-17893508D01*
X5864229Y-17893508D02*
X5883277Y-17883984D01*
X5883277Y-17883984D02*
X5930896Y-17883984D01*
X5930896Y-17883984D02*
X5949944Y-17893508D01*
X5949944Y-17893508D02*
X5959468Y-17903031D01*
X5959468Y-17903031D02*
X5968991Y-17922079D01*
X5968991Y-17922079D02*
X5968991Y-17941127D01*
X5968991Y-17941127D02*
X5959468Y-17969698D01*
X5959468Y-17969698D02*
X5845182Y-18083984D01*
X5845182Y-18083984D02*
X5968991Y-18083984D01*
X6035658Y-17883984D02*
X6168991Y-17883984D01*
X6168991Y-17883984D02*
X6083277Y-18083984D01*
X6397563Y-18083984D02*
X6397563Y-17883984D01*
X6483277Y-18083984D02*
X6483277Y-17979222D01*
X6483277Y-17979222D02*
X6473753Y-17960174D01*
X6473753Y-17960174D02*
X6454706Y-17950650D01*
X6454706Y-17950650D02*
X6426134Y-17950650D01*
X6426134Y-17950650D02*
X6407087Y-17960174D01*
X6407087Y-17960174D02*
X6397563Y-17969698D01*
X6607087Y-18083984D02*
X6588039Y-18074460D01*
X6588039Y-18074460D02*
X6578515Y-18064936D01*
X6578515Y-18064936D02*
X6568991Y-18045889D01*
X6568991Y-18045889D02*
X6568991Y-17988746D01*
X6568991Y-17988746D02*
X6578515Y-17969698D01*
X6578515Y-17969698D02*
X6588039Y-17960174D01*
X6588039Y-17960174D02*
X6607087Y-17950650D01*
X6607087Y-17950650D02*
X6635658Y-17950650D01*
X6635658Y-17950650D02*
X6654706Y-17960174D01*
X6654706Y-17960174D02*
X6664230Y-17969698D01*
X6664230Y-17969698D02*
X6673753Y-17988746D01*
X6673753Y-17988746D02*
X6673753Y-18045889D01*
X6673753Y-18045889D02*
X6664230Y-18064936D01*
X6664230Y-18064936D02*
X6654706Y-18074460D01*
X6654706Y-18074460D02*
X6635658Y-18083984D01*
X6635658Y-18083984D02*
X6607087Y-18083984D01*
X6788039Y-18083984D02*
X6768991Y-18074460D01*
X6768991Y-18074460D02*
X6759468Y-18055412D01*
X6759468Y-18055412D02*
X6759468Y-17883984D01*
X6940420Y-18074460D02*
X6921372Y-18083984D01*
X6921372Y-18083984D02*
X6883277Y-18083984D01*
X6883277Y-18083984D02*
X6864230Y-18074460D01*
X6864230Y-18074460D02*
X6854706Y-18055412D01*
X6854706Y-18055412D02*
X6854706Y-17979222D01*
X6854706Y-17979222D02*
X6864230Y-17960174D01*
X6864230Y-17960174D02*
X6883277Y-17950650D01*
X6883277Y-17950650D02*
X6921372Y-17950650D01*
X6921372Y-17950650D02*
X6940420Y-17960174D01*
X6940420Y-17960174D02*
X6949944Y-17979222D01*
X6949944Y-17979222D02*
X6949944Y-17998270D01*
X6949944Y-17998270D02*
X6854706Y-18017317D01*
X7026134Y-18074460D02*
X7045182Y-18083984D01*
X7045182Y-18083984D02*
X7083277Y-18083984D01*
X7083277Y-18083984D02*
X7102325Y-18074460D01*
X7102325Y-18074460D02*
X7111849Y-18055412D01*
X7111849Y-18055412D02*
X7111849Y-18045889D01*
X7111849Y-18045889D02*
X7102325Y-18026841D01*
X7102325Y-18026841D02*
X7083277Y-18017317D01*
X7083277Y-18017317D02*
X7054706Y-18017317D01*
X7054706Y-18017317D02*
X7035658Y-18007793D01*
X7035658Y-18007793D02*
X7026134Y-17988746D01*
X7026134Y-17988746D02*
X7026134Y-17979222D01*
X7026134Y-17979222D02*
X7035658Y-17960174D01*
X7035658Y-17960174D02*
X7054706Y-17950650D01*
X7054706Y-17950650D02*
X7083277Y-17950650D01*
X7083277Y-17950650D02*
X7102325Y-17960174D01*
X7178515Y-18160174D02*
X7188039Y-18150650D01*
X7188039Y-18150650D02*
X7207087Y-18122079D01*
X7207087Y-18122079D02*
X7216611Y-18103031D01*
X7216611Y-18103031D02*
X7226134Y-18074460D01*
X7226134Y-18074460D02*
X7235658Y-18026841D01*
X7235658Y-18026841D02*
X7235658Y-17988746D01*
X7235658Y-17988746D02*
X7226134Y-17941127D01*
X7226134Y-17941127D02*
X7216611Y-17912555D01*
X7216611Y-17912555D02*
X7207087Y-17893508D01*
X7207087Y-17893508D02*
X7188039Y-17864936D01*
X7188039Y-17864936D02*
X7178515Y-17855412D01*
D12*
X2022500Y-18256500D02*
G75*
G02*
X1942500Y-18256500I-40000J0D01*
G01*
X1942500Y-18256500D02*
G75*
G02*
X2022500Y-18256500I40000J0D01*
G01*
D11*
X2321372Y-18147984D02*
X2340420Y-18147984D01*
X2340420Y-18147984D02*
X2359467Y-18157508D01*
X2359467Y-18157508D02*
X2368991Y-18167031D01*
X2368991Y-18167031D02*
X2378515Y-18186079D01*
X2378515Y-18186079D02*
X2388039Y-18224174D01*
X2388039Y-18224174D02*
X2388039Y-18271793D01*
X2388039Y-18271793D02*
X2378515Y-18309889D01*
X2378515Y-18309889D02*
X2368991Y-18328936D01*
X2368991Y-18328936D02*
X2359467Y-18338460D01*
X2359467Y-18338460D02*
X2340420Y-18347984D01*
X2340420Y-18347984D02*
X2321372Y-18347984D01*
X2321372Y-18347984D02*
X2302324Y-18338460D01*
X2302324Y-18338460D02*
X2292801Y-18328936D01*
X2292801Y-18328936D02*
X2283277Y-18309889D01*
X2283277Y-18309889D02*
X2273753Y-18271793D01*
X2273753Y-18271793D02*
X2273753Y-18224174D01*
X2273753Y-18224174D02*
X2283277Y-18186079D01*
X2283277Y-18186079D02*
X2292801Y-18167031D01*
X2292801Y-18167031D02*
X2302324Y-18157508D01*
X2302324Y-18157508D02*
X2321372Y-18147984D01*
X2473753Y-18328936D02*
X2483277Y-18338460D01*
X2483277Y-18338460D02*
X2473753Y-18347984D01*
X2473753Y-18347984D02*
X2464229Y-18338460D01*
X2464229Y-18338460D02*
X2473753Y-18328936D01*
X2473753Y-18328936D02*
X2473753Y-18347984D01*
X2597563Y-18233698D02*
X2578515Y-18224174D01*
X2578515Y-18224174D02*
X2568991Y-18214650D01*
X2568991Y-18214650D02*
X2559467Y-18195603D01*
X2559467Y-18195603D02*
X2559467Y-18186079D01*
X2559467Y-18186079D02*
X2568991Y-18167031D01*
X2568991Y-18167031D02*
X2578515Y-18157508D01*
X2578515Y-18157508D02*
X2597563Y-18147984D01*
X2597563Y-18147984D02*
X2635658Y-18147984D01*
X2635658Y-18147984D02*
X2654705Y-18157508D01*
X2654705Y-18157508D02*
X2664229Y-18167031D01*
X2664229Y-18167031D02*
X2673753Y-18186079D01*
X2673753Y-18186079D02*
X2673753Y-18195603D01*
X2673753Y-18195603D02*
X2664229Y-18214650D01*
X2664229Y-18214650D02*
X2654705Y-18224174D01*
X2654705Y-18224174D02*
X2635658Y-18233698D01*
X2635658Y-18233698D02*
X2597563Y-18233698D01*
X2597563Y-18233698D02*
X2578515Y-18243222D01*
X2578515Y-18243222D02*
X2568991Y-18252746D01*
X2568991Y-18252746D02*
X2559467Y-18271793D01*
X2559467Y-18271793D02*
X2559467Y-18309889D01*
X2559467Y-18309889D02*
X2568991Y-18328936D01*
X2568991Y-18328936D02*
X2578515Y-18338460D01*
X2578515Y-18338460D02*
X2597563Y-18347984D01*
X2597563Y-18347984D02*
X2635658Y-18347984D01*
X2635658Y-18347984D02*
X2654705Y-18338460D01*
X2654705Y-18338460D02*
X2664229Y-18328936D01*
X2664229Y-18328936D02*
X2673753Y-18309889D01*
X2673753Y-18309889D02*
X2673753Y-18271793D01*
X2673753Y-18271793D02*
X2664229Y-18252746D01*
X2664229Y-18252746D02*
X2654705Y-18243222D01*
X2654705Y-18243222D02*
X2635658Y-18233698D01*
X2797562Y-18147984D02*
X2816610Y-18147984D01*
X2816610Y-18147984D02*
X2835658Y-18157508D01*
X2835658Y-18157508D02*
X2845182Y-18167031D01*
X2845182Y-18167031D02*
X2854705Y-18186079D01*
X2854705Y-18186079D02*
X2864229Y-18224174D01*
X2864229Y-18224174D02*
X2864229Y-18271793D01*
X2864229Y-18271793D02*
X2854705Y-18309889D01*
X2854705Y-18309889D02*
X2845182Y-18328936D01*
X2845182Y-18328936D02*
X2835658Y-18338460D01*
X2835658Y-18338460D02*
X2816610Y-18347984D01*
X2816610Y-18347984D02*
X2797562Y-18347984D01*
X2797562Y-18347984D02*
X2778515Y-18338460D01*
X2778515Y-18338460D02*
X2768991Y-18328936D01*
X2768991Y-18328936D02*
X2759467Y-18309889D01*
X2759467Y-18309889D02*
X2749944Y-18271793D01*
X2749944Y-18271793D02*
X2749944Y-18224174D01*
X2749944Y-18224174D02*
X2759467Y-18186079D01*
X2759467Y-18186079D02*
X2768991Y-18167031D01*
X2768991Y-18167031D02*
X2778515Y-18157508D01*
X2778515Y-18157508D02*
X2797562Y-18147984D01*
X2988039Y-18147984D02*
X3007086Y-18147984D01*
X3007086Y-18147984D02*
X3026134Y-18157508D01*
X3026134Y-18157508D02*
X3035658Y-18167031D01*
X3035658Y-18167031D02*
X3045182Y-18186079D01*
X3045182Y-18186079D02*
X3054705Y-18224174D01*
X3054705Y-18224174D02*
X3054705Y-18271793D01*
X3054705Y-18271793D02*
X3045182Y-18309889D01*
X3045182Y-18309889D02*
X3035658Y-18328936D01*
X3035658Y-18328936D02*
X3026134Y-18338460D01*
X3026134Y-18338460D02*
X3007086Y-18347984D01*
X3007086Y-18347984D02*
X2988039Y-18347984D01*
X2988039Y-18347984D02*
X2968991Y-18338460D01*
X2968991Y-18338460D02*
X2959467Y-18328936D01*
X2959467Y-18328936D02*
X2949943Y-18309889D01*
X2949943Y-18309889D02*
X2940420Y-18271793D01*
X2940420Y-18271793D02*
X2940420Y-18224174D01*
X2940420Y-18224174D02*
X2949943Y-18186079D01*
X2949943Y-18186079D02*
X2959467Y-18167031D01*
X2959467Y-18167031D02*
X2968991Y-18157508D01*
X2968991Y-18157508D02*
X2988039Y-18147984D01*
X3140420Y-18347984D02*
X3140420Y-18214650D01*
X3140420Y-18233698D02*
X3149943Y-18224174D01*
X3149943Y-18224174D02*
X3168991Y-18214650D01*
X3168991Y-18214650D02*
X3197563Y-18214650D01*
X3197563Y-18214650D02*
X3216610Y-18224174D01*
X3216610Y-18224174D02*
X3226134Y-18243222D01*
X3226134Y-18243222D02*
X3226134Y-18347984D01*
X3226134Y-18243222D02*
X3235658Y-18224174D01*
X3235658Y-18224174D02*
X3254705Y-18214650D01*
X3254705Y-18214650D02*
X3283277Y-18214650D01*
X3283277Y-18214650D02*
X3302324Y-18224174D01*
X3302324Y-18224174D02*
X3311848Y-18243222D01*
X3311848Y-18243222D02*
X3311848Y-18347984D01*
X3407086Y-18347984D02*
X3407086Y-18214650D01*
X3407086Y-18233698D02*
X3416610Y-18224174D01*
X3416610Y-18224174D02*
X3435658Y-18214650D01*
X3435658Y-18214650D02*
X3464229Y-18214650D01*
X3464229Y-18214650D02*
X3483277Y-18224174D01*
X3483277Y-18224174D02*
X3492801Y-18243222D01*
X3492801Y-18243222D02*
X3492801Y-18347984D01*
X3492801Y-18243222D02*
X3502324Y-18224174D01*
X3502324Y-18224174D02*
X3521372Y-18214650D01*
X3521372Y-18214650D02*
X3549943Y-18214650D01*
X3549943Y-18214650D02*
X3568991Y-18224174D01*
X3568991Y-18224174D02*
X3578515Y-18243222D01*
X3578515Y-18243222D02*
X3578515Y-18347984D01*
X3968991Y-18138460D02*
X3797563Y-18395603D01*
X4226134Y-18147984D02*
X4245182Y-18147984D01*
X4245182Y-18147984D02*
X4264229Y-18157508D01*
X4264229Y-18157508D02*
X4273753Y-18167031D01*
X4273753Y-18167031D02*
X4283277Y-18186079D01*
X4283277Y-18186079D02*
X4292801Y-18224174D01*
X4292801Y-18224174D02*
X4292801Y-18271793D01*
X4292801Y-18271793D02*
X4283277Y-18309889D01*
X4283277Y-18309889D02*
X4273753Y-18328936D01*
X4273753Y-18328936D02*
X4264229Y-18338460D01*
X4264229Y-18338460D02*
X4245182Y-18347984D01*
X4245182Y-18347984D02*
X4226134Y-18347984D01*
X4226134Y-18347984D02*
X4207087Y-18338460D01*
X4207087Y-18338460D02*
X4197563Y-18328936D01*
X4197563Y-18328936D02*
X4188039Y-18309889D01*
X4188039Y-18309889D02*
X4178515Y-18271793D01*
X4178515Y-18271793D02*
X4178515Y-18224174D01*
X4178515Y-18224174D02*
X4188039Y-18186079D01*
X4188039Y-18186079D02*
X4197563Y-18167031D01*
X4197563Y-18167031D02*
X4207087Y-18157508D01*
X4207087Y-18157508D02*
X4226134Y-18147984D01*
X4378515Y-18328936D02*
X4388039Y-18338460D01*
X4388039Y-18338460D02*
X4378515Y-18347984D01*
X4378515Y-18347984D02*
X4368991Y-18338460D01*
X4368991Y-18338460D02*
X4378515Y-18328936D01*
X4378515Y-18328936D02*
X4378515Y-18347984D01*
X4511848Y-18147984D02*
X4530896Y-18147984D01*
X4530896Y-18147984D02*
X4549944Y-18157508D01*
X4549944Y-18157508D02*
X4559468Y-18167031D01*
X4559468Y-18167031D02*
X4568991Y-18186079D01*
X4568991Y-18186079D02*
X4578515Y-18224174D01*
X4578515Y-18224174D02*
X4578515Y-18271793D01*
X4578515Y-18271793D02*
X4568991Y-18309889D01*
X4568991Y-18309889D02*
X4559468Y-18328936D01*
X4559468Y-18328936D02*
X4549944Y-18338460D01*
X4549944Y-18338460D02*
X4530896Y-18347984D01*
X4530896Y-18347984D02*
X4511848Y-18347984D01*
X4511848Y-18347984D02*
X4492801Y-18338460D01*
X4492801Y-18338460D02*
X4483277Y-18328936D01*
X4483277Y-18328936D02*
X4473753Y-18309889D01*
X4473753Y-18309889D02*
X4464229Y-18271793D01*
X4464229Y-18271793D02*
X4464229Y-18224174D01*
X4464229Y-18224174D02*
X4473753Y-18186079D01*
X4473753Y-18186079D02*
X4483277Y-18167031D01*
X4483277Y-18167031D02*
X4492801Y-18157508D01*
X4492801Y-18157508D02*
X4511848Y-18147984D01*
X4645182Y-18147984D02*
X4768991Y-18147984D01*
X4768991Y-18147984D02*
X4702325Y-18224174D01*
X4702325Y-18224174D02*
X4730896Y-18224174D01*
X4730896Y-18224174D02*
X4749944Y-18233698D01*
X4749944Y-18233698D02*
X4759468Y-18243222D01*
X4759468Y-18243222D02*
X4768991Y-18262270D01*
X4768991Y-18262270D02*
X4768991Y-18309889D01*
X4768991Y-18309889D02*
X4759468Y-18328936D01*
X4759468Y-18328936D02*
X4749944Y-18338460D01*
X4749944Y-18338460D02*
X4730896Y-18347984D01*
X4730896Y-18347984D02*
X4673753Y-18347984D01*
X4673753Y-18347984D02*
X4654706Y-18338460D01*
X4654706Y-18338460D02*
X4645182Y-18328936D01*
X4959468Y-18347984D02*
X4845182Y-18347984D01*
X4902325Y-18347984D02*
X4902325Y-18147984D01*
X4902325Y-18147984D02*
X4883277Y-18176555D01*
X4883277Y-18176555D02*
X4864229Y-18195603D01*
X4864229Y-18195603D02*
X4845182Y-18205127D01*
X5140420Y-18147984D02*
X5045182Y-18147984D01*
X5045182Y-18147984D02*
X5035658Y-18243222D01*
X5035658Y-18243222D02*
X5045182Y-18233698D01*
X5045182Y-18233698D02*
X5064229Y-18224174D01*
X5064229Y-18224174D02*
X5111849Y-18224174D01*
X5111849Y-18224174D02*
X5130896Y-18233698D01*
X5130896Y-18233698D02*
X5140420Y-18243222D01*
X5140420Y-18243222D02*
X5149944Y-18262270D01*
X5149944Y-18262270D02*
X5149944Y-18309889D01*
X5149944Y-18309889D02*
X5140420Y-18328936D01*
X5140420Y-18328936D02*
X5130896Y-18338460D01*
X5130896Y-18338460D02*
X5111849Y-18347984D01*
X5111849Y-18347984D02*
X5064229Y-18347984D01*
X5064229Y-18347984D02*
X5045182Y-18338460D01*
X5045182Y-18338460D02*
X5035658Y-18328936D01*
X5226134Y-18147984D02*
X5226134Y-18186079D01*
X5302325Y-18147984D02*
X5302325Y-18186079D01*
X5597563Y-18424174D02*
X5588039Y-18414650D01*
X5588039Y-18414650D02*
X5568991Y-18386079D01*
X5568991Y-18386079D02*
X5559468Y-18367031D01*
X5559468Y-18367031D02*
X5549944Y-18338460D01*
X5549944Y-18338460D02*
X5540420Y-18290841D01*
X5540420Y-18290841D02*
X5540420Y-18252746D01*
X5540420Y-18252746D02*
X5549944Y-18205127D01*
X5549944Y-18205127D02*
X5559468Y-18176555D01*
X5559468Y-18176555D02*
X5568991Y-18157508D01*
X5568991Y-18157508D02*
X5588039Y-18128936D01*
X5588039Y-18128936D02*
X5597563Y-18119412D01*
X5768991Y-18147984D02*
X5673753Y-18147984D01*
X5673753Y-18147984D02*
X5664229Y-18243222D01*
X5664229Y-18243222D02*
X5673753Y-18233698D01*
X5673753Y-18233698D02*
X5692801Y-18224174D01*
X5692801Y-18224174D02*
X5740420Y-18224174D01*
X5740420Y-18224174D02*
X5759468Y-18233698D01*
X5759468Y-18233698D02*
X5768991Y-18243222D01*
X5768991Y-18243222D02*
X5778515Y-18262270D01*
X5778515Y-18262270D02*
X5778515Y-18309889D01*
X5778515Y-18309889D02*
X5768991Y-18328936D01*
X5768991Y-18328936D02*
X5759468Y-18338460D01*
X5759468Y-18338460D02*
X5740420Y-18347984D01*
X5740420Y-18347984D02*
X5692801Y-18347984D01*
X5692801Y-18347984D02*
X5673753Y-18338460D01*
X5673753Y-18338460D02*
X5664229Y-18328936D01*
X5949944Y-18214650D02*
X5949944Y-18347984D01*
X5902325Y-18138460D02*
X5854706Y-18281317D01*
X5854706Y-18281317D02*
X5978515Y-18281317D01*
X6207087Y-18347984D02*
X6207087Y-18147984D01*
X6292801Y-18347984D02*
X6292801Y-18243222D01*
X6292801Y-18243222D02*
X6283277Y-18224174D01*
X6283277Y-18224174D02*
X6264230Y-18214650D01*
X6264230Y-18214650D02*
X6235658Y-18214650D01*
X6235658Y-18214650D02*
X6216610Y-18224174D01*
X6216610Y-18224174D02*
X6207087Y-18233698D01*
X6416610Y-18347984D02*
X6397563Y-18338460D01*
X6397563Y-18338460D02*
X6388039Y-18328936D01*
X6388039Y-18328936D02*
X6378515Y-18309889D01*
X6378515Y-18309889D02*
X6378515Y-18252746D01*
X6378515Y-18252746D02*
X6388039Y-18233698D01*
X6388039Y-18233698D02*
X6397563Y-18224174D01*
X6397563Y-18224174D02*
X6416610Y-18214650D01*
X6416610Y-18214650D02*
X6445182Y-18214650D01*
X6445182Y-18214650D02*
X6464230Y-18224174D01*
X6464230Y-18224174D02*
X6473753Y-18233698D01*
X6473753Y-18233698D02*
X6483277Y-18252746D01*
X6483277Y-18252746D02*
X6483277Y-18309889D01*
X6483277Y-18309889D02*
X6473753Y-18328936D01*
X6473753Y-18328936D02*
X6464230Y-18338460D01*
X6464230Y-18338460D02*
X6445182Y-18347984D01*
X6445182Y-18347984D02*
X6416610Y-18347984D01*
X6597563Y-18347984D02*
X6578515Y-18338460D01*
X6578515Y-18338460D02*
X6568991Y-18319412D01*
X6568991Y-18319412D02*
X6568991Y-18147984D01*
X6749944Y-18338460D02*
X6730896Y-18347984D01*
X6730896Y-18347984D02*
X6692801Y-18347984D01*
X6692801Y-18347984D02*
X6673753Y-18338460D01*
X6673753Y-18338460D02*
X6664230Y-18319412D01*
X6664230Y-18319412D02*
X6664230Y-18243222D01*
X6664230Y-18243222D02*
X6673753Y-18224174D01*
X6673753Y-18224174D02*
X6692801Y-18214650D01*
X6692801Y-18214650D02*
X6730896Y-18214650D01*
X6730896Y-18214650D02*
X6749944Y-18224174D01*
X6749944Y-18224174D02*
X6759468Y-18243222D01*
X6759468Y-18243222D02*
X6759468Y-18262270D01*
X6759468Y-18262270D02*
X6664230Y-18281317D01*
X6835658Y-18338460D02*
X6854706Y-18347984D01*
X6854706Y-18347984D02*
X6892801Y-18347984D01*
X6892801Y-18347984D02*
X6911849Y-18338460D01*
X6911849Y-18338460D02*
X6921372Y-18319412D01*
X6921372Y-18319412D02*
X6921372Y-18309889D01*
X6921372Y-18309889D02*
X6911849Y-18290841D01*
X6911849Y-18290841D02*
X6892801Y-18281317D01*
X6892801Y-18281317D02*
X6864230Y-18281317D01*
X6864230Y-18281317D02*
X6845182Y-18271793D01*
X6845182Y-18271793D02*
X6835658Y-18252746D01*
X6835658Y-18252746D02*
X6835658Y-18243222D01*
X6835658Y-18243222D02*
X6845182Y-18224174D01*
X6845182Y-18224174D02*
X6864230Y-18214650D01*
X6864230Y-18214650D02*
X6892801Y-18214650D01*
X6892801Y-18214650D02*
X6911849Y-18224174D01*
X6988039Y-18424174D02*
X6997563Y-18414650D01*
X6997563Y-18414650D02*
X7016611Y-18386079D01*
X7016611Y-18386079D02*
X7026134Y-18367031D01*
X7026134Y-18367031D02*
X7035658Y-18338460D01*
X7035658Y-18338460D02*
X7045182Y-18290841D01*
X7045182Y-18290841D02*
X7045182Y-18252746D01*
X7045182Y-18252746D02*
X7035658Y-18205127D01*
X7035658Y-18205127D02*
X7026134Y-18176555D01*
X7026134Y-18176555D02*
X7016611Y-18157508D01*
X7016611Y-18157508D02*
X6997563Y-18128936D01*
X6997563Y-18128936D02*
X6988039Y-18119412D01*
D12*
X1981860Y-18479860D02*
X1981860Y-18561140D01*
X1941220Y-18520500D02*
X2022500Y-18520500D01*
D11*
X2321372Y-18411984D02*
X2340420Y-18411984D01*
X2340420Y-18411984D02*
X2359467Y-18421508D01*
X2359467Y-18421508D02*
X2368991Y-18431031D01*
X2368991Y-18431031D02*
X2378515Y-18450079D01*
X2378515Y-18450079D02*
X2388039Y-18488174D01*
X2388039Y-18488174D02*
X2388039Y-18535793D01*
X2388039Y-18535793D02*
X2378515Y-18573889D01*
X2378515Y-18573889D02*
X2368991Y-18592936D01*
X2368991Y-18592936D02*
X2359467Y-18602460D01*
X2359467Y-18602460D02*
X2340420Y-18611984D01*
X2340420Y-18611984D02*
X2321372Y-18611984D01*
X2321372Y-18611984D02*
X2302324Y-18602460D01*
X2302324Y-18602460D02*
X2292801Y-18592936D01*
X2292801Y-18592936D02*
X2283277Y-18573889D01*
X2283277Y-18573889D02*
X2273753Y-18535793D01*
X2273753Y-18535793D02*
X2273753Y-18488174D01*
X2273753Y-18488174D02*
X2283277Y-18450079D01*
X2283277Y-18450079D02*
X2292801Y-18431031D01*
X2292801Y-18431031D02*
X2302324Y-18421508D01*
X2302324Y-18421508D02*
X2321372Y-18411984D01*
X2473753Y-18592936D02*
X2483277Y-18602460D01*
X2483277Y-18602460D02*
X2473753Y-18611984D01*
X2473753Y-18611984D02*
X2464229Y-18602460D01*
X2464229Y-18602460D02*
X2473753Y-18592936D01*
X2473753Y-18592936D02*
X2473753Y-18611984D01*
X2597563Y-18497698D02*
X2578515Y-18488174D01*
X2578515Y-18488174D02*
X2568991Y-18478650D01*
X2568991Y-18478650D02*
X2559467Y-18459603D01*
X2559467Y-18459603D02*
X2559467Y-18450079D01*
X2559467Y-18450079D02*
X2568991Y-18431031D01*
X2568991Y-18431031D02*
X2578515Y-18421508D01*
X2578515Y-18421508D02*
X2597563Y-18411984D01*
X2597563Y-18411984D02*
X2635658Y-18411984D01*
X2635658Y-18411984D02*
X2654705Y-18421508D01*
X2654705Y-18421508D02*
X2664229Y-18431031D01*
X2664229Y-18431031D02*
X2673753Y-18450079D01*
X2673753Y-18450079D02*
X2673753Y-18459603D01*
X2673753Y-18459603D02*
X2664229Y-18478650D01*
X2664229Y-18478650D02*
X2654705Y-18488174D01*
X2654705Y-18488174D02*
X2635658Y-18497698D01*
X2635658Y-18497698D02*
X2597563Y-18497698D01*
X2597563Y-18497698D02*
X2578515Y-18507222D01*
X2578515Y-18507222D02*
X2568991Y-18516746D01*
X2568991Y-18516746D02*
X2559467Y-18535793D01*
X2559467Y-18535793D02*
X2559467Y-18573889D01*
X2559467Y-18573889D02*
X2568991Y-18592936D01*
X2568991Y-18592936D02*
X2578515Y-18602460D01*
X2578515Y-18602460D02*
X2597563Y-18611984D01*
X2597563Y-18611984D02*
X2635658Y-18611984D01*
X2635658Y-18611984D02*
X2654705Y-18602460D01*
X2654705Y-18602460D02*
X2664229Y-18592936D01*
X2664229Y-18592936D02*
X2673753Y-18573889D01*
X2673753Y-18573889D02*
X2673753Y-18535793D01*
X2673753Y-18535793D02*
X2664229Y-18516746D01*
X2664229Y-18516746D02*
X2654705Y-18507222D01*
X2654705Y-18507222D02*
X2635658Y-18497698D01*
X2864229Y-18611984D02*
X2749944Y-18611984D01*
X2807086Y-18611984D02*
X2807086Y-18411984D01*
X2807086Y-18411984D02*
X2788039Y-18440555D01*
X2788039Y-18440555D02*
X2768991Y-18459603D01*
X2768991Y-18459603D02*
X2749944Y-18469127D01*
X2930896Y-18411984D02*
X3054705Y-18411984D01*
X3054705Y-18411984D02*
X2988039Y-18488174D01*
X2988039Y-18488174D02*
X3016610Y-18488174D01*
X3016610Y-18488174D02*
X3035658Y-18497698D01*
X3035658Y-18497698D02*
X3045182Y-18507222D01*
X3045182Y-18507222D02*
X3054705Y-18526270D01*
X3054705Y-18526270D02*
X3054705Y-18573889D01*
X3054705Y-18573889D02*
X3045182Y-18592936D01*
X3045182Y-18592936D02*
X3035658Y-18602460D01*
X3035658Y-18602460D02*
X3016610Y-18611984D01*
X3016610Y-18611984D02*
X2959467Y-18611984D01*
X2959467Y-18611984D02*
X2940420Y-18602460D01*
X2940420Y-18602460D02*
X2930896Y-18592936D01*
X3140420Y-18611984D02*
X3140420Y-18478650D01*
X3140420Y-18497698D02*
X3149943Y-18488174D01*
X3149943Y-18488174D02*
X3168991Y-18478650D01*
X3168991Y-18478650D02*
X3197563Y-18478650D01*
X3197563Y-18478650D02*
X3216610Y-18488174D01*
X3216610Y-18488174D02*
X3226134Y-18507222D01*
X3226134Y-18507222D02*
X3226134Y-18611984D01*
X3226134Y-18507222D02*
X3235658Y-18488174D01*
X3235658Y-18488174D02*
X3254705Y-18478650D01*
X3254705Y-18478650D02*
X3283277Y-18478650D01*
X3283277Y-18478650D02*
X3302324Y-18488174D01*
X3302324Y-18488174D02*
X3311848Y-18507222D01*
X3311848Y-18507222D02*
X3311848Y-18611984D01*
X3407086Y-18611984D02*
X3407086Y-18478650D01*
X3407086Y-18497698D02*
X3416610Y-18488174D01*
X3416610Y-18488174D02*
X3435658Y-18478650D01*
X3435658Y-18478650D02*
X3464229Y-18478650D01*
X3464229Y-18478650D02*
X3483277Y-18488174D01*
X3483277Y-18488174D02*
X3492801Y-18507222D01*
X3492801Y-18507222D02*
X3492801Y-18611984D01*
X3492801Y-18507222D02*
X3502324Y-18488174D01*
X3502324Y-18488174D02*
X3521372Y-18478650D01*
X3521372Y-18478650D02*
X3549943Y-18478650D01*
X3549943Y-18478650D02*
X3568991Y-18488174D01*
X3568991Y-18488174D02*
X3578515Y-18507222D01*
X3578515Y-18507222D02*
X3578515Y-18611984D01*
X3968991Y-18402460D02*
X3797563Y-18659603D01*
X4226134Y-18411984D02*
X4245182Y-18411984D01*
X4245182Y-18411984D02*
X4264229Y-18421508D01*
X4264229Y-18421508D02*
X4273753Y-18431031D01*
X4273753Y-18431031D02*
X4283277Y-18450079D01*
X4283277Y-18450079D02*
X4292801Y-18488174D01*
X4292801Y-18488174D02*
X4292801Y-18535793D01*
X4292801Y-18535793D02*
X4283277Y-18573889D01*
X4283277Y-18573889D02*
X4273753Y-18592936D01*
X4273753Y-18592936D02*
X4264229Y-18602460D01*
X4264229Y-18602460D02*
X4245182Y-18611984D01*
X4245182Y-18611984D02*
X4226134Y-18611984D01*
X4226134Y-18611984D02*
X4207087Y-18602460D01*
X4207087Y-18602460D02*
X4197563Y-18592936D01*
X4197563Y-18592936D02*
X4188039Y-18573889D01*
X4188039Y-18573889D02*
X4178515Y-18535793D01*
X4178515Y-18535793D02*
X4178515Y-18488174D01*
X4178515Y-18488174D02*
X4188039Y-18450079D01*
X4188039Y-18450079D02*
X4197563Y-18431031D01*
X4197563Y-18431031D02*
X4207087Y-18421508D01*
X4207087Y-18421508D02*
X4226134Y-18411984D01*
X4378515Y-18592936D02*
X4388039Y-18602460D01*
X4388039Y-18602460D02*
X4378515Y-18611984D01*
X4378515Y-18611984D02*
X4368991Y-18602460D01*
X4368991Y-18602460D02*
X4378515Y-18592936D01*
X4378515Y-18592936D02*
X4378515Y-18611984D01*
X4511848Y-18411984D02*
X4530896Y-18411984D01*
X4530896Y-18411984D02*
X4549944Y-18421508D01*
X4549944Y-18421508D02*
X4559468Y-18431031D01*
X4559468Y-18431031D02*
X4568991Y-18450079D01*
X4568991Y-18450079D02*
X4578515Y-18488174D01*
X4578515Y-18488174D02*
X4578515Y-18535793D01*
X4578515Y-18535793D02*
X4568991Y-18573889D01*
X4568991Y-18573889D02*
X4559468Y-18592936D01*
X4559468Y-18592936D02*
X4549944Y-18602460D01*
X4549944Y-18602460D02*
X4530896Y-18611984D01*
X4530896Y-18611984D02*
X4511848Y-18611984D01*
X4511848Y-18611984D02*
X4492801Y-18602460D01*
X4492801Y-18602460D02*
X4483277Y-18592936D01*
X4483277Y-18592936D02*
X4473753Y-18573889D01*
X4473753Y-18573889D02*
X4464229Y-18535793D01*
X4464229Y-18535793D02*
X4464229Y-18488174D01*
X4464229Y-18488174D02*
X4473753Y-18450079D01*
X4473753Y-18450079D02*
X4483277Y-18431031D01*
X4483277Y-18431031D02*
X4492801Y-18421508D01*
X4492801Y-18421508D02*
X4511848Y-18411984D01*
X4645182Y-18411984D02*
X4768991Y-18411984D01*
X4768991Y-18411984D02*
X4702325Y-18488174D01*
X4702325Y-18488174D02*
X4730896Y-18488174D01*
X4730896Y-18488174D02*
X4749944Y-18497698D01*
X4749944Y-18497698D02*
X4759468Y-18507222D01*
X4759468Y-18507222D02*
X4768991Y-18526270D01*
X4768991Y-18526270D02*
X4768991Y-18573889D01*
X4768991Y-18573889D02*
X4759468Y-18592936D01*
X4759468Y-18592936D02*
X4749944Y-18602460D01*
X4749944Y-18602460D02*
X4730896Y-18611984D01*
X4730896Y-18611984D02*
X4673753Y-18611984D01*
X4673753Y-18611984D02*
X4654706Y-18602460D01*
X4654706Y-18602460D02*
X4645182Y-18592936D01*
X4845182Y-18431031D02*
X4854706Y-18421508D01*
X4854706Y-18421508D02*
X4873753Y-18411984D01*
X4873753Y-18411984D02*
X4921372Y-18411984D01*
X4921372Y-18411984D02*
X4940420Y-18421508D01*
X4940420Y-18421508D02*
X4949944Y-18431031D01*
X4949944Y-18431031D02*
X4959468Y-18450079D01*
X4959468Y-18450079D02*
X4959468Y-18469127D01*
X4959468Y-18469127D02*
X4949944Y-18497698D01*
X4949944Y-18497698D02*
X4835658Y-18611984D01*
X4835658Y-18611984D02*
X4959468Y-18611984D01*
X5083277Y-18411984D02*
X5102325Y-18411984D01*
X5102325Y-18411984D02*
X5121372Y-18421508D01*
X5121372Y-18421508D02*
X5130896Y-18431031D01*
X5130896Y-18431031D02*
X5140420Y-18450079D01*
X5140420Y-18450079D02*
X5149944Y-18488174D01*
X5149944Y-18488174D02*
X5149944Y-18535793D01*
X5149944Y-18535793D02*
X5140420Y-18573889D01*
X5140420Y-18573889D02*
X5130896Y-18592936D01*
X5130896Y-18592936D02*
X5121372Y-18602460D01*
X5121372Y-18602460D02*
X5102325Y-18611984D01*
X5102325Y-18611984D02*
X5083277Y-18611984D01*
X5083277Y-18611984D02*
X5064229Y-18602460D01*
X5064229Y-18602460D02*
X5054706Y-18592936D01*
X5054706Y-18592936D02*
X5045182Y-18573889D01*
X5045182Y-18573889D02*
X5035658Y-18535793D01*
X5035658Y-18535793D02*
X5035658Y-18488174D01*
X5035658Y-18488174D02*
X5045182Y-18450079D01*
X5045182Y-18450079D02*
X5054706Y-18431031D01*
X5054706Y-18431031D02*
X5064229Y-18421508D01*
X5064229Y-18421508D02*
X5083277Y-18411984D01*
X5226134Y-18411984D02*
X5226134Y-18450079D01*
X5302325Y-18411984D02*
X5302325Y-18450079D01*
X5597563Y-18688174D02*
X5588039Y-18678650D01*
X5588039Y-18678650D02*
X5568991Y-18650079D01*
X5568991Y-18650079D02*
X5559468Y-18631031D01*
X5559468Y-18631031D02*
X5549944Y-18602460D01*
X5549944Y-18602460D02*
X5540420Y-18554841D01*
X5540420Y-18554841D02*
X5540420Y-18516746D01*
X5540420Y-18516746D02*
X5549944Y-18469127D01*
X5549944Y-18469127D02*
X5559468Y-18440555D01*
X5559468Y-18440555D02*
X5568991Y-18421508D01*
X5568991Y-18421508D02*
X5588039Y-18392936D01*
X5588039Y-18392936D02*
X5597563Y-18383412D01*
X5654706Y-18411984D02*
X5778515Y-18411984D01*
X5778515Y-18411984D02*
X5711848Y-18488174D01*
X5711848Y-18488174D02*
X5740420Y-18488174D01*
X5740420Y-18488174D02*
X5759468Y-18497698D01*
X5759468Y-18497698D02*
X5768991Y-18507222D01*
X5768991Y-18507222D02*
X5778515Y-18526270D01*
X5778515Y-18526270D02*
X5778515Y-18573889D01*
X5778515Y-18573889D02*
X5768991Y-18592936D01*
X5768991Y-18592936D02*
X5759468Y-18602460D01*
X5759468Y-18602460D02*
X5740420Y-18611984D01*
X5740420Y-18611984D02*
X5683277Y-18611984D01*
X5683277Y-18611984D02*
X5664229Y-18602460D01*
X5664229Y-18602460D02*
X5654706Y-18592936D01*
X5902325Y-18411984D02*
X5921372Y-18411984D01*
X5921372Y-18411984D02*
X5940420Y-18421508D01*
X5940420Y-18421508D02*
X5949944Y-18431031D01*
X5949944Y-18431031D02*
X5959468Y-18450079D01*
X5959468Y-18450079D02*
X5968991Y-18488174D01*
X5968991Y-18488174D02*
X5968991Y-18535793D01*
X5968991Y-18535793D02*
X5959468Y-18573889D01*
X5959468Y-18573889D02*
X5949944Y-18592936D01*
X5949944Y-18592936D02*
X5940420Y-18602460D01*
X5940420Y-18602460D02*
X5921372Y-18611984D01*
X5921372Y-18611984D02*
X5902325Y-18611984D01*
X5902325Y-18611984D02*
X5883277Y-18602460D01*
X5883277Y-18602460D02*
X5873753Y-18592936D01*
X5873753Y-18592936D02*
X5864229Y-18573889D01*
X5864229Y-18573889D02*
X5854706Y-18535793D01*
X5854706Y-18535793D02*
X5854706Y-18488174D01*
X5854706Y-18488174D02*
X5864229Y-18450079D01*
X5864229Y-18450079D02*
X5873753Y-18431031D01*
X5873753Y-18431031D02*
X5883277Y-18421508D01*
X5883277Y-18421508D02*
X5902325Y-18411984D01*
X6207087Y-18611984D02*
X6207087Y-18411984D01*
X6292801Y-18611984D02*
X6292801Y-18507222D01*
X6292801Y-18507222D02*
X6283277Y-18488174D01*
X6283277Y-18488174D02*
X6264230Y-18478650D01*
X6264230Y-18478650D02*
X6235658Y-18478650D01*
X6235658Y-18478650D02*
X6216610Y-18488174D01*
X6216610Y-18488174D02*
X6207087Y-18497698D01*
X6416610Y-18611984D02*
X6397563Y-18602460D01*
X6397563Y-18602460D02*
X6388039Y-18592936D01*
X6388039Y-18592936D02*
X6378515Y-18573889D01*
X6378515Y-18573889D02*
X6378515Y-18516746D01*
X6378515Y-18516746D02*
X6388039Y-18497698D01*
X6388039Y-18497698D02*
X6397563Y-18488174D01*
X6397563Y-18488174D02*
X6416610Y-18478650D01*
X6416610Y-18478650D02*
X6445182Y-18478650D01*
X6445182Y-18478650D02*
X6464230Y-18488174D01*
X6464230Y-18488174D02*
X6473753Y-18497698D01*
X6473753Y-18497698D02*
X6483277Y-18516746D01*
X6483277Y-18516746D02*
X6483277Y-18573889D01*
X6483277Y-18573889D02*
X6473753Y-18592936D01*
X6473753Y-18592936D02*
X6464230Y-18602460D01*
X6464230Y-18602460D02*
X6445182Y-18611984D01*
X6445182Y-18611984D02*
X6416610Y-18611984D01*
X6597563Y-18611984D02*
X6578515Y-18602460D01*
X6578515Y-18602460D02*
X6568991Y-18583412D01*
X6568991Y-18583412D02*
X6568991Y-18411984D01*
X6749944Y-18602460D02*
X6730896Y-18611984D01*
X6730896Y-18611984D02*
X6692801Y-18611984D01*
X6692801Y-18611984D02*
X6673753Y-18602460D01*
X6673753Y-18602460D02*
X6664230Y-18583412D01*
X6664230Y-18583412D02*
X6664230Y-18507222D01*
X6664230Y-18507222D02*
X6673753Y-18488174D01*
X6673753Y-18488174D02*
X6692801Y-18478650D01*
X6692801Y-18478650D02*
X6730896Y-18478650D01*
X6730896Y-18478650D02*
X6749944Y-18488174D01*
X6749944Y-18488174D02*
X6759468Y-18507222D01*
X6759468Y-18507222D02*
X6759468Y-18526270D01*
X6759468Y-18526270D02*
X6664230Y-18545317D01*
X6835658Y-18602460D02*
X6854706Y-18611984D01*
X6854706Y-18611984D02*
X6892801Y-18611984D01*
X6892801Y-18611984D02*
X6911849Y-18602460D01*
X6911849Y-18602460D02*
X6921372Y-18583412D01*
X6921372Y-18583412D02*
X6921372Y-18573889D01*
X6921372Y-18573889D02*
X6911849Y-18554841D01*
X6911849Y-18554841D02*
X6892801Y-18545317D01*
X6892801Y-18545317D02*
X6864230Y-18545317D01*
X6864230Y-18545317D02*
X6845182Y-18535793D01*
X6845182Y-18535793D02*
X6835658Y-18516746D01*
X6835658Y-18516746D02*
X6835658Y-18507222D01*
X6835658Y-18507222D02*
X6845182Y-18488174D01*
X6845182Y-18488174D02*
X6864230Y-18478650D01*
X6864230Y-18478650D02*
X6892801Y-18478650D01*
X6892801Y-18478650D02*
X6911849Y-18488174D01*
X6988039Y-18688174D02*
X6997563Y-18678650D01*
X6997563Y-18678650D02*
X7016611Y-18650079D01*
X7016611Y-18650079D02*
X7026134Y-18631031D01*
X7026134Y-18631031D02*
X7035658Y-18602460D01*
X7035658Y-18602460D02*
X7045182Y-18554841D01*
X7045182Y-18554841D02*
X7045182Y-18516746D01*
X7045182Y-18516746D02*
X7035658Y-18469127D01*
X7035658Y-18469127D02*
X7026134Y-18440555D01*
X7026134Y-18440555D02*
X7016611Y-18421508D01*
X7016611Y-18421508D02*
X6997563Y-18392936D01*
X6997563Y-18392936D02*
X6988039Y-18383412D01*
D12*
X2009481Y-18815931D02*
X2009481Y-18753069D01*
X1946619Y-18753069D01*
X1946619Y-18815931D01*
X2009481Y-18815931D01*
D11*
X2321372Y-18675984D02*
X2340420Y-18675984D01*
X2340420Y-18675984D02*
X2359467Y-18685508D01*
X2359467Y-18685508D02*
X2368991Y-18695031D01*
X2368991Y-18695031D02*
X2378515Y-18714079D01*
X2378515Y-18714079D02*
X2388039Y-18752174D01*
X2388039Y-18752174D02*
X2388039Y-18799793D01*
X2388039Y-18799793D02*
X2378515Y-18837889D01*
X2378515Y-18837889D02*
X2368991Y-18856936D01*
X2368991Y-18856936D02*
X2359467Y-18866460D01*
X2359467Y-18866460D02*
X2340420Y-18875984D01*
X2340420Y-18875984D02*
X2321372Y-18875984D01*
X2321372Y-18875984D02*
X2302324Y-18866460D01*
X2302324Y-18866460D02*
X2292801Y-18856936D01*
X2292801Y-18856936D02*
X2283277Y-18837889D01*
X2283277Y-18837889D02*
X2273753Y-18799793D01*
X2273753Y-18799793D02*
X2273753Y-18752174D01*
X2273753Y-18752174D02*
X2283277Y-18714079D01*
X2283277Y-18714079D02*
X2292801Y-18695031D01*
X2292801Y-18695031D02*
X2302324Y-18685508D01*
X2302324Y-18685508D02*
X2321372Y-18675984D01*
X2473753Y-18856936D02*
X2483277Y-18866460D01*
X2483277Y-18866460D02*
X2473753Y-18875984D01*
X2473753Y-18875984D02*
X2464229Y-18866460D01*
X2464229Y-18866460D02*
X2473753Y-18856936D01*
X2473753Y-18856936D02*
X2473753Y-18875984D01*
X2597563Y-18761698D02*
X2578515Y-18752174D01*
X2578515Y-18752174D02*
X2568991Y-18742650D01*
X2568991Y-18742650D02*
X2559467Y-18723603D01*
X2559467Y-18723603D02*
X2559467Y-18714079D01*
X2559467Y-18714079D02*
X2568991Y-18695031D01*
X2568991Y-18695031D02*
X2578515Y-18685508D01*
X2578515Y-18685508D02*
X2597563Y-18675984D01*
X2597563Y-18675984D02*
X2635658Y-18675984D01*
X2635658Y-18675984D02*
X2654705Y-18685508D01*
X2654705Y-18685508D02*
X2664229Y-18695031D01*
X2664229Y-18695031D02*
X2673753Y-18714079D01*
X2673753Y-18714079D02*
X2673753Y-18723603D01*
X2673753Y-18723603D02*
X2664229Y-18742650D01*
X2664229Y-18742650D02*
X2654705Y-18752174D01*
X2654705Y-18752174D02*
X2635658Y-18761698D01*
X2635658Y-18761698D02*
X2597563Y-18761698D01*
X2597563Y-18761698D02*
X2578515Y-18771222D01*
X2578515Y-18771222D02*
X2568991Y-18780746D01*
X2568991Y-18780746D02*
X2559467Y-18799793D01*
X2559467Y-18799793D02*
X2559467Y-18837889D01*
X2559467Y-18837889D02*
X2568991Y-18856936D01*
X2568991Y-18856936D02*
X2578515Y-18866460D01*
X2578515Y-18866460D02*
X2597563Y-18875984D01*
X2597563Y-18875984D02*
X2635658Y-18875984D01*
X2635658Y-18875984D02*
X2654705Y-18866460D01*
X2654705Y-18866460D02*
X2664229Y-18856936D01*
X2664229Y-18856936D02*
X2673753Y-18837889D01*
X2673753Y-18837889D02*
X2673753Y-18799793D01*
X2673753Y-18799793D02*
X2664229Y-18780746D01*
X2664229Y-18780746D02*
X2654705Y-18771222D01*
X2654705Y-18771222D02*
X2635658Y-18761698D01*
X2788039Y-18761698D02*
X2768991Y-18752174D01*
X2768991Y-18752174D02*
X2759467Y-18742650D01*
X2759467Y-18742650D02*
X2749944Y-18723603D01*
X2749944Y-18723603D02*
X2749944Y-18714079D01*
X2749944Y-18714079D02*
X2759467Y-18695031D01*
X2759467Y-18695031D02*
X2768991Y-18685508D01*
X2768991Y-18685508D02*
X2788039Y-18675984D01*
X2788039Y-18675984D02*
X2826134Y-18675984D01*
X2826134Y-18675984D02*
X2845182Y-18685508D01*
X2845182Y-18685508D02*
X2854705Y-18695031D01*
X2854705Y-18695031D02*
X2864229Y-18714079D01*
X2864229Y-18714079D02*
X2864229Y-18723603D01*
X2864229Y-18723603D02*
X2854705Y-18742650D01*
X2854705Y-18742650D02*
X2845182Y-18752174D01*
X2845182Y-18752174D02*
X2826134Y-18761698D01*
X2826134Y-18761698D02*
X2788039Y-18761698D01*
X2788039Y-18761698D02*
X2768991Y-18771222D01*
X2768991Y-18771222D02*
X2759467Y-18780746D01*
X2759467Y-18780746D02*
X2749944Y-18799793D01*
X2749944Y-18799793D02*
X2749944Y-18837889D01*
X2749944Y-18837889D02*
X2759467Y-18856936D01*
X2759467Y-18856936D02*
X2768991Y-18866460D01*
X2768991Y-18866460D02*
X2788039Y-18875984D01*
X2788039Y-18875984D02*
X2826134Y-18875984D01*
X2826134Y-18875984D02*
X2845182Y-18866460D01*
X2845182Y-18866460D02*
X2854705Y-18856936D01*
X2854705Y-18856936D02*
X2864229Y-18837889D01*
X2864229Y-18837889D02*
X2864229Y-18799793D01*
X2864229Y-18799793D02*
X2854705Y-18780746D01*
X2854705Y-18780746D02*
X2845182Y-18771222D01*
X2845182Y-18771222D02*
X2826134Y-18761698D01*
X2959467Y-18875984D02*
X2997562Y-18875984D01*
X2997562Y-18875984D02*
X3016610Y-18866460D01*
X3016610Y-18866460D02*
X3026134Y-18856936D01*
X3026134Y-18856936D02*
X3045182Y-18828365D01*
X3045182Y-18828365D02*
X3054705Y-18790270D01*
X3054705Y-18790270D02*
X3054705Y-18714079D01*
X3054705Y-18714079D02*
X3045182Y-18695031D01*
X3045182Y-18695031D02*
X3035658Y-18685508D01*
X3035658Y-18685508D02*
X3016610Y-18675984D01*
X3016610Y-18675984D02*
X2978515Y-18675984D01*
X2978515Y-18675984D02*
X2959467Y-18685508D01*
X2959467Y-18685508D02*
X2949943Y-18695031D01*
X2949943Y-18695031D02*
X2940420Y-18714079D01*
X2940420Y-18714079D02*
X2940420Y-18761698D01*
X2940420Y-18761698D02*
X2949943Y-18780746D01*
X2949943Y-18780746D02*
X2959467Y-18790270D01*
X2959467Y-18790270D02*
X2978515Y-18799793D01*
X2978515Y-18799793D02*
X3016610Y-18799793D01*
X3016610Y-18799793D02*
X3035658Y-18790270D01*
X3035658Y-18790270D02*
X3045182Y-18780746D01*
X3045182Y-18780746D02*
X3054705Y-18761698D01*
X3140420Y-18875984D02*
X3140420Y-18742650D01*
X3140420Y-18761698D02*
X3149943Y-18752174D01*
X3149943Y-18752174D02*
X3168991Y-18742650D01*
X3168991Y-18742650D02*
X3197563Y-18742650D01*
X3197563Y-18742650D02*
X3216610Y-18752174D01*
X3216610Y-18752174D02*
X3226134Y-18771222D01*
X3226134Y-18771222D02*
X3226134Y-18875984D01*
X3226134Y-18771222D02*
X3235658Y-18752174D01*
X3235658Y-18752174D02*
X3254705Y-18742650D01*
X3254705Y-18742650D02*
X3283277Y-18742650D01*
X3283277Y-18742650D02*
X3302324Y-18752174D01*
X3302324Y-18752174D02*
X3311848Y-18771222D01*
X3311848Y-18771222D02*
X3311848Y-18875984D01*
X3407086Y-18875984D02*
X3407086Y-18742650D01*
X3407086Y-18761698D02*
X3416610Y-18752174D01*
X3416610Y-18752174D02*
X3435658Y-18742650D01*
X3435658Y-18742650D02*
X3464229Y-18742650D01*
X3464229Y-18742650D02*
X3483277Y-18752174D01*
X3483277Y-18752174D02*
X3492801Y-18771222D01*
X3492801Y-18771222D02*
X3492801Y-18875984D01*
X3492801Y-18771222D02*
X3502324Y-18752174D01*
X3502324Y-18752174D02*
X3521372Y-18742650D01*
X3521372Y-18742650D02*
X3549943Y-18742650D01*
X3549943Y-18742650D02*
X3568991Y-18752174D01*
X3568991Y-18752174D02*
X3578515Y-18771222D01*
X3578515Y-18771222D02*
X3578515Y-18875984D01*
X3968991Y-18666460D02*
X3797563Y-18923603D01*
X4226134Y-18675984D02*
X4245182Y-18675984D01*
X4245182Y-18675984D02*
X4264229Y-18685508D01*
X4264229Y-18685508D02*
X4273753Y-18695031D01*
X4273753Y-18695031D02*
X4283277Y-18714079D01*
X4283277Y-18714079D02*
X4292801Y-18752174D01*
X4292801Y-18752174D02*
X4292801Y-18799793D01*
X4292801Y-18799793D02*
X4283277Y-18837889D01*
X4283277Y-18837889D02*
X4273753Y-18856936D01*
X4273753Y-18856936D02*
X4264229Y-18866460D01*
X4264229Y-18866460D02*
X4245182Y-18875984D01*
X4245182Y-18875984D02*
X4226134Y-18875984D01*
X4226134Y-18875984D02*
X4207087Y-18866460D01*
X4207087Y-18866460D02*
X4197563Y-18856936D01*
X4197563Y-18856936D02*
X4188039Y-18837889D01*
X4188039Y-18837889D02*
X4178515Y-18799793D01*
X4178515Y-18799793D02*
X4178515Y-18752174D01*
X4178515Y-18752174D02*
X4188039Y-18714079D01*
X4188039Y-18714079D02*
X4197563Y-18695031D01*
X4197563Y-18695031D02*
X4207087Y-18685508D01*
X4207087Y-18685508D02*
X4226134Y-18675984D01*
X4378515Y-18856936D02*
X4388039Y-18866460D01*
X4388039Y-18866460D02*
X4378515Y-18875984D01*
X4378515Y-18875984D02*
X4368991Y-18866460D01*
X4368991Y-18866460D02*
X4378515Y-18856936D01*
X4378515Y-18856936D02*
X4378515Y-18875984D01*
X4511848Y-18675984D02*
X4530896Y-18675984D01*
X4530896Y-18675984D02*
X4549944Y-18685508D01*
X4549944Y-18685508D02*
X4559468Y-18695031D01*
X4559468Y-18695031D02*
X4568991Y-18714079D01*
X4568991Y-18714079D02*
X4578515Y-18752174D01*
X4578515Y-18752174D02*
X4578515Y-18799793D01*
X4578515Y-18799793D02*
X4568991Y-18837889D01*
X4568991Y-18837889D02*
X4559468Y-18856936D01*
X4559468Y-18856936D02*
X4549944Y-18866460D01*
X4549944Y-18866460D02*
X4530896Y-18875984D01*
X4530896Y-18875984D02*
X4511848Y-18875984D01*
X4511848Y-18875984D02*
X4492801Y-18866460D01*
X4492801Y-18866460D02*
X4483277Y-18856936D01*
X4483277Y-18856936D02*
X4473753Y-18837889D01*
X4473753Y-18837889D02*
X4464229Y-18799793D01*
X4464229Y-18799793D02*
X4464229Y-18752174D01*
X4464229Y-18752174D02*
X4473753Y-18714079D01*
X4473753Y-18714079D02*
X4483277Y-18695031D01*
X4483277Y-18695031D02*
X4492801Y-18685508D01*
X4492801Y-18685508D02*
X4511848Y-18675984D01*
X4645182Y-18675984D02*
X4768991Y-18675984D01*
X4768991Y-18675984D02*
X4702325Y-18752174D01*
X4702325Y-18752174D02*
X4730896Y-18752174D01*
X4730896Y-18752174D02*
X4749944Y-18761698D01*
X4749944Y-18761698D02*
X4759468Y-18771222D01*
X4759468Y-18771222D02*
X4768991Y-18790270D01*
X4768991Y-18790270D02*
X4768991Y-18837889D01*
X4768991Y-18837889D02*
X4759468Y-18856936D01*
X4759468Y-18856936D02*
X4749944Y-18866460D01*
X4749944Y-18866460D02*
X4730896Y-18875984D01*
X4730896Y-18875984D02*
X4673753Y-18875984D01*
X4673753Y-18875984D02*
X4654706Y-18866460D01*
X4654706Y-18866460D02*
X4645182Y-18856936D01*
X4949944Y-18675984D02*
X4854706Y-18675984D01*
X4854706Y-18675984D02*
X4845182Y-18771222D01*
X4845182Y-18771222D02*
X4854706Y-18761698D01*
X4854706Y-18761698D02*
X4873753Y-18752174D01*
X4873753Y-18752174D02*
X4921372Y-18752174D01*
X4921372Y-18752174D02*
X4940420Y-18761698D01*
X4940420Y-18761698D02*
X4949944Y-18771222D01*
X4949944Y-18771222D02*
X4959468Y-18790270D01*
X4959468Y-18790270D02*
X4959468Y-18837889D01*
X4959468Y-18837889D02*
X4949944Y-18856936D01*
X4949944Y-18856936D02*
X4940420Y-18866460D01*
X4940420Y-18866460D02*
X4921372Y-18875984D01*
X4921372Y-18875984D02*
X4873753Y-18875984D01*
X4873753Y-18875984D02*
X4854706Y-18866460D01*
X4854706Y-18866460D02*
X4845182Y-18856936D01*
X5083277Y-18675984D02*
X5102325Y-18675984D01*
X5102325Y-18675984D02*
X5121372Y-18685508D01*
X5121372Y-18685508D02*
X5130896Y-18695031D01*
X5130896Y-18695031D02*
X5140420Y-18714079D01*
X5140420Y-18714079D02*
X5149944Y-18752174D01*
X5149944Y-18752174D02*
X5149944Y-18799793D01*
X5149944Y-18799793D02*
X5140420Y-18837889D01*
X5140420Y-18837889D02*
X5130896Y-18856936D01*
X5130896Y-18856936D02*
X5121372Y-18866460D01*
X5121372Y-18866460D02*
X5102325Y-18875984D01*
X5102325Y-18875984D02*
X5083277Y-18875984D01*
X5083277Y-18875984D02*
X5064229Y-18866460D01*
X5064229Y-18866460D02*
X5054706Y-18856936D01*
X5054706Y-18856936D02*
X5045182Y-18837889D01*
X5045182Y-18837889D02*
X5035658Y-18799793D01*
X5035658Y-18799793D02*
X5035658Y-18752174D01*
X5035658Y-18752174D02*
X5045182Y-18714079D01*
X5045182Y-18714079D02*
X5054706Y-18695031D01*
X5054706Y-18695031D02*
X5064229Y-18685508D01*
X5064229Y-18685508D02*
X5083277Y-18675984D01*
X5226134Y-18675984D02*
X5226134Y-18714079D01*
X5302325Y-18675984D02*
X5302325Y-18714079D01*
X5597563Y-18952174D02*
X5588039Y-18942650D01*
X5588039Y-18942650D02*
X5568991Y-18914079D01*
X5568991Y-18914079D02*
X5559468Y-18895031D01*
X5559468Y-18895031D02*
X5549944Y-18866460D01*
X5549944Y-18866460D02*
X5540420Y-18818841D01*
X5540420Y-18818841D02*
X5540420Y-18780746D01*
X5540420Y-18780746D02*
X5549944Y-18733127D01*
X5549944Y-18733127D02*
X5559468Y-18704555D01*
X5559468Y-18704555D02*
X5568991Y-18685508D01*
X5568991Y-18685508D02*
X5588039Y-18656936D01*
X5588039Y-18656936D02*
X5597563Y-18647412D01*
X5664229Y-18695031D02*
X5673753Y-18685508D01*
X5673753Y-18685508D02*
X5692801Y-18675984D01*
X5692801Y-18675984D02*
X5740420Y-18675984D01*
X5740420Y-18675984D02*
X5759468Y-18685508D01*
X5759468Y-18685508D02*
X5768991Y-18695031D01*
X5768991Y-18695031D02*
X5778515Y-18714079D01*
X5778515Y-18714079D02*
X5778515Y-18733127D01*
X5778515Y-18733127D02*
X5768991Y-18761698D01*
X5768991Y-18761698D02*
X5654706Y-18875984D01*
X5654706Y-18875984D02*
X5778515Y-18875984D01*
X6016610Y-18875984D02*
X6016610Y-18675984D01*
X6102325Y-18875984D02*
X6102325Y-18771222D01*
X6102325Y-18771222D02*
X6092801Y-18752174D01*
X6092801Y-18752174D02*
X6073753Y-18742650D01*
X6073753Y-18742650D02*
X6045182Y-18742650D01*
X6045182Y-18742650D02*
X6026134Y-18752174D01*
X6026134Y-18752174D02*
X6016610Y-18761698D01*
X6226134Y-18875984D02*
X6207087Y-18866460D01*
X6207087Y-18866460D02*
X6197563Y-18856936D01*
X6197563Y-18856936D02*
X6188039Y-18837889D01*
X6188039Y-18837889D02*
X6188039Y-18780746D01*
X6188039Y-18780746D02*
X6197563Y-18761698D01*
X6197563Y-18761698D02*
X6207087Y-18752174D01*
X6207087Y-18752174D02*
X6226134Y-18742650D01*
X6226134Y-18742650D02*
X6254706Y-18742650D01*
X6254706Y-18742650D02*
X6273753Y-18752174D01*
X6273753Y-18752174D02*
X6283277Y-18761698D01*
X6283277Y-18761698D02*
X6292801Y-18780746D01*
X6292801Y-18780746D02*
X6292801Y-18837889D01*
X6292801Y-18837889D02*
X6283277Y-18856936D01*
X6283277Y-18856936D02*
X6273753Y-18866460D01*
X6273753Y-18866460D02*
X6254706Y-18875984D01*
X6254706Y-18875984D02*
X6226134Y-18875984D01*
X6407087Y-18875984D02*
X6388039Y-18866460D01*
X6388039Y-18866460D02*
X6378515Y-18847412D01*
X6378515Y-18847412D02*
X6378515Y-18675984D01*
X6559468Y-18866460D02*
X6540420Y-18875984D01*
X6540420Y-18875984D02*
X6502325Y-18875984D01*
X6502325Y-18875984D02*
X6483277Y-18866460D01*
X6483277Y-18866460D02*
X6473753Y-18847412D01*
X6473753Y-18847412D02*
X6473753Y-18771222D01*
X6473753Y-18771222D02*
X6483277Y-18752174D01*
X6483277Y-18752174D02*
X6502325Y-18742650D01*
X6502325Y-18742650D02*
X6540420Y-18742650D01*
X6540420Y-18742650D02*
X6559468Y-18752174D01*
X6559468Y-18752174D02*
X6568991Y-18771222D01*
X6568991Y-18771222D02*
X6568991Y-18790270D01*
X6568991Y-18790270D02*
X6473753Y-18809317D01*
X6645182Y-18866460D02*
X6664230Y-18875984D01*
X6664230Y-18875984D02*
X6702325Y-18875984D01*
X6702325Y-18875984D02*
X6721372Y-18866460D01*
X6721372Y-18866460D02*
X6730896Y-18847412D01*
X6730896Y-18847412D02*
X6730896Y-18837889D01*
X6730896Y-18837889D02*
X6721372Y-18818841D01*
X6721372Y-18818841D02*
X6702325Y-18809317D01*
X6702325Y-18809317D02*
X6673753Y-18809317D01*
X6673753Y-18809317D02*
X6654706Y-18799793D01*
X6654706Y-18799793D02*
X6645182Y-18780746D01*
X6645182Y-18780746D02*
X6645182Y-18771222D01*
X6645182Y-18771222D02*
X6654706Y-18752174D01*
X6654706Y-18752174D02*
X6673753Y-18742650D01*
X6673753Y-18742650D02*
X6702325Y-18742650D01*
X6702325Y-18742650D02*
X6721372Y-18752174D01*
X6797563Y-18952174D02*
X6807087Y-18942650D01*
X6807087Y-18942650D02*
X6826134Y-18914079D01*
X6826134Y-18914079D02*
X6835658Y-18895031D01*
X6835658Y-18895031D02*
X6845182Y-18866460D01*
X6845182Y-18866460D02*
X6854706Y-18818841D01*
X6854706Y-18818841D02*
X6854706Y-18780746D01*
X6854706Y-18780746D02*
X6845182Y-18733127D01*
X6845182Y-18733127D02*
X6835658Y-18704555D01*
X6835658Y-18704555D02*
X6826134Y-18685508D01*
X6826134Y-18685508D02*
X6807087Y-18656936D01*
X6807087Y-18656936D02*
X6797563Y-18647412D01*
D12*
X1976500Y-19094500D02*
X2022500Y-19048500D01*
X1976500Y-19002500D01*
X1930500Y-19048500D01*
X1976500Y-19094500D01*
D11*
X2321372Y-18939984D02*
X2340420Y-18939984D01*
X2340420Y-18939984D02*
X2359467Y-18949508D01*
X2359467Y-18949508D02*
X2368991Y-18959031D01*
X2368991Y-18959031D02*
X2378515Y-18978079D01*
X2378515Y-18978079D02*
X2388039Y-19016174D01*
X2388039Y-19016174D02*
X2388039Y-19063793D01*
X2388039Y-19063793D02*
X2378515Y-19101889D01*
X2378515Y-19101889D02*
X2368991Y-19120936D01*
X2368991Y-19120936D02*
X2359467Y-19130460D01*
X2359467Y-19130460D02*
X2340420Y-19139984D01*
X2340420Y-19139984D02*
X2321372Y-19139984D01*
X2321372Y-19139984D02*
X2302324Y-19130460D01*
X2302324Y-19130460D02*
X2292801Y-19120936D01*
X2292801Y-19120936D02*
X2283277Y-19101889D01*
X2283277Y-19101889D02*
X2273753Y-19063793D01*
X2273753Y-19063793D02*
X2273753Y-19016174D01*
X2273753Y-19016174D02*
X2283277Y-18978079D01*
X2283277Y-18978079D02*
X2292801Y-18959031D01*
X2292801Y-18959031D02*
X2302324Y-18949508D01*
X2302324Y-18949508D02*
X2321372Y-18939984D01*
X2473753Y-19120936D02*
X2483277Y-19130460D01*
X2483277Y-19130460D02*
X2473753Y-19139984D01*
X2473753Y-19139984D02*
X2464229Y-19130460D01*
X2464229Y-19130460D02*
X2473753Y-19120936D01*
X2473753Y-19120936D02*
X2473753Y-19139984D01*
X2578515Y-19139984D02*
X2616610Y-19139984D01*
X2616610Y-19139984D02*
X2635658Y-19130460D01*
X2635658Y-19130460D02*
X2645182Y-19120936D01*
X2645182Y-19120936D02*
X2664229Y-19092365D01*
X2664229Y-19092365D02*
X2673753Y-19054270D01*
X2673753Y-19054270D02*
X2673753Y-18978079D01*
X2673753Y-18978079D02*
X2664229Y-18959031D01*
X2664229Y-18959031D02*
X2654705Y-18949508D01*
X2654705Y-18949508D02*
X2635658Y-18939984D01*
X2635658Y-18939984D02*
X2597563Y-18939984D01*
X2597563Y-18939984D02*
X2578515Y-18949508D01*
X2578515Y-18949508D02*
X2568991Y-18959031D01*
X2568991Y-18959031D02*
X2559467Y-18978079D01*
X2559467Y-18978079D02*
X2559467Y-19025698D01*
X2559467Y-19025698D02*
X2568991Y-19044746D01*
X2568991Y-19044746D02*
X2578515Y-19054270D01*
X2578515Y-19054270D02*
X2597563Y-19063793D01*
X2597563Y-19063793D02*
X2635658Y-19063793D01*
X2635658Y-19063793D02*
X2654705Y-19054270D01*
X2654705Y-19054270D02*
X2664229Y-19044746D01*
X2664229Y-19044746D02*
X2673753Y-19025698D01*
X2749944Y-18959031D02*
X2759467Y-18949508D01*
X2759467Y-18949508D02*
X2778515Y-18939984D01*
X2778515Y-18939984D02*
X2826134Y-18939984D01*
X2826134Y-18939984D02*
X2845182Y-18949508D01*
X2845182Y-18949508D02*
X2854705Y-18959031D01*
X2854705Y-18959031D02*
X2864229Y-18978079D01*
X2864229Y-18978079D02*
X2864229Y-18997127D01*
X2864229Y-18997127D02*
X2854705Y-19025698D01*
X2854705Y-19025698D02*
X2740420Y-19139984D01*
X2740420Y-19139984D02*
X2864229Y-19139984D01*
X2988039Y-18939984D02*
X3007086Y-18939984D01*
X3007086Y-18939984D02*
X3026134Y-18949508D01*
X3026134Y-18949508D02*
X3035658Y-18959031D01*
X3035658Y-18959031D02*
X3045182Y-18978079D01*
X3045182Y-18978079D02*
X3054705Y-19016174D01*
X3054705Y-19016174D02*
X3054705Y-19063793D01*
X3054705Y-19063793D02*
X3045182Y-19101889D01*
X3045182Y-19101889D02*
X3035658Y-19120936D01*
X3035658Y-19120936D02*
X3026134Y-19130460D01*
X3026134Y-19130460D02*
X3007086Y-19139984D01*
X3007086Y-19139984D02*
X2988039Y-19139984D01*
X2988039Y-19139984D02*
X2968991Y-19130460D01*
X2968991Y-19130460D02*
X2959467Y-19120936D01*
X2959467Y-19120936D02*
X2949943Y-19101889D01*
X2949943Y-19101889D02*
X2940420Y-19063793D01*
X2940420Y-19063793D02*
X2940420Y-19016174D01*
X2940420Y-19016174D02*
X2949943Y-18978079D01*
X2949943Y-18978079D02*
X2959467Y-18959031D01*
X2959467Y-18959031D02*
X2968991Y-18949508D01*
X2968991Y-18949508D02*
X2988039Y-18939984D01*
X3140420Y-19139984D02*
X3140420Y-19006650D01*
X3140420Y-19025698D02*
X3149943Y-19016174D01*
X3149943Y-19016174D02*
X3168991Y-19006650D01*
X3168991Y-19006650D02*
X3197563Y-19006650D01*
X3197563Y-19006650D02*
X3216610Y-19016174D01*
X3216610Y-19016174D02*
X3226134Y-19035222D01*
X3226134Y-19035222D02*
X3226134Y-19139984D01*
X3226134Y-19035222D02*
X3235658Y-19016174D01*
X3235658Y-19016174D02*
X3254705Y-19006650D01*
X3254705Y-19006650D02*
X3283277Y-19006650D01*
X3283277Y-19006650D02*
X3302324Y-19016174D01*
X3302324Y-19016174D02*
X3311848Y-19035222D01*
X3311848Y-19035222D02*
X3311848Y-19139984D01*
X3407086Y-19139984D02*
X3407086Y-19006650D01*
X3407086Y-19025698D02*
X3416610Y-19016174D01*
X3416610Y-19016174D02*
X3435658Y-19006650D01*
X3435658Y-19006650D02*
X3464229Y-19006650D01*
X3464229Y-19006650D02*
X3483277Y-19016174D01*
X3483277Y-19016174D02*
X3492801Y-19035222D01*
X3492801Y-19035222D02*
X3492801Y-19139984D01*
X3492801Y-19035222D02*
X3502324Y-19016174D01*
X3502324Y-19016174D02*
X3521372Y-19006650D01*
X3521372Y-19006650D02*
X3549943Y-19006650D01*
X3549943Y-19006650D02*
X3568991Y-19016174D01*
X3568991Y-19016174D02*
X3578515Y-19035222D01*
X3578515Y-19035222D02*
X3578515Y-19139984D01*
X3968991Y-18930460D02*
X3797563Y-19187603D01*
X4226134Y-18939984D02*
X4245182Y-18939984D01*
X4245182Y-18939984D02*
X4264229Y-18949508D01*
X4264229Y-18949508D02*
X4273753Y-18959031D01*
X4273753Y-18959031D02*
X4283277Y-18978079D01*
X4283277Y-18978079D02*
X4292801Y-19016174D01*
X4292801Y-19016174D02*
X4292801Y-19063793D01*
X4292801Y-19063793D02*
X4283277Y-19101889D01*
X4283277Y-19101889D02*
X4273753Y-19120936D01*
X4273753Y-19120936D02*
X4264229Y-19130460D01*
X4264229Y-19130460D02*
X4245182Y-19139984D01*
X4245182Y-19139984D02*
X4226134Y-19139984D01*
X4226134Y-19139984D02*
X4207087Y-19130460D01*
X4207087Y-19130460D02*
X4197563Y-19120936D01*
X4197563Y-19120936D02*
X4188039Y-19101889D01*
X4188039Y-19101889D02*
X4178515Y-19063793D01*
X4178515Y-19063793D02*
X4178515Y-19016174D01*
X4178515Y-19016174D02*
X4188039Y-18978079D01*
X4188039Y-18978079D02*
X4197563Y-18959031D01*
X4197563Y-18959031D02*
X4207087Y-18949508D01*
X4207087Y-18949508D02*
X4226134Y-18939984D01*
X4378515Y-19120936D02*
X4388039Y-19130460D01*
X4388039Y-19130460D02*
X4378515Y-19139984D01*
X4378515Y-19139984D02*
X4368991Y-19130460D01*
X4368991Y-19130460D02*
X4378515Y-19120936D01*
X4378515Y-19120936D02*
X4378515Y-19139984D01*
X4511848Y-18939984D02*
X4530896Y-18939984D01*
X4530896Y-18939984D02*
X4549944Y-18949508D01*
X4549944Y-18949508D02*
X4559468Y-18959031D01*
X4559468Y-18959031D02*
X4568991Y-18978079D01*
X4568991Y-18978079D02*
X4578515Y-19016174D01*
X4578515Y-19016174D02*
X4578515Y-19063793D01*
X4578515Y-19063793D02*
X4568991Y-19101889D01*
X4568991Y-19101889D02*
X4559468Y-19120936D01*
X4559468Y-19120936D02*
X4549944Y-19130460D01*
X4549944Y-19130460D02*
X4530896Y-19139984D01*
X4530896Y-19139984D02*
X4511848Y-19139984D01*
X4511848Y-19139984D02*
X4492801Y-19130460D01*
X4492801Y-19130460D02*
X4483277Y-19120936D01*
X4483277Y-19120936D02*
X4473753Y-19101889D01*
X4473753Y-19101889D02*
X4464229Y-19063793D01*
X4464229Y-19063793D02*
X4464229Y-19016174D01*
X4464229Y-19016174D02*
X4473753Y-18978079D01*
X4473753Y-18978079D02*
X4483277Y-18959031D01*
X4483277Y-18959031D02*
X4492801Y-18949508D01*
X4492801Y-18949508D02*
X4511848Y-18939984D01*
X4645182Y-18939984D02*
X4768991Y-18939984D01*
X4768991Y-18939984D02*
X4702325Y-19016174D01*
X4702325Y-19016174D02*
X4730896Y-19016174D01*
X4730896Y-19016174D02*
X4749944Y-19025698D01*
X4749944Y-19025698D02*
X4759468Y-19035222D01*
X4759468Y-19035222D02*
X4768991Y-19054270D01*
X4768991Y-19054270D02*
X4768991Y-19101889D01*
X4768991Y-19101889D02*
X4759468Y-19120936D01*
X4759468Y-19120936D02*
X4749944Y-19130460D01*
X4749944Y-19130460D02*
X4730896Y-19139984D01*
X4730896Y-19139984D02*
X4673753Y-19139984D01*
X4673753Y-19139984D02*
X4654706Y-19130460D01*
X4654706Y-19130460D02*
X4645182Y-19120936D01*
X4940420Y-18939984D02*
X4902325Y-18939984D01*
X4902325Y-18939984D02*
X4883277Y-18949508D01*
X4883277Y-18949508D02*
X4873753Y-18959031D01*
X4873753Y-18959031D02*
X4854706Y-18987603D01*
X4854706Y-18987603D02*
X4845182Y-19025698D01*
X4845182Y-19025698D02*
X4845182Y-19101889D01*
X4845182Y-19101889D02*
X4854706Y-19120936D01*
X4854706Y-19120936D02*
X4864229Y-19130460D01*
X4864229Y-19130460D02*
X4883277Y-19139984D01*
X4883277Y-19139984D02*
X4921372Y-19139984D01*
X4921372Y-19139984D02*
X4940420Y-19130460D01*
X4940420Y-19130460D02*
X4949944Y-19120936D01*
X4949944Y-19120936D02*
X4959468Y-19101889D01*
X4959468Y-19101889D02*
X4959468Y-19054270D01*
X4959468Y-19054270D02*
X4949944Y-19035222D01*
X4949944Y-19035222D02*
X4940420Y-19025698D01*
X4940420Y-19025698D02*
X4921372Y-19016174D01*
X4921372Y-19016174D02*
X4883277Y-19016174D01*
X4883277Y-19016174D02*
X4864229Y-19025698D01*
X4864229Y-19025698D02*
X4854706Y-19035222D01*
X4854706Y-19035222D02*
X4845182Y-19054270D01*
X5035658Y-18959031D02*
X5045182Y-18949508D01*
X5045182Y-18949508D02*
X5064229Y-18939984D01*
X5064229Y-18939984D02*
X5111849Y-18939984D01*
X5111849Y-18939984D02*
X5130896Y-18949508D01*
X5130896Y-18949508D02*
X5140420Y-18959031D01*
X5140420Y-18959031D02*
X5149944Y-18978079D01*
X5149944Y-18978079D02*
X5149944Y-18997127D01*
X5149944Y-18997127D02*
X5140420Y-19025698D01*
X5140420Y-19025698D02*
X5026134Y-19139984D01*
X5026134Y-19139984D02*
X5149944Y-19139984D01*
X5226134Y-18939984D02*
X5226134Y-18978079D01*
X5302325Y-18939984D02*
X5302325Y-18978079D01*
X5597563Y-19216174D02*
X5588039Y-19206650D01*
X5588039Y-19206650D02*
X5568991Y-19178079D01*
X5568991Y-19178079D02*
X5559468Y-19159031D01*
X5559468Y-19159031D02*
X5549944Y-19130460D01*
X5549944Y-19130460D02*
X5540420Y-19082841D01*
X5540420Y-19082841D02*
X5540420Y-19044746D01*
X5540420Y-19044746D02*
X5549944Y-18997127D01*
X5549944Y-18997127D02*
X5559468Y-18968555D01*
X5559468Y-18968555D02*
X5568991Y-18949508D01*
X5568991Y-18949508D02*
X5588039Y-18920936D01*
X5588039Y-18920936D02*
X5597563Y-18911412D01*
X5702325Y-19025698D02*
X5683277Y-19016174D01*
X5683277Y-19016174D02*
X5673753Y-19006650D01*
X5673753Y-19006650D02*
X5664229Y-18987603D01*
X5664229Y-18987603D02*
X5664229Y-18978079D01*
X5664229Y-18978079D02*
X5673753Y-18959031D01*
X5673753Y-18959031D02*
X5683277Y-18949508D01*
X5683277Y-18949508D02*
X5702325Y-18939984D01*
X5702325Y-18939984D02*
X5740420Y-18939984D01*
X5740420Y-18939984D02*
X5759468Y-18949508D01*
X5759468Y-18949508D02*
X5768991Y-18959031D01*
X5768991Y-18959031D02*
X5778515Y-18978079D01*
X5778515Y-18978079D02*
X5778515Y-18987603D01*
X5778515Y-18987603D02*
X5768991Y-19006650D01*
X5768991Y-19006650D02*
X5759468Y-19016174D01*
X5759468Y-19016174D02*
X5740420Y-19025698D01*
X5740420Y-19025698D02*
X5702325Y-19025698D01*
X5702325Y-19025698D02*
X5683277Y-19035222D01*
X5683277Y-19035222D02*
X5673753Y-19044746D01*
X5673753Y-19044746D02*
X5664229Y-19063793D01*
X5664229Y-19063793D02*
X5664229Y-19101889D01*
X5664229Y-19101889D02*
X5673753Y-19120936D01*
X5673753Y-19120936D02*
X5683277Y-19130460D01*
X5683277Y-19130460D02*
X5702325Y-19139984D01*
X5702325Y-19139984D02*
X5740420Y-19139984D01*
X5740420Y-19139984D02*
X5759468Y-19130460D01*
X5759468Y-19130460D02*
X5768991Y-19120936D01*
X5768991Y-19120936D02*
X5778515Y-19101889D01*
X5778515Y-19101889D02*
X5778515Y-19063793D01*
X5778515Y-19063793D02*
X5768991Y-19044746D01*
X5768991Y-19044746D02*
X5759468Y-19035222D01*
X5759468Y-19035222D02*
X5740420Y-19025698D01*
X6016610Y-19139984D02*
X6016610Y-18939984D01*
X6102325Y-19139984D02*
X6102325Y-19035222D01*
X6102325Y-19035222D02*
X6092801Y-19016174D01*
X6092801Y-19016174D02*
X6073753Y-19006650D01*
X6073753Y-19006650D02*
X6045182Y-19006650D01*
X6045182Y-19006650D02*
X6026134Y-19016174D01*
X6026134Y-19016174D02*
X6016610Y-19025698D01*
X6226134Y-19139984D02*
X6207087Y-19130460D01*
X6207087Y-19130460D02*
X6197563Y-19120936D01*
X6197563Y-19120936D02*
X6188039Y-19101889D01*
X6188039Y-19101889D02*
X6188039Y-19044746D01*
X6188039Y-19044746D02*
X6197563Y-19025698D01*
X6197563Y-19025698D02*
X6207087Y-19016174D01*
X6207087Y-19016174D02*
X6226134Y-19006650D01*
X6226134Y-19006650D02*
X6254706Y-19006650D01*
X6254706Y-19006650D02*
X6273753Y-19016174D01*
X6273753Y-19016174D02*
X6283277Y-19025698D01*
X6283277Y-19025698D02*
X6292801Y-19044746D01*
X6292801Y-19044746D02*
X6292801Y-19101889D01*
X6292801Y-19101889D02*
X6283277Y-19120936D01*
X6283277Y-19120936D02*
X6273753Y-19130460D01*
X6273753Y-19130460D02*
X6254706Y-19139984D01*
X6254706Y-19139984D02*
X6226134Y-19139984D01*
X6407087Y-19139984D02*
X6388039Y-19130460D01*
X6388039Y-19130460D02*
X6378515Y-19111412D01*
X6378515Y-19111412D02*
X6378515Y-18939984D01*
X6559468Y-19130460D02*
X6540420Y-19139984D01*
X6540420Y-19139984D02*
X6502325Y-19139984D01*
X6502325Y-19139984D02*
X6483277Y-19130460D01*
X6483277Y-19130460D02*
X6473753Y-19111412D01*
X6473753Y-19111412D02*
X6473753Y-19035222D01*
X6473753Y-19035222D02*
X6483277Y-19016174D01*
X6483277Y-19016174D02*
X6502325Y-19006650D01*
X6502325Y-19006650D02*
X6540420Y-19006650D01*
X6540420Y-19006650D02*
X6559468Y-19016174D01*
X6559468Y-19016174D02*
X6568991Y-19035222D01*
X6568991Y-19035222D02*
X6568991Y-19054270D01*
X6568991Y-19054270D02*
X6473753Y-19073317D01*
X6645182Y-19130460D02*
X6664230Y-19139984D01*
X6664230Y-19139984D02*
X6702325Y-19139984D01*
X6702325Y-19139984D02*
X6721372Y-19130460D01*
X6721372Y-19130460D02*
X6730896Y-19111412D01*
X6730896Y-19111412D02*
X6730896Y-19101889D01*
X6730896Y-19101889D02*
X6721372Y-19082841D01*
X6721372Y-19082841D02*
X6702325Y-19073317D01*
X6702325Y-19073317D02*
X6673753Y-19073317D01*
X6673753Y-19073317D02*
X6654706Y-19063793D01*
X6654706Y-19063793D02*
X6645182Y-19044746D01*
X6645182Y-19044746D02*
X6645182Y-19035222D01*
X6645182Y-19035222D02*
X6654706Y-19016174D01*
X6654706Y-19016174D02*
X6673753Y-19006650D01*
X6673753Y-19006650D02*
X6702325Y-19006650D01*
X6702325Y-19006650D02*
X6721372Y-19016174D01*
X6797563Y-19216174D02*
X6807087Y-19206650D01*
X6807087Y-19206650D02*
X6826134Y-19178079D01*
X6826134Y-19178079D02*
X6835658Y-19159031D01*
X6835658Y-19159031D02*
X6845182Y-19130460D01*
X6845182Y-19130460D02*
X6854706Y-19082841D01*
X6854706Y-19082841D02*
X6854706Y-19044746D01*
X6854706Y-19044746D02*
X6845182Y-18997127D01*
X6845182Y-18997127D02*
X6835658Y-18968555D01*
X6835658Y-18968555D02*
X6826134Y-18949508D01*
X6826134Y-18949508D02*
X6807087Y-18920936D01*
X6807087Y-18920936D02*
X6797563Y-18911412D01*
D12*
X1923440Y-19262970D02*
X2022500Y-19362030D01*
X2022500Y-19262970D02*
X1923440Y-19362030D01*
X2022500Y-19312500D02*
G75*
G02*
X1923440Y-19312500I-49530J0D01*
G01*
X1923440Y-19312500D02*
G75*
G02*
X2022500Y-19312500I49530J0D01*
G01*
D11*
X2321372Y-19203984D02*
X2340420Y-19203984D01*
X2340420Y-19203984D02*
X2359467Y-19213508D01*
X2359467Y-19213508D02*
X2368991Y-19223031D01*
X2368991Y-19223031D02*
X2378515Y-19242079D01*
X2378515Y-19242079D02*
X2388039Y-19280174D01*
X2388039Y-19280174D02*
X2388039Y-19327793D01*
X2388039Y-19327793D02*
X2378515Y-19365889D01*
X2378515Y-19365889D02*
X2368991Y-19384936D01*
X2368991Y-19384936D02*
X2359467Y-19394460D01*
X2359467Y-19394460D02*
X2340420Y-19403984D01*
X2340420Y-19403984D02*
X2321372Y-19403984D01*
X2321372Y-19403984D02*
X2302324Y-19394460D01*
X2302324Y-19394460D02*
X2292801Y-19384936D01*
X2292801Y-19384936D02*
X2283277Y-19365889D01*
X2283277Y-19365889D02*
X2273753Y-19327793D01*
X2273753Y-19327793D02*
X2273753Y-19280174D01*
X2273753Y-19280174D02*
X2283277Y-19242079D01*
X2283277Y-19242079D02*
X2292801Y-19223031D01*
X2292801Y-19223031D02*
X2302324Y-19213508D01*
X2302324Y-19213508D02*
X2321372Y-19203984D01*
X2473753Y-19384936D02*
X2483277Y-19394460D01*
X2483277Y-19394460D02*
X2473753Y-19403984D01*
X2473753Y-19403984D02*
X2464229Y-19394460D01*
X2464229Y-19394460D02*
X2473753Y-19384936D01*
X2473753Y-19384936D02*
X2473753Y-19403984D01*
X2578515Y-19403984D02*
X2616610Y-19403984D01*
X2616610Y-19403984D02*
X2635658Y-19394460D01*
X2635658Y-19394460D02*
X2645182Y-19384936D01*
X2645182Y-19384936D02*
X2664229Y-19356365D01*
X2664229Y-19356365D02*
X2673753Y-19318270D01*
X2673753Y-19318270D02*
X2673753Y-19242079D01*
X2673753Y-19242079D02*
X2664229Y-19223031D01*
X2664229Y-19223031D02*
X2654705Y-19213508D01*
X2654705Y-19213508D02*
X2635658Y-19203984D01*
X2635658Y-19203984D02*
X2597563Y-19203984D01*
X2597563Y-19203984D02*
X2578515Y-19213508D01*
X2578515Y-19213508D02*
X2568991Y-19223031D01*
X2568991Y-19223031D02*
X2559467Y-19242079D01*
X2559467Y-19242079D02*
X2559467Y-19289698D01*
X2559467Y-19289698D02*
X2568991Y-19308746D01*
X2568991Y-19308746D02*
X2578515Y-19318270D01*
X2578515Y-19318270D02*
X2597563Y-19327793D01*
X2597563Y-19327793D02*
X2635658Y-19327793D01*
X2635658Y-19327793D02*
X2654705Y-19318270D01*
X2654705Y-19318270D02*
X2664229Y-19308746D01*
X2664229Y-19308746D02*
X2673753Y-19289698D01*
X2768991Y-19403984D02*
X2807086Y-19403984D01*
X2807086Y-19403984D02*
X2826134Y-19394460D01*
X2826134Y-19394460D02*
X2835658Y-19384936D01*
X2835658Y-19384936D02*
X2854705Y-19356365D01*
X2854705Y-19356365D02*
X2864229Y-19318270D01*
X2864229Y-19318270D02*
X2864229Y-19242079D01*
X2864229Y-19242079D02*
X2854705Y-19223031D01*
X2854705Y-19223031D02*
X2845182Y-19213508D01*
X2845182Y-19213508D02*
X2826134Y-19203984D01*
X2826134Y-19203984D02*
X2788039Y-19203984D01*
X2788039Y-19203984D02*
X2768991Y-19213508D01*
X2768991Y-19213508D02*
X2759467Y-19223031D01*
X2759467Y-19223031D02*
X2749944Y-19242079D01*
X2749944Y-19242079D02*
X2749944Y-19289698D01*
X2749944Y-19289698D02*
X2759467Y-19308746D01*
X2759467Y-19308746D02*
X2768991Y-19318270D01*
X2768991Y-19318270D02*
X2788039Y-19327793D01*
X2788039Y-19327793D02*
X2826134Y-19327793D01*
X2826134Y-19327793D02*
X2845182Y-19318270D01*
X2845182Y-19318270D02*
X2854705Y-19308746D01*
X2854705Y-19308746D02*
X2864229Y-19289698D01*
X3054705Y-19403984D02*
X2940420Y-19403984D01*
X2997562Y-19403984D02*
X2997562Y-19203984D01*
X2997562Y-19203984D02*
X2978515Y-19232555D01*
X2978515Y-19232555D02*
X2959467Y-19251603D01*
X2959467Y-19251603D02*
X2940420Y-19261127D01*
X3140420Y-19403984D02*
X3140420Y-19270650D01*
X3140420Y-19289698D02*
X3149943Y-19280174D01*
X3149943Y-19280174D02*
X3168991Y-19270650D01*
X3168991Y-19270650D02*
X3197563Y-19270650D01*
X3197563Y-19270650D02*
X3216610Y-19280174D01*
X3216610Y-19280174D02*
X3226134Y-19299222D01*
X3226134Y-19299222D02*
X3226134Y-19403984D01*
X3226134Y-19299222D02*
X3235658Y-19280174D01*
X3235658Y-19280174D02*
X3254705Y-19270650D01*
X3254705Y-19270650D02*
X3283277Y-19270650D01*
X3283277Y-19270650D02*
X3302324Y-19280174D01*
X3302324Y-19280174D02*
X3311848Y-19299222D01*
X3311848Y-19299222D02*
X3311848Y-19403984D01*
X3407086Y-19403984D02*
X3407086Y-19270650D01*
X3407086Y-19289698D02*
X3416610Y-19280174D01*
X3416610Y-19280174D02*
X3435658Y-19270650D01*
X3435658Y-19270650D02*
X3464229Y-19270650D01*
X3464229Y-19270650D02*
X3483277Y-19280174D01*
X3483277Y-19280174D02*
X3492801Y-19299222D01*
X3492801Y-19299222D02*
X3492801Y-19403984D01*
X3492801Y-19299222D02*
X3502324Y-19280174D01*
X3502324Y-19280174D02*
X3521372Y-19270650D01*
X3521372Y-19270650D02*
X3549943Y-19270650D01*
X3549943Y-19270650D02*
X3568991Y-19280174D01*
X3568991Y-19280174D02*
X3578515Y-19299222D01*
X3578515Y-19299222D02*
X3578515Y-19403984D01*
X3968991Y-19194460D02*
X3797563Y-19451603D01*
X4226134Y-19203984D02*
X4245182Y-19203984D01*
X4245182Y-19203984D02*
X4264229Y-19213508D01*
X4264229Y-19213508D02*
X4273753Y-19223031D01*
X4273753Y-19223031D02*
X4283277Y-19242079D01*
X4283277Y-19242079D02*
X4292801Y-19280174D01*
X4292801Y-19280174D02*
X4292801Y-19327793D01*
X4292801Y-19327793D02*
X4283277Y-19365889D01*
X4283277Y-19365889D02*
X4273753Y-19384936D01*
X4273753Y-19384936D02*
X4264229Y-19394460D01*
X4264229Y-19394460D02*
X4245182Y-19403984D01*
X4245182Y-19403984D02*
X4226134Y-19403984D01*
X4226134Y-19403984D02*
X4207087Y-19394460D01*
X4207087Y-19394460D02*
X4197563Y-19384936D01*
X4197563Y-19384936D02*
X4188039Y-19365889D01*
X4188039Y-19365889D02*
X4178515Y-19327793D01*
X4178515Y-19327793D02*
X4178515Y-19280174D01*
X4178515Y-19280174D02*
X4188039Y-19242079D01*
X4188039Y-19242079D02*
X4197563Y-19223031D01*
X4197563Y-19223031D02*
X4207087Y-19213508D01*
X4207087Y-19213508D02*
X4226134Y-19203984D01*
X4378515Y-19384936D02*
X4388039Y-19394460D01*
X4388039Y-19394460D02*
X4378515Y-19403984D01*
X4378515Y-19403984D02*
X4368991Y-19394460D01*
X4368991Y-19394460D02*
X4378515Y-19384936D01*
X4378515Y-19384936D02*
X4378515Y-19403984D01*
X4511848Y-19203984D02*
X4530896Y-19203984D01*
X4530896Y-19203984D02*
X4549944Y-19213508D01*
X4549944Y-19213508D02*
X4559468Y-19223031D01*
X4559468Y-19223031D02*
X4568991Y-19242079D01*
X4568991Y-19242079D02*
X4578515Y-19280174D01*
X4578515Y-19280174D02*
X4578515Y-19327793D01*
X4578515Y-19327793D02*
X4568991Y-19365889D01*
X4568991Y-19365889D02*
X4559468Y-19384936D01*
X4559468Y-19384936D02*
X4549944Y-19394460D01*
X4549944Y-19394460D02*
X4530896Y-19403984D01*
X4530896Y-19403984D02*
X4511848Y-19403984D01*
X4511848Y-19403984D02*
X4492801Y-19394460D01*
X4492801Y-19394460D02*
X4483277Y-19384936D01*
X4483277Y-19384936D02*
X4473753Y-19365889D01*
X4473753Y-19365889D02*
X4464229Y-19327793D01*
X4464229Y-19327793D02*
X4464229Y-19280174D01*
X4464229Y-19280174D02*
X4473753Y-19242079D01*
X4473753Y-19242079D02*
X4483277Y-19223031D01*
X4483277Y-19223031D02*
X4492801Y-19213508D01*
X4492801Y-19213508D02*
X4511848Y-19203984D01*
X4645182Y-19203984D02*
X4768991Y-19203984D01*
X4768991Y-19203984D02*
X4702325Y-19280174D01*
X4702325Y-19280174D02*
X4730896Y-19280174D01*
X4730896Y-19280174D02*
X4749944Y-19289698D01*
X4749944Y-19289698D02*
X4759468Y-19299222D01*
X4759468Y-19299222D02*
X4768991Y-19318270D01*
X4768991Y-19318270D02*
X4768991Y-19365889D01*
X4768991Y-19365889D02*
X4759468Y-19384936D01*
X4759468Y-19384936D02*
X4749944Y-19394460D01*
X4749944Y-19394460D02*
X4730896Y-19403984D01*
X4730896Y-19403984D02*
X4673753Y-19403984D01*
X4673753Y-19403984D02*
X4654706Y-19394460D01*
X4654706Y-19394460D02*
X4645182Y-19384936D01*
X4864229Y-19403984D02*
X4902325Y-19403984D01*
X4902325Y-19403984D02*
X4921372Y-19394460D01*
X4921372Y-19394460D02*
X4930896Y-19384936D01*
X4930896Y-19384936D02*
X4949944Y-19356365D01*
X4949944Y-19356365D02*
X4959468Y-19318270D01*
X4959468Y-19318270D02*
X4959468Y-19242079D01*
X4959468Y-19242079D02*
X4949944Y-19223031D01*
X4949944Y-19223031D02*
X4940420Y-19213508D01*
X4940420Y-19213508D02*
X4921372Y-19203984D01*
X4921372Y-19203984D02*
X4883277Y-19203984D01*
X4883277Y-19203984D02*
X4864229Y-19213508D01*
X4864229Y-19213508D02*
X4854706Y-19223031D01*
X4854706Y-19223031D02*
X4845182Y-19242079D01*
X4845182Y-19242079D02*
X4845182Y-19289698D01*
X4845182Y-19289698D02*
X4854706Y-19308746D01*
X4854706Y-19308746D02*
X4864229Y-19318270D01*
X4864229Y-19318270D02*
X4883277Y-19327793D01*
X4883277Y-19327793D02*
X4921372Y-19327793D01*
X4921372Y-19327793D02*
X4940420Y-19318270D01*
X4940420Y-19318270D02*
X4949944Y-19308746D01*
X4949944Y-19308746D02*
X4959468Y-19289698D01*
X5083277Y-19203984D02*
X5102325Y-19203984D01*
X5102325Y-19203984D02*
X5121372Y-19213508D01*
X5121372Y-19213508D02*
X5130896Y-19223031D01*
X5130896Y-19223031D02*
X5140420Y-19242079D01*
X5140420Y-19242079D02*
X5149944Y-19280174D01*
X5149944Y-19280174D02*
X5149944Y-19327793D01*
X5149944Y-19327793D02*
X5140420Y-19365889D01*
X5140420Y-19365889D02*
X5130896Y-19384936D01*
X5130896Y-19384936D02*
X5121372Y-19394460D01*
X5121372Y-19394460D02*
X5102325Y-19403984D01*
X5102325Y-19403984D02*
X5083277Y-19403984D01*
X5083277Y-19403984D02*
X5064229Y-19394460D01*
X5064229Y-19394460D02*
X5054706Y-19384936D01*
X5054706Y-19384936D02*
X5045182Y-19365889D01*
X5045182Y-19365889D02*
X5035658Y-19327793D01*
X5035658Y-19327793D02*
X5035658Y-19280174D01*
X5035658Y-19280174D02*
X5045182Y-19242079D01*
X5045182Y-19242079D02*
X5054706Y-19223031D01*
X5054706Y-19223031D02*
X5064229Y-19213508D01*
X5064229Y-19213508D02*
X5083277Y-19203984D01*
X5226134Y-19203984D02*
X5226134Y-19242079D01*
X5302325Y-19203984D02*
X5302325Y-19242079D01*
X5597563Y-19480174D02*
X5588039Y-19470650D01*
X5588039Y-19470650D02*
X5568991Y-19442079D01*
X5568991Y-19442079D02*
X5559468Y-19423031D01*
X5559468Y-19423031D02*
X5549944Y-19394460D01*
X5549944Y-19394460D02*
X5540420Y-19346841D01*
X5540420Y-19346841D02*
X5540420Y-19308746D01*
X5540420Y-19308746D02*
X5549944Y-19261127D01*
X5549944Y-19261127D02*
X5559468Y-19232555D01*
X5559468Y-19232555D02*
X5568991Y-19213508D01*
X5568991Y-19213508D02*
X5588039Y-19184936D01*
X5588039Y-19184936D02*
X5597563Y-19175412D01*
X5654706Y-19203984D02*
X5778515Y-19203984D01*
X5778515Y-19203984D02*
X5711848Y-19280174D01*
X5711848Y-19280174D02*
X5740420Y-19280174D01*
X5740420Y-19280174D02*
X5759468Y-19289698D01*
X5759468Y-19289698D02*
X5768991Y-19299222D01*
X5768991Y-19299222D02*
X5778515Y-19318270D01*
X5778515Y-19318270D02*
X5778515Y-19365889D01*
X5778515Y-19365889D02*
X5768991Y-19384936D01*
X5768991Y-19384936D02*
X5759468Y-19394460D01*
X5759468Y-19394460D02*
X5740420Y-19403984D01*
X5740420Y-19403984D02*
X5683277Y-19403984D01*
X5683277Y-19403984D02*
X5664229Y-19394460D01*
X5664229Y-19394460D02*
X5654706Y-19384936D01*
X5845182Y-19203984D02*
X5978515Y-19203984D01*
X5978515Y-19203984D02*
X5892801Y-19403984D01*
X6207087Y-19403984D02*
X6207087Y-19203984D01*
X6292801Y-19403984D02*
X6292801Y-19299222D01*
X6292801Y-19299222D02*
X6283277Y-19280174D01*
X6283277Y-19280174D02*
X6264230Y-19270650D01*
X6264230Y-19270650D02*
X6235658Y-19270650D01*
X6235658Y-19270650D02*
X6216610Y-19280174D01*
X6216610Y-19280174D02*
X6207087Y-19289698D01*
X6416610Y-19403984D02*
X6397563Y-19394460D01*
X6397563Y-19394460D02*
X6388039Y-19384936D01*
X6388039Y-19384936D02*
X6378515Y-19365889D01*
X6378515Y-19365889D02*
X6378515Y-19308746D01*
X6378515Y-19308746D02*
X6388039Y-19289698D01*
X6388039Y-19289698D02*
X6397563Y-19280174D01*
X6397563Y-19280174D02*
X6416610Y-19270650D01*
X6416610Y-19270650D02*
X6445182Y-19270650D01*
X6445182Y-19270650D02*
X6464230Y-19280174D01*
X6464230Y-19280174D02*
X6473753Y-19289698D01*
X6473753Y-19289698D02*
X6483277Y-19308746D01*
X6483277Y-19308746D02*
X6483277Y-19365889D01*
X6483277Y-19365889D02*
X6473753Y-19384936D01*
X6473753Y-19384936D02*
X6464230Y-19394460D01*
X6464230Y-19394460D02*
X6445182Y-19403984D01*
X6445182Y-19403984D02*
X6416610Y-19403984D01*
X6597563Y-19403984D02*
X6578515Y-19394460D01*
X6578515Y-19394460D02*
X6568991Y-19375412D01*
X6568991Y-19375412D02*
X6568991Y-19203984D01*
X6749944Y-19394460D02*
X6730896Y-19403984D01*
X6730896Y-19403984D02*
X6692801Y-19403984D01*
X6692801Y-19403984D02*
X6673753Y-19394460D01*
X6673753Y-19394460D02*
X6664230Y-19375412D01*
X6664230Y-19375412D02*
X6664230Y-19299222D01*
X6664230Y-19299222D02*
X6673753Y-19280174D01*
X6673753Y-19280174D02*
X6692801Y-19270650D01*
X6692801Y-19270650D02*
X6730896Y-19270650D01*
X6730896Y-19270650D02*
X6749944Y-19280174D01*
X6749944Y-19280174D02*
X6759468Y-19299222D01*
X6759468Y-19299222D02*
X6759468Y-19318270D01*
X6759468Y-19318270D02*
X6664230Y-19337317D01*
X6835658Y-19394460D02*
X6854706Y-19403984D01*
X6854706Y-19403984D02*
X6892801Y-19403984D01*
X6892801Y-19403984D02*
X6911849Y-19394460D01*
X6911849Y-19394460D02*
X6921372Y-19375412D01*
X6921372Y-19375412D02*
X6921372Y-19365889D01*
X6921372Y-19365889D02*
X6911849Y-19346841D01*
X6911849Y-19346841D02*
X6892801Y-19337317D01*
X6892801Y-19337317D02*
X6864230Y-19337317D01*
X6864230Y-19337317D02*
X6845182Y-19327793D01*
X6845182Y-19327793D02*
X6835658Y-19308746D01*
X6835658Y-19308746D02*
X6835658Y-19299222D01*
X6835658Y-19299222D02*
X6845182Y-19280174D01*
X6845182Y-19280174D02*
X6864230Y-19270650D01*
X6864230Y-19270650D02*
X6892801Y-19270650D01*
X6892801Y-19270650D02*
X6911849Y-19280174D01*
X6988039Y-19480174D02*
X6997563Y-19470650D01*
X6997563Y-19470650D02*
X7016611Y-19442079D01*
X7016611Y-19442079D02*
X7026134Y-19423031D01*
X7026134Y-19423031D02*
X7035658Y-19394460D01*
X7035658Y-19394460D02*
X7045182Y-19346841D01*
X7045182Y-19346841D02*
X7045182Y-19308746D01*
X7045182Y-19308746D02*
X7035658Y-19261127D01*
X7035658Y-19261127D02*
X7026134Y-19232555D01*
X7026134Y-19232555D02*
X7016611Y-19213508D01*
X7016611Y-19213508D02*
X6997563Y-19184936D01*
X6997563Y-19184936D02*
X6988039Y-19175412D01*
D13*
X1912500Y-19521500D02*
X2022500Y-19631500D01*
X2022500Y-19521500D02*
X1912500Y-19631500D01*
X1967500Y-19521500D02*
X1967500Y-19631500D01*
X1912500Y-19576500D02*
X2022500Y-19576500D01*
D11*
X2388039Y-19667984D02*
X2273753Y-19667984D01*
X2330896Y-19667984D02*
X2330896Y-19467984D01*
X2330896Y-19467984D02*
X2311848Y-19496555D01*
X2311848Y-19496555D02*
X2292801Y-19515603D01*
X2292801Y-19515603D02*
X2273753Y-19525127D01*
X2473753Y-19648936D02*
X2483277Y-19658460D01*
X2483277Y-19658460D02*
X2473753Y-19667984D01*
X2473753Y-19667984D02*
X2464229Y-19658460D01*
X2464229Y-19658460D02*
X2473753Y-19648936D01*
X2473753Y-19648936D02*
X2473753Y-19667984D01*
X2673753Y-19667984D02*
X2559467Y-19667984D01*
X2616610Y-19667984D02*
X2616610Y-19467984D01*
X2616610Y-19467984D02*
X2597563Y-19496555D01*
X2597563Y-19496555D02*
X2578515Y-19515603D01*
X2578515Y-19515603D02*
X2559467Y-19525127D01*
X2797562Y-19467984D02*
X2816610Y-19467984D01*
X2816610Y-19467984D02*
X2835658Y-19477508D01*
X2835658Y-19477508D02*
X2845182Y-19487031D01*
X2845182Y-19487031D02*
X2854705Y-19506079D01*
X2854705Y-19506079D02*
X2864229Y-19544174D01*
X2864229Y-19544174D02*
X2864229Y-19591793D01*
X2864229Y-19591793D02*
X2854705Y-19629889D01*
X2854705Y-19629889D02*
X2845182Y-19648936D01*
X2845182Y-19648936D02*
X2835658Y-19658460D01*
X2835658Y-19658460D02*
X2816610Y-19667984D01*
X2816610Y-19667984D02*
X2797562Y-19667984D01*
X2797562Y-19667984D02*
X2778515Y-19658460D01*
X2778515Y-19658460D02*
X2768991Y-19648936D01*
X2768991Y-19648936D02*
X2759467Y-19629889D01*
X2759467Y-19629889D02*
X2749944Y-19591793D01*
X2749944Y-19591793D02*
X2749944Y-19544174D01*
X2749944Y-19544174D02*
X2759467Y-19506079D01*
X2759467Y-19506079D02*
X2768991Y-19487031D01*
X2768991Y-19487031D02*
X2778515Y-19477508D01*
X2778515Y-19477508D02*
X2797562Y-19467984D01*
X2988039Y-19467984D02*
X3007086Y-19467984D01*
X3007086Y-19467984D02*
X3026134Y-19477508D01*
X3026134Y-19477508D02*
X3035658Y-19487031D01*
X3035658Y-19487031D02*
X3045182Y-19506079D01*
X3045182Y-19506079D02*
X3054705Y-19544174D01*
X3054705Y-19544174D02*
X3054705Y-19591793D01*
X3054705Y-19591793D02*
X3045182Y-19629889D01*
X3045182Y-19629889D02*
X3035658Y-19648936D01*
X3035658Y-19648936D02*
X3026134Y-19658460D01*
X3026134Y-19658460D02*
X3007086Y-19667984D01*
X3007086Y-19667984D02*
X2988039Y-19667984D01*
X2988039Y-19667984D02*
X2968991Y-19658460D01*
X2968991Y-19658460D02*
X2959467Y-19648936D01*
X2959467Y-19648936D02*
X2949943Y-19629889D01*
X2949943Y-19629889D02*
X2940420Y-19591793D01*
X2940420Y-19591793D02*
X2940420Y-19544174D01*
X2940420Y-19544174D02*
X2949943Y-19506079D01*
X2949943Y-19506079D02*
X2959467Y-19487031D01*
X2959467Y-19487031D02*
X2968991Y-19477508D01*
X2968991Y-19477508D02*
X2988039Y-19467984D01*
X3140420Y-19667984D02*
X3140420Y-19534650D01*
X3140420Y-19553698D02*
X3149943Y-19544174D01*
X3149943Y-19544174D02*
X3168991Y-19534650D01*
X3168991Y-19534650D02*
X3197563Y-19534650D01*
X3197563Y-19534650D02*
X3216610Y-19544174D01*
X3216610Y-19544174D02*
X3226134Y-19563222D01*
X3226134Y-19563222D02*
X3226134Y-19667984D01*
X3226134Y-19563222D02*
X3235658Y-19544174D01*
X3235658Y-19544174D02*
X3254705Y-19534650D01*
X3254705Y-19534650D02*
X3283277Y-19534650D01*
X3283277Y-19534650D02*
X3302324Y-19544174D01*
X3302324Y-19544174D02*
X3311848Y-19563222D01*
X3311848Y-19563222D02*
X3311848Y-19667984D01*
X3407086Y-19667984D02*
X3407086Y-19534650D01*
X3407086Y-19553698D02*
X3416610Y-19544174D01*
X3416610Y-19544174D02*
X3435658Y-19534650D01*
X3435658Y-19534650D02*
X3464229Y-19534650D01*
X3464229Y-19534650D02*
X3483277Y-19544174D01*
X3483277Y-19544174D02*
X3492801Y-19563222D01*
X3492801Y-19563222D02*
X3492801Y-19667984D01*
X3492801Y-19563222D02*
X3502324Y-19544174D01*
X3502324Y-19544174D02*
X3521372Y-19534650D01*
X3521372Y-19534650D02*
X3549943Y-19534650D01*
X3549943Y-19534650D02*
X3568991Y-19544174D01*
X3568991Y-19544174D02*
X3578515Y-19563222D01*
X3578515Y-19563222D02*
X3578515Y-19667984D01*
X3968991Y-19458460D02*
X3797563Y-19715603D01*
X4226134Y-19467984D02*
X4245182Y-19467984D01*
X4245182Y-19467984D02*
X4264229Y-19477508D01*
X4264229Y-19477508D02*
X4273753Y-19487031D01*
X4273753Y-19487031D02*
X4283277Y-19506079D01*
X4283277Y-19506079D02*
X4292801Y-19544174D01*
X4292801Y-19544174D02*
X4292801Y-19591793D01*
X4292801Y-19591793D02*
X4283277Y-19629889D01*
X4283277Y-19629889D02*
X4273753Y-19648936D01*
X4273753Y-19648936D02*
X4264229Y-19658460D01*
X4264229Y-19658460D02*
X4245182Y-19667984D01*
X4245182Y-19667984D02*
X4226134Y-19667984D01*
X4226134Y-19667984D02*
X4207087Y-19658460D01*
X4207087Y-19658460D02*
X4197563Y-19648936D01*
X4197563Y-19648936D02*
X4188039Y-19629889D01*
X4188039Y-19629889D02*
X4178515Y-19591793D01*
X4178515Y-19591793D02*
X4178515Y-19544174D01*
X4178515Y-19544174D02*
X4188039Y-19506079D01*
X4188039Y-19506079D02*
X4197563Y-19487031D01*
X4197563Y-19487031D02*
X4207087Y-19477508D01*
X4207087Y-19477508D02*
X4226134Y-19467984D01*
X4378515Y-19648936D02*
X4388039Y-19658460D01*
X4388039Y-19658460D02*
X4378515Y-19667984D01*
X4378515Y-19667984D02*
X4368991Y-19658460D01*
X4368991Y-19658460D02*
X4378515Y-19648936D01*
X4378515Y-19648936D02*
X4378515Y-19667984D01*
X4511848Y-19467984D02*
X4530896Y-19467984D01*
X4530896Y-19467984D02*
X4549944Y-19477508D01*
X4549944Y-19477508D02*
X4559468Y-19487031D01*
X4559468Y-19487031D02*
X4568991Y-19506079D01*
X4568991Y-19506079D02*
X4578515Y-19544174D01*
X4578515Y-19544174D02*
X4578515Y-19591793D01*
X4578515Y-19591793D02*
X4568991Y-19629889D01*
X4568991Y-19629889D02*
X4559468Y-19648936D01*
X4559468Y-19648936D02*
X4549944Y-19658460D01*
X4549944Y-19658460D02*
X4530896Y-19667984D01*
X4530896Y-19667984D02*
X4511848Y-19667984D01*
X4511848Y-19667984D02*
X4492801Y-19658460D01*
X4492801Y-19658460D02*
X4483277Y-19648936D01*
X4483277Y-19648936D02*
X4473753Y-19629889D01*
X4473753Y-19629889D02*
X4464229Y-19591793D01*
X4464229Y-19591793D02*
X4464229Y-19544174D01*
X4464229Y-19544174D02*
X4473753Y-19506079D01*
X4473753Y-19506079D02*
X4483277Y-19487031D01*
X4483277Y-19487031D02*
X4492801Y-19477508D01*
X4492801Y-19477508D02*
X4511848Y-19467984D01*
X4749944Y-19534650D02*
X4749944Y-19667984D01*
X4702325Y-19458460D02*
X4654706Y-19601317D01*
X4654706Y-19601317D02*
X4778515Y-19601317D01*
X4835658Y-19467984D02*
X4959468Y-19467984D01*
X4959468Y-19467984D02*
X4892801Y-19544174D01*
X4892801Y-19544174D02*
X4921372Y-19544174D01*
X4921372Y-19544174D02*
X4940420Y-19553698D01*
X4940420Y-19553698D02*
X4949944Y-19563222D01*
X4949944Y-19563222D02*
X4959468Y-19582270D01*
X4959468Y-19582270D02*
X4959468Y-19629889D01*
X4959468Y-19629889D02*
X4949944Y-19648936D01*
X4949944Y-19648936D02*
X4940420Y-19658460D01*
X4940420Y-19658460D02*
X4921372Y-19667984D01*
X4921372Y-19667984D02*
X4864229Y-19667984D01*
X4864229Y-19667984D02*
X4845182Y-19658460D01*
X4845182Y-19658460D02*
X4835658Y-19648936D01*
X5026134Y-19467984D02*
X5149944Y-19467984D01*
X5149944Y-19467984D02*
X5083277Y-19544174D01*
X5083277Y-19544174D02*
X5111849Y-19544174D01*
X5111849Y-19544174D02*
X5130896Y-19553698D01*
X5130896Y-19553698D02*
X5140420Y-19563222D01*
X5140420Y-19563222D02*
X5149944Y-19582270D01*
X5149944Y-19582270D02*
X5149944Y-19629889D01*
X5149944Y-19629889D02*
X5140420Y-19648936D01*
X5140420Y-19648936D02*
X5130896Y-19658460D01*
X5130896Y-19658460D02*
X5111849Y-19667984D01*
X5111849Y-19667984D02*
X5054706Y-19667984D01*
X5054706Y-19667984D02*
X5035658Y-19658460D01*
X5035658Y-19658460D02*
X5026134Y-19648936D01*
X5226134Y-19467984D02*
X5226134Y-19506079D01*
X5302325Y-19467984D02*
X5302325Y-19506079D01*
X5597563Y-19744174D02*
X5588039Y-19734650D01*
X5588039Y-19734650D02*
X5568991Y-19706079D01*
X5568991Y-19706079D02*
X5559468Y-19687031D01*
X5559468Y-19687031D02*
X5549944Y-19658460D01*
X5549944Y-19658460D02*
X5540420Y-19610841D01*
X5540420Y-19610841D02*
X5540420Y-19572746D01*
X5540420Y-19572746D02*
X5549944Y-19525127D01*
X5549944Y-19525127D02*
X5559468Y-19496555D01*
X5559468Y-19496555D02*
X5568991Y-19477508D01*
X5568991Y-19477508D02*
X5588039Y-19448936D01*
X5588039Y-19448936D02*
X5597563Y-19439412D01*
X5702325Y-19553698D02*
X5683277Y-19544174D01*
X5683277Y-19544174D02*
X5673753Y-19534650D01*
X5673753Y-19534650D02*
X5664229Y-19515603D01*
X5664229Y-19515603D02*
X5664229Y-19506079D01*
X5664229Y-19506079D02*
X5673753Y-19487031D01*
X5673753Y-19487031D02*
X5683277Y-19477508D01*
X5683277Y-19477508D02*
X5702325Y-19467984D01*
X5702325Y-19467984D02*
X5740420Y-19467984D01*
X5740420Y-19467984D02*
X5759468Y-19477508D01*
X5759468Y-19477508D02*
X5768991Y-19487031D01*
X5768991Y-19487031D02*
X5778515Y-19506079D01*
X5778515Y-19506079D02*
X5778515Y-19515603D01*
X5778515Y-19515603D02*
X5768991Y-19534650D01*
X5768991Y-19534650D02*
X5759468Y-19544174D01*
X5759468Y-19544174D02*
X5740420Y-19553698D01*
X5740420Y-19553698D02*
X5702325Y-19553698D01*
X5702325Y-19553698D02*
X5683277Y-19563222D01*
X5683277Y-19563222D02*
X5673753Y-19572746D01*
X5673753Y-19572746D02*
X5664229Y-19591793D01*
X5664229Y-19591793D02*
X5664229Y-19629889D01*
X5664229Y-19629889D02*
X5673753Y-19648936D01*
X5673753Y-19648936D02*
X5683277Y-19658460D01*
X5683277Y-19658460D02*
X5702325Y-19667984D01*
X5702325Y-19667984D02*
X5740420Y-19667984D01*
X5740420Y-19667984D02*
X5759468Y-19658460D01*
X5759468Y-19658460D02*
X5768991Y-19648936D01*
X5768991Y-19648936D02*
X5778515Y-19629889D01*
X5778515Y-19629889D02*
X5778515Y-19591793D01*
X5778515Y-19591793D02*
X5768991Y-19572746D01*
X5768991Y-19572746D02*
X5759468Y-19563222D01*
X5759468Y-19563222D02*
X5740420Y-19553698D01*
X6016610Y-19667984D02*
X6016610Y-19467984D01*
X6102325Y-19667984D02*
X6102325Y-19563222D01*
X6102325Y-19563222D02*
X6092801Y-19544174D01*
X6092801Y-19544174D02*
X6073753Y-19534650D01*
X6073753Y-19534650D02*
X6045182Y-19534650D01*
X6045182Y-19534650D02*
X6026134Y-19544174D01*
X6026134Y-19544174D02*
X6016610Y-19553698D01*
X6226134Y-19667984D02*
X6207087Y-19658460D01*
X6207087Y-19658460D02*
X6197563Y-19648936D01*
X6197563Y-19648936D02*
X6188039Y-19629889D01*
X6188039Y-19629889D02*
X6188039Y-19572746D01*
X6188039Y-19572746D02*
X6197563Y-19553698D01*
X6197563Y-19553698D02*
X6207087Y-19544174D01*
X6207087Y-19544174D02*
X6226134Y-19534650D01*
X6226134Y-19534650D02*
X6254706Y-19534650D01*
X6254706Y-19534650D02*
X6273753Y-19544174D01*
X6273753Y-19544174D02*
X6283277Y-19553698D01*
X6283277Y-19553698D02*
X6292801Y-19572746D01*
X6292801Y-19572746D02*
X6292801Y-19629889D01*
X6292801Y-19629889D02*
X6283277Y-19648936D01*
X6283277Y-19648936D02*
X6273753Y-19658460D01*
X6273753Y-19658460D02*
X6254706Y-19667984D01*
X6254706Y-19667984D02*
X6226134Y-19667984D01*
X6407087Y-19667984D02*
X6388039Y-19658460D01*
X6388039Y-19658460D02*
X6378515Y-19639412D01*
X6378515Y-19639412D02*
X6378515Y-19467984D01*
X6559468Y-19658460D02*
X6540420Y-19667984D01*
X6540420Y-19667984D02*
X6502325Y-19667984D01*
X6502325Y-19667984D02*
X6483277Y-19658460D01*
X6483277Y-19658460D02*
X6473753Y-19639412D01*
X6473753Y-19639412D02*
X6473753Y-19563222D01*
X6473753Y-19563222D02*
X6483277Y-19544174D01*
X6483277Y-19544174D02*
X6502325Y-19534650D01*
X6502325Y-19534650D02*
X6540420Y-19534650D01*
X6540420Y-19534650D02*
X6559468Y-19544174D01*
X6559468Y-19544174D02*
X6568991Y-19563222D01*
X6568991Y-19563222D02*
X6568991Y-19582270D01*
X6568991Y-19582270D02*
X6473753Y-19601317D01*
X6645182Y-19658460D02*
X6664230Y-19667984D01*
X6664230Y-19667984D02*
X6702325Y-19667984D01*
X6702325Y-19667984D02*
X6721372Y-19658460D01*
X6721372Y-19658460D02*
X6730896Y-19639412D01*
X6730896Y-19639412D02*
X6730896Y-19629889D01*
X6730896Y-19629889D02*
X6721372Y-19610841D01*
X6721372Y-19610841D02*
X6702325Y-19601317D01*
X6702325Y-19601317D02*
X6673753Y-19601317D01*
X6673753Y-19601317D02*
X6654706Y-19591793D01*
X6654706Y-19591793D02*
X6645182Y-19572746D01*
X6645182Y-19572746D02*
X6645182Y-19563222D01*
X6645182Y-19563222D02*
X6654706Y-19544174D01*
X6654706Y-19544174D02*
X6673753Y-19534650D01*
X6673753Y-19534650D02*
X6702325Y-19534650D01*
X6702325Y-19534650D02*
X6721372Y-19544174D01*
X6797563Y-19744174D02*
X6807087Y-19734650D01*
X6807087Y-19734650D02*
X6826134Y-19706079D01*
X6826134Y-19706079D02*
X6835658Y-19687031D01*
X6835658Y-19687031D02*
X6845182Y-19658460D01*
X6845182Y-19658460D02*
X6854706Y-19610841D01*
X6854706Y-19610841D02*
X6854706Y-19572746D01*
X6854706Y-19572746D02*
X6845182Y-19525127D01*
X6845182Y-19525127D02*
X6835658Y-19496555D01*
X6835658Y-19496555D02*
X6826134Y-19477508D01*
X6826134Y-19477508D02*
X6807087Y-19448936D01*
X6807087Y-19448936D02*
X6797563Y-19439412D01*
D14*
X1898500Y-19778500D02*
X2022500Y-19902500D01*
X2022500Y-19778500D02*
X1898500Y-19902500D01*
X2004341Y-19884341D02*
X2004341Y-19796659D01*
X1916659Y-19796659D01*
X1916659Y-19884341D01*
X2004341Y-19884341D01*
D11*
X2388039Y-19931984D02*
X2273753Y-19931984D01*
X2330896Y-19931984D02*
X2330896Y-19731984D01*
X2330896Y-19731984D02*
X2311848Y-19760555D01*
X2311848Y-19760555D02*
X2292801Y-19779603D01*
X2292801Y-19779603D02*
X2273753Y-19789127D01*
X2473753Y-19912936D02*
X2483277Y-19922460D01*
X2483277Y-19922460D02*
X2473753Y-19931984D01*
X2473753Y-19931984D02*
X2464229Y-19922460D01*
X2464229Y-19922460D02*
X2473753Y-19912936D01*
X2473753Y-19912936D02*
X2473753Y-19931984D01*
X2559467Y-19751031D02*
X2568991Y-19741508D01*
X2568991Y-19741508D02*
X2588039Y-19731984D01*
X2588039Y-19731984D02*
X2635658Y-19731984D01*
X2635658Y-19731984D02*
X2654705Y-19741508D01*
X2654705Y-19741508D02*
X2664229Y-19751031D01*
X2664229Y-19751031D02*
X2673753Y-19770079D01*
X2673753Y-19770079D02*
X2673753Y-19789127D01*
X2673753Y-19789127D02*
X2664229Y-19817698D01*
X2664229Y-19817698D02*
X2549944Y-19931984D01*
X2549944Y-19931984D02*
X2673753Y-19931984D01*
X2845182Y-19798650D02*
X2845182Y-19931984D01*
X2797562Y-19722460D02*
X2749944Y-19865317D01*
X2749944Y-19865317D02*
X2873753Y-19865317D01*
X2988039Y-19731984D02*
X3007086Y-19731984D01*
X3007086Y-19731984D02*
X3026134Y-19741508D01*
X3026134Y-19741508D02*
X3035658Y-19751031D01*
X3035658Y-19751031D02*
X3045182Y-19770079D01*
X3045182Y-19770079D02*
X3054705Y-19808174D01*
X3054705Y-19808174D02*
X3054705Y-19855793D01*
X3054705Y-19855793D02*
X3045182Y-19893889D01*
X3045182Y-19893889D02*
X3035658Y-19912936D01*
X3035658Y-19912936D02*
X3026134Y-19922460D01*
X3026134Y-19922460D02*
X3007086Y-19931984D01*
X3007086Y-19931984D02*
X2988039Y-19931984D01*
X2988039Y-19931984D02*
X2968991Y-19922460D01*
X2968991Y-19922460D02*
X2959467Y-19912936D01*
X2959467Y-19912936D02*
X2949943Y-19893889D01*
X2949943Y-19893889D02*
X2940420Y-19855793D01*
X2940420Y-19855793D02*
X2940420Y-19808174D01*
X2940420Y-19808174D02*
X2949943Y-19770079D01*
X2949943Y-19770079D02*
X2959467Y-19751031D01*
X2959467Y-19751031D02*
X2968991Y-19741508D01*
X2968991Y-19741508D02*
X2988039Y-19731984D01*
X3140420Y-19931984D02*
X3140420Y-19798650D01*
X3140420Y-19817698D02*
X3149943Y-19808174D01*
X3149943Y-19808174D02*
X3168991Y-19798650D01*
X3168991Y-19798650D02*
X3197563Y-19798650D01*
X3197563Y-19798650D02*
X3216610Y-19808174D01*
X3216610Y-19808174D02*
X3226134Y-19827222D01*
X3226134Y-19827222D02*
X3226134Y-19931984D01*
X3226134Y-19827222D02*
X3235658Y-19808174D01*
X3235658Y-19808174D02*
X3254705Y-19798650D01*
X3254705Y-19798650D02*
X3283277Y-19798650D01*
X3283277Y-19798650D02*
X3302324Y-19808174D01*
X3302324Y-19808174D02*
X3311848Y-19827222D01*
X3311848Y-19827222D02*
X3311848Y-19931984D01*
X3407086Y-19931984D02*
X3407086Y-19798650D01*
X3407086Y-19817698D02*
X3416610Y-19808174D01*
X3416610Y-19808174D02*
X3435658Y-19798650D01*
X3435658Y-19798650D02*
X3464229Y-19798650D01*
X3464229Y-19798650D02*
X3483277Y-19808174D01*
X3483277Y-19808174D02*
X3492801Y-19827222D01*
X3492801Y-19827222D02*
X3492801Y-19931984D01*
X3492801Y-19827222D02*
X3502324Y-19808174D01*
X3502324Y-19808174D02*
X3521372Y-19798650D01*
X3521372Y-19798650D02*
X3549943Y-19798650D01*
X3549943Y-19798650D02*
X3568991Y-19808174D01*
X3568991Y-19808174D02*
X3578515Y-19827222D01*
X3578515Y-19827222D02*
X3578515Y-19931984D01*
X3968991Y-19722460D02*
X3797563Y-19979603D01*
X4226134Y-19731984D02*
X4245182Y-19731984D01*
X4245182Y-19731984D02*
X4264229Y-19741508D01*
X4264229Y-19741508D02*
X4273753Y-19751031D01*
X4273753Y-19751031D02*
X4283277Y-19770079D01*
X4283277Y-19770079D02*
X4292801Y-19808174D01*
X4292801Y-19808174D02*
X4292801Y-19855793D01*
X4292801Y-19855793D02*
X4283277Y-19893889D01*
X4283277Y-19893889D02*
X4273753Y-19912936D01*
X4273753Y-19912936D02*
X4264229Y-19922460D01*
X4264229Y-19922460D02*
X4245182Y-19931984D01*
X4245182Y-19931984D02*
X4226134Y-19931984D01*
X4226134Y-19931984D02*
X4207087Y-19922460D01*
X4207087Y-19922460D02*
X4197563Y-19912936D01*
X4197563Y-19912936D02*
X4188039Y-19893889D01*
X4188039Y-19893889D02*
X4178515Y-19855793D01*
X4178515Y-19855793D02*
X4178515Y-19808174D01*
X4178515Y-19808174D02*
X4188039Y-19770079D01*
X4188039Y-19770079D02*
X4197563Y-19751031D01*
X4197563Y-19751031D02*
X4207087Y-19741508D01*
X4207087Y-19741508D02*
X4226134Y-19731984D01*
X4378515Y-19912936D02*
X4388039Y-19922460D01*
X4388039Y-19922460D02*
X4378515Y-19931984D01*
X4378515Y-19931984D02*
X4368991Y-19922460D01*
X4368991Y-19922460D02*
X4378515Y-19912936D01*
X4378515Y-19912936D02*
X4378515Y-19931984D01*
X4511848Y-19731984D02*
X4530896Y-19731984D01*
X4530896Y-19731984D02*
X4549944Y-19741508D01*
X4549944Y-19741508D02*
X4559468Y-19751031D01*
X4559468Y-19751031D02*
X4568991Y-19770079D01*
X4568991Y-19770079D02*
X4578515Y-19808174D01*
X4578515Y-19808174D02*
X4578515Y-19855793D01*
X4578515Y-19855793D02*
X4568991Y-19893889D01*
X4568991Y-19893889D02*
X4559468Y-19912936D01*
X4559468Y-19912936D02*
X4549944Y-19922460D01*
X4549944Y-19922460D02*
X4530896Y-19931984D01*
X4530896Y-19931984D02*
X4511848Y-19931984D01*
X4511848Y-19931984D02*
X4492801Y-19922460D01*
X4492801Y-19922460D02*
X4483277Y-19912936D01*
X4483277Y-19912936D02*
X4473753Y-19893889D01*
X4473753Y-19893889D02*
X4464229Y-19855793D01*
X4464229Y-19855793D02*
X4464229Y-19808174D01*
X4464229Y-19808174D02*
X4473753Y-19770079D01*
X4473753Y-19770079D02*
X4483277Y-19751031D01*
X4483277Y-19751031D02*
X4492801Y-19741508D01*
X4492801Y-19741508D02*
X4511848Y-19731984D01*
X4749944Y-19798650D02*
X4749944Y-19931984D01*
X4702325Y-19722460D02*
X4654706Y-19865317D01*
X4654706Y-19865317D02*
X4778515Y-19865317D01*
X4883277Y-19817698D02*
X4864229Y-19808174D01*
X4864229Y-19808174D02*
X4854706Y-19798650D01*
X4854706Y-19798650D02*
X4845182Y-19779603D01*
X4845182Y-19779603D02*
X4845182Y-19770079D01*
X4845182Y-19770079D02*
X4854706Y-19751031D01*
X4854706Y-19751031D02*
X4864229Y-19741508D01*
X4864229Y-19741508D02*
X4883277Y-19731984D01*
X4883277Y-19731984D02*
X4921372Y-19731984D01*
X4921372Y-19731984D02*
X4940420Y-19741508D01*
X4940420Y-19741508D02*
X4949944Y-19751031D01*
X4949944Y-19751031D02*
X4959468Y-19770079D01*
X4959468Y-19770079D02*
X4959468Y-19779603D01*
X4959468Y-19779603D02*
X4949944Y-19798650D01*
X4949944Y-19798650D02*
X4940420Y-19808174D01*
X4940420Y-19808174D02*
X4921372Y-19817698D01*
X4921372Y-19817698D02*
X4883277Y-19817698D01*
X4883277Y-19817698D02*
X4864229Y-19827222D01*
X4864229Y-19827222D02*
X4854706Y-19836746D01*
X4854706Y-19836746D02*
X4845182Y-19855793D01*
X4845182Y-19855793D02*
X4845182Y-19893889D01*
X4845182Y-19893889D02*
X4854706Y-19912936D01*
X4854706Y-19912936D02*
X4864229Y-19922460D01*
X4864229Y-19922460D02*
X4883277Y-19931984D01*
X4883277Y-19931984D02*
X4921372Y-19931984D01*
X4921372Y-19931984D02*
X4940420Y-19922460D01*
X4940420Y-19922460D02*
X4949944Y-19912936D01*
X4949944Y-19912936D02*
X4959468Y-19893889D01*
X4959468Y-19893889D02*
X4959468Y-19855793D01*
X4959468Y-19855793D02*
X4949944Y-19836746D01*
X4949944Y-19836746D02*
X4940420Y-19827222D01*
X4940420Y-19827222D02*
X4921372Y-19817698D01*
X5073753Y-19817698D02*
X5054706Y-19808174D01*
X5054706Y-19808174D02*
X5045182Y-19798650D01*
X5045182Y-19798650D02*
X5035658Y-19779603D01*
X5035658Y-19779603D02*
X5035658Y-19770079D01*
X5035658Y-19770079D02*
X5045182Y-19751031D01*
X5045182Y-19751031D02*
X5054706Y-19741508D01*
X5054706Y-19741508D02*
X5073753Y-19731984D01*
X5073753Y-19731984D02*
X5111849Y-19731984D01*
X5111849Y-19731984D02*
X5130896Y-19741508D01*
X5130896Y-19741508D02*
X5140420Y-19751031D01*
X5140420Y-19751031D02*
X5149944Y-19770079D01*
X5149944Y-19770079D02*
X5149944Y-19779603D01*
X5149944Y-19779603D02*
X5140420Y-19798650D01*
X5140420Y-19798650D02*
X5130896Y-19808174D01*
X5130896Y-19808174D02*
X5111849Y-19817698D01*
X5111849Y-19817698D02*
X5073753Y-19817698D01*
X5073753Y-19817698D02*
X5054706Y-19827222D01*
X5054706Y-19827222D02*
X5045182Y-19836746D01*
X5045182Y-19836746D02*
X5035658Y-19855793D01*
X5035658Y-19855793D02*
X5035658Y-19893889D01*
X5035658Y-19893889D02*
X5045182Y-19912936D01*
X5045182Y-19912936D02*
X5054706Y-19922460D01*
X5054706Y-19922460D02*
X5073753Y-19931984D01*
X5073753Y-19931984D02*
X5111849Y-19931984D01*
X5111849Y-19931984D02*
X5130896Y-19922460D01*
X5130896Y-19922460D02*
X5140420Y-19912936D01*
X5140420Y-19912936D02*
X5149944Y-19893889D01*
X5149944Y-19893889D02*
X5149944Y-19855793D01*
X5149944Y-19855793D02*
X5140420Y-19836746D01*
X5140420Y-19836746D02*
X5130896Y-19827222D01*
X5130896Y-19827222D02*
X5111849Y-19817698D01*
X5226134Y-19731984D02*
X5226134Y-19770079D01*
X5302325Y-19731984D02*
X5302325Y-19770079D01*
X5597563Y-20008174D02*
X5588039Y-19998650D01*
X5588039Y-19998650D02*
X5568991Y-19970079D01*
X5568991Y-19970079D02*
X5559468Y-19951031D01*
X5559468Y-19951031D02*
X5549944Y-19922460D01*
X5549944Y-19922460D02*
X5540420Y-19874841D01*
X5540420Y-19874841D02*
X5540420Y-19836746D01*
X5540420Y-19836746D02*
X5549944Y-19789127D01*
X5549944Y-19789127D02*
X5559468Y-19760555D01*
X5559468Y-19760555D02*
X5568991Y-19741508D01*
X5568991Y-19741508D02*
X5588039Y-19712936D01*
X5588039Y-19712936D02*
X5597563Y-19703412D01*
X5654706Y-19731984D02*
X5778515Y-19731984D01*
X5778515Y-19731984D02*
X5711848Y-19808174D01*
X5711848Y-19808174D02*
X5740420Y-19808174D01*
X5740420Y-19808174D02*
X5759468Y-19817698D01*
X5759468Y-19817698D02*
X5768991Y-19827222D01*
X5768991Y-19827222D02*
X5778515Y-19846270D01*
X5778515Y-19846270D02*
X5778515Y-19893889D01*
X5778515Y-19893889D02*
X5768991Y-19912936D01*
X5768991Y-19912936D02*
X5759468Y-19922460D01*
X5759468Y-19922460D02*
X5740420Y-19931984D01*
X5740420Y-19931984D02*
X5683277Y-19931984D01*
X5683277Y-19931984D02*
X5664229Y-19922460D01*
X5664229Y-19922460D02*
X5654706Y-19912936D01*
X6016610Y-19931984D02*
X6016610Y-19731984D01*
X6102325Y-19931984D02*
X6102325Y-19827222D01*
X6102325Y-19827222D02*
X6092801Y-19808174D01*
X6092801Y-19808174D02*
X6073753Y-19798650D01*
X6073753Y-19798650D02*
X6045182Y-19798650D01*
X6045182Y-19798650D02*
X6026134Y-19808174D01*
X6026134Y-19808174D02*
X6016610Y-19817698D01*
X6226134Y-19931984D02*
X6207087Y-19922460D01*
X6207087Y-19922460D02*
X6197563Y-19912936D01*
X6197563Y-19912936D02*
X6188039Y-19893889D01*
X6188039Y-19893889D02*
X6188039Y-19836746D01*
X6188039Y-19836746D02*
X6197563Y-19817698D01*
X6197563Y-19817698D02*
X6207087Y-19808174D01*
X6207087Y-19808174D02*
X6226134Y-19798650D01*
X6226134Y-19798650D02*
X6254706Y-19798650D01*
X6254706Y-19798650D02*
X6273753Y-19808174D01*
X6273753Y-19808174D02*
X6283277Y-19817698D01*
X6283277Y-19817698D02*
X6292801Y-19836746D01*
X6292801Y-19836746D02*
X6292801Y-19893889D01*
X6292801Y-19893889D02*
X6283277Y-19912936D01*
X6283277Y-19912936D02*
X6273753Y-19922460D01*
X6273753Y-19922460D02*
X6254706Y-19931984D01*
X6254706Y-19931984D02*
X6226134Y-19931984D01*
X6407087Y-19931984D02*
X6388039Y-19922460D01*
X6388039Y-19922460D02*
X6378515Y-19903412D01*
X6378515Y-19903412D02*
X6378515Y-19731984D01*
X6559468Y-19922460D02*
X6540420Y-19931984D01*
X6540420Y-19931984D02*
X6502325Y-19931984D01*
X6502325Y-19931984D02*
X6483277Y-19922460D01*
X6483277Y-19922460D02*
X6473753Y-19903412D01*
X6473753Y-19903412D02*
X6473753Y-19827222D01*
X6473753Y-19827222D02*
X6483277Y-19808174D01*
X6483277Y-19808174D02*
X6502325Y-19798650D01*
X6502325Y-19798650D02*
X6540420Y-19798650D01*
X6540420Y-19798650D02*
X6559468Y-19808174D01*
X6559468Y-19808174D02*
X6568991Y-19827222D01*
X6568991Y-19827222D02*
X6568991Y-19846270D01*
X6568991Y-19846270D02*
X6473753Y-19865317D01*
X6645182Y-19922460D02*
X6664230Y-19931984D01*
X6664230Y-19931984D02*
X6702325Y-19931984D01*
X6702325Y-19931984D02*
X6721372Y-19922460D01*
X6721372Y-19922460D02*
X6730896Y-19903412D01*
X6730896Y-19903412D02*
X6730896Y-19893889D01*
X6730896Y-19893889D02*
X6721372Y-19874841D01*
X6721372Y-19874841D02*
X6702325Y-19865317D01*
X6702325Y-19865317D02*
X6673753Y-19865317D01*
X6673753Y-19865317D02*
X6654706Y-19855793D01*
X6654706Y-19855793D02*
X6645182Y-19836746D01*
X6645182Y-19836746D02*
X6645182Y-19827222D01*
X6645182Y-19827222D02*
X6654706Y-19808174D01*
X6654706Y-19808174D02*
X6673753Y-19798650D01*
X6673753Y-19798650D02*
X6702325Y-19798650D01*
X6702325Y-19798650D02*
X6721372Y-19808174D01*
X6797563Y-20008174D02*
X6807087Y-19998650D01*
X6807087Y-19998650D02*
X6826134Y-19970079D01*
X6826134Y-19970079D02*
X6835658Y-19951031D01*
X6835658Y-19951031D02*
X6845182Y-19922460D01*
X6845182Y-19922460D02*
X6854706Y-19874841D01*
X6854706Y-19874841D02*
X6854706Y-19836746D01*
X6854706Y-19836746D02*
X6845182Y-19789127D01*
X6845182Y-19789127D02*
X6835658Y-19760555D01*
X6835658Y-19760555D02*
X6826134Y-19741508D01*
X6826134Y-19741508D02*
X6807087Y-19712936D01*
X6807087Y-19712936D02*
X6797563Y-19703412D01*
X1822500Y-20004500D02*
X2022500Y-20204500D01*
X2022500Y-20004500D02*
X1822500Y-20204500D01*
X1922500Y-20204500D02*
X2022500Y-20104500D01*
X1922500Y-20004500D01*
X1822500Y-20104500D01*
X1922500Y-20204500D01*
X2273753Y-20015031D02*
X2283277Y-20005508D01*
X2283277Y-20005508D02*
X2302324Y-19995984D01*
X2302324Y-19995984D02*
X2349944Y-19995984D01*
X2349944Y-19995984D02*
X2368991Y-20005508D01*
X2368991Y-20005508D02*
X2378515Y-20015031D01*
X2378515Y-20015031D02*
X2388039Y-20034079D01*
X2388039Y-20034079D02*
X2388039Y-20053127D01*
X2388039Y-20053127D02*
X2378515Y-20081698D01*
X2378515Y-20081698D02*
X2264229Y-20195984D01*
X2264229Y-20195984D02*
X2388039Y-20195984D01*
X2473753Y-20176936D02*
X2483277Y-20186460D01*
X2483277Y-20186460D02*
X2473753Y-20195984D01*
X2473753Y-20195984D02*
X2464229Y-20186460D01*
X2464229Y-20186460D02*
X2473753Y-20176936D01*
X2473753Y-20176936D02*
X2473753Y-20195984D01*
X2549944Y-19995984D02*
X2673753Y-19995984D01*
X2673753Y-19995984D02*
X2607086Y-20072174D01*
X2607086Y-20072174D02*
X2635658Y-20072174D01*
X2635658Y-20072174D02*
X2654705Y-20081698D01*
X2654705Y-20081698D02*
X2664229Y-20091222D01*
X2664229Y-20091222D02*
X2673753Y-20110270D01*
X2673753Y-20110270D02*
X2673753Y-20157889D01*
X2673753Y-20157889D02*
X2664229Y-20176936D01*
X2664229Y-20176936D02*
X2654705Y-20186460D01*
X2654705Y-20186460D02*
X2635658Y-20195984D01*
X2635658Y-20195984D02*
X2578515Y-20195984D01*
X2578515Y-20195984D02*
X2559467Y-20186460D01*
X2559467Y-20186460D02*
X2549944Y-20176936D01*
X2797562Y-19995984D02*
X2816610Y-19995984D01*
X2816610Y-19995984D02*
X2835658Y-20005508D01*
X2835658Y-20005508D02*
X2845182Y-20015031D01*
X2845182Y-20015031D02*
X2854705Y-20034079D01*
X2854705Y-20034079D02*
X2864229Y-20072174D01*
X2864229Y-20072174D02*
X2864229Y-20119793D01*
X2864229Y-20119793D02*
X2854705Y-20157889D01*
X2854705Y-20157889D02*
X2845182Y-20176936D01*
X2845182Y-20176936D02*
X2835658Y-20186460D01*
X2835658Y-20186460D02*
X2816610Y-20195984D01*
X2816610Y-20195984D02*
X2797562Y-20195984D01*
X2797562Y-20195984D02*
X2778515Y-20186460D01*
X2778515Y-20186460D02*
X2768991Y-20176936D01*
X2768991Y-20176936D02*
X2759467Y-20157889D01*
X2759467Y-20157889D02*
X2749944Y-20119793D01*
X2749944Y-20119793D02*
X2749944Y-20072174D01*
X2749944Y-20072174D02*
X2759467Y-20034079D01*
X2759467Y-20034079D02*
X2768991Y-20015031D01*
X2768991Y-20015031D02*
X2778515Y-20005508D01*
X2778515Y-20005508D02*
X2797562Y-19995984D01*
X2988039Y-19995984D02*
X3007086Y-19995984D01*
X3007086Y-19995984D02*
X3026134Y-20005508D01*
X3026134Y-20005508D02*
X3035658Y-20015031D01*
X3035658Y-20015031D02*
X3045182Y-20034079D01*
X3045182Y-20034079D02*
X3054705Y-20072174D01*
X3054705Y-20072174D02*
X3054705Y-20119793D01*
X3054705Y-20119793D02*
X3045182Y-20157889D01*
X3045182Y-20157889D02*
X3035658Y-20176936D01*
X3035658Y-20176936D02*
X3026134Y-20186460D01*
X3026134Y-20186460D02*
X3007086Y-20195984D01*
X3007086Y-20195984D02*
X2988039Y-20195984D01*
X2988039Y-20195984D02*
X2968991Y-20186460D01*
X2968991Y-20186460D02*
X2959467Y-20176936D01*
X2959467Y-20176936D02*
X2949943Y-20157889D01*
X2949943Y-20157889D02*
X2940420Y-20119793D01*
X2940420Y-20119793D02*
X2940420Y-20072174D01*
X2940420Y-20072174D02*
X2949943Y-20034079D01*
X2949943Y-20034079D02*
X2959467Y-20015031D01*
X2959467Y-20015031D02*
X2968991Y-20005508D01*
X2968991Y-20005508D02*
X2988039Y-19995984D01*
X3140420Y-20195984D02*
X3140420Y-20062650D01*
X3140420Y-20081698D02*
X3149943Y-20072174D01*
X3149943Y-20072174D02*
X3168991Y-20062650D01*
X3168991Y-20062650D02*
X3197563Y-20062650D01*
X3197563Y-20062650D02*
X3216610Y-20072174D01*
X3216610Y-20072174D02*
X3226134Y-20091222D01*
X3226134Y-20091222D02*
X3226134Y-20195984D01*
X3226134Y-20091222D02*
X3235658Y-20072174D01*
X3235658Y-20072174D02*
X3254705Y-20062650D01*
X3254705Y-20062650D02*
X3283277Y-20062650D01*
X3283277Y-20062650D02*
X3302324Y-20072174D01*
X3302324Y-20072174D02*
X3311848Y-20091222D01*
X3311848Y-20091222D02*
X3311848Y-20195984D01*
X3407086Y-20195984D02*
X3407086Y-20062650D01*
X3407086Y-20081698D02*
X3416610Y-20072174D01*
X3416610Y-20072174D02*
X3435658Y-20062650D01*
X3435658Y-20062650D02*
X3464229Y-20062650D01*
X3464229Y-20062650D02*
X3483277Y-20072174D01*
X3483277Y-20072174D02*
X3492801Y-20091222D01*
X3492801Y-20091222D02*
X3492801Y-20195984D01*
X3492801Y-20091222D02*
X3502324Y-20072174D01*
X3502324Y-20072174D02*
X3521372Y-20062650D01*
X3521372Y-20062650D02*
X3549943Y-20062650D01*
X3549943Y-20062650D02*
X3568991Y-20072174D01*
X3568991Y-20072174D02*
X3578515Y-20091222D01*
X3578515Y-20091222D02*
X3578515Y-20195984D01*
X3968991Y-19986460D02*
X3797563Y-20243603D01*
X4226134Y-19995984D02*
X4245182Y-19995984D01*
X4245182Y-19995984D02*
X4264229Y-20005508D01*
X4264229Y-20005508D02*
X4273753Y-20015031D01*
X4273753Y-20015031D02*
X4283277Y-20034079D01*
X4283277Y-20034079D02*
X4292801Y-20072174D01*
X4292801Y-20072174D02*
X4292801Y-20119793D01*
X4292801Y-20119793D02*
X4283277Y-20157889D01*
X4283277Y-20157889D02*
X4273753Y-20176936D01*
X4273753Y-20176936D02*
X4264229Y-20186460D01*
X4264229Y-20186460D02*
X4245182Y-20195984D01*
X4245182Y-20195984D02*
X4226134Y-20195984D01*
X4226134Y-20195984D02*
X4207087Y-20186460D01*
X4207087Y-20186460D02*
X4197563Y-20176936D01*
X4197563Y-20176936D02*
X4188039Y-20157889D01*
X4188039Y-20157889D02*
X4178515Y-20119793D01*
X4178515Y-20119793D02*
X4178515Y-20072174D01*
X4178515Y-20072174D02*
X4188039Y-20034079D01*
X4188039Y-20034079D02*
X4197563Y-20015031D01*
X4197563Y-20015031D02*
X4207087Y-20005508D01*
X4207087Y-20005508D02*
X4226134Y-19995984D01*
X4378515Y-20176936D02*
X4388039Y-20186460D01*
X4388039Y-20186460D02*
X4378515Y-20195984D01*
X4378515Y-20195984D02*
X4368991Y-20186460D01*
X4368991Y-20186460D02*
X4378515Y-20176936D01*
X4378515Y-20176936D02*
X4378515Y-20195984D01*
X4511848Y-19995984D02*
X4530896Y-19995984D01*
X4530896Y-19995984D02*
X4549944Y-20005508D01*
X4549944Y-20005508D02*
X4559468Y-20015031D01*
X4559468Y-20015031D02*
X4568991Y-20034079D01*
X4568991Y-20034079D02*
X4578515Y-20072174D01*
X4578515Y-20072174D02*
X4578515Y-20119793D01*
X4578515Y-20119793D02*
X4568991Y-20157889D01*
X4568991Y-20157889D02*
X4559468Y-20176936D01*
X4559468Y-20176936D02*
X4549944Y-20186460D01*
X4549944Y-20186460D02*
X4530896Y-20195984D01*
X4530896Y-20195984D02*
X4511848Y-20195984D01*
X4511848Y-20195984D02*
X4492801Y-20186460D01*
X4492801Y-20186460D02*
X4483277Y-20176936D01*
X4483277Y-20176936D02*
X4473753Y-20157889D01*
X4473753Y-20157889D02*
X4464229Y-20119793D01*
X4464229Y-20119793D02*
X4464229Y-20072174D01*
X4464229Y-20072174D02*
X4473753Y-20034079D01*
X4473753Y-20034079D02*
X4483277Y-20015031D01*
X4483277Y-20015031D02*
X4492801Y-20005508D01*
X4492801Y-20005508D02*
X4511848Y-19995984D01*
X4673753Y-20195984D02*
X4711848Y-20195984D01*
X4711848Y-20195984D02*
X4730896Y-20186460D01*
X4730896Y-20186460D02*
X4740420Y-20176936D01*
X4740420Y-20176936D02*
X4759468Y-20148365D01*
X4759468Y-20148365D02*
X4768991Y-20110270D01*
X4768991Y-20110270D02*
X4768991Y-20034079D01*
X4768991Y-20034079D02*
X4759468Y-20015031D01*
X4759468Y-20015031D02*
X4749944Y-20005508D01*
X4749944Y-20005508D02*
X4730896Y-19995984D01*
X4730896Y-19995984D02*
X4692801Y-19995984D01*
X4692801Y-19995984D02*
X4673753Y-20005508D01*
X4673753Y-20005508D02*
X4664229Y-20015031D01*
X4664229Y-20015031D02*
X4654706Y-20034079D01*
X4654706Y-20034079D02*
X4654706Y-20081698D01*
X4654706Y-20081698D02*
X4664229Y-20100746D01*
X4664229Y-20100746D02*
X4673753Y-20110270D01*
X4673753Y-20110270D02*
X4692801Y-20119793D01*
X4692801Y-20119793D02*
X4730896Y-20119793D01*
X4730896Y-20119793D02*
X4749944Y-20110270D01*
X4749944Y-20110270D02*
X4759468Y-20100746D01*
X4759468Y-20100746D02*
X4768991Y-20081698D01*
X4892801Y-19995984D02*
X4911849Y-19995984D01*
X4911849Y-19995984D02*
X4930896Y-20005508D01*
X4930896Y-20005508D02*
X4940420Y-20015031D01*
X4940420Y-20015031D02*
X4949944Y-20034079D01*
X4949944Y-20034079D02*
X4959468Y-20072174D01*
X4959468Y-20072174D02*
X4959468Y-20119793D01*
X4959468Y-20119793D02*
X4949944Y-20157889D01*
X4949944Y-20157889D02*
X4940420Y-20176936D01*
X4940420Y-20176936D02*
X4930896Y-20186460D01*
X4930896Y-20186460D02*
X4911849Y-20195984D01*
X4911849Y-20195984D02*
X4892801Y-20195984D01*
X4892801Y-20195984D02*
X4873753Y-20186460D01*
X4873753Y-20186460D02*
X4864229Y-20176936D01*
X4864229Y-20176936D02*
X4854706Y-20157889D01*
X4854706Y-20157889D02*
X4845182Y-20119793D01*
X4845182Y-20119793D02*
X4845182Y-20072174D01*
X4845182Y-20072174D02*
X4854706Y-20034079D01*
X4854706Y-20034079D02*
X4864229Y-20015031D01*
X4864229Y-20015031D02*
X4873753Y-20005508D01*
X4873753Y-20005508D02*
X4892801Y-19995984D01*
X5130896Y-19995984D02*
X5092801Y-19995984D01*
X5092801Y-19995984D02*
X5073753Y-20005508D01*
X5073753Y-20005508D02*
X5064229Y-20015031D01*
X5064229Y-20015031D02*
X5045182Y-20043603D01*
X5045182Y-20043603D02*
X5035658Y-20081698D01*
X5035658Y-20081698D02*
X5035658Y-20157889D01*
X5035658Y-20157889D02*
X5045182Y-20176936D01*
X5045182Y-20176936D02*
X5054706Y-20186460D01*
X5054706Y-20186460D02*
X5073753Y-20195984D01*
X5073753Y-20195984D02*
X5111849Y-20195984D01*
X5111849Y-20195984D02*
X5130896Y-20186460D01*
X5130896Y-20186460D02*
X5140420Y-20176936D01*
X5140420Y-20176936D02*
X5149944Y-20157889D01*
X5149944Y-20157889D02*
X5149944Y-20110270D01*
X5149944Y-20110270D02*
X5140420Y-20091222D01*
X5140420Y-20091222D02*
X5130896Y-20081698D01*
X5130896Y-20081698D02*
X5111849Y-20072174D01*
X5111849Y-20072174D02*
X5073753Y-20072174D01*
X5073753Y-20072174D02*
X5054706Y-20081698D01*
X5054706Y-20081698D02*
X5045182Y-20091222D01*
X5045182Y-20091222D02*
X5035658Y-20110270D01*
X5226134Y-19995984D02*
X5226134Y-20034079D01*
X5302325Y-19995984D02*
X5302325Y-20034079D01*
X5597563Y-20272174D02*
X5588039Y-20262650D01*
X5588039Y-20262650D02*
X5568991Y-20234079D01*
X5568991Y-20234079D02*
X5559468Y-20215031D01*
X5559468Y-20215031D02*
X5549944Y-20186460D01*
X5549944Y-20186460D02*
X5540420Y-20138841D01*
X5540420Y-20138841D02*
X5540420Y-20100746D01*
X5540420Y-20100746D02*
X5549944Y-20053127D01*
X5549944Y-20053127D02*
X5559468Y-20024555D01*
X5559468Y-20024555D02*
X5568991Y-20005508D01*
X5568991Y-20005508D02*
X5588039Y-19976936D01*
X5588039Y-19976936D02*
X5597563Y-19967412D01*
X5759468Y-20062650D02*
X5759468Y-20195984D01*
X5711848Y-19986460D02*
X5664229Y-20129317D01*
X5664229Y-20129317D02*
X5788039Y-20129317D01*
X6016610Y-20195984D02*
X6016610Y-19995984D01*
X6102325Y-20195984D02*
X6102325Y-20091222D01*
X6102325Y-20091222D02*
X6092801Y-20072174D01*
X6092801Y-20072174D02*
X6073753Y-20062650D01*
X6073753Y-20062650D02*
X6045182Y-20062650D01*
X6045182Y-20062650D02*
X6026134Y-20072174D01*
X6026134Y-20072174D02*
X6016610Y-20081698D01*
X6226134Y-20195984D02*
X6207087Y-20186460D01*
X6207087Y-20186460D02*
X6197563Y-20176936D01*
X6197563Y-20176936D02*
X6188039Y-20157889D01*
X6188039Y-20157889D02*
X6188039Y-20100746D01*
X6188039Y-20100746D02*
X6197563Y-20081698D01*
X6197563Y-20081698D02*
X6207087Y-20072174D01*
X6207087Y-20072174D02*
X6226134Y-20062650D01*
X6226134Y-20062650D02*
X6254706Y-20062650D01*
X6254706Y-20062650D02*
X6273753Y-20072174D01*
X6273753Y-20072174D02*
X6283277Y-20081698D01*
X6283277Y-20081698D02*
X6292801Y-20100746D01*
X6292801Y-20100746D02*
X6292801Y-20157889D01*
X6292801Y-20157889D02*
X6283277Y-20176936D01*
X6283277Y-20176936D02*
X6273753Y-20186460D01*
X6273753Y-20186460D02*
X6254706Y-20195984D01*
X6254706Y-20195984D02*
X6226134Y-20195984D01*
X6407087Y-20195984D02*
X6388039Y-20186460D01*
X6388039Y-20186460D02*
X6378515Y-20167412D01*
X6378515Y-20167412D02*
X6378515Y-19995984D01*
X6559468Y-20186460D02*
X6540420Y-20195984D01*
X6540420Y-20195984D02*
X6502325Y-20195984D01*
X6502325Y-20195984D02*
X6483277Y-20186460D01*
X6483277Y-20186460D02*
X6473753Y-20167412D01*
X6473753Y-20167412D02*
X6473753Y-20091222D01*
X6473753Y-20091222D02*
X6483277Y-20072174D01*
X6483277Y-20072174D02*
X6502325Y-20062650D01*
X6502325Y-20062650D02*
X6540420Y-20062650D01*
X6540420Y-20062650D02*
X6559468Y-20072174D01*
X6559468Y-20072174D02*
X6568991Y-20091222D01*
X6568991Y-20091222D02*
X6568991Y-20110270D01*
X6568991Y-20110270D02*
X6473753Y-20129317D01*
X6645182Y-20186460D02*
X6664230Y-20195984D01*
X6664230Y-20195984D02*
X6702325Y-20195984D01*
X6702325Y-20195984D02*
X6721372Y-20186460D01*
X6721372Y-20186460D02*
X6730896Y-20167412D01*
X6730896Y-20167412D02*
X6730896Y-20157889D01*
X6730896Y-20157889D02*
X6721372Y-20138841D01*
X6721372Y-20138841D02*
X6702325Y-20129317D01*
X6702325Y-20129317D02*
X6673753Y-20129317D01*
X6673753Y-20129317D02*
X6654706Y-20119793D01*
X6654706Y-20119793D02*
X6645182Y-20100746D01*
X6645182Y-20100746D02*
X6645182Y-20091222D01*
X6645182Y-20091222D02*
X6654706Y-20072174D01*
X6654706Y-20072174D02*
X6673753Y-20062650D01*
X6673753Y-20062650D02*
X6702325Y-20062650D01*
X6702325Y-20062650D02*
X6721372Y-20072174D01*
X6797563Y-20272174D02*
X6807087Y-20262650D01*
X6807087Y-20262650D02*
X6826134Y-20234079D01*
X6826134Y-20234079D02*
X6835658Y-20215031D01*
X6835658Y-20215031D02*
X6845182Y-20186460D01*
X6845182Y-20186460D02*
X6854706Y-20138841D01*
X6854706Y-20138841D02*
X6854706Y-20100746D01*
X6854706Y-20100746D02*
X6845182Y-20053127D01*
X6845182Y-20053127D02*
X6835658Y-20024555D01*
X6835658Y-20024555D02*
X6826134Y-20005508D01*
X6826134Y-20005508D02*
X6807087Y-19976936D01*
X6807087Y-19976936D02*
X6797563Y-19967412D01*
M02*
