M48
; DRILL file {Flux 9.0.7-9.0.7~ubuntu22.04.1} date 2026-03-05T17:01:58+0000
; FORMAT={-:-/ absolute / metric / decimal}
; #@! TF.CreationDate,2026-03-05T17:01:58+00:00
; #@! TF.GenerationSoftware,Kicad,Pcbnew,9.0.7-9.0.7~ubuntu22.04.1
; #@! TF.FileFunction,MixedPlating,1,4
FMAT,2
METRIC
; #@! TA.AperFunction,Plated,PTH,ComponentDrill
T1C0.300
; #@! TA.AperFunction,Plated,PTH,ComponentDrill
T2C0.700
; #@! TA.AperFunction,Plated,PTH,ComponentDrill
T3C0.750
; #@! TA.AperFunction,Plated,PTH,ComponentDrill
T4C0.800
; #@! TA.AperFunction,Plated,PTH,ComponentDrill
T5C0.920
; #@! TA.AperFunction,Plated,PTH,ComponentDrill
T6C0.950
; #@! TA.AperFunction,Plated,PTH,ComponentDrill
T7C1.000
; #@! TA.AperFunction,Plated,PTH,ComponentDrill
T8C1.050
; #@! TA.AperFunction,Plated,PTH,ComponentDrill
T9C1.100
; #@! TA.AperFunction,Plated,PTH,ComponentDrill
T10C1.350
; #@! TA.AperFunction,Plated,PTH,ComponentDrill
T11C1.397
; #@! TA.AperFunction,Plated,PTH,ComponentDrill
T12C1.753
; #@! TA.AperFunction,Plated,PTH,ComponentDrill
T13C2.300
%
G90
G05
T1
X-65.0Y40.0
X-65.0Y25.0
X-65.0Y10.0
X-65.0Y-5.0
X-65.0Y-20.0
X-65.0Y-35.0
X-50.0Y40.0
X-50.0Y25.0
X-50.0Y10.0
X-50.0Y-5.0
X-50.0Y-20.0
X-35.0Y40.0
X-35.0Y25.0
X-35.0Y10.0
X-35.0Y-5.0
X-35.0Y-20.0
X-35.0Y-35.0
X-20.0Y40.0
X-20.0Y25.0
X-20.0Y10.0
X-20.0Y-5.0
X-20.0Y-20.0
X-20.0Y-35.0
X-5.0Y40.0
X-5.0Y25.0
X-5.0Y10.0
X-5.0Y-5.0
X-5.0Y-35.0
X10.0Y40.0
X10.0Y25.0
X10.0Y10.0
X10.0Y-5.0
X10.0Y-20.0
X10.0Y-35.0
X25.0Y40.0
X25.0Y25.0
X25.0Y10.0
X25.0Y-5.0
X25.0Y-20.0
X25.0Y-35.0
X40.0Y40.0
X40.0Y25.0
X40.0Y10.0
X40.0Y-5.0
X40.0Y-20.0
X40.0Y-35.0
X55.0Y40.0
X55.0Y25.0
X55.0Y10.0
X55.0Y-5.0
X55.0Y-20.0
X55.0Y-35.0
X70.0Y40.0
X70.0Y25.0
X70.0Y10.0
X70.0Y-5.0
X70.0Y-20.0
X70.0Y-35.0
T2
X-16.841Y46.143
X-9.683Y45.978
X-2.0Y45.978
X5.155Y45.978
X12.143Y45.978
T3
X-14.841Y46.143
X-7.683Y45.978
X0.0Y45.978
X7.155Y45.978
X14.143Y45.978
T4
X-55.987Y-7.008
X-53.487Y-7.008
X43.92Y11.005
X46.42Y11.005
T5
X-72.552Y46.143
X-70.052Y46.143
X-68.052Y46.143
X-65.552Y46.143
T6
X20.118Y45.978
X22.618Y45.978
X25.118Y45.978
X32.074Y45.978
X34.574Y45.978
X37.074Y45.978
X43.92Y45.978
X46.42Y45.978
X48.92Y45.978
X56.078Y45.978
X58.578Y45.978
X61.078Y45.978
X68.706Y45.978
X71.206Y45.978
X73.706Y45.978
T7
X-26.988Y44.623
X-24.448Y44.623
X-21.908Y44.623
X-10.201Y39.006
X-2.613Y-0.09
X-1.501Y39.006
X6.087Y-0.09
T8
X-108.593Y-104.038
X-108.593Y-106.578
X-106.053Y-104.038
X-106.053Y-106.578
X-103.513Y-104.038
X-103.513Y-106.578
X-100.973Y-104.038
X-100.973Y-106.578
X-98.433Y-104.038
X-98.433Y-106.578
X-95.893Y-104.038
X-95.893Y-106.578
X-93.353Y-104.038
X-93.353Y-106.578
X-90.813Y-104.038
X-90.813Y-106.578
X-88.273Y-104.038
X-88.273Y-106.578
X-85.733Y-104.038
X-85.733Y-106.578
X-83.193Y-104.038
X-83.193Y-106.578
X-80.653Y-104.038
X-80.653Y-106.578
X-78.113Y-104.038
X-78.113Y-106.578
T9
X-54.107Y4.962
X-51.567Y4.962
X-49.027Y4.962
X2.615Y17.498
X5.155Y17.498
X7.695Y17.498
X29.677Y7.838
X32.217Y7.838
X34.757Y7.838
T10
X-74.767Y-36.785
X-71.267Y-41.985
X-67.767Y-36.785
X-64.267Y-41.985
X-60.767Y-36.785
X-57.267Y-41.985
X-49.872Y-36.785
X-46.372Y-41.985
X-42.872Y-36.785
X-39.372Y-41.985
X-35.872Y-36.785
X-32.372Y-41.985
X-24.431Y-36.785
X-20.931Y-41.985
X-17.431Y-36.785
X-13.931Y-41.985
X-10.431Y-36.785
X-6.931Y-41.985
X1.154Y-36.785
X4.654Y-41.985
X8.154Y-36.785
X11.654Y-41.985
X15.154Y-36.785
X18.654Y-41.985
T11
X-65.552Y18.532
X-41.422Y18.532
T12
X-52.362Y46.319
X-48.402Y46.319
X-44.442Y46.319
X-40.482Y46.319
T13
X-75.622Y43.433
X-62.482Y43.433
M30
