M48
; DRILL file {KiCad 9.0.7} date 2026-03-24T14:08:32-0400
; FORMAT={-:-/ absolute / inch / decimal}
; #@! TF.CreationDate,2026-03-24T14:08:32-04:00
; #@! TF.GenerationSoftware,Kicad,Pcbnew,9.0.7
; #@! TF.FileFunction,Plated,1,2,PTH
FMAT,2
INCH
; #@! TA.AperFunction,Plated,PTH,ViaDrill
T1C0.0120
; #@! TA.AperFunction,Plated,PTH,ComponentDrill
T2C0.0315
; #@! TA.AperFunction,Plated,PTH,ComponentDrill
T3C0.0320
; #@! TA.AperFunction,Plated,PTH,ComponentDrill
T4C0.0350
; #@! TA.AperFunction,Plated,PTH,ComponentDrill
T5C0.0362
; #@! TA.AperFunction,Plated,PTH,ComponentDrill
T6C0.0390
; #@! TA.AperFunction,Plated,PTH,ComponentDrill
T7C0.0433
; #@! TA.AperFunction,Plated,PTH,ComponentDrill
T8C0.0488
; #@! TA.AperFunction,Plated,PTH,ComponentDrill
T9C0.0906
%
G90
G05
T1
X0.8415Y-3.973
X0.8415Y-4.6101
X0.8415Y-5.1098
X0.8415Y-5.6096
X0.8415Y-6.1093
X0.8415Y-6.673
X1.2477Y-6.2371
X1.2557Y-5.525
X1.3004Y-6.7798
X1.3523Y-4.435
X1.3523Y-4.9348
X1.3523Y-5.4345
X1.3523Y-5.9343
X1.3621Y-3.7295
X1.8521Y-4.4115
X1.8787Y-6.7864
X2.0292Y-5.2682
X2.1077Y-3.686
X2.2866Y-6.1578
X2.3298Y-5.6743
X2.4235Y-4.1942
X2.4377Y-6.6546
X2.5881Y-4.8532
X2.6431Y-5.2474
X2.6714Y-5.4977
X2.7391Y-5.2532
X2.7649Y-5.5258
X2.7946Y-4.3611
X2.853Y-4.2746
X2.8835Y-6.2956
X2.9009Y-5.0738
X2.9373Y-3.686
X2.9374Y-6.6531
X2.9885Y-5.4057
X2.9885Y-6.057
X3.0983Y-5.2418
X3.1058Y-5.392
X3.1179Y-4.1892
X3.1288Y-4.546
X3.3168Y-4.5042
X3.3494Y-5.2361
X3.3589Y-4.5177
X3.3668Y-5.13
X3.3779Y-6.7864
X3.4386Y-3.8847
X3.4761Y-5.2319
X3.552Y-6.4542
X3.6256Y-6.0126
X3.84Y-6.6212
X4.0389Y-5.6504
X4.0633Y-3.8071
X4.1003Y-6.2131
X4.1595Y-5.4787
X4.3992Y-4.7389
X4.442Y-5.5695
X4.4461Y-5.7873
X4.4636Y-5.1861
X4.4688Y-6.1862
X4.5448Y-5.5741
X4.5594Y-5.7202
X4.598Y-5.953
X4.6099Y-6.4449
X4.6274Y-5.2572
X4.6692Y-6.5763
X4.8501Y-3.686
X4.9207Y-6.2736
X4.9547Y-5.9652
X4.9979Y-4.5845
X5.0774Y-6.0078
X5.0839Y-4.3148
X5.1282Y-4.1778
X5.1349Y-4.2526
X5.1838Y-4.9072
X5.1956Y-4.8309
X5.2708Y-4.3696
X5.2882Y-4.2349
X5.3349Y-3.8156
X5.348Y-5.3505
X5.367Y-5.8393
X5.3737Y-5.8725
X5.3738Y-4.1893
X5.4171Y-4.4416
X5.553Y-4.4875
X5.6032Y-6.6475
X5.6836Y-4.9928
X5.6966Y-4.5824
X5.7499Y-5.3143
X5.8567Y-4.1372
X5.8805Y-3.9078
X5.9653Y-5.9354
X5.9748Y-5.386
X6.0936Y-4.634
X6.1029Y-6.6388
X6.1706Y-4.7262
X6.1915Y-4.1078
X6.1972Y-4.2117
X6.3274Y-3.7763
X6.5186Y-5.2316
X6.5582Y-5.0183
X6.6025Y-6.63
X6.6749Y-4.4112
X6.7274Y-5.8056
X6.7438Y-5.1493
X6.8272Y-3.7763
X6.9532Y-4.3099
X7.0225Y-5.007
X7.1022Y-6.6212
X7.2Y-5.386
X7.2491Y-4.7774
X7.2806Y-4.7464
X7.3269Y-3.7763
X7.3914Y-5.4222
X7.5387Y-4.3099
X7.5634Y-6.5174
X7.564Y-4.3461
X7.682Y-5.6994
X7.7058Y-5.1248
X7.7378Y-5.1867
X7.7849Y-6.1753
X7.8683Y-4.6869
X7.9285Y-6.1817
X8.0609Y-4.0099
X8.2421Y-5.346
X8.4301Y-4.3425
X8.4301Y-4.8423
X8.4301Y-5.8418
X8.4301Y-6.3415
T2
X4.6894Y-5.2425
X4.6894Y-5.7425
X4.7894Y-5.2425
X4.7894Y-5.7425
X4.8894Y-5.2425
X4.8894Y-5.7425
X4.9894Y-5.2425
X4.9894Y-5.7425
X5.0894Y-5.2425
X5.0894Y-5.7425
X5.1894Y-5.2425
X5.1894Y-5.7425
X5.2894Y-5.2425
X5.2894Y-5.7425
X5.3894Y-5.2425
X5.3894Y-5.7425
X6.3458Y-4.874
X6.3459Y-5.8739
X6.4458Y-4.874
X6.4459Y-5.8739
X6.5458Y-4.874
X6.5458Y-5.874
X6.6458Y-4.874
X6.6458Y-5.874
X6.7458Y-4.874
X6.7458Y-5.874
X6.8458Y-4.874
X6.8458Y-5.874
X6.9458Y-4.874
X6.9458Y-5.874
X7.0458Y-4.874
X7.0458Y-5.874
X7.1458Y-4.874
X7.1458Y-5.874
X7.2458Y-4.874
X7.2458Y-5.874
X7.3458Y-4.874
X7.3458Y-5.874
X7.4458Y-4.874
X7.4458Y-5.874
X7.5458Y-4.874
X7.5458Y-5.874
X7.6458Y-4.874
X7.6458Y-5.874
X7.7458Y-4.874
X7.7458Y-5.874
X7.8458Y-4.874
X7.8458Y-5.874
X7.9458Y-4.874
X7.9458Y-5.874
X8.0458Y-4.874
X8.0458Y-5.874
X8.1458Y-4.874
X8.1458Y-5.874
T3
X1.7758Y-3.8095
X1.8545Y-3.8095
X1.9333Y-3.8095
X2.012Y-3.8095
X2.0907Y-3.8095
X2.3972Y-3.8083
X2.4759Y-3.8083
X2.5547Y-3.8083
X2.6334Y-3.8083
X2.7121Y-3.8083
X3.0159Y-3.8095
X3.0947Y-3.8095
X3.1734Y-3.8095
X3.2522Y-3.8095
X3.3309Y-3.8095
X3.6655Y-3.8095
X3.7443Y-3.8095
X3.823Y-3.8095
X3.9018Y-3.8095
X3.9805Y-3.8095
X4.3152Y-3.8095
X4.3939Y-3.8095
X4.4726Y-3.8095
X4.5514Y-3.8095
X4.6301Y-3.8095
X4.9254Y-3.8095
X5.0041Y-3.8095
X5.0829Y-3.8095
X5.1616Y-3.8095
X5.2404Y-3.8095
T4
X2.8018Y-4.1431
X2.8018Y-4.4935
T5
X1.0264Y-6.7012
X1.0406Y-3.8019
X1.1248Y-6.7012
X1.139Y-3.8019
X1.2035Y-6.7012
X1.2177Y-3.8019
X1.302Y-6.7012
X1.3161Y-3.8019
T6
X2.0472Y-6.378
X2.185Y-6.5748
X2.3228Y-6.378
X2.4606Y-6.5748
X2.5984Y-6.378
X2.7362Y-6.5748
X3.1102Y-6.378
X3.248Y-6.5748
X3.3858Y-6.378
X3.5236Y-6.5748
X3.6614Y-6.378
X3.7992Y-6.5748
X4.1142Y-6.378
X4.252Y-6.5748
X4.3898Y-6.378
X4.5276Y-6.5748
X4.6654Y-6.378
X4.8031Y-6.5748
X5.5105Y-3.8901
X5.6089Y-3.8901
X5.7073Y-3.8901
X6.0026Y-3.8988
X6.101Y-3.8988
X6.1995Y-3.8988
X6.4961Y-3.8889
X6.5945Y-3.8889
X6.6929Y-3.8889
X6.9882Y-3.8889
X7.0866Y-3.8889
X7.185Y-3.8889
X7.5Y-3.8889
X7.5984Y-3.8889
X7.6969Y-3.8889
X8.0203Y-3.8901
X8.1188Y-3.8901
X8.2172Y-3.8901
X8.3156Y-3.8901
T7
X2.5849Y-4.3777
X2.5849Y-4.7777
X3.1847Y-4.2585
X3.1847Y-4.6585
X4.3621Y-5.0361
X4.7621Y-5.0361
X4.7819Y-4.7554
X5.1819Y-4.7554
T8
X4.5214Y-4.6328
X4.5214Y-4.7328
X4.5214Y-4.8328
T9
X0.9055Y-6.5945
X0.9197Y-3.9086
X1.4228Y-6.5945
X1.437Y-3.9086
M30
