%TF.GenerationSoftware,KiCad,Pcbnew,9.0.7*%
%TF.CreationDate,2026-04-06T09:35:57-04:00*%
%TF.ProjectId,linesorter,6c696e65-736f-4727-9465-722e6b696361,rev?*%
%TF.SameCoordinates,Original*%
%TF.FileFunction,Paste,Top*%
%TF.FilePolarity,Positive*%
%FSLAX46Y46*%
G04 Gerber Fmt 4.6, Leading zero omitted, Abs format (unit mm)*
G04 Created by KiCad (PCBNEW 9.0.7) date 2026-04-06 09:35:57*
%MOMM*%
%LPD*%
G01*
G04 APERTURE LIST*
G04 Aperture macros list*
%AMRoundRect*
0 Rectangle with rounded corners*
0 $1 Rounding radius*
0 $2 $3 $4 $5 $6 $7 $8 $9 X,Y pos of 4 corners*
0 Add a 4 corners polygon primitive as box body*
4,1,4,$2,$3,$4,$5,$6,$7,$8,$9,$2,$3,0*
0 Add four circle primitives for the rounded corners*
1,1,$1+$1,$2,$3*
1,1,$1+$1,$4,$5*
1,1,$1+$1,$6,$7*
1,1,$1+$1,$8,$9*
0 Add four rect primitives between the rounded corners*
20,1,$1+$1,$2,$3,$4,$5,0*
20,1,$1+$1,$4,$5,$6,$7,0*
20,1,$1+$1,$6,$7,$8,$9,0*
20,1,$1+$1,$8,$9,$2,$3,0*%
G04 Aperture macros list end*
%ADD10C,0.000000*%
%ADD11R,1.600000X2.200000*%
%ADD12RoundRect,0.079500X0.100500X-0.079500X0.100500X0.079500X-0.100500X0.079500X-0.100500X-0.079500X0*%
%ADD13RoundRect,0.079500X-0.079500X-0.100500X0.079500X-0.100500X0.079500X0.100500X-0.079500X0.100500X0*%
%ADD14RoundRect,0.150000X0.662500X0.150000X-0.662500X0.150000X-0.662500X-0.150000X0.662500X-0.150000X0*%
%ADD15RoundRect,0.150000X0.825000X0.150000X-0.825000X0.150000X-0.825000X-0.150000X0.825000X-0.150000X0*%
%ADD16RoundRect,0.079500X0.079500X0.100500X-0.079500X0.100500X-0.079500X-0.100500X0.079500X-0.100500X0*%
%ADD17RoundRect,0.150000X-0.662500X-0.150000X0.662500X-0.150000X0.662500X0.150000X-0.662500X0.150000X0*%
%ADD18RoundRect,0.375000X0.375000X-0.625000X0.375000X0.625000X-0.375000X0.625000X-0.375000X-0.625000X0*%
%ADD19RoundRect,0.500000X1.400000X-0.500000X1.400000X0.500000X-1.400000X0.500000X-1.400000X-0.500000X0*%
%ADD20R,2.200000X1.600000*%
%ADD21RoundRect,0.079500X-0.100500X0.079500X-0.100500X-0.079500X0.100500X-0.079500X0.100500X0.079500X0*%
%ADD22RoundRect,0.150000X0.150000X-0.662500X0.150000X0.662500X-0.150000X0.662500X-0.150000X-0.662500X0*%
%ADD23O,2.000001X0.599999*%
%ADD24R,2.130001X2.999999*%
G04 APERTURE END LIST*
D10*
%TO.C,U12*%
G36*
X117541734Y-126398286D02*
G01*
X116602734Y-126398286D01*
X116602734Y-125088286D01*
X117541734Y-125088286D01*
X117541734Y-126398286D01*
G37*
G36*
X117541734Y-127908286D02*
G01*
X116602734Y-127908286D01*
X116602734Y-126598286D01*
X117541734Y-126598286D01*
X117541734Y-127908286D01*
G37*
G36*
X118680731Y-126398286D02*
G01*
X117741731Y-126398286D01*
X117741731Y-125088286D01*
X118680731Y-125088286D01*
X118680731Y-126398286D01*
G37*
G36*
X118680731Y-127908286D02*
G01*
X117741731Y-127908286D01*
X117741731Y-126598286D01*
X118680731Y-126598286D01*
X118680731Y-127908286D01*
G37*
%TD*%
D11*
%TO.C,C6*%
X141309169Y-125627258D03*
X141309169Y-122627258D03*
%TD*%
D12*
%TO.C,R14*%
X121477919Y-135706370D03*
X121477919Y-135016370D03*
%TD*%
%TO.C,C2*%
X62063856Y-130407305D03*
X62063856Y-129717305D03*
%TD*%
D13*
%TO.C,R18*%
X130623544Y-160692679D03*
X131313544Y-160692679D03*
%TD*%
D12*
%TO.C,C3*%
X62825575Y-119809174D03*
X62825575Y-119119174D03*
%TD*%
%TO.C,R22*%
X133665419Y-109968052D03*
X133665419Y-109278052D03*
%TD*%
%TO.C,C14*%
X105481825Y-119052164D03*
X105481825Y-118362164D03*
%TD*%
D14*
%TO.C,U9*%
X98096669Y-118492164D03*
X98096669Y-117222164D03*
X91721669Y-117222164D03*
X91721669Y-118492164D03*
%TD*%
D15*
%TO.C,U2*%
X154724794Y-132138333D03*
X154724794Y-130868333D03*
X154724794Y-129598333D03*
X154724794Y-128328333D03*
X149774794Y-128328333D03*
X149774794Y-129598333D03*
X149774794Y-130868333D03*
X149774794Y-132138333D03*
%TD*%
D16*
%TO.C,C8*%
X106176825Y-150851557D03*
X105486825Y-150851557D03*
%TD*%
%TO.C,C7*%
X99321356Y-150851557D03*
X98631356Y-150851557D03*
%TD*%
D12*
%TO.C,R2*%
X54446669Y-138734407D03*
X54446669Y-138044407D03*
%TD*%
%TO.C,R6*%
X68157606Y-109968052D03*
X68157606Y-109278052D03*
%TD*%
D13*
%TO.C,C4*%
X148904794Y-121328193D03*
X149594794Y-121328193D03*
%TD*%
D12*
%TO.C,R4*%
X155755263Y-120566183D03*
X155755263Y-119876183D03*
%TD*%
%TO.C,R8*%
X91770888Y-134949361D03*
X91770888Y-134259361D03*
%TD*%
D17*
%TO.C,U8*%
X131331044Y-152801604D03*
X131331044Y-154071604D03*
X137706044Y-154071604D03*
X137706044Y-152801604D03*
%TD*%
D13*
%TO.C,R10*%
X75018075Y-113758099D03*
X75708075Y-113758099D03*
%TD*%
%TO.C,C1*%
X60545419Y-136468379D03*
X61235419Y-136468379D03*
%TD*%
%TO.C,R20*%
X137479013Y-160692679D03*
X138169013Y-160692679D03*
%TD*%
D18*
%TO.C,U4*%
X98854638Y-143895482D03*
X101154638Y-143895482D03*
D19*
X101154638Y-137595482D03*
D18*
X103454638Y-143895482D03*
%TD*%
D20*
%TO.C,C9*%
X153708388Y-109180062D03*
X156708388Y-109180062D03*
%TD*%
D12*
%TO.C,R19*%
X117669325Y-110725062D03*
X117669325Y-110035062D03*
%TD*%
%TO.C,R9*%
X77298231Y-142519454D03*
X77298231Y-141829454D03*
%TD*%
D14*
%TO.C,U7*%
X80577137Y-151800576D03*
X80577137Y-150530576D03*
X74202137Y-150530576D03*
X74202137Y-151800576D03*
%TD*%
D12*
%TO.C,R17*%
X67395888Y-150089548D03*
X67395888Y-149399548D03*
%TD*%
D11*
%TO.C,C13*%
X106270106Y-129412305D03*
X106270106Y-126412305D03*
%TD*%
D13*
%TO.C,R1*%
X68924325Y-118300155D03*
X69614325Y-118300155D03*
%TD*%
%TO.C,R15*%
X87967294Y-150851557D03*
X88657294Y-150851557D03*
%TD*%
D12*
%TO.C,R7*%
X85677138Y-134949361D03*
X85677138Y-134259361D03*
%TD*%
%TO.C,R16*%
X102434950Y-109968052D03*
X102434950Y-109278052D03*
%TD*%
%TO.C,R13*%
X84915419Y-109968052D03*
X84915419Y-109278052D03*
%TD*%
%TO.C,R21*%
X98626356Y-125865249D03*
X98626356Y-125175249D03*
%TD*%
D21*
%TO.C,R24*%
X127571669Y-128203286D03*
X127571669Y-128893286D03*
%TD*%
D20*
%TO.C,C12*%
X194079481Y-109180062D03*
X197079481Y-109180062D03*
%TD*%
D12*
%TO.C,R12*%
X121477919Y-142519454D03*
X121477919Y-141829454D03*
%TD*%
D20*
%TO.C,C10*%
X169704481Y-109180062D03*
X172704481Y-109180062D03*
%TD*%
%TO.C,C5*%
X145282606Y-113722118D03*
X142282606Y-113722118D03*
%TD*%
D12*
%TO.C,R11*%
X77298231Y-121323193D03*
X77298231Y-120633193D03*
%TD*%
D22*
%TO.C,U6*%
X128136669Y-142568964D03*
X129406669Y-142568964D03*
X129406669Y-136193964D03*
X128136669Y-136193964D03*
%TD*%
D12*
%TO.C,R3*%
X55208388Y-109968052D03*
X55208388Y-109278052D03*
%TD*%
D11*
%TO.C,C11*%
X185488856Y-112001090D03*
X185488856Y-109001090D03*
%TD*%
D17*
%TO.C,U3*%
X84104481Y-142203473D03*
X84104481Y-143473473D03*
X90479481Y-143473473D03*
X90479481Y-142203473D03*
%TD*%
D22*
%TO.C,U5*%
X77863231Y-134998870D03*
X79133231Y-134998870D03*
X79133231Y-128623870D03*
X77863231Y-128623870D03*
%TD*%
D23*
%TO.C,U12*%
X115141731Y-124593286D03*
X115141731Y-125863286D03*
X115141731Y-127133286D03*
X115141731Y-128403286D03*
X120141731Y-128403286D03*
X120141731Y-127133286D03*
X120141731Y-125863286D03*
X120141731Y-124593286D03*
D24*
X117641731Y-126498286D03*
%TD*%
D13*
%TO.C,R23*%
X91775888Y-125113239D03*
X92465888Y-125113239D03*
%TD*%
D12*
%TO.C,R5*%
X167181044Y-130407305D03*
X167181044Y-129717305D03*
%TD*%
M02*
