M48
; DRILL file {KiCad 9.0.7} date 2026-04-06T09:36:05-0400
; FORMAT={-:-/ absolute / metric / decimal}
; #@! TF.CreationDate,2026-04-06T09:36:05-04:00
; #@! TF.GenerationSoftware,Kicad,Pcbnew,9.0.7
; #@! TF.FileFunction,Plated,1,2,PTH
FMAT,2
METRIC
; #@! TA.AperFunction,Plated,PTH,ViaDrill
T1C0.305
; #@! TA.AperFunction,Plated,PTH,ComponentDrill
T2C0.800
; #@! TA.AperFunction,Plated,PTH,ComponentDrill
T3C0.813
; #@! TA.AperFunction,Plated,PTH,ComponentDrill
T4C0.889
; #@! TA.AperFunction,Plated,PTH,ComponentDrill
T5C0.920
; #@! TA.AperFunction,Plated,PTH,ComponentDrill
T6C0.991
; #@! TA.AperFunction,Plated,PTH,ComponentDrill
T7C1.100
; #@! TA.AperFunction,Plated,PTH,ComponentDrill
T8C1.240
; #@! TA.AperFunction,Plated,PTH,ComponentDrill
T9C2.300
%
G90
G05
T1
X21.374Y-100.995
X21.374Y-169.56
X25.074Y-157.624
X27.574Y-120.536
X27.574Y-133.229
X27.574Y-145.923
X30.588Y-111.937
X31.929Y-151.159
X32.434Y-107.992
X34.068Y-93.624
X36.058Y-172.376
X38.152Y-151.458
X39.299Y-128.894
X46.761Y-93.624
X46.914Y-119.089
X56.178Y-169.034
X57.032Y-139.027
X58.004Y-156.315
X59.031Y-121.639
X59.455Y-93.624
X60.115Y-135.73
X60.878Y-132.859
X62.901Y-108.946
X67.496Y-150.884
X68.142Y-118.056
X71.607Y-152.46
X71.672Y-136.502
X72.148Y-93.624
X72.395Y-146.804
X72.814Y-151.781
X74.019Y-114.224
X74.918Y-125.817
X75.57Y-161.68
X76.982Y-128.706
X77.461Y-122.099
X78.083Y-120.307
X78.222Y-125.792
X84.842Y-93.624
X85.178Y-123.021
X88.035Y-165.775
X89.095Y-142.203
X89.417Y-114.391
X90.972Y-134.352
X91.634Y-124.318
X92.138Y-135.699
X92.549Y-151.776
X95.158Y-134.521
X96.83Y-147.523
X97.535Y-93.624
X99.848Y-139.772
X100.429Y-153.813
X100.584Y-129.444
X101.151Y-141.891
X101.524Y-139.206
X103.489Y-165.207
X106.199Y-111.696
X107.195Y-108.444
X109.156Y-134.521
X110.229Y-93.624
X112.775Y-128.249
X113.548Y-125.994
X113.551Y-127.136
X116.182Y-165.207
X116.971Y-130.219
X120.154Y-130.655
X120.582Y-141.177
X121.313Y-115.783
X121.713Y-126.775
X122.235Y-153.665
X122.244Y-135.96
X122.345Y-142.601
X122.922Y-93.624
X124.527Y-143.19
X125.018Y-137.073
X125.938Y-134.736
X126.032Y-122.769
X127.204Y-129.926
X127.254Y-142.366
X129.034Y-144.361
X129.753Y-132.032
X129.945Y-153.03
X130.988Y-159.353
X131.955Y-126.584
X132.529Y-107.336
X132.709Y-153.725
X135.152Y-157.871
X135.616Y-93.624
X135.794Y-163.78
X136.475Y-155.432
X136.567Y-135.827
X136.805Y-139.323
X139.119Y-152.484
X139.432Y-140.319
X139.765Y-127.028
X143.462Y-118.492
X144.426Y-130.981
X144.649Y-109.816
X145.189Y-115.55
X148.214Y-132.0
X148.309Y-93.624
X148.88Y-136.812
X149.493Y-147.636
X150.3Y-172.376
X150.427Y-143.785
X150.539Y-142.798
X151.412Y-133.742
X156.526Y-120.523
X156.623Y-121.693
X158.938Y-148.942
X161.003Y-93.624
X162.2Y-154.151
X163.848Y-154.391
X164.446Y-105.811
X165.758Y-141.041
X165.819Y-132.411
X166.19Y-133.482
X166.87Y-164.816
X168.008Y-128.195
X172.183Y-123.207
X173.696Y-93.624
X178.111Y-126.484
X179.018Y-132.167
X179.297Y-117.718
X179.3Y-105.024
X182.802Y-133.563
X186.39Y-93.624
X186.798Y-150.778
X187.773Y-166.064
X197.154Y-136.059
X198.048Y-111.44
X199.083Y-93.624
X210.138Y-164.721
X211.777Y-93.624
X214.126Y-116.662
X214.126Y-129.356
X214.126Y-152.957
T2
X167.597Y-137.6
X167.597Y-163.0
X170.137Y-137.6
X170.137Y-163.0
X172.677Y-137.6
X172.677Y-163.0
X175.217Y-137.6
X175.217Y-163.0
X177.757Y-137.6
X177.757Y-163.0
X180.297Y-137.6
X180.297Y-163.0
X182.837Y-137.6
X182.837Y-163.0
X185.377Y-137.6
X185.377Y-163.0
X187.917Y-137.6
X187.917Y-163.0
X190.457Y-137.6
X190.457Y-163.0
X192.997Y-137.6
X192.997Y-163.0
X195.537Y-137.6
X195.537Y-163.0
X198.077Y-137.6
X198.077Y-163.0
X200.617Y-137.6
X200.617Y-163.0
X203.157Y-137.6
X203.157Y-163.0
X205.697Y-137.6
X205.697Y-163.0
X208.237Y-137.6
X208.237Y-163.0
X210.774Y-137.604
X210.777Y-163.0
X213.314Y-137.604
X213.317Y-163.0
T3
X45.105Y-96.76
X47.105Y-96.76
X49.105Y-96.76
X51.105Y-96.76
X53.105Y-96.76
X60.888Y-96.73
X62.888Y-96.73
X64.888Y-96.73
X66.888Y-96.73
X68.888Y-96.73
X76.605Y-96.76
X78.605Y-96.76
X80.605Y-96.76
X82.605Y-96.76
X84.605Y-96.76
X93.105Y-96.76
X95.105Y-96.76
X97.105Y-96.76
X99.105Y-96.76
X101.105Y-96.76
X109.605Y-96.76
X111.605Y-96.76
X113.605Y-96.76
X115.605Y-96.76
X117.605Y-96.76
X125.105Y-96.76
X127.105Y-96.76
X129.105Y-96.76
X131.105Y-96.76
X133.105Y-96.76
T4
X142.262Y-134.485
X142.262Y-143.385
T5
X26.07Y-170.21
X26.43Y-96.567
X28.57Y-170.21
X28.93Y-96.567
X30.57Y-170.21
X30.93Y-96.567
X33.07Y-170.21
X33.43Y-96.567
T6
X52.0Y-162.0
X55.5Y-167.0
X59.0Y-162.0
X62.5Y-167.0
X66.0Y-162.0
X69.5Y-167.0
X79.0Y-162.0
X82.5Y-167.0
X86.0Y-162.0
X89.5Y-167.0
X93.0Y-162.0
X96.5Y-167.0
X104.5Y-162.0
X108.0Y-167.0
X111.5Y-162.0
X115.0Y-167.0
X118.5Y-162.0
X122.0Y-167.0
X139.967Y-98.807
X142.467Y-98.807
X144.967Y-98.807
X152.467Y-99.03
X154.967Y-99.03
X157.467Y-99.03
X165.0Y-98.777
X167.5Y-98.777
X170.0Y-98.777
X177.5Y-98.777
X180.0Y-98.777
X182.5Y-98.777
X190.5Y-98.777
X193.0Y-98.777
X195.5Y-98.777
X204.717Y-98.53
X207.217Y-98.53
T7
X41.736Y-130.676
X51.896Y-130.676
X69.721Y-125.308
X69.721Y-135.468
X152.748Y-139.692
X152.748Y-149.852
X167.419Y-121.274
X177.579Y-121.274
T8
X48.698Y-119.325
X51.238Y-119.325
X53.778Y-119.325
T9
X23.0Y-167.5
X23.36Y-99.277
X36.14Y-167.5
X36.5Y-99.277
M30
