%TF.GenerationSoftware,Flux,Pcbnew,9.0.6-9.0.6~ubuntu22.04.1*%
%TF.CreationDate,2026-02-18T22:19:37+00:00*%
%TF.ProjectId,input,696e7075-742e-46b6-9963-61645f706362,rev?*%
%TF.SameCoordinates,Original*%
%TF.FileFunction,Copper,L3,Inr*%
%TF.FilePolarity,Positive*%
%FSLAX46Y46*%
G04 Gerber Fmt 4.6, Leading zero omitted, Abs format (unit mm)*
G04 Filename: line-sorter*
G04 Build it with Flux! Visit our site at: https://www.flux.ai (PCBNEW 9.0.6-9.0.6~ubuntu22.04.1) date 2026-02-18 22:19:37*
%MOMM*%
%LPD*%
G01*
G04 APERTURE LIST*
G04 Aperture macros list*
%AMFreePoly0*
4,1,129,0.022069,0.299187,0.036723,0.297744,0.051289,0.295583,0.065730,0.292711,0.080014,0.289133,0.094105,0.284858,0.107969,0.279898,0.121572,0.274263,0.134883,0.267967,0.147869,0.261026,0.160499,0.253456,0.172742,0.245275,0.184569,0.236504,0.195952,0.227163,0.206862,0.217274,0.217274,0.206862,0.227163,0.195952,0.236504,0.184569,0.245275,0.172742,0.253456,0.160499,
0.261026,0.147869,0.267967,0.134883,0.274263,0.121572,0.279898,0.107969,0.284858,0.094105,0.289133,0.080014,0.292711,0.065730,0.295583,0.051289,0.297744,0.036723,0.299187,0.022069,0.299910,0.007362,0.299910,-0.007362,0.299187,-0.022069,0.297744,-0.036723,0.295583,-0.051289,0.292711,-0.065730,0.289133,-0.080014,0.284858,-0.094105,0.279898,-0.107969,0.274263,-0.121572,
0.267967,-0.134883,0.261026,-0.147869,0.253456,-0.160499,0.245275,-0.172742,0.236504,-0.184569,0.227163,-0.195952,0.217274,-0.206862,0.206862,-0.217274,0.195952,-0.227163,0.184569,-0.236504,0.172742,-0.245275,0.160499,-0.253456,0.147869,-0.261026,0.134883,-0.267967,0.121572,-0.274263,0.107969,-0.279898,0.094105,-0.284858,0.080014,-0.289133,0.065730,-0.292711,0.051289,-0.295583,
0.036723,-0.297744,0.022069,-0.299187,0.007362,-0.299910,-0.007362,-0.299910,-0.022069,-0.299187,-0.036723,-0.297744,-0.051289,-0.295583,-0.065730,-0.292711,-0.080014,-0.289133,-0.094105,-0.284858,-0.107969,-0.279898,-0.121572,-0.274263,-0.134883,-0.267967,-0.147869,-0.261026,-0.160499,-0.253456,-0.172742,-0.245275,-0.184569,-0.236504,-0.195952,-0.227163,-0.206862,-0.217274,-0.217274,-0.206862,
-0.227163,-0.195952,-0.236504,-0.184569,-0.245275,-0.172742,-0.253456,-0.160499,-0.261026,-0.147869,-0.267967,-0.134883,-0.274263,-0.121572,-0.279898,-0.107969,-0.284858,-0.094105,-0.289133,-0.080014,-0.292711,-0.065730,-0.295583,-0.051289,-0.297744,-0.036723,-0.299187,-0.022069,-0.299910,-0.007362,-0.299910,0.007362,-0.299187,0.022069,-0.297744,0.036723,-0.295583,0.051289,-0.292711,0.065730,
-0.289133,0.080014,-0.284858,0.094105,-0.279898,0.107969,-0.274263,0.121572,-0.267967,0.134883,-0.261026,0.147869,-0.253456,0.160499,-0.245275,0.172742,-0.236504,0.184569,-0.227163,0.195952,-0.217274,0.206862,-0.206862,0.217274,-0.195952,0.227163,-0.184569,0.236504,-0.172742,0.245275,-0.160499,0.253456,-0.147869,0.261026,-0.134883,0.267967,-0.121572,0.274263,-0.107969,0.279898,
-0.094105,0.284858,-0.080014,0.289133,-0.065730,0.292711,-0.051289,0.295583,-0.036723,0.297744,-0.022069,0.299187,-0.007362,0.299910,0.007362,0.299910,0.022069,0.299187,0.022069,0.299187,$1*%
%AMFreePoly1*
4,1,9,0.000462,0.000191,0.000462,-0.000191,0.000191,-0.000462,-0.000191,-0.000462,-0.000462,-0.000191,-0.000462,0.000191,-0.000191,0.000462,0.000191,0.000462,0.000462,0.000191,0.000462,0.000191,$1*%
G04 Aperture macros list end*
%TA.AperFunction,EtchedComponent*%
%ADD10C,0.000000*%
%TD*%
%TA.AperFunction,ComponentPad*%
%ADD11FreePoly0,0.000000*%
%TD*%
%TA.AperFunction,ComponentPad*%
%ADD12FreePoly1,0.000000*%
%TD*%
G04 APERTURE END LIST*
D10*
%TA.AperFunction,EtchedComponent*%
%TO.C,*%
G36*
X18628067Y-14608865D02*
G01*
X18729129Y-14628967D01*
X18827734Y-14658879D01*
X18922933Y-14698311D01*
X19013808Y-14746885D01*
X19099484Y-14804132D01*
X19179137Y-14869501D01*
X19251999Y-14942363D01*
X19317368Y-15022016D01*
X19374615Y-15107692D01*
X19423189Y-15198567D01*
X19462621Y-15293766D01*
X19492533Y-15392371D01*
X19512635Y-15493433D01*
X19522735Y-15595979D01*
X19522735Y-15699021D01*
X19512635Y-15801567D01*
X19492533Y-15902629D01*
X19462621Y-16001234D01*
X19423189Y-16096433D01*
X19374615Y-16187308D01*
X19317368Y-16272984D01*
X19251999Y-16352637D01*
X19179137Y-16425499D01*
X19099484Y-16490868D01*
X19013808Y-16548115D01*
X18922933Y-16596689D01*
X18827734Y-16636121D01*
X18729129Y-16666033D01*
X18628067Y-16686135D01*
X18525521Y-16696235D01*
X18422479Y-16696235D01*
X18319933Y-16686135D01*
X18218871Y-16666033D01*
X18120266Y-16636121D01*
X18025067Y-16596689D01*
X17934192Y-16548115D01*
X17848516Y-16490868D01*
X17768863Y-16425499D01*
X17696001Y-16352637D01*
X17630632Y-16272984D01*
X17573385Y-16187308D01*
X17524811Y-16096433D01*
X17485379Y-16001234D01*
X17455467Y-15902629D01*
X17435365Y-15801567D01*
X17425265Y-15699021D01*
X17425265Y-15595979D01*
X17435365Y-15493433D01*
X17455467Y-15392371D01*
X17485379Y-15293766D01*
X17524811Y-15198567D01*
X17573385Y-15107692D01*
X17630632Y-15022016D01*
X17696001Y-14942363D01*
X17768863Y-14869501D01*
X17848516Y-14804132D01*
X17934192Y-14746885D01*
X18025067Y-14698311D01*
X18120266Y-14658879D01*
X18218871Y-14628967D01*
X18319933Y-14608865D01*
X18422479Y-14598765D01*
X18525521Y-14598765D01*
X18628067Y-14608865D01*
G37*
%TD.AperFunction*%
%TA.AperFunction,EtchedComponent*%
G36*
X13548067Y-14608865D02*
G01*
X13649129Y-14628967D01*
X13747734Y-14658879D01*
X13842933Y-14698311D01*
X13933808Y-14746885D01*
X14019484Y-14804132D01*
X14099137Y-14869501D01*
X14171999Y-14942363D01*
X14237368Y-15022016D01*
X14294615Y-15107692D01*
X14343189Y-15198567D01*
X14382621Y-15293766D01*
X14412533Y-15392371D01*
X14432635Y-15493433D01*
X14442735Y-15595979D01*
X14442735Y-15699021D01*
X14432635Y-15801567D01*
X14412533Y-15902629D01*
X14382621Y-16001234D01*
X14343189Y-16096433D01*
X14294615Y-16187308D01*
X14237368Y-16272984D01*
X14171999Y-16352637D01*
X14099137Y-16425499D01*
X14019484Y-16490868D01*
X13933808Y-16548115D01*
X13842933Y-16596689D01*
X13747734Y-16636121D01*
X13649129Y-16666033D01*
X13548067Y-16686135D01*
X13445521Y-16696235D01*
X13342479Y-16696235D01*
X13239933Y-16686135D01*
X13138871Y-16666033D01*
X13040266Y-16636121D01*
X12945067Y-16596689D01*
X12854192Y-16548115D01*
X12768516Y-16490868D01*
X12688863Y-16425499D01*
X12616001Y-16352637D01*
X12550632Y-16272984D01*
X12493385Y-16187308D01*
X12444811Y-16096433D01*
X12405379Y-16001234D01*
X12375467Y-15902629D01*
X12355365Y-15801567D01*
X12345265Y-15699021D01*
X12345265Y-15595979D01*
X12355365Y-15493433D01*
X12375467Y-15392371D01*
X12405379Y-15293766D01*
X12444811Y-15198567D01*
X12493385Y-15107692D01*
X12550632Y-15022016D01*
X12616001Y-14942363D01*
X12688863Y-14869501D01*
X12768516Y-14804132D01*
X12854192Y-14746885D01*
X12945067Y-14698311D01*
X13040266Y-14658879D01*
X13138871Y-14628967D01*
X13239933Y-14608865D01*
X13342479Y-14598765D01*
X13445521Y-14598765D01*
X13548067Y-14608865D01*
G37*
%TD.AperFunction*%
%TA.AperFunction,EtchedComponent*%
G36*
X37432584Y16954041D02*
G01*
X37509584Y16938725D01*
X37584712Y16915935D01*
X37657244Y16885891D01*
X37726482Y16848883D01*
X37791759Y16805266D01*
X37852447Y16755461D01*
X37907961Y16699947D01*
X37957766Y16639259D01*
X38001383Y16573982D01*
X38038391Y16504744D01*
X38068435Y16432212D01*
X38091225Y16357084D01*
X38106541Y16280084D01*
X38114236Y16201954D01*
X38114236Y16123446D01*
X38106541Y16045316D01*
X38091225Y15968316D01*
X38068435Y15893188D01*
X38038391Y15820656D01*
X38001383Y15751418D01*
X37957766Y15686141D01*
X37907961Y15625453D01*
X37852447Y15569939D01*
X37791759Y15520134D01*
X37726482Y15476517D01*
X37657244Y15439509D01*
X37584712Y15409465D01*
X37509584Y15386675D01*
X37432584Y15371359D01*
X37354454Y15363664D01*
X37275946Y15363664D01*
X37197816Y15371359D01*
X37120816Y15386675D01*
X37045688Y15409465D01*
X36973156Y15439509D01*
X36903918Y15476517D01*
X36838641Y15520134D01*
X36777953Y15569939D01*
X36722439Y15625453D01*
X36672634Y15686141D01*
X36629017Y15751418D01*
X36592009Y15820656D01*
X36561965Y15893188D01*
X36539175Y15968316D01*
X36523859Y16045316D01*
X36516164Y16123446D01*
X36516164Y16201954D01*
X36523859Y16280084D01*
X36539175Y16357084D01*
X36561965Y16432212D01*
X36592009Y16504744D01*
X36629017Y16573982D01*
X36672634Y16639259D01*
X36722439Y16699947D01*
X36777953Y16755461D01*
X36838641Y16805266D01*
X36903918Y16848883D01*
X36973156Y16885891D01*
X37045688Y16915935D01*
X37120816Y16938725D01*
X37197816Y16954041D01*
X37275946Y16961736D01*
X37354454Y16961736D01*
X37432584Y16954041D01*
G37*
%TD.AperFunction*%
%TA.AperFunction,EtchedComponent*%
G36*
X35615200Y15362700D02*
G01*
X34015200Y15362700D01*
X34015200Y16962700D01*
X35615200Y16962700D01*
X35615200Y15362700D01*
G37*
%TD.AperFunction*%
%TA.AperFunction,EtchedComponent*%
G36*
X16914867Y-17931365D02*
G01*
X17015929Y-17951467D01*
X17114534Y-17981379D01*
X17209733Y-18020811D01*
X17300608Y-18069385D01*
X17386284Y-18126632D01*
X17465937Y-18192001D01*
X17538799Y-18264863D01*
X17604168Y-18344516D01*
X17661415Y-18430192D01*
X17709989Y-18521067D01*
X17749421Y-18616266D01*
X17779333Y-18714871D01*
X17799435Y-18815933D01*
X17809535Y-18918479D01*
X17809535Y-19021521D01*
X17799435Y-19124067D01*
X17779333Y-19225129D01*
X17749421Y-19323734D01*
X17709989Y-19418933D01*
X17661415Y-19509808D01*
X17604168Y-19595484D01*
X17538799Y-19675137D01*
X17465937Y-19747999D01*
X17386284Y-19813368D01*
X17300608Y-19870615D01*
X17209733Y-19919189D01*
X17114534Y-19958621D01*
X17015929Y-19988533D01*
X16914867Y-20008635D01*
X16812321Y-20018735D01*
X16709279Y-20018735D01*
X16606733Y-20008635D01*
X16505671Y-19988533D01*
X16407066Y-19958621D01*
X16311867Y-19919189D01*
X16220992Y-19870615D01*
X16135316Y-19813368D01*
X16055663Y-19747999D01*
X15982801Y-19675137D01*
X15917432Y-19595484D01*
X15860185Y-19509808D01*
X15811611Y-19418933D01*
X15772179Y-19323734D01*
X15742267Y-19225129D01*
X15722165Y-19124067D01*
X15712065Y-19021521D01*
X15712065Y-18918479D01*
X15722165Y-18815933D01*
X15742267Y-18714871D01*
X15772179Y-18616266D01*
X15811611Y-18521067D01*
X15860185Y-18430192D01*
X15917432Y-18344516D01*
X15982801Y-18264863D01*
X16055663Y-18192001D01*
X16135316Y-18126632D01*
X16220992Y-18069385D01*
X16311867Y-18020811D01*
X16407066Y-17981379D01*
X16505671Y-17951467D01*
X16606733Y-17931365D01*
X16709279Y-17921265D01*
X16812321Y-17921265D01*
X16914867Y-17931365D01*
G37*
%TD.AperFunction*%
%TA.AperFunction,EtchedComponent*%
G36*
X11834867Y-17931365D02*
G01*
X11935929Y-17951467D01*
X12034534Y-17981379D01*
X12129733Y-18020811D01*
X12220608Y-18069385D01*
X12306284Y-18126632D01*
X12385937Y-18192001D01*
X12458799Y-18264863D01*
X12524168Y-18344516D01*
X12581415Y-18430192D01*
X12629989Y-18521067D01*
X12669421Y-18616266D01*
X12699333Y-18714871D01*
X12719435Y-18815933D01*
X12729535Y-18918479D01*
X12729535Y-19021521D01*
X12719435Y-19124067D01*
X12699333Y-19225129D01*
X12669421Y-19323734D01*
X12629989Y-19418933D01*
X12581415Y-19509808D01*
X12524168Y-19595484D01*
X12458799Y-19675137D01*
X12385937Y-19747999D01*
X12306284Y-19813368D01*
X12220608Y-19870615D01*
X12129733Y-19919189D01*
X12034534Y-19958621D01*
X11935929Y-19988533D01*
X11834867Y-20008635D01*
X11732321Y-20018735D01*
X11629279Y-20018735D01*
X11526733Y-20008635D01*
X11425671Y-19988533D01*
X11327066Y-19958621D01*
X11231867Y-19919189D01*
X11140992Y-19870615D01*
X11055316Y-19813368D01*
X10975663Y-19747999D01*
X10902801Y-19675137D01*
X10837432Y-19595484D01*
X10780185Y-19509808D01*
X10731611Y-19418933D01*
X10692179Y-19323734D01*
X10662267Y-19225129D01*
X10642165Y-19124067D01*
X10632065Y-19021521D01*
X10632065Y-18918479D01*
X10642165Y-18815933D01*
X10662267Y-18714871D01*
X10692179Y-18616266D01*
X10731611Y-18521067D01*
X10780185Y-18430192D01*
X10837432Y-18344516D01*
X10902801Y-18264863D01*
X10975663Y-18192001D01*
X11055316Y-18126632D01*
X11140992Y-18069385D01*
X11231867Y-18020811D01*
X11327066Y-17981379D01*
X11425671Y-17951467D01*
X11526733Y-17931365D01*
X11629279Y-17921265D01*
X11732321Y-17921265D01*
X11834867Y-17931365D01*
G37*
%TD.AperFunction*%
%TA.AperFunction,EtchedComponent*%
G36*
X33755861Y4702191D02*
G01*
X33847539Y4683955D01*
X33936988Y4656821D01*
X34023346Y4621050D01*
X34105783Y4576987D01*
X34183504Y4525055D01*
X34255760Y4465756D01*
X34321856Y4399660D01*
X34381155Y4327404D01*
X34433087Y4249683D01*
X34477150Y4167246D01*
X34512921Y4080888D01*
X34540055Y3991439D01*
X34558291Y3899761D01*
X34567453Y3806737D01*
X34567453Y3713263D01*
X34558291Y3620239D01*
X34540055Y3528561D01*
X34512921Y3439112D01*
X34477150Y3352754D01*
X34433087Y3270317D01*
X34381155Y3192596D01*
X34321856Y3120340D01*
X34255760Y3054244D01*
X34183504Y2994945D01*
X34105783Y2943013D01*
X34023346Y2898950D01*
X33936988Y2863179D01*
X33847539Y2836045D01*
X33755861Y2817809D01*
X33662837Y2808647D01*
X33569363Y2808647D01*
X33476339Y2817809D01*
X33384661Y2836045D01*
X33295212Y2863179D01*
X33208854Y2898950D01*
X33126417Y2943013D01*
X33048696Y2994945D01*
X32976440Y3054244D01*
X32910344Y3120340D01*
X32851045Y3192596D01*
X32799113Y3270317D01*
X32755050Y3352754D01*
X32719279Y3439112D01*
X32692145Y3528561D01*
X32673909Y3620239D01*
X32664747Y3713263D01*
X32664747Y3806737D01*
X32673909Y3899761D01*
X32692145Y3991439D01*
X32719279Y4080888D01*
X32755050Y4167246D01*
X32799113Y4249683D01*
X32851045Y4327404D01*
X32910344Y4399660D01*
X32976440Y4465756D01*
X33048696Y4525055D01*
X33126417Y4576987D01*
X33208854Y4621050D01*
X33295212Y4656821D01*
X33384661Y4683955D01*
X33476339Y4702191D01*
X33569363Y4711353D01*
X33662837Y4711353D01*
X33755861Y4702191D01*
G37*
%TD.AperFunction*%
%TA.AperFunction,EtchedComponent*%
G36*
X57885861Y4702191D02*
G01*
X57977539Y4683955D01*
X58066988Y4656821D01*
X58153346Y4621050D01*
X58235783Y4576987D01*
X58313504Y4525055D01*
X58385760Y4465756D01*
X58451856Y4399660D01*
X58511155Y4327404D01*
X58563087Y4249683D01*
X58607150Y4167246D01*
X58642921Y4080888D01*
X58670055Y3991439D01*
X58688291Y3899761D01*
X58697453Y3806737D01*
X58697453Y3713263D01*
X58688291Y3620239D01*
X58670055Y3528561D01*
X58642921Y3439112D01*
X58607150Y3352754D01*
X58563087Y3270317D01*
X58511155Y3192596D01*
X58451856Y3120340D01*
X58385760Y3054244D01*
X58313504Y2994945D01*
X58235783Y2943013D01*
X58153346Y2898950D01*
X58066988Y2863179D01*
X57977539Y2836045D01*
X57885861Y2817809D01*
X57792837Y2808647D01*
X57699363Y2808647D01*
X57606339Y2817809D01*
X57514661Y2836045D01*
X57425212Y2863179D01*
X57338854Y2898950D01*
X57256417Y2943013D01*
X57178696Y2994945D01*
X57106440Y3054244D01*
X57040344Y3120340D01*
X56981045Y3192596D01*
X56929113Y3270317D01*
X56885050Y3352754D01*
X56849279Y3439112D01*
X56822145Y3528561D01*
X56803909Y3620239D01*
X56794747Y3713263D01*
X56794747Y3806737D01*
X56803909Y3899761D01*
X56822145Y3991439D01*
X56849279Y4080888D01*
X56885050Y4167246D01*
X56929113Y4249683D01*
X56981045Y4327404D01*
X57040344Y4399660D01*
X57106440Y4465756D01*
X57178696Y4525055D01*
X57256417Y4576987D01*
X57338854Y4621050D01*
X57425212Y4656821D01*
X57514661Y4683955D01*
X57606339Y4702191D01*
X57699363Y4711353D01*
X57792837Y4711353D01*
X57885861Y4702191D01*
G37*
%TD.AperFunction*%
%TA.AperFunction,EtchedComponent*%
G36*
X-25447033Y13494635D02*
G01*
X-25345971Y13474533D01*
X-25247366Y13444621D01*
X-25152167Y13405189D01*
X-25061292Y13356615D01*
X-24975616Y13299368D01*
X-24895963Y13233999D01*
X-24823101Y13161137D01*
X-24757732Y13081484D01*
X-24700485Y12995808D01*
X-24651911Y12904933D01*
X-24612479Y12809734D01*
X-24582567Y12711129D01*
X-24562465Y12610067D01*
X-24552365Y12507521D01*
X-24552365Y12404479D01*
X-24562465Y12301933D01*
X-24582567Y12200871D01*
X-24612479Y12102266D01*
X-24651911Y12007067D01*
X-24700485Y11916192D01*
X-24757732Y11830516D01*
X-24823101Y11750863D01*
X-24895963Y11678001D01*
X-24975616Y11612632D01*
X-25061292Y11555385D01*
X-25152167Y11506811D01*
X-25247366Y11467379D01*
X-25345971Y11437467D01*
X-25447033Y11417365D01*
X-25549579Y11407265D01*
X-25652621Y11407265D01*
X-25755167Y11417365D01*
X-25856229Y11437467D01*
X-25954834Y11467379D01*
X-26050033Y11506811D01*
X-26140908Y11555385D01*
X-26226584Y11612632D01*
X-26306237Y11678001D01*
X-26379099Y11750863D01*
X-26444468Y11830516D01*
X-26501715Y11916192D01*
X-26550289Y12007067D01*
X-26589721Y12102266D01*
X-26619633Y12200871D01*
X-26639735Y12301933D01*
X-26649835Y12404479D01*
X-26649835Y12507521D01*
X-26639735Y12610067D01*
X-26619633Y12711129D01*
X-26589721Y12809734D01*
X-26550289Y12904933D01*
X-26501715Y12995808D01*
X-26444468Y13081484D01*
X-26379099Y13161137D01*
X-26306237Y13233999D01*
X-26226584Y13299368D01*
X-26140908Y13356615D01*
X-26050033Y13405189D01*
X-25954834Y13444621D01*
X-25856229Y13474533D01*
X-25755167Y13494635D01*
X-25652621Y13504735D01*
X-25549579Y13504735D01*
X-25447033Y13494635D01*
G37*
%TD.AperFunction*%
%TA.AperFunction,EtchedComponent*%
G36*
X-30527033Y13494635D02*
G01*
X-30425971Y13474533D01*
X-30327366Y13444621D01*
X-30232167Y13405189D01*
X-30141292Y13356615D01*
X-30055616Y13299368D01*
X-29975963Y13233999D01*
X-29903101Y13161137D01*
X-29837732Y13081484D01*
X-29780485Y12995808D01*
X-29731911Y12904933D01*
X-29692479Y12809734D01*
X-29662567Y12711129D01*
X-29642465Y12610067D01*
X-29632365Y12507521D01*
X-29632365Y12404479D01*
X-29642465Y12301933D01*
X-29662567Y12200871D01*
X-29692479Y12102266D01*
X-29731911Y12007067D01*
X-29780485Y11916192D01*
X-29837732Y11830516D01*
X-29903101Y11750863D01*
X-29975963Y11678001D01*
X-30055616Y11612632D01*
X-30141292Y11555385D01*
X-30232167Y11506811D01*
X-30327366Y11467379D01*
X-30425971Y11437467D01*
X-30527033Y11417365D01*
X-30629579Y11407265D01*
X-30732621Y11407265D01*
X-30835167Y11417365D01*
X-30936229Y11437467D01*
X-31034834Y11467379D01*
X-31130033Y11506811D01*
X-31220908Y11555385D01*
X-31306584Y11612632D01*
X-31386237Y11678001D01*
X-31459099Y11750863D01*
X-31524468Y11830516D01*
X-31581715Y11916192D01*
X-31630289Y12007067D01*
X-31669721Y12102266D01*
X-31699633Y12200871D01*
X-31719735Y12301933D01*
X-31729835Y12404479D01*
X-31729835Y12507521D01*
X-31719735Y12610067D01*
X-31699633Y12711129D01*
X-31669721Y12809734D01*
X-31630289Y12904933D01*
X-31581715Y12995808D01*
X-31524468Y13081484D01*
X-31459099Y13161137D01*
X-31386237Y13233999D01*
X-31306584Y13299368D01*
X-31220908Y13356615D01*
X-31130033Y13405189D01*
X-31034834Y13444621D01*
X-30936229Y13474533D01*
X-30835167Y13494635D01*
X-30732621Y13504735D01*
X-30629579Y13504735D01*
X-30527033Y13494635D01*
G37*
%TD.AperFunction*%
%TA.AperFunction,EtchedComponent*%
G36*
X21405067Y-11163965D02*
G01*
X21506129Y-11184067D01*
X21604734Y-11213979D01*
X21699933Y-11253411D01*
X21790808Y-11301985D01*
X21876484Y-11359232D01*
X21956137Y-11424601D01*
X22028999Y-11497463D01*
X22094368Y-11577116D01*
X22151615Y-11662792D01*
X22200189Y-11753667D01*
X22239621Y-11848866D01*
X22269533Y-11947471D01*
X22289635Y-12048533D01*
X22299735Y-12151079D01*
X22299735Y-12254121D01*
X22289635Y-12356667D01*
X22269533Y-12457729D01*
X22239621Y-12556334D01*
X22200189Y-12651533D01*
X22151615Y-12742408D01*
X22094368Y-12828084D01*
X22028999Y-12907737D01*
X21956137Y-12980599D01*
X21876484Y-13045968D01*
X21790808Y-13103215D01*
X21699933Y-13151789D01*
X21604734Y-13191221D01*
X21506129Y-13221133D01*
X21405067Y-13241235D01*
X21302521Y-13251335D01*
X21199479Y-13251335D01*
X21096933Y-13241235D01*
X20995871Y-13221133D01*
X20897266Y-13191221D01*
X20802067Y-13151789D01*
X20711192Y-13103215D01*
X20625516Y-13045968D01*
X20545863Y-12980599D01*
X20473001Y-12907737D01*
X20407632Y-12828084D01*
X20350385Y-12742408D01*
X20301811Y-12651533D01*
X20262379Y-12556334D01*
X20232467Y-12457729D01*
X20212365Y-12356667D01*
X20202265Y-12254121D01*
X20202265Y-12151079D01*
X20212365Y-12048533D01*
X20232467Y-11947471D01*
X20262379Y-11848866D01*
X20301811Y-11753667D01*
X20350385Y-11662792D01*
X20407632Y-11577116D01*
X20473001Y-11497463D01*
X20545863Y-11424601D01*
X20625516Y-11359232D01*
X20711192Y-11301985D01*
X20802067Y-11253411D01*
X20897266Y-11213979D01*
X20995871Y-11184067D01*
X21096933Y-11163965D01*
X21199479Y-11153865D01*
X21302521Y-11153865D01*
X21405067Y-11163965D01*
G37*
%TD.AperFunction*%
%TA.AperFunction,EtchedComponent*%
G36*
X16325067Y-11163965D02*
G01*
X16426129Y-11184067D01*
X16524734Y-11213979D01*
X16619933Y-11253411D01*
X16710808Y-11301985D01*
X16796484Y-11359232D01*
X16876137Y-11424601D01*
X16948999Y-11497463D01*
X17014368Y-11577116D01*
X17071615Y-11662792D01*
X17120189Y-11753667D01*
X17159621Y-11848866D01*
X17189533Y-11947471D01*
X17209635Y-12048533D01*
X17219735Y-12151079D01*
X17219735Y-12254121D01*
X17209635Y-12356667D01*
X17189533Y-12457729D01*
X17159621Y-12556334D01*
X17120189Y-12651533D01*
X17071615Y-12742408D01*
X17014368Y-12828084D01*
X16948999Y-12907737D01*
X16876137Y-12980599D01*
X16796484Y-13045968D01*
X16710808Y-13103215D01*
X16619933Y-13151789D01*
X16524734Y-13191221D01*
X16426129Y-13221133D01*
X16325067Y-13241235D01*
X16222521Y-13251335D01*
X16119479Y-13251335D01*
X16016933Y-13241235D01*
X15915871Y-13221133D01*
X15817266Y-13191221D01*
X15722067Y-13151789D01*
X15631192Y-13103215D01*
X15545516Y-13045968D01*
X15465863Y-12980599D01*
X15393001Y-12907737D01*
X15327632Y-12828084D01*
X15270385Y-12742408D01*
X15221811Y-12651533D01*
X15182379Y-12556334D01*
X15152467Y-12457729D01*
X15132365Y-12356667D01*
X15122265Y-12254121D01*
X15122265Y-12151079D01*
X15132365Y-12048533D01*
X15152467Y-11947471D01*
X15182379Y-11848866D01*
X15221811Y-11753667D01*
X15270385Y-11662792D01*
X15327632Y-11577116D01*
X15393001Y-11497463D01*
X15465863Y-11424601D01*
X15545516Y-11359232D01*
X15631192Y-11301985D01*
X15722067Y-11253411D01*
X15817266Y-11213979D01*
X15915871Y-11184067D01*
X16016933Y-11163965D01*
X16119479Y-11153865D01*
X16222521Y-11153865D01*
X16325067Y-11163965D01*
G37*
%TD.AperFunction*%
%TA.AperFunction,EtchedComponent*%
G36*
X27318761Y35893391D02*
G01*
X27410439Y35875155D01*
X27499888Y35848021D01*
X27586246Y35812250D01*
X27668683Y35768187D01*
X27746404Y35716255D01*
X27818660Y35656956D01*
X27884756Y35590860D01*
X27944055Y35518604D01*
X27995987Y35440883D01*
X28040050Y35358446D01*
X28075821Y35272088D01*
X28102955Y35182639D01*
X28121191Y35090961D01*
X28130353Y34997937D01*
X28130353Y34809463D01*
X28121191Y34716439D01*
X28102955Y34624761D01*
X28075821Y34535312D01*
X28040050Y34448954D01*
X27995987Y34366517D01*
X27944055Y34288796D01*
X27884756Y34216540D01*
X27818660Y34150444D01*
X27746404Y34091145D01*
X27668683Y34039213D01*
X27586246Y33995150D01*
X27499888Y33959379D01*
X27410439Y33932245D01*
X27318761Y33914009D01*
X27225737Y33904847D01*
X27132263Y33904847D01*
X27039239Y33914009D01*
X26947561Y33932245D01*
X26858112Y33959379D01*
X26771754Y33995150D01*
X26689317Y34039213D01*
X26611596Y34091145D01*
X26539340Y34150444D01*
X26473244Y34216540D01*
X26413945Y34288796D01*
X26362013Y34366517D01*
X26317950Y34448954D01*
X26282179Y34535312D01*
X26255045Y34624761D01*
X26236809Y34716439D01*
X26227647Y34809463D01*
X26227647Y34902937D01*
X26227647Y34997937D01*
X26236809Y35090961D01*
X26255045Y35182639D01*
X26282179Y35272088D01*
X26317950Y35358446D01*
X26362013Y35440883D01*
X26413945Y35518604D01*
X26473244Y35590860D01*
X26539340Y35656956D01*
X26611596Y35716255D01*
X26689317Y35768187D01*
X26771754Y35812250D01*
X26858112Y35848021D01*
X26947561Y35875155D01*
X27039239Y35893391D01*
X27132263Y35902553D01*
X27225737Y35902553D01*
X27318761Y35893391D01*
G37*
%TD.AperFunction*%
%TA.AperFunction,EtchedComponent*%
G36*
X25592000Y33903700D02*
G01*
X23687000Y33903700D01*
X23687000Y35903700D01*
X25592000Y35903700D01*
X25592000Y33903700D01*
G37*
%TD.AperFunction*%
%TA.AperFunction,EtchedComponent*%
G36*
X29858761Y35893391D02*
G01*
X29950439Y35875155D01*
X30039888Y35848021D01*
X30126246Y35812250D01*
X30208683Y35768187D01*
X30286404Y35716255D01*
X30358660Y35656956D01*
X30424756Y35590860D01*
X30484055Y35518604D01*
X30535987Y35440883D01*
X30580050Y35358446D01*
X30615821Y35272088D01*
X30642955Y35182639D01*
X30661191Y35090961D01*
X30670353Y34997937D01*
X30670353Y34809463D01*
X30661191Y34716439D01*
X30642955Y34624761D01*
X30615821Y34535312D01*
X30580050Y34448954D01*
X30535987Y34366517D01*
X30484055Y34288796D01*
X30424756Y34216540D01*
X30358660Y34150444D01*
X30286404Y34091145D01*
X30208683Y34039213D01*
X30126246Y33995150D01*
X30039888Y33959379D01*
X29950439Y33932245D01*
X29858761Y33914009D01*
X29765737Y33904847D01*
X29672263Y33904847D01*
X29579239Y33914009D01*
X29487561Y33932245D01*
X29398112Y33959379D01*
X29311754Y33995150D01*
X29229317Y34039213D01*
X29151596Y34091145D01*
X29079340Y34150444D01*
X29013244Y34216540D01*
X28953945Y34288796D01*
X28902013Y34366517D01*
X28857950Y34448954D01*
X28822179Y34535312D01*
X28795045Y34624761D01*
X28776809Y34716439D01*
X28767647Y34809463D01*
X28767647Y34902937D01*
X28767647Y34997937D01*
X28776809Y35090961D01*
X28795045Y35182639D01*
X28822179Y35272088D01*
X28857950Y35358446D01*
X28902013Y35440883D01*
X28953945Y35518604D01*
X29013244Y35590860D01*
X29079340Y35656956D01*
X29151596Y35716255D01*
X29229317Y35768187D01*
X29311754Y35812250D01*
X29398112Y35848021D01*
X29487561Y35875155D01*
X29579239Y35893391D01*
X29672263Y35902553D01*
X29765737Y35902553D01*
X29858761Y35893391D01*
G37*
%TD.AperFunction*%
%TA.AperFunction,EtchedComponent*%
G36*
X25594967Y-6338665D02*
G01*
X25696029Y-6358767D01*
X25794634Y-6388679D01*
X25889833Y-6428111D01*
X25980708Y-6476685D01*
X26066384Y-6533932D01*
X26146037Y-6599301D01*
X26218899Y-6672163D01*
X26284268Y-6751816D01*
X26341515Y-6837492D01*
X26390089Y-6928367D01*
X26429521Y-7023566D01*
X26459433Y-7122171D01*
X26479535Y-7223233D01*
X26489635Y-7325779D01*
X26489635Y-7428821D01*
X26479535Y-7531367D01*
X26459433Y-7632429D01*
X26429521Y-7731034D01*
X26390089Y-7826233D01*
X26341515Y-7917108D01*
X26284268Y-8002784D01*
X26218899Y-8082437D01*
X26146037Y-8155299D01*
X26066384Y-8220668D01*
X25980708Y-8277915D01*
X25889833Y-8326489D01*
X25794634Y-8365921D01*
X25696029Y-8395833D01*
X25594967Y-8415935D01*
X25492421Y-8426035D01*
X25389379Y-8426035D01*
X25286833Y-8415935D01*
X25185771Y-8395833D01*
X25087166Y-8365921D01*
X24991967Y-8326489D01*
X24901092Y-8277915D01*
X24815416Y-8220668D01*
X24735763Y-8155299D01*
X24662901Y-8082437D01*
X24597532Y-8002784D01*
X24540285Y-7917108D01*
X24491711Y-7826233D01*
X24452279Y-7731034D01*
X24422367Y-7632429D01*
X24402265Y-7531367D01*
X24392165Y-7428821D01*
X24392165Y-7325779D01*
X24402265Y-7223233D01*
X24422367Y-7122171D01*
X24452279Y-7023566D01*
X24491711Y-6928367D01*
X24540285Y-6837492D01*
X24597532Y-6751816D01*
X24662901Y-6672163D01*
X24735763Y-6599301D01*
X24815416Y-6533932D01*
X24901092Y-6476685D01*
X24991967Y-6428111D01*
X25087166Y-6388679D01*
X25185771Y-6358767D01*
X25286833Y-6338665D01*
X25389379Y-6328565D01*
X25492421Y-6328565D01*
X25594967Y-6338665D01*
G37*
%TD.AperFunction*%
%TA.AperFunction,EtchedComponent*%
G36*
X20514967Y-6338665D02*
G01*
X20616029Y-6358767D01*
X20714634Y-6388679D01*
X20809833Y-6428111D01*
X20900708Y-6476685D01*
X20986384Y-6533932D01*
X21066037Y-6599301D01*
X21138899Y-6672163D01*
X21204268Y-6751816D01*
X21261515Y-6837492D01*
X21310089Y-6928367D01*
X21349521Y-7023566D01*
X21379433Y-7122171D01*
X21399535Y-7223233D01*
X21409635Y-7325779D01*
X21409635Y-7428821D01*
X21399535Y-7531367D01*
X21379433Y-7632429D01*
X21349521Y-7731034D01*
X21310089Y-7826233D01*
X21261515Y-7917108D01*
X21204268Y-8002784D01*
X21138899Y-8082437D01*
X21066037Y-8155299D01*
X20986384Y-8220668D01*
X20900708Y-8277915D01*
X20809833Y-8326489D01*
X20714634Y-8365921D01*
X20616029Y-8395833D01*
X20514967Y-8415935D01*
X20412421Y-8426035D01*
X20309379Y-8426035D01*
X20206833Y-8415935D01*
X20105771Y-8395833D01*
X20007166Y-8365921D01*
X19911967Y-8326489D01*
X19821092Y-8277915D01*
X19735416Y-8220668D01*
X19655763Y-8155299D01*
X19582901Y-8082437D01*
X19517532Y-8002784D01*
X19460285Y-7917108D01*
X19411711Y-7826233D01*
X19372279Y-7731034D01*
X19342367Y-7632429D01*
X19322265Y-7531367D01*
X19312165Y-7428821D01*
X19312165Y-7325779D01*
X19322265Y-7223233D01*
X19342367Y-7122171D01*
X19372279Y-7023566D01*
X19411711Y-6928367D01*
X19460285Y-6837492D01*
X19517532Y-6751816D01*
X19582901Y-6672163D01*
X19655763Y-6599301D01*
X19735416Y-6533932D01*
X19821092Y-6476685D01*
X19911967Y-6428111D01*
X20007166Y-6388679D01*
X20105771Y-6358767D01*
X20206833Y-6338665D01*
X20309379Y-6328565D01*
X20412421Y-6328565D01*
X20514967Y-6338665D01*
G37*
%TD.AperFunction*%
%TA.AperFunction,EtchedComponent*%
G36*
X-26496833Y3897535D02*
G01*
X-26395771Y3877433D01*
X-26297166Y3847521D01*
X-26201967Y3808089D01*
X-26111092Y3759515D01*
X-26025416Y3702268D01*
X-25945763Y3636899D01*
X-25872901Y3564037D01*
X-25807532Y3484384D01*
X-25750285Y3398708D01*
X-25701711Y3307833D01*
X-25662279Y3212634D01*
X-25632367Y3114029D01*
X-25612265Y3012967D01*
X-25602165Y2910421D01*
X-25602165Y2807379D01*
X-25612265Y2704833D01*
X-25632367Y2603771D01*
X-25662279Y2505166D01*
X-25701711Y2409967D01*
X-25750285Y2319092D01*
X-25807532Y2233416D01*
X-25872901Y2153763D01*
X-25945763Y2080901D01*
X-26025416Y2015532D01*
X-26111092Y1958285D01*
X-26201967Y1909711D01*
X-26297166Y1870279D01*
X-26395771Y1840367D01*
X-26496833Y1820265D01*
X-26599379Y1810165D01*
X-26702421Y1810165D01*
X-26804967Y1820265D01*
X-26906029Y1840367D01*
X-27004634Y1870279D01*
X-27099833Y1909711D01*
X-27190708Y1958285D01*
X-27276384Y2015532D01*
X-27356037Y2080901D01*
X-27428899Y2153763D01*
X-27494268Y2233416D01*
X-27551515Y2319092D01*
X-27600089Y2409967D01*
X-27639521Y2505166D01*
X-27669433Y2603771D01*
X-27689535Y2704833D01*
X-27699635Y2807379D01*
X-27699635Y2910421D01*
X-27689535Y3012967D01*
X-27669433Y3114029D01*
X-27639521Y3212634D01*
X-27600089Y3307833D01*
X-27551515Y3398708D01*
X-27494268Y3484384D01*
X-27428899Y3564037D01*
X-27356037Y3636899D01*
X-27276384Y3702268D01*
X-27190708Y3759515D01*
X-27099833Y3808089D01*
X-27004634Y3847521D01*
X-26906029Y3877433D01*
X-26804967Y3897535D01*
X-26702421Y3907635D01*
X-26599379Y3907635D01*
X-26496833Y3897535D01*
G37*
%TD.AperFunction*%
%TA.AperFunction,EtchedComponent*%
G36*
X-31576833Y3897535D02*
G01*
X-31475771Y3877433D01*
X-31377166Y3847521D01*
X-31281967Y3808089D01*
X-31191092Y3759515D01*
X-31105416Y3702268D01*
X-31025763Y3636899D01*
X-30952901Y3564037D01*
X-30887532Y3484384D01*
X-30830285Y3398708D01*
X-30781711Y3307833D01*
X-30742279Y3212634D01*
X-30712367Y3114029D01*
X-30692265Y3012967D01*
X-30682165Y2910421D01*
X-30682165Y2807379D01*
X-30692265Y2704833D01*
X-30712367Y2603771D01*
X-30742279Y2505166D01*
X-30781711Y2409967D01*
X-30830285Y2319092D01*
X-30887532Y2233416D01*
X-30952901Y2153763D01*
X-31025763Y2080901D01*
X-31105416Y2015532D01*
X-31191092Y1958285D01*
X-31281967Y1909711D01*
X-31377166Y1870279D01*
X-31475771Y1840367D01*
X-31576833Y1820265D01*
X-31679379Y1810165D01*
X-31782421Y1810165D01*
X-31884967Y1820265D01*
X-31986029Y1840367D01*
X-32084634Y1870279D01*
X-32179833Y1909711D01*
X-32270708Y1958285D01*
X-32356384Y2015532D01*
X-32436037Y2080901D01*
X-32508899Y2153763D01*
X-32574268Y2233416D01*
X-32631515Y2319092D01*
X-32680089Y2409967D01*
X-32719521Y2505166D01*
X-32749433Y2603771D01*
X-32769535Y2704833D01*
X-32779635Y2807379D01*
X-32779635Y2910421D01*
X-32769535Y3012967D01*
X-32749433Y3114029D01*
X-32719521Y3212634D01*
X-32680089Y3307833D01*
X-32631515Y3398708D01*
X-32574268Y3484384D01*
X-32508899Y3564037D01*
X-32436037Y3636899D01*
X-32356384Y3702268D01*
X-32270708Y3759515D01*
X-32179833Y3808089D01*
X-32084634Y3847521D01*
X-31986029Y3877433D01*
X-31884967Y3897535D01*
X-31782421Y3907635D01*
X-31679379Y3907635D01*
X-31576833Y3897535D01*
G37*
%TD.AperFunction*%
%TA.AperFunction,EtchedComponent*%
G36*
X24139900Y5990300D02*
G01*
X22189900Y5990300D01*
X22189900Y7940300D01*
X24139900Y7940300D01*
X24139900Y5990300D01*
G37*
%TD.AperFunction*%
%TA.AperFunction,EtchedComponent*%
G36*
X28307962Y7929747D02*
G01*
X28401806Y7911080D01*
X28493368Y7883305D01*
X28581766Y7846690D01*
X28666150Y7801585D01*
X28745707Y7748427D01*
X28819670Y7687727D01*
X28887327Y7620070D01*
X28948027Y7546107D01*
X29001185Y7466550D01*
X29046290Y7382166D01*
X29082905Y7293768D01*
X29110680Y7202206D01*
X29129347Y7108362D01*
X29138726Y7013141D01*
X29138726Y6917459D01*
X29129347Y6822238D01*
X29110680Y6728394D01*
X29082905Y6636832D01*
X29046290Y6548434D01*
X29001185Y6464050D01*
X28948027Y6384493D01*
X28887327Y6310530D01*
X28819670Y6242873D01*
X28745707Y6182173D01*
X28666150Y6129015D01*
X28581766Y6083910D01*
X28493368Y6047295D01*
X28401806Y6019520D01*
X28307962Y6000853D01*
X28212741Y5991474D01*
X28117059Y5991474D01*
X28021838Y6000853D01*
X27927994Y6019520D01*
X27836432Y6047295D01*
X27748034Y6083910D01*
X27663650Y6129015D01*
X27584093Y6182173D01*
X27510130Y6242873D01*
X27442473Y6310530D01*
X27381773Y6384493D01*
X27328615Y6464050D01*
X27283510Y6548434D01*
X27246895Y6636832D01*
X27219120Y6728394D01*
X27200453Y6822238D01*
X27191074Y6917459D01*
X27191074Y7013141D01*
X27200453Y7108362D01*
X27219120Y7202206D01*
X27246895Y7293768D01*
X27283510Y7382166D01*
X27328615Y7466550D01*
X27381773Y7546107D01*
X27442473Y7620070D01*
X27510130Y7687727D01*
X27584093Y7748427D01*
X27663650Y7801585D01*
X27748034Y7846690D01*
X27836432Y7883305D01*
X27927994Y7911080D01*
X28021838Y7929747D01*
X28117059Y7939126D01*
X28212741Y7939126D01*
X28307962Y7929747D01*
G37*
%TD.AperFunction*%
%TA.AperFunction,EtchedComponent*%
G36*
X-33257833Y-5702765D02*
G01*
X-33156771Y-5722867D01*
X-33058166Y-5752779D01*
X-32962967Y-5792211D01*
X-32872092Y-5840785D01*
X-32786416Y-5898032D01*
X-32706763Y-5963401D01*
X-32633901Y-6036263D01*
X-32568532Y-6115916D01*
X-32511285Y-6201592D01*
X-32462711Y-6292467D01*
X-32423279Y-6387666D01*
X-32393367Y-6486271D01*
X-32373265Y-6587333D01*
X-32363165Y-6689879D01*
X-32363165Y-6792921D01*
X-32373265Y-6895467D01*
X-32393367Y-6996529D01*
X-32423279Y-7095134D01*
X-32462711Y-7190333D01*
X-32511285Y-7281208D01*
X-32568532Y-7366884D01*
X-32633901Y-7446537D01*
X-32706763Y-7519399D01*
X-32786416Y-7584768D01*
X-32872092Y-7642015D01*
X-32962967Y-7690589D01*
X-33058166Y-7730021D01*
X-33156771Y-7759933D01*
X-33257833Y-7780035D01*
X-33360379Y-7790135D01*
X-33463421Y-7790135D01*
X-33565967Y-7780035D01*
X-33667029Y-7759933D01*
X-33765634Y-7730021D01*
X-33860833Y-7690589D01*
X-33951708Y-7642015D01*
X-34037384Y-7584768D01*
X-34117037Y-7519399D01*
X-34189899Y-7446537D01*
X-34255268Y-7366884D01*
X-34312515Y-7281208D01*
X-34361089Y-7190333D01*
X-34400521Y-7095134D01*
X-34430433Y-6996529D01*
X-34450535Y-6895467D01*
X-34460635Y-6792921D01*
X-34460635Y-6689879D01*
X-34450535Y-6587333D01*
X-34430433Y-6486271D01*
X-34400521Y-6387666D01*
X-34361089Y-6292467D01*
X-34312515Y-6201592D01*
X-34255268Y-6115916D01*
X-34189899Y-6036263D01*
X-34117037Y-5963401D01*
X-34037384Y-5898032D01*
X-33951708Y-5840785D01*
X-33860833Y-5792211D01*
X-33765634Y-5752779D01*
X-33667029Y-5722867D01*
X-33565967Y-5702765D01*
X-33463421Y-5692665D01*
X-33360379Y-5692665D01*
X-33257833Y-5702765D01*
G37*
%TD.AperFunction*%
%TA.AperFunction,EtchedComponent*%
G36*
X-38337833Y-5702765D02*
G01*
X-38236771Y-5722867D01*
X-38138166Y-5752779D01*
X-38042967Y-5792211D01*
X-37952092Y-5840785D01*
X-37866416Y-5898032D01*
X-37786763Y-5963401D01*
X-37713901Y-6036263D01*
X-37648532Y-6115916D01*
X-37591285Y-6201592D01*
X-37542711Y-6292467D01*
X-37503279Y-6387666D01*
X-37473367Y-6486271D01*
X-37453265Y-6587333D01*
X-37443165Y-6689879D01*
X-37443165Y-6792921D01*
X-37453265Y-6895467D01*
X-37473367Y-6996529D01*
X-37503279Y-7095134D01*
X-37542711Y-7190333D01*
X-37591285Y-7281208D01*
X-37648532Y-7366884D01*
X-37713901Y-7446537D01*
X-37786763Y-7519399D01*
X-37866416Y-7584768D01*
X-37952092Y-7642015D01*
X-38042967Y-7690589D01*
X-38138166Y-7730021D01*
X-38236771Y-7759933D01*
X-38337833Y-7780035D01*
X-38440379Y-7790135D01*
X-38543421Y-7790135D01*
X-38645967Y-7780035D01*
X-38747029Y-7759933D01*
X-38845634Y-7730021D01*
X-38940833Y-7690589D01*
X-39031708Y-7642015D01*
X-39117384Y-7584768D01*
X-39197037Y-7519399D01*
X-39269899Y-7446537D01*
X-39335268Y-7366884D01*
X-39392515Y-7281208D01*
X-39441089Y-7190333D01*
X-39480521Y-7095134D01*
X-39510433Y-6996529D01*
X-39530535Y-6895467D01*
X-39540635Y-6792921D01*
X-39540635Y-6689879D01*
X-39530535Y-6587333D01*
X-39510433Y-6486271D01*
X-39480521Y-6387666D01*
X-39441089Y-6292467D01*
X-39392515Y-6201592D01*
X-39335268Y-6115916D01*
X-39269899Y-6036263D01*
X-39197037Y-5963401D01*
X-39117384Y-5898032D01*
X-39031708Y-5840785D01*
X-38940833Y-5792211D01*
X-38845634Y-5752779D01*
X-38747029Y-5722867D01*
X-38645967Y-5702765D01*
X-38543421Y-5692665D01*
X-38440379Y-5692665D01*
X-38337833Y-5702765D01*
G37*
%TD.AperFunction*%
%TA.AperFunction,EtchedComponent*%
G36*
X-26301916Y-1767759D02*
G01*
X-26224916Y-1783075D01*
X-26149788Y-1805865D01*
X-26077256Y-1835909D01*
X-26008018Y-1872917D01*
X-25942741Y-1916534D01*
X-25882053Y-1966339D01*
X-25826539Y-2021853D01*
X-25776734Y-2082541D01*
X-25733117Y-2147818D01*
X-25696109Y-2217056D01*
X-25666065Y-2289588D01*
X-25643275Y-2364716D01*
X-25627959Y-2441716D01*
X-25620264Y-2519846D01*
X-25620264Y-2598354D01*
X-25627959Y-2676484D01*
X-25643275Y-2753484D01*
X-25666065Y-2828612D01*
X-25696109Y-2901144D01*
X-25733117Y-2970382D01*
X-25776734Y-3035659D01*
X-25826539Y-3096347D01*
X-25882053Y-3151861D01*
X-25942741Y-3201666D01*
X-26008018Y-3245283D01*
X-26077256Y-3282291D01*
X-26149788Y-3312335D01*
X-26224916Y-3335125D01*
X-26301916Y-3350441D01*
X-26380046Y-3358136D01*
X-26458554Y-3358136D01*
X-26536684Y-3350441D01*
X-26613684Y-3335125D01*
X-26688812Y-3312335D01*
X-26761344Y-3282291D01*
X-26830582Y-3245283D01*
X-26895859Y-3201666D01*
X-26956547Y-3151861D01*
X-27012061Y-3096347D01*
X-27061866Y-3035659D01*
X-27105483Y-2970382D01*
X-27142491Y-2901144D01*
X-27172535Y-2828612D01*
X-27195325Y-2753484D01*
X-27210641Y-2676484D01*
X-27218336Y-2598354D01*
X-27218336Y-2519846D01*
X-27210641Y-2441716D01*
X-27195325Y-2364716D01*
X-27172535Y-2289588D01*
X-27142491Y-2217056D01*
X-27105483Y-2147818D01*
X-27061866Y-2082541D01*
X-27012061Y-2021853D01*
X-26956547Y-1966339D01*
X-26895859Y-1916534D01*
X-26830582Y-1872917D01*
X-26761344Y-1835909D01*
X-26688812Y-1805865D01*
X-26613684Y-1783075D01*
X-26536684Y-1767759D01*
X-26458554Y-1760064D01*
X-26380046Y-1760064D01*
X-26301916Y-1767759D01*
G37*
%TD.AperFunction*%
%TA.AperFunction,EtchedComponent*%
G36*
X-28119300Y-3359100D02*
G01*
X-29719300Y-3359100D01*
X-29719300Y-1759100D01*
X-28119300Y-1759100D01*
X-28119300Y-3359100D01*
G37*
%TD.AperFunction*%
%TA.AperFunction,EtchedComponent*%
G36*
X-35392316Y-15846959D02*
G01*
X-35315316Y-15862275D01*
X-35240188Y-15885065D01*
X-35167656Y-15915109D01*
X-35098418Y-15952117D01*
X-35033141Y-15995734D01*
X-34972453Y-16045539D01*
X-34916939Y-16101053D01*
X-34867134Y-16161741D01*
X-34823517Y-16227018D01*
X-34786509Y-16296256D01*
X-34756465Y-16368788D01*
X-34733675Y-16443916D01*
X-34718359Y-16520916D01*
X-34710664Y-16599046D01*
X-34710664Y-16677554D01*
X-34718359Y-16755684D01*
X-34733675Y-16832684D01*
X-34756465Y-16907812D01*
X-34786509Y-16980344D01*
X-34823517Y-17049582D01*
X-34867134Y-17114859D01*
X-34916939Y-17175547D01*
X-34972453Y-17231061D01*
X-35033141Y-17280866D01*
X-35098418Y-17324483D01*
X-35167656Y-17361491D01*
X-35240188Y-17391535D01*
X-35315316Y-17414325D01*
X-35392316Y-17429641D01*
X-35470446Y-17437336D01*
X-35548954Y-17437336D01*
X-35627084Y-17429641D01*
X-35704084Y-17414325D01*
X-35779212Y-17391535D01*
X-35851744Y-17361491D01*
X-35920982Y-17324483D01*
X-35986259Y-17280866D01*
X-36046947Y-17231061D01*
X-36102461Y-17175547D01*
X-36152266Y-17114859D01*
X-36195883Y-17049582D01*
X-36232891Y-16980344D01*
X-36262935Y-16907812D01*
X-36285725Y-16832684D01*
X-36301041Y-16755684D01*
X-36308736Y-16677554D01*
X-36308736Y-16599046D01*
X-36301041Y-16520916D01*
X-36285725Y-16443916D01*
X-36262935Y-16368788D01*
X-36232891Y-16296256D01*
X-36195883Y-16227018D01*
X-36152266Y-16161741D01*
X-36102461Y-16101053D01*
X-36046947Y-16045539D01*
X-35986259Y-15995734D01*
X-35920982Y-15952117D01*
X-35851744Y-15915109D01*
X-35779212Y-15885065D01*
X-35704084Y-15862275D01*
X-35627084Y-15846959D01*
X-35548954Y-15839264D01*
X-35470446Y-15839264D01*
X-35392316Y-15846959D01*
G37*
%TD.AperFunction*%
%TA.AperFunction,EtchedComponent*%
G36*
X-27772316Y-18386959D02*
G01*
X-27695316Y-18402275D01*
X-27620188Y-18425065D01*
X-27547656Y-18455109D01*
X-27478418Y-18492117D01*
X-27413141Y-18535734D01*
X-27352453Y-18585539D01*
X-27296939Y-18641053D01*
X-27247134Y-18701741D01*
X-27203517Y-18767018D01*
X-27166509Y-18836256D01*
X-27136465Y-18908788D01*
X-27113675Y-18983916D01*
X-27098359Y-19060916D01*
X-27090664Y-19139046D01*
X-27090664Y-19217554D01*
X-27098359Y-19295684D01*
X-27113675Y-19372684D01*
X-27136465Y-19447812D01*
X-27166509Y-19520344D01*
X-27203517Y-19589582D01*
X-27247134Y-19654859D01*
X-27296939Y-19715547D01*
X-27352453Y-19771061D01*
X-27413141Y-19820866D01*
X-27478418Y-19864483D01*
X-27547656Y-19901491D01*
X-27620188Y-19931535D01*
X-27695316Y-19954325D01*
X-27772316Y-19969641D01*
X-27850446Y-19977336D01*
X-27928954Y-19977336D01*
X-28007084Y-19969641D01*
X-28084084Y-19954325D01*
X-28159212Y-19931535D01*
X-28231744Y-19901491D01*
X-28300982Y-19864483D01*
X-28366259Y-19820866D01*
X-28426947Y-19771061D01*
X-28482461Y-19715547D01*
X-28532266Y-19654859D01*
X-28575883Y-19589582D01*
X-28612891Y-19520344D01*
X-28642935Y-19447812D01*
X-28665725Y-19372684D01*
X-28681041Y-19295684D01*
X-28688736Y-19217554D01*
X-28688736Y-19139046D01*
X-28681041Y-19060916D01*
X-28665725Y-18983916D01*
X-28642935Y-18908788D01*
X-28612891Y-18836256D01*
X-28575883Y-18767018D01*
X-28532266Y-18701741D01*
X-28482461Y-18641053D01*
X-28426947Y-18585539D01*
X-28366259Y-18535734D01*
X-28300982Y-18492117D01*
X-28231744Y-18455109D01*
X-28159212Y-18425065D01*
X-28084084Y-18402275D01*
X-28007084Y-18386959D01*
X-27928954Y-18379264D01*
X-27850446Y-18379264D01*
X-27772316Y-18386959D01*
G37*
%TD.AperFunction*%
%TA.AperFunction,EtchedComponent*%
G36*
X-22692316Y-18386959D02*
G01*
X-22615316Y-18402275D01*
X-22540188Y-18425065D01*
X-22467656Y-18455109D01*
X-22398418Y-18492117D01*
X-22333141Y-18535734D01*
X-22272453Y-18585539D01*
X-22216939Y-18641053D01*
X-22167134Y-18701741D01*
X-22123517Y-18767018D01*
X-22086509Y-18836256D01*
X-22056465Y-18908788D01*
X-22033675Y-18983916D01*
X-22018359Y-19060916D01*
X-22010664Y-19139046D01*
X-22010664Y-19217554D01*
X-22018359Y-19295684D01*
X-22033675Y-19372684D01*
X-22056465Y-19447812D01*
X-22086509Y-19520344D01*
X-22123517Y-19589582D01*
X-22167134Y-19654859D01*
X-22216939Y-19715547D01*
X-22272453Y-19771061D01*
X-22333141Y-19820866D01*
X-22398418Y-19864483D01*
X-22467656Y-19901491D01*
X-22540188Y-19931535D01*
X-22615316Y-19954325D01*
X-22692316Y-19969641D01*
X-22770446Y-19977336D01*
X-22848954Y-19977336D01*
X-22927084Y-19969641D01*
X-23004084Y-19954325D01*
X-23079212Y-19931535D01*
X-23151744Y-19901491D01*
X-23220982Y-19864483D01*
X-23286259Y-19820866D01*
X-23346947Y-19771061D01*
X-23402461Y-19715547D01*
X-23452266Y-19654859D01*
X-23495883Y-19589582D01*
X-23532891Y-19520344D01*
X-23562935Y-19447812D01*
X-23585725Y-19372684D01*
X-23601041Y-19295684D01*
X-23608736Y-19217554D01*
X-23608736Y-19139046D01*
X-23601041Y-19060916D01*
X-23585725Y-18983916D01*
X-23562935Y-18908788D01*
X-23532891Y-18836256D01*
X-23495883Y-18767018D01*
X-23452266Y-18701741D01*
X-23402461Y-18641053D01*
X-23346947Y-18585539D01*
X-23286259Y-18535734D01*
X-23220982Y-18492117D01*
X-23151744Y-18455109D01*
X-23079212Y-18425065D01*
X-23004084Y-18402275D01*
X-22927084Y-18386959D01*
X-22848954Y-18379264D01*
X-22770446Y-18379264D01*
X-22692316Y-18386959D01*
G37*
%TD.AperFunction*%
%TA.AperFunction,EtchedComponent*%
G36*
X-12532316Y-18386959D02*
G01*
X-12455316Y-18402275D01*
X-12380188Y-18425065D01*
X-12307656Y-18455109D01*
X-12238418Y-18492117D01*
X-12173141Y-18535734D01*
X-12112453Y-18585539D01*
X-12056939Y-18641053D01*
X-12007134Y-18701741D01*
X-11963517Y-18767018D01*
X-11926509Y-18836256D01*
X-11896465Y-18908788D01*
X-11873675Y-18983916D01*
X-11858359Y-19060916D01*
X-11850664Y-19139046D01*
X-11850664Y-19217554D01*
X-11858359Y-19295684D01*
X-11873675Y-19372684D01*
X-11896465Y-19447812D01*
X-11926509Y-19520344D01*
X-11963517Y-19589582D01*
X-12007134Y-19654859D01*
X-12056939Y-19715547D01*
X-12112453Y-19771061D01*
X-12173141Y-19820866D01*
X-12238418Y-19864483D01*
X-12307656Y-19901491D01*
X-12380188Y-19931535D01*
X-12455316Y-19954325D01*
X-12532316Y-19969641D01*
X-12610446Y-19977336D01*
X-12688954Y-19977336D01*
X-12767084Y-19969641D01*
X-12844084Y-19954325D01*
X-12919212Y-19931535D01*
X-12991744Y-19901491D01*
X-13060982Y-19864483D01*
X-13126259Y-19820866D01*
X-13186947Y-19771061D01*
X-13242461Y-19715547D01*
X-13292266Y-19654859D01*
X-13335883Y-19589582D01*
X-13372891Y-19520344D01*
X-13402935Y-19447812D01*
X-13425725Y-19372684D01*
X-13441041Y-19295684D01*
X-13448736Y-19217554D01*
X-13448736Y-19139046D01*
X-13441041Y-19060916D01*
X-13425725Y-18983916D01*
X-13402935Y-18908788D01*
X-13372891Y-18836256D01*
X-13335883Y-18767018D01*
X-13292266Y-18701741D01*
X-13242461Y-18641053D01*
X-13186947Y-18585539D01*
X-13126259Y-18535734D01*
X-13060982Y-18492117D01*
X-12991744Y-18455109D01*
X-12919212Y-18425065D01*
X-12844084Y-18402275D01*
X-12767084Y-18386959D01*
X-12688954Y-18379264D01*
X-12610446Y-18379264D01*
X-12532316Y-18386959D01*
G37*
%TD.AperFunction*%
%TA.AperFunction,EtchedComponent*%
G36*
X-37932316Y-15846959D02*
G01*
X-37855316Y-15862275D01*
X-37780188Y-15885065D01*
X-37707656Y-15915109D01*
X-37638418Y-15952117D01*
X-37573141Y-15995734D01*
X-37512453Y-16045539D01*
X-37456939Y-16101053D01*
X-37407134Y-16161741D01*
X-37363517Y-16227018D01*
X-37326509Y-16296256D01*
X-37296465Y-16368788D01*
X-37273675Y-16443916D01*
X-37258359Y-16520916D01*
X-37250664Y-16599046D01*
X-37250664Y-16677554D01*
X-37258359Y-16755684D01*
X-37273675Y-16832684D01*
X-37296465Y-16907812D01*
X-37326509Y-16980344D01*
X-37363517Y-17049582D01*
X-37407134Y-17114859D01*
X-37456939Y-17175547D01*
X-37512453Y-17231061D01*
X-37573141Y-17280866D01*
X-37638418Y-17324483D01*
X-37707656Y-17361491D01*
X-37780188Y-17391535D01*
X-37855316Y-17414325D01*
X-37932316Y-17429641D01*
X-38010446Y-17437336D01*
X-38088954Y-17437336D01*
X-38167084Y-17429641D01*
X-38244084Y-17414325D01*
X-38319212Y-17391535D01*
X-38391744Y-17361491D01*
X-38460982Y-17324483D01*
X-38526259Y-17280866D01*
X-38586947Y-17231061D01*
X-38642461Y-17175547D01*
X-38692266Y-17114859D01*
X-38735883Y-17049582D01*
X-38772891Y-16980344D01*
X-38802935Y-16907812D01*
X-38825725Y-16832684D01*
X-38841041Y-16755684D01*
X-38848736Y-16677554D01*
X-38848736Y-16599046D01*
X-38841041Y-16520916D01*
X-38825725Y-16443916D01*
X-38802935Y-16368788D01*
X-38772891Y-16296256D01*
X-38735883Y-16227018D01*
X-38692266Y-16161741D01*
X-38642461Y-16101053D01*
X-38586947Y-16045539D01*
X-38526259Y-15995734D01*
X-38460982Y-15952117D01*
X-38391744Y-15915109D01*
X-38319212Y-15885065D01*
X-38244084Y-15862275D01*
X-38167084Y-15846959D01*
X-38088954Y-15839264D01*
X-38010446Y-15839264D01*
X-37932316Y-15846959D01*
G37*
%TD.AperFunction*%
%TA.AperFunction,EtchedComponent*%
G36*
X-37932316Y-18386959D02*
G01*
X-37855316Y-18402275D01*
X-37780188Y-18425065D01*
X-37707656Y-18455109D01*
X-37638418Y-18492117D01*
X-37573141Y-18535734D01*
X-37512453Y-18585539D01*
X-37456939Y-18641053D01*
X-37407134Y-18701741D01*
X-37363517Y-18767018D01*
X-37326509Y-18836256D01*
X-37296465Y-18908788D01*
X-37273675Y-18983916D01*
X-37258359Y-19060916D01*
X-37250664Y-19139046D01*
X-37250664Y-19217554D01*
X-37258359Y-19295684D01*
X-37273675Y-19372684D01*
X-37296465Y-19447812D01*
X-37326509Y-19520344D01*
X-37363517Y-19589582D01*
X-37407134Y-19654859D01*
X-37456939Y-19715547D01*
X-37512453Y-19771061D01*
X-37573141Y-19820866D01*
X-37638418Y-19864483D01*
X-37707656Y-19901491D01*
X-37780188Y-19931535D01*
X-37855316Y-19954325D01*
X-37932316Y-19969641D01*
X-38010446Y-19977336D01*
X-38088954Y-19977336D01*
X-38167084Y-19969641D01*
X-38244084Y-19954325D01*
X-38319212Y-19931535D01*
X-38391744Y-19901491D01*
X-38460982Y-19864483D01*
X-38526259Y-19820866D01*
X-38586947Y-19771061D01*
X-38642461Y-19715547D01*
X-38692266Y-19654859D01*
X-38735883Y-19589582D01*
X-38772891Y-19520344D01*
X-38802935Y-19447812D01*
X-38825725Y-19372684D01*
X-38841041Y-19295684D01*
X-38848736Y-19217554D01*
X-38848736Y-19139046D01*
X-38841041Y-19060916D01*
X-38825725Y-18983916D01*
X-38802935Y-18908788D01*
X-38772891Y-18836256D01*
X-38735883Y-18767018D01*
X-38692266Y-18701741D01*
X-38642461Y-18641053D01*
X-38586947Y-18585539D01*
X-38526259Y-18535734D01*
X-38460982Y-18492117D01*
X-38391744Y-18455109D01*
X-38319212Y-18425065D01*
X-38244084Y-18402275D01*
X-38167084Y-18386959D01*
X-38088954Y-18379264D01*
X-38010446Y-18379264D01*
X-37932316Y-18386959D01*
G37*
%TD.AperFunction*%
%TA.AperFunction,EtchedComponent*%
G36*
X-12532316Y-15846959D02*
G01*
X-12455316Y-15862275D01*
X-12380188Y-15885065D01*
X-12307656Y-15915109D01*
X-12238418Y-15952117D01*
X-12173141Y-15995734D01*
X-12112453Y-16045539D01*
X-12056939Y-16101053D01*
X-12007134Y-16161741D01*
X-11963517Y-16227018D01*
X-11926509Y-16296256D01*
X-11896465Y-16368788D01*
X-11873675Y-16443916D01*
X-11858359Y-16520916D01*
X-11850664Y-16599046D01*
X-11850664Y-16677554D01*
X-11858359Y-16755684D01*
X-11873675Y-16832684D01*
X-11896465Y-16907812D01*
X-11926509Y-16980344D01*
X-11963517Y-17049582D01*
X-12007134Y-17114859D01*
X-12056939Y-17175547D01*
X-12112453Y-17231061D01*
X-12173141Y-17280866D01*
X-12238418Y-17324483D01*
X-12307656Y-17361491D01*
X-12380188Y-17391535D01*
X-12455316Y-17414325D01*
X-12532316Y-17429641D01*
X-12610446Y-17437336D01*
X-12688954Y-17437336D01*
X-12767084Y-17429641D01*
X-12844084Y-17414325D01*
X-12919212Y-17391535D01*
X-12991744Y-17361491D01*
X-13060982Y-17324483D01*
X-13126259Y-17280866D01*
X-13186947Y-17231061D01*
X-13242461Y-17175547D01*
X-13292266Y-17114859D01*
X-13335883Y-17049582D01*
X-13372891Y-16980344D01*
X-13402935Y-16907812D01*
X-13425725Y-16832684D01*
X-13441041Y-16755684D01*
X-13448736Y-16677554D01*
X-13448736Y-16599046D01*
X-13441041Y-16520916D01*
X-13425725Y-16443916D01*
X-13402935Y-16368788D01*
X-13372891Y-16296256D01*
X-13335883Y-16227018D01*
X-13292266Y-16161741D01*
X-13242461Y-16101053D01*
X-13186947Y-16045539D01*
X-13126259Y-15995734D01*
X-13060982Y-15952117D01*
X-12991744Y-15915109D01*
X-12919212Y-15885065D01*
X-12844084Y-15862275D01*
X-12767084Y-15846959D01*
X-12688954Y-15839264D01*
X-12610446Y-15839264D01*
X-12532316Y-15846959D01*
G37*
%TD.AperFunction*%
%TA.AperFunction,EtchedComponent*%
G36*
X-30312316Y-15846959D02*
G01*
X-30235316Y-15862275D01*
X-30160188Y-15885065D01*
X-30087656Y-15915109D01*
X-30018418Y-15952117D01*
X-29953141Y-15995734D01*
X-29892453Y-16045539D01*
X-29836939Y-16101053D01*
X-29787134Y-16161741D01*
X-29743517Y-16227018D01*
X-29706509Y-16296256D01*
X-29676465Y-16368788D01*
X-29653675Y-16443916D01*
X-29638359Y-16520916D01*
X-29630664Y-16599046D01*
X-29630664Y-16677554D01*
X-29638359Y-16755684D01*
X-29653675Y-16832684D01*
X-29676465Y-16907812D01*
X-29706509Y-16980344D01*
X-29743517Y-17049582D01*
X-29787134Y-17114859D01*
X-29836939Y-17175547D01*
X-29892453Y-17231061D01*
X-29953141Y-17280866D01*
X-30018418Y-17324483D01*
X-30087656Y-17361491D01*
X-30160188Y-17391535D01*
X-30235316Y-17414325D01*
X-30312316Y-17429641D01*
X-30390446Y-17437336D01*
X-30468954Y-17437336D01*
X-30547084Y-17429641D01*
X-30624084Y-17414325D01*
X-30699212Y-17391535D01*
X-30771744Y-17361491D01*
X-30840982Y-17324483D01*
X-30906259Y-17280866D01*
X-30966947Y-17231061D01*
X-31022461Y-17175547D01*
X-31072266Y-17114859D01*
X-31115883Y-17049582D01*
X-31152891Y-16980344D01*
X-31182935Y-16907812D01*
X-31205725Y-16832684D01*
X-31221041Y-16755684D01*
X-31228736Y-16677554D01*
X-31228736Y-16599046D01*
X-31221041Y-16520916D01*
X-31205725Y-16443916D01*
X-31182935Y-16368788D01*
X-31152891Y-16296256D01*
X-31115883Y-16227018D01*
X-31072266Y-16161741D01*
X-31022461Y-16101053D01*
X-30966947Y-16045539D01*
X-30906259Y-15995734D01*
X-30840982Y-15952117D01*
X-30771744Y-15915109D01*
X-30699212Y-15885065D01*
X-30624084Y-15862275D01*
X-30547084Y-15846959D01*
X-30468954Y-15839264D01*
X-30390446Y-15839264D01*
X-30312316Y-15846959D01*
G37*
%TD.AperFunction*%
%TA.AperFunction,EtchedComponent*%
G36*
X-15072316Y-15846959D02*
G01*
X-14995316Y-15862275D01*
X-14920188Y-15885065D01*
X-14847656Y-15915109D01*
X-14778418Y-15952117D01*
X-14713141Y-15995734D01*
X-14652453Y-16045539D01*
X-14596939Y-16101053D01*
X-14547134Y-16161741D01*
X-14503517Y-16227018D01*
X-14466509Y-16296256D01*
X-14436465Y-16368788D01*
X-14413675Y-16443916D01*
X-14398359Y-16520916D01*
X-14390664Y-16599046D01*
X-14390664Y-16677554D01*
X-14398359Y-16755684D01*
X-14413675Y-16832684D01*
X-14436465Y-16907812D01*
X-14466509Y-16980344D01*
X-14503517Y-17049582D01*
X-14547134Y-17114859D01*
X-14596939Y-17175547D01*
X-14652453Y-17231061D01*
X-14713141Y-17280866D01*
X-14778418Y-17324483D01*
X-14847656Y-17361491D01*
X-14920188Y-17391535D01*
X-14995316Y-17414325D01*
X-15072316Y-17429641D01*
X-15150446Y-17437336D01*
X-15228954Y-17437336D01*
X-15307084Y-17429641D01*
X-15384084Y-17414325D01*
X-15459212Y-17391535D01*
X-15531744Y-17361491D01*
X-15600982Y-17324483D01*
X-15666259Y-17280866D01*
X-15726947Y-17231061D01*
X-15782461Y-17175547D01*
X-15832266Y-17114859D01*
X-15875883Y-17049582D01*
X-15912891Y-16980344D01*
X-15942935Y-16907812D01*
X-15965725Y-16832684D01*
X-15981041Y-16755684D01*
X-15988736Y-16677554D01*
X-15988736Y-16599046D01*
X-15981041Y-16520916D01*
X-15965725Y-16443916D01*
X-15942935Y-16368788D01*
X-15912891Y-16296256D01*
X-15875883Y-16227018D01*
X-15832266Y-16161741D01*
X-15782461Y-16101053D01*
X-15726947Y-16045539D01*
X-15666259Y-15995734D01*
X-15600982Y-15952117D01*
X-15531744Y-15915109D01*
X-15459212Y-15885065D01*
X-15384084Y-15862275D01*
X-15307084Y-15846959D01*
X-15228954Y-15839264D01*
X-15150446Y-15839264D01*
X-15072316Y-15846959D01*
G37*
%TD.AperFunction*%
%TA.AperFunction,EtchedComponent*%
G36*
X-25232316Y-18386959D02*
G01*
X-25155316Y-18402275D01*
X-25080188Y-18425065D01*
X-25007656Y-18455109D01*
X-24938418Y-18492117D01*
X-24873141Y-18535734D01*
X-24812453Y-18585539D01*
X-24756939Y-18641053D01*
X-24707134Y-18701741D01*
X-24663517Y-18767018D01*
X-24626509Y-18836256D01*
X-24596465Y-18908788D01*
X-24573675Y-18983916D01*
X-24558359Y-19060916D01*
X-24550664Y-19139046D01*
X-24550664Y-19217554D01*
X-24558359Y-19295684D01*
X-24573675Y-19372684D01*
X-24596465Y-19447812D01*
X-24626509Y-19520344D01*
X-24663517Y-19589582D01*
X-24707134Y-19654859D01*
X-24756939Y-19715547D01*
X-24812453Y-19771061D01*
X-24873141Y-19820866D01*
X-24938418Y-19864483D01*
X-25007656Y-19901491D01*
X-25080188Y-19931535D01*
X-25155316Y-19954325D01*
X-25232316Y-19969641D01*
X-25310446Y-19977336D01*
X-25388954Y-19977336D01*
X-25467084Y-19969641D01*
X-25544084Y-19954325D01*
X-25619212Y-19931535D01*
X-25691744Y-19901491D01*
X-25760982Y-19864483D01*
X-25826259Y-19820866D01*
X-25886947Y-19771061D01*
X-25942461Y-19715547D01*
X-25992266Y-19654859D01*
X-26035883Y-19589582D01*
X-26072891Y-19520344D01*
X-26102935Y-19447812D01*
X-26125725Y-19372684D01*
X-26141041Y-19295684D01*
X-26148736Y-19217554D01*
X-26148736Y-19139046D01*
X-26141041Y-19060916D01*
X-26125725Y-18983916D01*
X-26102935Y-18908788D01*
X-26072891Y-18836256D01*
X-26035883Y-18767018D01*
X-25992266Y-18701741D01*
X-25942461Y-18641053D01*
X-25886947Y-18585539D01*
X-25826259Y-18535734D01*
X-25760982Y-18492117D01*
X-25691744Y-18455109D01*
X-25619212Y-18425065D01*
X-25544084Y-18402275D01*
X-25467084Y-18386959D01*
X-25388954Y-18379264D01*
X-25310446Y-18379264D01*
X-25232316Y-18386959D01*
G37*
%TD.AperFunction*%
%TA.AperFunction,EtchedComponent*%
G36*
X-32852316Y-18386959D02*
G01*
X-32775316Y-18402275D01*
X-32700188Y-18425065D01*
X-32627656Y-18455109D01*
X-32558418Y-18492117D01*
X-32493141Y-18535734D01*
X-32432453Y-18585539D01*
X-32376939Y-18641053D01*
X-32327134Y-18701741D01*
X-32283517Y-18767018D01*
X-32246509Y-18836256D01*
X-32216465Y-18908788D01*
X-32193675Y-18983916D01*
X-32178359Y-19060916D01*
X-32170664Y-19139046D01*
X-32170664Y-19217554D01*
X-32178359Y-19295684D01*
X-32193675Y-19372684D01*
X-32216465Y-19447812D01*
X-32246509Y-19520344D01*
X-32283517Y-19589582D01*
X-32327134Y-19654859D01*
X-32376939Y-19715547D01*
X-32432453Y-19771061D01*
X-32493141Y-19820866D01*
X-32558418Y-19864483D01*
X-32627656Y-19901491D01*
X-32700188Y-19931535D01*
X-32775316Y-19954325D01*
X-32852316Y-19969641D01*
X-32930446Y-19977336D01*
X-33008954Y-19977336D01*
X-33087084Y-19969641D01*
X-33164084Y-19954325D01*
X-33239212Y-19931535D01*
X-33311744Y-19901491D01*
X-33380982Y-19864483D01*
X-33446259Y-19820866D01*
X-33506947Y-19771061D01*
X-33562461Y-19715547D01*
X-33612266Y-19654859D01*
X-33655883Y-19589582D01*
X-33692891Y-19520344D01*
X-33722935Y-19447812D01*
X-33745725Y-19372684D01*
X-33761041Y-19295684D01*
X-33768736Y-19217554D01*
X-33768736Y-19139046D01*
X-33761041Y-19060916D01*
X-33745725Y-18983916D01*
X-33722935Y-18908788D01*
X-33692891Y-18836256D01*
X-33655883Y-18767018D01*
X-33612266Y-18701741D01*
X-33562461Y-18641053D01*
X-33506947Y-18585539D01*
X-33446259Y-18535734D01*
X-33380982Y-18492117D01*
X-33311744Y-18455109D01*
X-33239212Y-18425065D01*
X-33164084Y-18402275D01*
X-33087084Y-18386959D01*
X-33008954Y-18379264D01*
X-32930446Y-18379264D01*
X-32852316Y-18386959D01*
G37*
%TD.AperFunction*%
%TA.AperFunction,EtchedComponent*%
G36*
X-32852316Y-15846959D02*
G01*
X-32775316Y-15862275D01*
X-32700188Y-15885065D01*
X-32627656Y-15915109D01*
X-32558418Y-15952117D01*
X-32493141Y-15995734D01*
X-32432453Y-16045539D01*
X-32376939Y-16101053D01*
X-32327134Y-16161741D01*
X-32283517Y-16227018D01*
X-32246509Y-16296256D01*
X-32216465Y-16368788D01*
X-32193675Y-16443916D01*
X-32178359Y-16520916D01*
X-32170664Y-16599046D01*
X-32170664Y-16677554D01*
X-32178359Y-16755684D01*
X-32193675Y-16832684D01*
X-32216465Y-16907812D01*
X-32246509Y-16980344D01*
X-32283517Y-17049582D01*
X-32327134Y-17114859D01*
X-32376939Y-17175547D01*
X-32432453Y-17231061D01*
X-32493141Y-17280866D01*
X-32558418Y-17324483D01*
X-32627656Y-17361491D01*
X-32700188Y-17391535D01*
X-32775316Y-17414325D01*
X-32852316Y-17429641D01*
X-32930446Y-17437336D01*
X-33008954Y-17437336D01*
X-33087084Y-17429641D01*
X-33164084Y-17414325D01*
X-33239212Y-17391535D01*
X-33311744Y-17361491D01*
X-33380982Y-17324483D01*
X-33446259Y-17280866D01*
X-33506947Y-17231061D01*
X-33562461Y-17175547D01*
X-33612266Y-17114859D01*
X-33655883Y-17049582D01*
X-33692891Y-16980344D01*
X-33722935Y-16907812D01*
X-33745725Y-16832684D01*
X-33761041Y-16755684D01*
X-33768736Y-16677554D01*
X-33768736Y-16599046D01*
X-33761041Y-16520916D01*
X-33745725Y-16443916D01*
X-33722935Y-16368788D01*
X-33692891Y-16296256D01*
X-33655883Y-16227018D01*
X-33612266Y-16161741D01*
X-33562461Y-16101053D01*
X-33506947Y-16045539D01*
X-33446259Y-15995734D01*
X-33380982Y-15952117D01*
X-33311744Y-15915109D01*
X-33239212Y-15885065D01*
X-33164084Y-15862275D01*
X-33087084Y-15846959D01*
X-33008954Y-15839264D01*
X-32930446Y-15839264D01*
X-32852316Y-15846959D01*
G37*
%TD.AperFunction*%
%TA.AperFunction,EtchedComponent*%
G36*
X-30312316Y-18386959D02*
G01*
X-30235316Y-18402275D01*
X-30160188Y-18425065D01*
X-30087656Y-18455109D01*
X-30018418Y-18492117D01*
X-29953141Y-18535734D01*
X-29892453Y-18585539D01*
X-29836939Y-18641053D01*
X-29787134Y-18701741D01*
X-29743517Y-18767018D01*
X-29706509Y-18836256D01*
X-29676465Y-18908788D01*
X-29653675Y-18983916D01*
X-29638359Y-19060916D01*
X-29630664Y-19139046D01*
X-29630664Y-19217554D01*
X-29638359Y-19295684D01*
X-29653675Y-19372684D01*
X-29676465Y-19447812D01*
X-29706509Y-19520344D01*
X-29743517Y-19589582D01*
X-29787134Y-19654859D01*
X-29836939Y-19715547D01*
X-29892453Y-19771061D01*
X-29953141Y-19820866D01*
X-30018418Y-19864483D01*
X-30087656Y-19901491D01*
X-30160188Y-19931535D01*
X-30235316Y-19954325D01*
X-30312316Y-19969641D01*
X-30390446Y-19977336D01*
X-30468954Y-19977336D01*
X-30547084Y-19969641D01*
X-30624084Y-19954325D01*
X-30699212Y-19931535D01*
X-30771744Y-19901491D01*
X-30840982Y-19864483D01*
X-30906259Y-19820866D01*
X-30966947Y-19771061D01*
X-31022461Y-19715547D01*
X-31072266Y-19654859D01*
X-31115883Y-19589582D01*
X-31152891Y-19520344D01*
X-31182935Y-19447812D01*
X-31205725Y-19372684D01*
X-31221041Y-19295684D01*
X-31228736Y-19217554D01*
X-31228736Y-19139046D01*
X-31221041Y-19060916D01*
X-31205725Y-18983916D01*
X-31182935Y-18908788D01*
X-31152891Y-18836256D01*
X-31115883Y-18767018D01*
X-31072266Y-18701741D01*
X-31022461Y-18641053D01*
X-30966947Y-18585539D01*
X-30906259Y-18535734D01*
X-30840982Y-18492117D01*
X-30771744Y-18455109D01*
X-30699212Y-18425065D01*
X-30624084Y-18402275D01*
X-30547084Y-18386959D01*
X-30468954Y-18379264D01*
X-30390446Y-18379264D01*
X-30312316Y-18386959D01*
G37*
%TD.AperFunction*%
%TA.AperFunction,EtchedComponent*%
G36*
X-39789700Y-19978300D02*
G01*
X-41389700Y-19978300D01*
X-41389700Y-18378300D01*
X-39789700Y-18378300D01*
X-39789700Y-19978300D01*
G37*
%TD.AperFunction*%
%TA.AperFunction,EtchedComponent*%
G36*
X-22692316Y-15846959D02*
G01*
X-22615316Y-15862275D01*
X-22540188Y-15885065D01*
X-22467656Y-15915109D01*
X-22398418Y-15952117D01*
X-22333141Y-15995734D01*
X-22272453Y-16045539D01*
X-22216939Y-16101053D01*
X-22167134Y-16161741D01*
X-22123517Y-16227018D01*
X-22086509Y-16296256D01*
X-22056465Y-16368788D01*
X-22033675Y-16443916D01*
X-22018359Y-16520916D01*
X-22010664Y-16599046D01*
X-22010664Y-16677554D01*
X-22018359Y-16755684D01*
X-22033675Y-16832684D01*
X-22056465Y-16907812D01*
X-22086509Y-16980344D01*
X-22123517Y-17049582D01*
X-22167134Y-17114859D01*
X-22216939Y-17175547D01*
X-22272453Y-17231061D01*
X-22333141Y-17280866D01*
X-22398418Y-17324483D01*
X-22467656Y-17361491D01*
X-22540188Y-17391535D01*
X-22615316Y-17414325D01*
X-22692316Y-17429641D01*
X-22770446Y-17437336D01*
X-22848954Y-17437336D01*
X-22927084Y-17429641D01*
X-23004084Y-17414325D01*
X-23079212Y-17391535D01*
X-23151744Y-17361491D01*
X-23220982Y-17324483D01*
X-23286259Y-17280866D01*
X-23346947Y-17231061D01*
X-23402461Y-17175547D01*
X-23452266Y-17114859D01*
X-23495883Y-17049582D01*
X-23532891Y-16980344D01*
X-23562935Y-16907812D01*
X-23585725Y-16832684D01*
X-23601041Y-16755684D01*
X-23608736Y-16677554D01*
X-23608736Y-16599046D01*
X-23601041Y-16520916D01*
X-23585725Y-16443916D01*
X-23562935Y-16368788D01*
X-23532891Y-16296256D01*
X-23495883Y-16227018D01*
X-23452266Y-16161741D01*
X-23402461Y-16101053D01*
X-23346947Y-16045539D01*
X-23286259Y-15995734D01*
X-23220982Y-15952117D01*
X-23151744Y-15915109D01*
X-23079212Y-15885065D01*
X-23004084Y-15862275D01*
X-22927084Y-15846959D01*
X-22848954Y-15839264D01*
X-22770446Y-15839264D01*
X-22692316Y-15846959D01*
G37*
%TD.AperFunction*%
%TA.AperFunction,EtchedComponent*%
G36*
X-17612316Y-18386959D02*
G01*
X-17535316Y-18402275D01*
X-17460188Y-18425065D01*
X-17387656Y-18455109D01*
X-17318418Y-18492117D01*
X-17253141Y-18535734D01*
X-17192453Y-18585539D01*
X-17136939Y-18641053D01*
X-17087134Y-18701741D01*
X-17043517Y-18767018D01*
X-17006509Y-18836256D01*
X-16976465Y-18908788D01*
X-16953675Y-18983916D01*
X-16938359Y-19060916D01*
X-16930664Y-19139046D01*
X-16930664Y-19217554D01*
X-16938359Y-19295684D01*
X-16953675Y-19372684D01*
X-16976465Y-19447812D01*
X-17006509Y-19520344D01*
X-17043517Y-19589582D01*
X-17087134Y-19654859D01*
X-17136939Y-19715547D01*
X-17192453Y-19771061D01*
X-17253141Y-19820866D01*
X-17318418Y-19864483D01*
X-17387656Y-19901491D01*
X-17460188Y-19931535D01*
X-17535316Y-19954325D01*
X-17612316Y-19969641D01*
X-17690446Y-19977336D01*
X-17768954Y-19977336D01*
X-17847084Y-19969641D01*
X-17924084Y-19954325D01*
X-17999212Y-19931535D01*
X-18071744Y-19901491D01*
X-18140982Y-19864483D01*
X-18206259Y-19820866D01*
X-18266947Y-19771061D01*
X-18322461Y-19715547D01*
X-18372266Y-19654859D01*
X-18415883Y-19589582D01*
X-18452891Y-19520344D01*
X-18482935Y-19447812D01*
X-18505725Y-19372684D01*
X-18521041Y-19295684D01*
X-18528736Y-19217554D01*
X-18528736Y-19139046D01*
X-18521041Y-19060916D01*
X-18505725Y-18983916D01*
X-18482935Y-18908788D01*
X-18452891Y-18836256D01*
X-18415883Y-18767018D01*
X-18372266Y-18701741D01*
X-18322461Y-18641053D01*
X-18266947Y-18585539D01*
X-18206259Y-18535734D01*
X-18140982Y-18492117D01*
X-18071744Y-18455109D01*
X-17999212Y-18425065D01*
X-17924084Y-18402275D01*
X-17847084Y-18386959D01*
X-17768954Y-18379264D01*
X-17690446Y-18379264D01*
X-17612316Y-18386959D01*
G37*
%TD.AperFunction*%
%TA.AperFunction,EtchedComponent*%
G36*
X-17612316Y-15846959D02*
G01*
X-17535316Y-15862275D01*
X-17460188Y-15885065D01*
X-17387656Y-15915109D01*
X-17318418Y-15952117D01*
X-17253141Y-15995734D01*
X-17192453Y-16045539D01*
X-17136939Y-16101053D01*
X-17087134Y-16161741D01*
X-17043517Y-16227018D01*
X-17006509Y-16296256D01*
X-16976465Y-16368788D01*
X-16953675Y-16443916D01*
X-16938359Y-16520916D01*
X-16930664Y-16599046D01*
X-16930664Y-16677554D01*
X-16938359Y-16755684D01*
X-16953675Y-16832684D01*
X-16976465Y-16907812D01*
X-17006509Y-16980344D01*
X-17043517Y-17049582D01*
X-17087134Y-17114859D01*
X-17136939Y-17175547D01*
X-17192453Y-17231061D01*
X-17253141Y-17280866D01*
X-17318418Y-17324483D01*
X-17387656Y-17361491D01*
X-17460188Y-17391535D01*
X-17535316Y-17414325D01*
X-17612316Y-17429641D01*
X-17690446Y-17437336D01*
X-17768954Y-17437336D01*
X-17847084Y-17429641D01*
X-17924084Y-17414325D01*
X-17999212Y-17391535D01*
X-18071744Y-17361491D01*
X-18140982Y-17324483D01*
X-18206259Y-17280866D01*
X-18266947Y-17231061D01*
X-18322461Y-17175547D01*
X-18372266Y-17114859D01*
X-18415883Y-17049582D01*
X-18452891Y-16980344D01*
X-18482935Y-16907812D01*
X-18505725Y-16832684D01*
X-18521041Y-16755684D01*
X-18528736Y-16677554D01*
X-18528736Y-16599046D01*
X-18521041Y-16520916D01*
X-18505725Y-16443916D01*
X-18482935Y-16368788D01*
X-18452891Y-16296256D01*
X-18415883Y-16227018D01*
X-18372266Y-16161741D01*
X-18322461Y-16101053D01*
X-18266947Y-16045539D01*
X-18206259Y-15995734D01*
X-18140982Y-15952117D01*
X-18071744Y-15915109D01*
X-17999212Y-15885065D01*
X-17924084Y-15862275D01*
X-17847084Y-15846959D01*
X-17768954Y-15839264D01*
X-17690446Y-15839264D01*
X-17612316Y-15846959D01*
G37*
%TD.AperFunction*%
%TA.AperFunction,EtchedComponent*%
G36*
X-20152316Y-18386959D02*
G01*
X-20075316Y-18402275D01*
X-20000188Y-18425065D01*
X-19927656Y-18455109D01*
X-19858418Y-18492117D01*
X-19793141Y-18535734D01*
X-19732453Y-18585539D01*
X-19676939Y-18641053D01*
X-19627134Y-18701741D01*
X-19583517Y-18767018D01*
X-19546509Y-18836256D01*
X-19516465Y-18908788D01*
X-19493675Y-18983916D01*
X-19478359Y-19060916D01*
X-19470664Y-19139046D01*
X-19470664Y-19217554D01*
X-19478359Y-19295684D01*
X-19493675Y-19372684D01*
X-19516465Y-19447812D01*
X-19546509Y-19520344D01*
X-19583517Y-19589582D01*
X-19627134Y-19654859D01*
X-19676939Y-19715547D01*
X-19732453Y-19771061D01*
X-19793141Y-19820866D01*
X-19858418Y-19864483D01*
X-19927656Y-19901491D01*
X-20000188Y-19931535D01*
X-20075316Y-19954325D01*
X-20152316Y-19969641D01*
X-20230446Y-19977336D01*
X-20308954Y-19977336D01*
X-20387084Y-19969641D01*
X-20464084Y-19954325D01*
X-20539212Y-19931535D01*
X-20611744Y-19901491D01*
X-20680982Y-19864483D01*
X-20746259Y-19820866D01*
X-20806947Y-19771061D01*
X-20862461Y-19715547D01*
X-20912266Y-19654859D01*
X-20955883Y-19589582D01*
X-20992891Y-19520344D01*
X-21022935Y-19447812D01*
X-21045725Y-19372684D01*
X-21061041Y-19295684D01*
X-21068736Y-19217554D01*
X-21068736Y-19139046D01*
X-21061041Y-19060916D01*
X-21045725Y-18983916D01*
X-21022935Y-18908788D01*
X-20992891Y-18836256D01*
X-20955883Y-18767018D01*
X-20912266Y-18701741D01*
X-20862461Y-18641053D01*
X-20806947Y-18585539D01*
X-20746259Y-18535734D01*
X-20680982Y-18492117D01*
X-20611744Y-18455109D01*
X-20539212Y-18425065D01*
X-20464084Y-18402275D01*
X-20387084Y-18386959D01*
X-20308954Y-18379264D01*
X-20230446Y-18379264D01*
X-20152316Y-18386959D01*
G37*
%TD.AperFunction*%
%TA.AperFunction,EtchedComponent*%
G36*
X-40472316Y-15846959D02*
G01*
X-40395316Y-15862275D01*
X-40320188Y-15885065D01*
X-40247656Y-15915109D01*
X-40178418Y-15952117D01*
X-40113141Y-15995734D01*
X-40052453Y-16045539D01*
X-39996939Y-16101053D01*
X-39947134Y-16161741D01*
X-39903517Y-16227018D01*
X-39866509Y-16296256D01*
X-39836465Y-16368788D01*
X-39813675Y-16443916D01*
X-39798359Y-16520916D01*
X-39790664Y-16599046D01*
X-39790664Y-16677554D01*
X-39798359Y-16755684D01*
X-39813675Y-16832684D01*
X-39836465Y-16907812D01*
X-39866509Y-16980344D01*
X-39903517Y-17049582D01*
X-39947134Y-17114859D01*
X-39996939Y-17175547D01*
X-40052453Y-17231061D01*
X-40113141Y-17280866D01*
X-40178418Y-17324483D01*
X-40247656Y-17361491D01*
X-40320188Y-17391535D01*
X-40395316Y-17414325D01*
X-40472316Y-17429641D01*
X-40550446Y-17437336D01*
X-40628954Y-17437336D01*
X-40707084Y-17429641D01*
X-40784084Y-17414325D01*
X-40859212Y-17391535D01*
X-40931744Y-17361491D01*
X-41000982Y-17324483D01*
X-41066259Y-17280866D01*
X-41126947Y-17231061D01*
X-41182461Y-17175547D01*
X-41232266Y-17114859D01*
X-41275883Y-17049582D01*
X-41312891Y-16980344D01*
X-41342935Y-16907812D01*
X-41365725Y-16832684D01*
X-41381041Y-16755684D01*
X-41388736Y-16677554D01*
X-41388736Y-16599046D01*
X-41381041Y-16520916D01*
X-41365725Y-16443916D01*
X-41342935Y-16368788D01*
X-41312891Y-16296256D01*
X-41275883Y-16227018D01*
X-41232266Y-16161741D01*
X-41182461Y-16101053D01*
X-41126947Y-16045539D01*
X-41066259Y-15995734D01*
X-41000982Y-15952117D01*
X-40931744Y-15915109D01*
X-40859212Y-15885065D01*
X-40784084Y-15862275D01*
X-40707084Y-15846959D01*
X-40628954Y-15839264D01*
X-40550446Y-15839264D01*
X-40472316Y-15846959D01*
G37*
%TD.AperFunction*%
%TA.AperFunction,EtchedComponent*%
G36*
X-35392316Y-18386959D02*
G01*
X-35315316Y-18402275D01*
X-35240188Y-18425065D01*
X-35167656Y-18455109D01*
X-35098418Y-18492117D01*
X-35033141Y-18535734D01*
X-34972453Y-18585539D01*
X-34916939Y-18641053D01*
X-34867134Y-18701741D01*
X-34823517Y-18767018D01*
X-34786509Y-18836256D01*
X-34756465Y-18908788D01*
X-34733675Y-18983916D01*
X-34718359Y-19060916D01*
X-34710664Y-19139046D01*
X-34710664Y-19217554D01*
X-34718359Y-19295684D01*
X-34733675Y-19372684D01*
X-34756465Y-19447812D01*
X-34786509Y-19520344D01*
X-34823517Y-19589582D01*
X-34867134Y-19654859D01*
X-34916939Y-19715547D01*
X-34972453Y-19771061D01*
X-35033141Y-19820866D01*
X-35098418Y-19864483D01*
X-35167656Y-19901491D01*
X-35240188Y-19931535D01*
X-35315316Y-19954325D01*
X-35392316Y-19969641D01*
X-35470446Y-19977336D01*
X-35548954Y-19977336D01*
X-35627084Y-19969641D01*
X-35704084Y-19954325D01*
X-35779212Y-19931535D01*
X-35851744Y-19901491D01*
X-35920982Y-19864483D01*
X-35986259Y-19820866D01*
X-36046947Y-19771061D01*
X-36102461Y-19715547D01*
X-36152266Y-19654859D01*
X-36195883Y-19589582D01*
X-36232891Y-19520344D01*
X-36262935Y-19447812D01*
X-36285725Y-19372684D01*
X-36301041Y-19295684D01*
X-36308736Y-19217554D01*
X-36308736Y-19139046D01*
X-36301041Y-19060916D01*
X-36285725Y-18983916D01*
X-36262935Y-18908788D01*
X-36232891Y-18836256D01*
X-36195883Y-18767018D01*
X-36152266Y-18701741D01*
X-36102461Y-18641053D01*
X-36046947Y-18585539D01*
X-35986259Y-18535734D01*
X-35920982Y-18492117D01*
X-35851744Y-18455109D01*
X-35779212Y-18425065D01*
X-35704084Y-18402275D01*
X-35627084Y-18386959D01*
X-35548954Y-18379264D01*
X-35470446Y-18379264D01*
X-35392316Y-18386959D01*
G37*
%TD.AperFunction*%
%TA.AperFunction,EtchedComponent*%
G36*
X-9992316Y-15846959D02*
G01*
X-9915316Y-15862275D01*
X-9840188Y-15885065D01*
X-9767656Y-15915109D01*
X-9698418Y-15952117D01*
X-9633141Y-15995734D01*
X-9572453Y-16045539D01*
X-9516939Y-16101053D01*
X-9467134Y-16161741D01*
X-9423517Y-16227018D01*
X-9386509Y-16296256D01*
X-9356465Y-16368788D01*
X-9333675Y-16443916D01*
X-9318359Y-16520916D01*
X-9310664Y-16599046D01*
X-9310664Y-16677554D01*
X-9318359Y-16755684D01*
X-9333675Y-16832684D01*
X-9356465Y-16907812D01*
X-9386509Y-16980344D01*
X-9423517Y-17049582D01*
X-9467134Y-17114859D01*
X-9516939Y-17175547D01*
X-9572453Y-17231061D01*
X-9633141Y-17280866D01*
X-9698418Y-17324483D01*
X-9767656Y-17361491D01*
X-9840188Y-17391535D01*
X-9915316Y-17414325D01*
X-9992316Y-17429641D01*
X-10070446Y-17437336D01*
X-10148954Y-17437336D01*
X-10227084Y-17429641D01*
X-10304084Y-17414325D01*
X-10379212Y-17391535D01*
X-10451744Y-17361491D01*
X-10520982Y-17324483D01*
X-10586259Y-17280866D01*
X-10646947Y-17231061D01*
X-10702461Y-17175547D01*
X-10752266Y-17114859D01*
X-10795883Y-17049582D01*
X-10832891Y-16980344D01*
X-10862935Y-16907812D01*
X-10885725Y-16832684D01*
X-10901041Y-16755684D01*
X-10908736Y-16677554D01*
X-10908736Y-16599046D01*
X-10901041Y-16520916D01*
X-10885725Y-16443916D01*
X-10862935Y-16368788D01*
X-10832891Y-16296256D01*
X-10795883Y-16227018D01*
X-10752266Y-16161741D01*
X-10702461Y-16101053D01*
X-10646947Y-16045539D01*
X-10586259Y-15995734D01*
X-10520982Y-15952117D01*
X-10451744Y-15915109D01*
X-10379212Y-15885065D01*
X-10304084Y-15862275D01*
X-10227084Y-15846959D01*
X-10148954Y-15839264D01*
X-10070446Y-15839264D01*
X-9992316Y-15846959D01*
G37*
%TD.AperFunction*%
%TA.AperFunction,EtchedComponent*%
G36*
X-25232316Y-15846959D02*
G01*
X-25155316Y-15862275D01*
X-25080188Y-15885065D01*
X-25007656Y-15915109D01*
X-24938418Y-15952117D01*
X-24873141Y-15995734D01*
X-24812453Y-16045539D01*
X-24756939Y-16101053D01*
X-24707134Y-16161741D01*
X-24663517Y-16227018D01*
X-24626509Y-16296256D01*
X-24596465Y-16368788D01*
X-24573675Y-16443916D01*
X-24558359Y-16520916D01*
X-24550664Y-16599046D01*
X-24550664Y-16677554D01*
X-24558359Y-16755684D01*
X-24573675Y-16832684D01*
X-24596465Y-16907812D01*
X-24626509Y-16980344D01*
X-24663517Y-17049582D01*
X-24707134Y-17114859D01*
X-24756939Y-17175547D01*
X-24812453Y-17231061D01*
X-24873141Y-17280866D01*
X-24938418Y-17324483D01*
X-25007656Y-17361491D01*
X-25080188Y-17391535D01*
X-25155316Y-17414325D01*
X-25232316Y-17429641D01*
X-25310446Y-17437336D01*
X-25388954Y-17437336D01*
X-25467084Y-17429641D01*
X-25544084Y-17414325D01*
X-25619212Y-17391535D01*
X-25691744Y-17361491D01*
X-25760982Y-17324483D01*
X-25826259Y-17280866D01*
X-25886947Y-17231061D01*
X-25942461Y-17175547D01*
X-25992266Y-17114859D01*
X-26035883Y-17049582D01*
X-26072891Y-16980344D01*
X-26102935Y-16907812D01*
X-26125725Y-16832684D01*
X-26141041Y-16755684D01*
X-26148736Y-16677554D01*
X-26148736Y-16599046D01*
X-26141041Y-16520916D01*
X-26125725Y-16443916D01*
X-26102935Y-16368788D01*
X-26072891Y-16296256D01*
X-26035883Y-16227018D01*
X-25992266Y-16161741D01*
X-25942461Y-16101053D01*
X-25886947Y-16045539D01*
X-25826259Y-15995734D01*
X-25760982Y-15952117D01*
X-25691744Y-15915109D01*
X-25619212Y-15885065D01*
X-25544084Y-15862275D01*
X-25467084Y-15846959D01*
X-25388954Y-15839264D01*
X-25310446Y-15839264D01*
X-25232316Y-15846959D01*
G37*
%TD.AperFunction*%
%TA.AperFunction,EtchedComponent*%
G36*
X-15072316Y-18386959D02*
G01*
X-14995316Y-18402275D01*
X-14920188Y-18425065D01*
X-14847656Y-18455109D01*
X-14778418Y-18492117D01*
X-14713141Y-18535734D01*
X-14652453Y-18585539D01*
X-14596939Y-18641053D01*
X-14547134Y-18701741D01*
X-14503517Y-18767018D01*
X-14466509Y-18836256D01*
X-14436465Y-18908788D01*
X-14413675Y-18983916D01*
X-14398359Y-19060916D01*
X-14390664Y-19139046D01*
X-14390664Y-19217554D01*
X-14398359Y-19295684D01*
X-14413675Y-19372684D01*
X-14436465Y-19447812D01*
X-14466509Y-19520344D01*
X-14503517Y-19589582D01*
X-14547134Y-19654859D01*
X-14596939Y-19715547D01*
X-14652453Y-19771061D01*
X-14713141Y-19820866D01*
X-14778418Y-19864483D01*
X-14847656Y-19901491D01*
X-14920188Y-19931535D01*
X-14995316Y-19954325D01*
X-15072316Y-19969641D01*
X-15150446Y-19977336D01*
X-15228954Y-19977336D01*
X-15307084Y-19969641D01*
X-15384084Y-19954325D01*
X-15459212Y-19931535D01*
X-15531744Y-19901491D01*
X-15600982Y-19864483D01*
X-15666259Y-19820866D01*
X-15726947Y-19771061D01*
X-15782461Y-19715547D01*
X-15832266Y-19654859D01*
X-15875883Y-19589582D01*
X-15912891Y-19520344D01*
X-15942935Y-19447812D01*
X-15965725Y-19372684D01*
X-15981041Y-19295684D01*
X-15988736Y-19217554D01*
X-15988736Y-19139046D01*
X-15981041Y-19060916D01*
X-15965725Y-18983916D01*
X-15942935Y-18908788D01*
X-15912891Y-18836256D01*
X-15875883Y-18767018D01*
X-15832266Y-18701741D01*
X-15782461Y-18641053D01*
X-15726947Y-18585539D01*
X-15666259Y-18535734D01*
X-15600982Y-18492117D01*
X-15531744Y-18455109D01*
X-15459212Y-18425065D01*
X-15384084Y-18402275D01*
X-15307084Y-18386959D01*
X-15228954Y-18379264D01*
X-15150446Y-18379264D01*
X-15072316Y-18386959D01*
G37*
%TD.AperFunction*%
%TA.AperFunction,EtchedComponent*%
G36*
X-27772316Y-15846959D02*
G01*
X-27695316Y-15862275D01*
X-27620188Y-15885065D01*
X-27547656Y-15915109D01*
X-27478418Y-15952117D01*
X-27413141Y-15995734D01*
X-27352453Y-16045539D01*
X-27296939Y-16101053D01*
X-27247134Y-16161741D01*
X-27203517Y-16227018D01*
X-27166509Y-16296256D01*
X-27136465Y-16368788D01*
X-27113675Y-16443916D01*
X-27098359Y-16520916D01*
X-27090664Y-16599046D01*
X-27090664Y-16677554D01*
X-27098359Y-16755684D01*
X-27113675Y-16832684D01*
X-27136465Y-16907812D01*
X-27166509Y-16980344D01*
X-27203517Y-17049582D01*
X-27247134Y-17114859D01*
X-27296939Y-17175547D01*
X-27352453Y-17231061D01*
X-27413141Y-17280866D01*
X-27478418Y-17324483D01*
X-27547656Y-17361491D01*
X-27620188Y-17391535D01*
X-27695316Y-17414325D01*
X-27772316Y-17429641D01*
X-27850446Y-17437336D01*
X-27928954Y-17437336D01*
X-28007084Y-17429641D01*
X-28084084Y-17414325D01*
X-28159212Y-17391535D01*
X-28231744Y-17361491D01*
X-28300982Y-17324483D01*
X-28366259Y-17280866D01*
X-28426947Y-17231061D01*
X-28482461Y-17175547D01*
X-28532266Y-17114859D01*
X-28575883Y-17049582D01*
X-28612891Y-16980344D01*
X-28642935Y-16907812D01*
X-28665725Y-16832684D01*
X-28681041Y-16755684D01*
X-28688736Y-16677554D01*
X-28688736Y-16599046D01*
X-28681041Y-16520916D01*
X-28665725Y-16443916D01*
X-28642935Y-16368788D01*
X-28612891Y-16296256D01*
X-28575883Y-16227018D01*
X-28532266Y-16161741D01*
X-28482461Y-16101053D01*
X-28426947Y-16045539D01*
X-28366259Y-15995734D01*
X-28300982Y-15952117D01*
X-28231744Y-15915109D01*
X-28159212Y-15885065D01*
X-28084084Y-15862275D01*
X-28007084Y-15846959D01*
X-27928954Y-15839264D01*
X-27850446Y-15839264D01*
X-27772316Y-15846959D01*
G37*
%TD.AperFunction*%
%TA.AperFunction,EtchedComponent*%
G36*
X-9992316Y-18386959D02*
G01*
X-9915316Y-18402275D01*
X-9840188Y-18425065D01*
X-9767656Y-18455109D01*
X-9698418Y-18492117D01*
X-9633141Y-18535734D01*
X-9572453Y-18585539D01*
X-9516939Y-18641053D01*
X-9467134Y-18701741D01*
X-9423517Y-18767018D01*
X-9386509Y-18836256D01*
X-9356465Y-18908788D01*
X-9333675Y-18983916D01*
X-9318359Y-19060916D01*
X-9310664Y-19139046D01*
X-9310664Y-19217554D01*
X-9318359Y-19295684D01*
X-9333675Y-19372684D01*
X-9356465Y-19447812D01*
X-9386509Y-19520344D01*
X-9423517Y-19589582D01*
X-9467134Y-19654859D01*
X-9516939Y-19715547D01*
X-9572453Y-19771061D01*
X-9633141Y-19820866D01*
X-9698418Y-19864483D01*
X-9767656Y-19901491D01*
X-9840188Y-19931535D01*
X-9915316Y-19954325D01*
X-9992316Y-19969641D01*
X-10070446Y-19977336D01*
X-10148954Y-19977336D01*
X-10227084Y-19969641D01*
X-10304084Y-19954325D01*
X-10379212Y-19931535D01*
X-10451744Y-19901491D01*
X-10520982Y-19864483D01*
X-10586259Y-19820866D01*
X-10646947Y-19771061D01*
X-10702461Y-19715547D01*
X-10752266Y-19654859D01*
X-10795883Y-19589582D01*
X-10832891Y-19520344D01*
X-10862935Y-19447812D01*
X-10885725Y-19372684D01*
X-10901041Y-19295684D01*
X-10908736Y-19217554D01*
X-10908736Y-19139046D01*
X-10901041Y-19060916D01*
X-10885725Y-18983916D01*
X-10862935Y-18908788D01*
X-10832891Y-18836256D01*
X-10795883Y-18767018D01*
X-10752266Y-18701741D01*
X-10702461Y-18641053D01*
X-10646947Y-18585539D01*
X-10586259Y-18535734D01*
X-10520982Y-18492117D01*
X-10451744Y-18455109D01*
X-10379212Y-18425065D01*
X-10304084Y-18402275D01*
X-10227084Y-18386959D01*
X-10148954Y-18379264D01*
X-10070446Y-18379264D01*
X-9992316Y-18386959D01*
G37*
%TD.AperFunction*%
%TA.AperFunction,EtchedComponent*%
G36*
X-20152316Y-15846959D02*
G01*
X-20075316Y-15862275D01*
X-20000188Y-15885065D01*
X-19927656Y-15915109D01*
X-19858418Y-15952117D01*
X-19793141Y-15995734D01*
X-19732453Y-16045539D01*
X-19676939Y-16101053D01*
X-19627134Y-16161741D01*
X-19583517Y-16227018D01*
X-19546509Y-16296256D01*
X-19516465Y-16368788D01*
X-19493675Y-16443916D01*
X-19478359Y-16520916D01*
X-19470664Y-16599046D01*
X-19470664Y-16677554D01*
X-19478359Y-16755684D01*
X-19493675Y-16832684D01*
X-19516465Y-16907812D01*
X-19546509Y-16980344D01*
X-19583517Y-17049582D01*
X-19627134Y-17114859D01*
X-19676939Y-17175547D01*
X-19732453Y-17231061D01*
X-19793141Y-17280866D01*
X-19858418Y-17324483D01*
X-19927656Y-17361491D01*
X-20000188Y-17391535D01*
X-20075316Y-17414325D01*
X-20152316Y-17429641D01*
X-20230446Y-17437336D01*
X-20308954Y-17437336D01*
X-20387084Y-17429641D01*
X-20464084Y-17414325D01*
X-20539212Y-17391535D01*
X-20611744Y-17361491D01*
X-20680982Y-17324483D01*
X-20746259Y-17280866D01*
X-20806947Y-17231061D01*
X-20862461Y-17175547D01*
X-20912266Y-17114859D01*
X-20955883Y-17049582D01*
X-20992891Y-16980344D01*
X-21022935Y-16907812D01*
X-21045725Y-16832684D01*
X-21061041Y-16755684D01*
X-21068736Y-16677554D01*
X-21068736Y-16599046D01*
X-21061041Y-16520916D01*
X-21045725Y-16443916D01*
X-21022935Y-16368788D01*
X-20992891Y-16296256D01*
X-20955883Y-16227018D01*
X-20912266Y-16161741D01*
X-20862461Y-16101053D01*
X-20806947Y-16045539D01*
X-20746259Y-15995734D01*
X-20680982Y-15952117D01*
X-20611744Y-15915109D01*
X-20539212Y-15885065D01*
X-20464084Y-15862275D01*
X-20387084Y-15846959D01*
X-20308954Y-15839264D01*
X-20230446Y-15839264D01*
X-20152316Y-15846959D01*
G37*
%TD.AperFunction*%
%TA.AperFunction,EtchedComponent*%
G36*
X21408900Y24536900D02*
G01*
X19908900Y24536900D01*
X19908900Y26036900D01*
X21408900Y26036900D01*
X21408900Y24536900D01*
G37*
%TD.AperFunction*%
%TA.AperFunction,EtchedComponent*%
G36*
X23308948Y26028782D02*
G01*
X23381135Y26014423D01*
X23451567Y25993058D01*
X23519566Y25964892D01*
X23584477Y25930196D01*
X23645674Y25889306D01*
X23702569Y25842613D01*
X23754613Y25790569D01*
X23801306Y25733674D01*
X23842196Y25672477D01*
X23876892Y25607566D01*
X23905058Y25539567D01*
X23926423Y25469135D01*
X23940782Y25396948D01*
X23947997Y25323701D01*
X23947997Y25250099D01*
X23940782Y25176852D01*
X23926423Y25104665D01*
X23905058Y25034233D01*
X23876892Y24966234D01*
X23842196Y24901323D01*
X23801306Y24840126D01*
X23754613Y24783231D01*
X23702569Y24731187D01*
X23645674Y24684494D01*
X23584477Y24643604D01*
X23519566Y24608908D01*
X23451567Y24580742D01*
X23381135Y24559377D01*
X23308948Y24545018D01*
X23235701Y24537803D01*
X23162099Y24537803D01*
X23088852Y24545018D01*
X23016665Y24559377D01*
X22946233Y24580742D01*
X22878234Y24608908D01*
X22813323Y24643604D01*
X22752126Y24684494D01*
X22695231Y24731187D01*
X22643187Y24783231D01*
X22596494Y24840126D01*
X22555604Y24901323D01*
X22520908Y24966234D01*
X22492742Y25034233D01*
X22471377Y25104665D01*
X22457018Y25176852D01*
X22449803Y25250099D01*
X22449803Y25323701D01*
X22457018Y25396948D01*
X22471377Y25469135D01*
X22492742Y25539567D01*
X22520908Y25607566D01*
X22555604Y25672477D01*
X22596494Y25733674D01*
X22643187Y25790569D01*
X22695231Y25842613D01*
X22752126Y25889306D01*
X22813323Y25930196D01*
X22878234Y25964892D01*
X22946233Y25993058D01*
X23016665Y26014423D01*
X23088852Y26028782D01*
X23162099Y26035997D01*
X23235701Y26035997D01*
X23308948Y26028782D01*
G37*
%TD.AperFunction*%
%TA.AperFunction,EtchedComponent*%
G36*
X25848948Y26028782D02*
G01*
X25921135Y26014423D01*
X25991567Y25993058D01*
X26059566Y25964892D01*
X26124477Y25930196D01*
X26185674Y25889306D01*
X26242569Y25842613D01*
X26294613Y25790569D01*
X26341306Y25733674D01*
X26382196Y25672477D01*
X26416892Y25607566D01*
X26445058Y25539567D01*
X26466423Y25469135D01*
X26480782Y25396948D01*
X26487997Y25323701D01*
X26487997Y25250099D01*
X26480782Y25176852D01*
X26466423Y25104665D01*
X26445058Y25034233D01*
X26416892Y24966234D01*
X26382196Y24901323D01*
X26341306Y24840126D01*
X26294613Y24783231D01*
X26242569Y24731187D01*
X26185674Y24684494D01*
X26124477Y24643604D01*
X26059566Y24608908D01*
X25991567Y24580742D01*
X25921135Y24559377D01*
X25848948Y24545018D01*
X25775701Y24537803D01*
X25702099Y24537803D01*
X25628852Y24545018D01*
X25556665Y24559377D01*
X25486233Y24580742D01*
X25418234Y24608908D01*
X25353323Y24643604D01*
X25292126Y24684494D01*
X25235231Y24731187D01*
X25183187Y24783231D01*
X25136494Y24840126D01*
X25095604Y24901323D01*
X25060908Y24966234D01*
X25032742Y25034233D01*
X25011377Y25104665D01*
X24997018Y25176852D01*
X24989803Y25250099D01*
X24989803Y25323701D01*
X24997018Y25396948D01*
X25011377Y25469135D01*
X25032742Y25539567D01*
X25060908Y25607566D01*
X25095604Y25672477D01*
X25136494Y25733674D01*
X25183187Y25790569D01*
X25235231Y25842613D01*
X25292126Y25889306D01*
X25353323Y25930196D01*
X25418234Y25964892D01*
X25486233Y25993058D01*
X25556665Y26014423D01*
X25628852Y26028782D01*
X25702099Y26035997D01*
X25775701Y26035997D01*
X25848948Y26028782D01*
G37*
%TD.AperFunction*%
%TA.AperFunction,EtchedComponent*%
G36*
X-30008933Y-94365D02*
G01*
X-29907871Y-114467D01*
X-29809266Y-144379D01*
X-29714067Y-183811D01*
X-29623192Y-232385D01*
X-29537516Y-289632D01*
X-29457863Y-355001D01*
X-29385001Y-427863D01*
X-29319632Y-507516D01*
X-29262385Y-593192D01*
X-29213811Y-684067D01*
X-29174379Y-779266D01*
X-29144467Y-877871D01*
X-29124365Y-978933D01*
X-29114265Y-1081479D01*
X-29114265Y-1184521D01*
X-29124365Y-1287067D01*
X-29144467Y-1388129D01*
X-29174379Y-1486734D01*
X-29213811Y-1581933D01*
X-29262385Y-1672808D01*
X-29319632Y-1758484D01*
X-29385001Y-1838137D01*
X-29457863Y-1910999D01*
X-29537516Y-1976368D01*
X-29623192Y-2033615D01*
X-29714067Y-2082189D01*
X-29809266Y-2121621D01*
X-29907871Y-2151533D01*
X-30008933Y-2171635D01*
X-30111479Y-2181735D01*
X-30214521Y-2181735D01*
X-30317067Y-2171635D01*
X-30418129Y-2151533D01*
X-30516734Y-2121621D01*
X-30611933Y-2082189D01*
X-30702808Y-2033615D01*
X-30788484Y-1976368D01*
X-30868137Y-1910999D01*
X-30940999Y-1838137D01*
X-31006368Y-1758484D01*
X-31063615Y-1672808D01*
X-31112189Y-1581933D01*
X-31151621Y-1486734D01*
X-31181533Y-1388129D01*
X-31201635Y-1287067D01*
X-31211735Y-1184521D01*
X-31211735Y-1081479D01*
X-31201635Y-978933D01*
X-31181533Y-877871D01*
X-31151621Y-779266D01*
X-31112189Y-684067D01*
X-31063615Y-593192D01*
X-31006368Y-507516D01*
X-30940999Y-427863D01*
X-30868137Y-355001D01*
X-30788484Y-289632D01*
X-30702808Y-232385D01*
X-30611933Y-183811D01*
X-30516734Y-144379D01*
X-30418129Y-114467D01*
X-30317067Y-94365D01*
X-30214521Y-84265D01*
X-30111479Y-84265D01*
X-30008933Y-94365D01*
G37*
%TD.AperFunction*%
%TA.AperFunction,EtchedComponent*%
G36*
X-35088933Y-94365D02*
G01*
X-34987871Y-114467D01*
X-34889266Y-144379D01*
X-34794067Y-183811D01*
X-34703192Y-232385D01*
X-34617516Y-289632D01*
X-34537863Y-355001D01*
X-34465001Y-427863D01*
X-34399632Y-507516D01*
X-34342385Y-593192D01*
X-34293811Y-684067D01*
X-34254379Y-779266D01*
X-34224467Y-877871D01*
X-34204365Y-978933D01*
X-34194265Y-1081479D01*
X-34194265Y-1184521D01*
X-34204365Y-1287067D01*
X-34224467Y-1388129D01*
X-34254379Y-1486734D01*
X-34293811Y-1581933D01*
X-34342385Y-1672808D01*
X-34399632Y-1758484D01*
X-34465001Y-1838137D01*
X-34537863Y-1910999D01*
X-34617516Y-1976368D01*
X-34703192Y-2033615D01*
X-34794067Y-2082189D01*
X-34889266Y-2121621D01*
X-34987871Y-2151533D01*
X-35088933Y-2171635D01*
X-35191479Y-2181735D01*
X-35294521Y-2181735D01*
X-35397067Y-2171635D01*
X-35498129Y-2151533D01*
X-35596734Y-2121621D01*
X-35691933Y-2082189D01*
X-35782808Y-2033615D01*
X-35868484Y-1976368D01*
X-35948137Y-1910999D01*
X-36020999Y-1838137D01*
X-36086368Y-1758484D01*
X-36143615Y-1672808D01*
X-36192189Y-1581933D01*
X-36231621Y-1486734D01*
X-36261533Y-1388129D01*
X-36281635Y-1287067D01*
X-36291735Y-1184521D01*
X-36291735Y-1081479D01*
X-36281635Y-978933D01*
X-36261533Y-877871D01*
X-36231621Y-779266D01*
X-36192189Y-684067D01*
X-36143615Y-593192D01*
X-36086368Y-507516D01*
X-36020999Y-427863D01*
X-35948137Y-355001D01*
X-35868484Y-289632D01*
X-35782808Y-232385D01*
X-35691933Y-183811D01*
X-35596734Y-144379D01*
X-35498129Y-114467D01*
X-35397067Y-94365D01*
X-35294521Y-84265D01*
X-35191479Y-84265D01*
X-35088933Y-94365D01*
G37*
%TD.AperFunction*%
%TA.AperFunction,EtchedComponent*%
G36*
X23854167Y-9095565D02*
G01*
X23955229Y-9115667D01*
X24053834Y-9145579D01*
X24149033Y-9185011D01*
X24239908Y-9233585D01*
X24325584Y-9290832D01*
X24405237Y-9356201D01*
X24478099Y-9429063D01*
X24543468Y-9508716D01*
X24600715Y-9594392D01*
X24649289Y-9685267D01*
X24688721Y-9780466D01*
X24718633Y-9879071D01*
X24738735Y-9980133D01*
X24748835Y-10082679D01*
X24748835Y-10185721D01*
X24738735Y-10288267D01*
X24718633Y-10389329D01*
X24688721Y-10487934D01*
X24649289Y-10583133D01*
X24600715Y-10674008D01*
X24543468Y-10759684D01*
X24478099Y-10839337D01*
X24405237Y-10912199D01*
X24325584Y-10977568D01*
X24239908Y-11034815D01*
X24149033Y-11083389D01*
X24053834Y-11122821D01*
X23955229Y-11152733D01*
X23854167Y-11172835D01*
X23751621Y-11182935D01*
X23648579Y-11182935D01*
X23546033Y-11172835D01*
X23444971Y-11152733D01*
X23346366Y-11122821D01*
X23251167Y-11083389D01*
X23160292Y-11034815D01*
X23074616Y-10977568D01*
X22994963Y-10912199D01*
X22922101Y-10839337D01*
X22856732Y-10759684D01*
X22799485Y-10674008D01*
X22750911Y-10583133D01*
X22711479Y-10487934D01*
X22681567Y-10389329D01*
X22661465Y-10288267D01*
X22651365Y-10185721D01*
X22651365Y-10082679D01*
X22661465Y-9980133D01*
X22681567Y-9879071D01*
X22711479Y-9780466D01*
X22750911Y-9685267D01*
X22799485Y-9594392D01*
X22856732Y-9508716D01*
X22922101Y-9429063D01*
X22994963Y-9356201D01*
X23074616Y-9290832D01*
X23160292Y-9233585D01*
X23251167Y-9185011D01*
X23346366Y-9145579D01*
X23444971Y-9115667D01*
X23546033Y-9095565D01*
X23648579Y-9085465D01*
X23751621Y-9085465D01*
X23854167Y-9095565D01*
G37*
%TD.AperFunction*%
%TA.AperFunction,EtchedComponent*%
G36*
X18774167Y-9095565D02*
G01*
X18875229Y-9115667D01*
X18973834Y-9145579D01*
X19069033Y-9185011D01*
X19159908Y-9233585D01*
X19245584Y-9290832D01*
X19325237Y-9356201D01*
X19398099Y-9429063D01*
X19463468Y-9508716D01*
X19520715Y-9594392D01*
X19569289Y-9685267D01*
X19608721Y-9780466D01*
X19638633Y-9879071D01*
X19658735Y-9980133D01*
X19668835Y-10082679D01*
X19668835Y-10185721D01*
X19658735Y-10288267D01*
X19638633Y-10389329D01*
X19608721Y-10487934D01*
X19569289Y-10583133D01*
X19520715Y-10674008D01*
X19463468Y-10759684D01*
X19398099Y-10839337D01*
X19325237Y-10912199D01*
X19245584Y-10977568D01*
X19159908Y-11034815D01*
X19069033Y-11083389D01*
X18973834Y-11122821D01*
X18875229Y-11152733D01*
X18774167Y-11172835D01*
X18671621Y-11182935D01*
X18568579Y-11182935D01*
X18466033Y-11172835D01*
X18364971Y-11152733D01*
X18266366Y-11122821D01*
X18171167Y-11083389D01*
X18080292Y-11034815D01*
X17994616Y-10977568D01*
X17914963Y-10912199D01*
X17842101Y-10839337D01*
X17776732Y-10759684D01*
X17719485Y-10674008D01*
X17670911Y-10583133D01*
X17631479Y-10487934D01*
X17601567Y-10389329D01*
X17581465Y-10288267D01*
X17571365Y-10185721D01*
X17571365Y-10082679D01*
X17581465Y-9980133D01*
X17601567Y-9879071D01*
X17631479Y-9780466D01*
X17670911Y-9685267D01*
X17719485Y-9594392D01*
X17776732Y-9508716D01*
X17842101Y-9429063D01*
X17914963Y-9356201D01*
X17994616Y-9290832D01*
X18080292Y-9233585D01*
X18171167Y-9185011D01*
X18266366Y-9145579D01*
X18364971Y-9115667D01*
X18466033Y-9095565D01*
X18568579Y-9085465D01*
X18671621Y-9085465D01*
X18774167Y-9095565D01*
G37*
%TD.AperFunction*%
%TA.AperFunction,EtchedComponent*%
G36*
X-26257033Y8252335D02*
G01*
X-26155971Y8232233D01*
X-26057366Y8202321D01*
X-25962167Y8162889D01*
X-25871292Y8114315D01*
X-25785616Y8057068D01*
X-25705963Y7991699D01*
X-25633101Y7918837D01*
X-25567732Y7839184D01*
X-25510485Y7753508D01*
X-25461911Y7662633D01*
X-25422479Y7567434D01*
X-25392567Y7468829D01*
X-25372465Y7367767D01*
X-25362365Y7265221D01*
X-25362365Y7162179D01*
X-25372465Y7059633D01*
X-25392567Y6958571D01*
X-25422479Y6859966D01*
X-25461911Y6764767D01*
X-25510485Y6673892D01*
X-25567732Y6588216D01*
X-25633101Y6508563D01*
X-25705963Y6435701D01*
X-25785616Y6370332D01*
X-25871292Y6313085D01*
X-25962167Y6264511D01*
X-26057366Y6225079D01*
X-26155971Y6195167D01*
X-26257033Y6175065D01*
X-26359579Y6164965D01*
X-26462621Y6164965D01*
X-26565167Y6175065D01*
X-26666229Y6195167D01*
X-26764834Y6225079D01*
X-26860033Y6264511D01*
X-26950908Y6313085D01*
X-27036584Y6370332D01*
X-27116237Y6435701D01*
X-27189099Y6508563D01*
X-27254468Y6588216D01*
X-27311715Y6673892D01*
X-27360289Y6764767D01*
X-27399721Y6859966D01*
X-27429633Y6958571D01*
X-27449735Y7059633D01*
X-27459835Y7162179D01*
X-27459835Y7265221D01*
X-27449735Y7367767D01*
X-27429633Y7468829D01*
X-27399721Y7567434D01*
X-27360289Y7662633D01*
X-27311715Y7753508D01*
X-27254468Y7839184D01*
X-27189099Y7918837D01*
X-27116237Y7991699D01*
X-27036584Y8057068D01*
X-26950908Y8114315D01*
X-26860033Y8162889D01*
X-26764834Y8202321D01*
X-26666229Y8232233D01*
X-26565167Y8252335D01*
X-26462621Y8262435D01*
X-26359579Y8262435D01*
X-26257033Y8252335D01*
G37*
%TD.AperFunction*%
%TA.AperFunction,EtchedComponent*%
G36*
X-31337033Y8252335D02*
G01*
X-31235971Y8232233D01*
X-31137366Y8202321D01*
X-31042167Y8162889D01*
X-30951292Y8114315D01*
X-30865616Y8057068D01*
X-30785963Y7991699D01*
X-30713101Y7918837D01*
X-30647732Y7839184D01*
X-30590485Y7753508D01*
X-30541911Y7662633D01*
X-30502479Y7567434D01*
X-30472567Y7468829D01*
X-30452465Y7367767D01*
X-30442365Y7265221D01*
X-30442365Y7162179D01*
X-30452465Y7059633D01*
X-30472567Y6958571D01*
X-30502479Y6859966D01*
X-30541911Y6764767D01*
X-30590485Y6673892D01*
X-30647732Y6588216D01*
X-30713101Y6508563D01*
X-30785963Y6435701D01*
X-30865616Y6370332D01*
X-30951292Y6313085D01*
X-31042167Y6264511D01*
X-31137366Y6225079D01*
X-31235971Y6195167D01*
X-31337033Y6175065D01*
X-31439579Y6164965D01*
X-31542621Y6164965D01*
X-31645167Y6175065D01*
X-31746229Y6195167D01*
X-31844834Y6225079D01*
X-31940033Y6264511D01*
X-32030908Y6313085D01*
X-32116584Y6370332D01*
X-32196237Y6435701D01*
X-32269099Y6508563D01*
X-32334468Y6588216D01*
X-32391715Y6673892D01*
X-32440289Y6764767D01*
X-32479721Y6859966D01*
X-32509633Y6958571D01*
X-32529735Y7059633D01*
X-32539835Y7162179D01*
X-32539835Y7265221D01*
X-32529735Y7367767D01*
X-32509633Y7468829D01*
X-32479721Y7567434D01*
X-32440289Y7662633D01*
X-32391715Y7753508D01*
X-32334468Y7839184D01*
X-32269099Y7918837D01*
X-32196237Y7991699D01*
X-32116584Y8057068D01*
X-32030908Y8114315D01*
X-31940033Y8162889D01*
X-31844834Y8202321D01*
X-31746229Y8232233D01*
X-31645167Y8252335D01*
X-31542621Y8262435D01*
X-31439579Y8262435D01*
X-31337033Y8252335D01*
G37*
%TD.AperFunction*%
%TA.AperFunction,EtchedComponent*%
G36*
X-17710233Y-5883465D02*
G01*
X-17609171Y-5903567D01*
X-17510566Y-5933479D01*
X-17415367Y-5972911D01*
X-17324492Y-6021485D01*
X-17238816Y-6078732D01*
X-17159163Y-6144101D01*
X-17086301Y-6216963D01*
X-17020932Y-6296616D01*
X-16963685Y-6382292D01*
X-16915111Y-6473167D01*
X-16875679Y-6568366D01*
X-16845767Y-6666971D01*
X-16825665Y-6768033D01*
X-16815565Y-6870579D01*
X-16815565Y-6973621D01*
X-16825665Y-7076167D01*
X-16845767Y-7177229D01*
X-16875679Y-7275834D01*
X-16915111Y-7371033D01*
X-16963685Y-7461908D01*
X-17020932Y-7547584D01*
X-17086301Y-7627237D01*
X-17159163Y-7700099D01*
X-17238816Y-7765468D01*
X-17324492Y-7822715D01*
X-17415367Y-7871289D01*
X-17510566Y-7910721D01*
X-17609171Y-7940633D01*
X-17710233Y-7960735D01*
X-17812779Y-7970835D01*
X-17915821Y-7970835D01*
X-18018367Y-7960735D01*
X-18119429Y-7940633D01*
X-18218034Y-7910721D01*
X-18313233Y-7871289D01*
X-18404108Y-7822715D01*
X-18489784Y-7765468D01*
X-18569437Y-7700099D01*
X-18642299Y-7627237D01*
X-18707668Y-7547584D01*
X-18764915Y-7461908D01*
X-18813489Y-7371033D01*
X-18852921Y-7275834D01*
X-18882833Y-7177229D01*
X-18902935Y-7076167D01*
X-18913035Y-6973621D01*
X-18913035Y-6870579D01*
X-18902935Y-6768033D01*
X-18882833Y-6666971D01*
X-18852921Y-6568366D01*
X-18813489Y-6473167D01*
X-18764915Y-6382292D01*
X-18707668Y-6296616D01*
X-18642299Y-6216963D01*
X-18569437Y-6144101D01*
X-18489784Y-6078732D01*
X-18404108Y-6021485D01*
X-18313233Y-5972911D01*
X-18218034Y-5933479D01*
X-18119429Y-5903567D01*
X-18018367Y-5883465D01*
X-17915821Y-5873365D01*
X-17812779Y-5873365D01*
X-17710233Y-5883465D01*
G37*
%TD.AperFunction*%
%TA.AperFunction,EtchedComponent*%
G36*
X-22790233Y-5883465D02*
G01*
X-22689171Y-5903567D01*
X-22590566Y-5933479D01*
X-22495367Y-5972911D01*
X-22404492Y-6021485D01*
X-22318816Y-6078732D01*
X-22239163Y-6144101D01*
X-22166301Y-6216963D01*
X-22100932Y-6296616D01*
X-22043685Y-6382292D01*
X-21995111Y-6473167D01*
X-21955679Y-6568366D01*
X-21925767Y-6666971D01*
X-21905665Y-6768033D01*
X-21895565Y-6870579D01*
X-21895565Y-6973621D01*
X-21905665Y-7076167D01*
X-21925767Y-7177229D01*
X-21955679Y-7275834D01*
X-21995111Y-7371033D01*
X-22043685Y-7461908D01*
X-22100932Y-7547584D01*
X-22166301Y-7627237D01*
X-22239163Y-7700099D01*
X-22318816Y-7765468D01*
X-22404492Y-7822715D01*
X-22495367Y-7871289D01*
X-22590566Y-7910721D01*
X-22689171Y-7940633D01*
X-22790233Y-7960735D01*
X-22892779Y-7970835D01*
X-22995821Y-7970835D01*
X-23098367Y-7960735D01*
X-23199429Y-7940633D01*
X-23298034Y-7910721D01*
X-23393233Y-7871289D01*
X-23484108Y-7822715D01*
X-23569784Y-7765468D01*
X-23649437Y-7700099D01*
X-23722299Y-7627237D01*
X-23787668Y-7547584D01*
X-23844915Y-7461908D01*
X-23893489Y-7371033D01*
X-23932921Y-7275834D01*
X-23962833Y-7177229D01*
X-23982935Y-7076167D01*
X-23993035Y-6973621D01*
X-23993035Y-6870579D01*
X-23982935Y-6768033D01*
X-23962833Y-6666971D01*
X-23932921Y-6568366D01*
X-23893489Y-6473167D01*
X-23844915Y-6382292D01*
X-23787668Y-6296616D01*
X-23722299Y-6216963D01*
X-23649437Y-6144101D01*
X-23569784Y-6078732D01*
X-23484108Y-6021485D01*
X-23393233Y-5972911D01*
X-23298034Y-5933479D01*
X-23199429Y-5903567D01*
X-23098367Y-5883465D01*
X-22995821Y-5873365D01*
X-22892779Y-5873365D01*
X-22790233Y-5883465D01*
G37*
%TD.AperFunction*%
%TD*%
D11*
%TO.N,GND*%
%TO.C,*%
X-36794700Y-17908300D03*
X-35000000Y-5000000D03*
X-50000000Y-35000000D03*
X-35000000Y-35000000D03*
X-65000000Y-35000000D03*
X-5000000Y-20000000D03*
X-50000000Y-20000000D03*
X-20000000Y-35000000D03*
X-65000000Y-20000000D03*
X-65000000Y-5000000D03*
X-35000000Y10000000D03*
X-50000000Y-5000000D03*
X-5000000Y-5000000D03*
X-50000000Y10000000D03*
X-65000000Y10000000D03*
X-20000000Y10000000D03*
X-20000000Y25000000D03*
X-35000000Y25000000D03*
X-5000000Y25000000D03*
X-65000000Y25000000D03*
X-20000000Y40000000D03*
X-65000000Y40000000D03*
X-50000000Y40000000D03*
X-35000000Y40000000D03*
X-50000000Y25000000D03*
X55000000Y-35000000D03*
X40000000Y-35000000D03*
X10000000Y-35000000D03*
X25000000Y-35000000D03*
X-5000000Y-35000000D03*
X25000000Y-20000000D03*
X55000000Y-20000000D03*
X40000000Y-20000000D03*
X25000000Y-5000000D03*
X55000000Y-5000000D03*
X-5000000Y10000000D03*
X40000000Y-5000000D03*
X10000000Y-5000000D03*
X55000000Y10000000D03*
X25000000Y10000000D03*
X40000000Y10000000D03*
X10000000Y10000000D03*
X10000000Y25000000D03*
X40000000Y25000000D03*
X-5000000Y40000000D03*
X25000000Y40000000D03*
X10000000Y40000000D03*
X40000000Y40000000D03*
X55000000Y40000000D03*
X55000000Y25000000D03*
X70000000Y10000000D03*
X70000000Y-5000000D03*
X70000000Y40000000D03*
X70000000Y-35000000D03*
X70000000Y-20000000D03*
X70000000Y25000000D03*
X10498700Y-15649200D03*
D12*
%TO.N,N/C*%
X18474000Y-15647500D03*
X13394000Y-15647500D03*
X37315200Y16162700D03*
X34815200Y16162700D03*
X16760800Y-18970000D03*
X11680800Y-18970000D03*
X33616100Y3760000D03*
X57746100Y3760000D03*
X-25601100Y12456000D03*
X-30681100Y12456000D03*
X21251000Y-12202600D03*
X16171000Y-12202600D03*
X27179000Y34903700D03*
X24639000Y34903700D03*
X29719000Y34903700D03*
X25440900Y-7377300D03*
X20360900Y-7377300D03*
X-26650900Y2858900D03*
X-31730900Y2858900D03*
X23164900Y6965300D03*
X28164900Y6965300D03*
X-33411900Y-6741400D03*
X-38491900Y-6741400D03*
X-26419300Y-2559100D03*
X-28919300Y-2559100D03*
X-35509700Y-16638300D03*
X-27889700Y-19178300D03*
X-22809700Y-19178300D03*
X-12649700Y-19178300D03*
X-38049700Y-16638300D03*
X-38049700Y-19178300D03*
X-12649700Y-16638300D03*
X-30429700Y-16638300D03*
X-15189700Y-16638300D03*
X-25349700Y-19178300D03*
X-32969700Y-19178300D03*
X-32969700Y-16638300D03*
X-30429700Y-19178300D03*
X-40589700Y-19178300D03*
X-22809700Y-16638300D03*
X-17729700Y-19178300D03*
X-17729700Y-16638300D03*
X-20269700Y-19178300D03*
X-40589700Y-16638300D03*
X-35509700Y-19178300D03*
X-10109700Y-16638300D03*
X-25349700Y-16638300D03*
X-15189700Y-19178300D03*
X-27889700Y-16638300D03*
X-10109700Y-19178300D03*
X-20269700Y-16638300D03*
X20658900Y25286900D03*
X23198900Y25286900D03*
X25738900Y25286900D03*
X-30163000Y-1133000D03*
X-35243000Y-1133000D03*
X23700100Y-10134200D03*
X18620100Y-10134200D03*
X-26411100Y7213700D03*
X-31491100Y7213700D03*
X-17864300Y-6922100D03*
X-22944300Y-6922100D03*
%TD*%
%TA.AperFunction,Conductor*%
%TO.N,GND*%
G36*
X79512000Y-49600000D02*
G01*
X-79512000Y-49600000D01*
X-79600000Y-49512000D01*
X-79600000Y-17878000D01*
X-41890000Y-17878000D01*
X-41890000Y-20478000D01*
X-39290000Y-20478000D01*
X-39290000Y-19109000D01*
X-38570000Y-19109000D01*
X-38570000Y-19246000D01*
X-38536000Y-19375000D01*
X-38533000Y-19383000D01*
X-38467000Y-19497000D01*
X-38370000Y-19594000D01*
X-38252000Y-19662000D01*
X-38251000Y-19663000D01*
X-38116000Y-19699000D01*
X-37983000Y-19699000D01*
X-37849000Y-19663000D01*
X-37848000Y-19662000D01*
X-37729000Y-19594000D01*
X-37634000Y-19499000D01*
X-37566000Y-19380000D01*
X-37565000Y-19379000D01*
X-37529000Y-19245000D01*
X-37529000Y-19112000D01*
X-37565000Y-18977000D01*
X-37634000Y-18858000D01*
X-37731000Y-18761000D01*
X-37845000Y-18695000D01*
X-37850000Y-18693000D01*
X-37982000Y-18658000D01*
X-38119000Y-18658000D01*
X-38252000Y-18694000D01*
X-38257000Y-18696000D01*
X-38368000Y-18761000D01*
X-38469000Y-18862000D01*
X-38532000Y-18971000D01*
X-38536000Y-18981000D01*
X-38570000Y-19109000D01*
X-39290000Y-19109000D01*
X-39290000Y-17878000D01*
X-39739000Y-17878000D01*
X-39816000Y-17693000D01*
X-39556000Y-17433000D01*
X-39386000Y-17138000D01*
X-39297000Y-16806000D01*
X-39297000Y-16569000D01*
X-38570000Y-16569000D01*
X-38570000Y-16706000D01*
X-38536000Y-16835000D01*
X-38533000Y-16843000D01*
X-38467000Y-16957000D01*
X-38370000Y-17054000D01*
X-38252000Y-17122000D01*
X-38251000Y-17123000D01*
X-38116000Y-17159000D01*
X-37983000Y-17159000D01*
X-37849000Y-17123000D01*
X-37848000Y-17122000D01*
X-37729000Y-17054000D01*
X-37634000Y-16959000D01*
X-37566000Y-16840000D01*
X-37565000Y-16839000D01*
X-37529000Y-16705000D01*
X-37529000Y-16572000D01*
X-37555933Y-16471000D01*
X-36803000Y-16471000D01*
X-36803000Y-16806000D01*
X-36714000Y-17141000D01*
X-36545000Y-17431000D01*
X-36544000Y-17432000D01*
X-36305000Y-17672000D01*
X-36046000Y-17821000D01*
X-36046000Y-17995000D01*
X-36303000Y-18143000D01*
X-36545000Y-18385000D01*
X-36713000Y-18675000D01*
X-36714000Y-18678000D01*
X-36803000Y-19011000D01*
X-36803000Y-19346000D01*
X-36714000Y-19681000D01*
X-36545000Y-19971000D01*
X-36544000Y-19972000D01*
X-36305000Y-20212000D01*
X-36009000Y-20382000D01*
X-35677000Y-20471000D01*
X-35342000Y-20471000D01*
X-35009000Y-20382000D01*
X-35010000Y-20382000D01*
X-34715000Y-20212000D01*
X-34476000Y-19973000D01*
X-34327000Y-19715000D01*
X-34154000Y-19715000D01*
X-34005000Y-19971000D01*
X-34004000Y-19972000D01*
X-33765000Y-20212000D01*
X-33469000Y-20382000D01*
X-33137000Y-20471000D01*
X-32802000Y-20471000D01*
X-32469000Y-20382000D01*
X-32470000Y-20382000D01*
X-32175000Y-20212000D01*
X-31936000Y-19973000D01*
X-31787000Y-19715000D01*
X-31614000Y-19715000D01*
X-31465000Y-19971000D01*
X-31464000Y-19972000D01*
X-31225000Y-20212000D01*
X-30929000Y-20382000D01*
X-30597000Y-20471000D01*
X-30262000Y-20471000D01*
X-29929000Y-20382000D01*
X-29930000Y-20382000D01*
X-29635000Y-20212000D01*
X-29396000Y-19973000D01*
X-29247000Y-19715000D01*
X-29074000Y-19715000D01*
X-28925000Y-19971000D01*
X-28924000Y-19972000D01*
X-28685000Y-20212000D01*
X-28389000Y-20382000D01*
X-28057000Y-20471000D01*
X-27722000Y-20471000D01*
X-27389000Y-20382000D01*
X-27390000Y-20382000D01*
X-27095000Y-20212000D01*
X-26856000Y-19973000D01*
X-26707000Y-19715000D01*
X-26534000Y-19715000D01*
X-26385000Y-19971000D01*
X-26384000Y-19972000D01*
X-26145000Y-20212000D01*
X-25849000Y-20382000D01*
X-25517000Y-20471000D01*
X-25182000Y-20471000D01*
X-24849000Y-20382000D01*
X-24850000Y-20382000D01*
X-24555000Y-20212000D01*
X-24316000Y-19973000D01*
X-24167000Y-19715000D01*
X-23994000Y-19715000D01*
X-23845000Y-19971000D01*
X-23844000Y-19972000D01*
X-23605000Y-20212000D01*
X-23309000Y-20382000D01*
X-22977000Y-20471000D01*
X-22642000Y-20471000D01*
X-22309000Y-20382000D01*
X-22310000Y-20382000D01*
X-22015000Y-20212000D01*
X-21776000Y-19973000D01*
X-21627000Y-19715000D01*
X-21454000Y-19715000D01*
X-21305000Y-19971000D01*
X-21304000Y-19972000D01*
X-21065000Y-20212000D01*
X-20769000Y-20382000D01*
X-20437000Y-20471000D01*
X-20102000Y-20471000D01*
X-19769000Y-20382000D01*
X-19770000Y-20382000D01*
X-19475000Y-20212000D01*
X-19236000Y-19973000D01*
X-19087000Y-19715000D01*
X-18914000Y-19715000D01*
X-18765000Y-19971000D01*
X-18764000Y-19972000D01*
X-18525000Y-20212000D01*
X-18229000Y-20382000D01*
X-17897000Y-20471000D01*
X-17562000Y-20471000D01*
X-17229000Y-20382000D01*
X-17230000Y-20382000D01*
X-16935000Y-20212000D01*
X-16696000Y-19973000D01*
X-16547000Y-19715000D01*
X-16374000Y-19715000D01*
X-16225000Y-19971000D01*
X-16224000Y-19972000D01*
X-15985000Y-20212000D01*
X-15689000Y-20382000D01*
X-15357000Y-20471000D01*
X-15022000Y-20471000D01*
X-14689000Y-20382000D01*
X-14690000Y-20382000D01*
X-14395000Y-20212000D01*
X-14156000Y-19973000D01*
X-14007000Y-19715000D01*
X-13834000Y-19715000D01*
X-13685000Y-19971000D01*
X-13684000Y-19972000D01*
X-13445000Y-20212000D01*
X-13149000Y-20382000D01*
X-12817000Y-20471000D01*
X-12482000Y-20471000D01*
X-12149000Y-20382000D01*
X-12150000Y-20382000D01*
X-11855000Y-20212000D01*
X-11616000Y-19973000D01*
X-11467000Y-19715000D01*
X-11294000Y-19715000D01*
X-11145000Y-19971000D01*
X-11144000Y-19972000D01*
X-10905000Y-20212000D01*
X-10609000Y-20382000D01*
X-10277000Y-20471000D01*
X-9942000Y-20471000D01*
X-9609000Y-20382000D01*
X-9610000Y-20382000D01*
X-9315000Y-20212000D01*
X-9076000Y-19973000D01*
X-8906000Y-19678000D01*
X-8817000Y-19346000D01*
X-8817000Y-19011000D01*
X-8881605Y-18770000D01*
X10140000Y-18770000D01*
X10140000Y-19170000D01*
X10246000Y-19566000D01*
X10247000Y-19569000D01*
X10447000Y-19915000D01*
X10736000Y-20204000D01*
X11082000Y-20404000D01*
X11085000Y-20405000D01*
X11481000Y-20511000D01*
X11881000Y-20511000D01*
X12277000Y-20405000D01*
X12280000Y-20404000D01*
X12626000Y-20204000D01*
X12915000Y-19915000D01*
X13115000Y-19569000D01*
X13116000Y-19566000D01*
X13222000Y-19170000D01*
X13222000Y-18770000D01*
X15220000Y-18770000D01*
X15220000Y-19170000D01*
X15326000Y-19566000D01*
X15327000Y-19569000D01*
X15527000Y-19915000D01*
X15816000Y-20204000D01*
X16162000Y-20404000D01*
X16165000Y-20405000D01*
X16561000Y-20511000D01*
X16961000Y-20511000D01*
X17357000Y-20405000D01*
X17360000Y-20404000D01*
X17706000Y-20204000D01*
X17995000Y-19915000D01*
X18195000Y-19569000D01*
X18196000Y-19566000D01*
X18302000Y-19170000D01*
X18302000Y-18770000D01*
X18196000Y-18372000D01*
X17995000Y-18025000D01*
X17706000Y-17736000D01*
X17360000Y-17536000D01*
X17357000Y-17535000D01*
X16961000Y-17429000D01*
X16561000Y-17429000D01*
X16165000Y-17535000D01*
X16162000Y-17536000D01*
X15816000Y-17736000D01*
X15527000Y-18025000D01*
X15326000Y-18372000D01*
X15220000Y-18770000D01*
X13222000Y-18770000D01*
X13116000Y-18372000D01*
X12915000Y-18025000D01*
X12626000Y-17736000D01*
X12280000Y-17536000D01*
X12277000Y-17535000D01*
X11881000Y-17429000D01*
X11481000Y-17429000D01*
X11085000Y-17535000D01*
X11082000Y-17536000D01*
X10736000Y-17736000D01*
X10447000Y-18025000D01*
X10246000Y-18372000D01*
X10140000Y-18770000D01*
X-8881605Y-18770000D01*
X-8906000Y-18679000D01*
X-9076000Y-18383000D01*
X-9316000Y-18144000D01*
X-9317000Y-18143000D01*
X-9573000Y-17994000D01*
X-9573000Y-17821000D01*
X-9315000Y-17672000D01*
X-9076000Y-17433000D01*
X-8906000Y-17138000D01*
X-8817000Y-16806000D01*
X-8817000Y-16471000D01*
X-8906000Y-16139000D01*
X-9076000Y-15843000D01*
X-9316000Y-15604000D01*
X-9317000Y-15603000D01*
X-9585357Y-15447000D01*
X11853000Y-15447000D01*
X11853000Y-15848000D01*
X11959000Y-16243000D01*
X12162000Y-16595000D01*
X12449000Y-16882000D01*
X12795000Y-17082000D01*
X12798000Y-17083000D01*
X13194000Y-17189000D01*
X13594000Y-17189000D01*
X13990000Y-17083000D01*
X13993000Y-17082000D01*
X14339000Y-16882000D01*
X14626000Y-16595000D01*
X14829000Y-16243000D01*
X14935000Y-15848000D01*
X14935000Y-15447000D01*
X16933000Y-15447000D01*
X16933000Y-15848000D01*
X17039000Y-16243000D01*
X17242000Y-16595000D01*
X17529000Y-16882000D01*
X17875000Y-17082000D01*
X17878000Y-17083000D01*
X18274000Y-17189000D01*
X18674000Y-17189000D01*
X19070000Y-17083000D01*
X19073000Y-17082000D01*
X19419000Y-16882000D01*
X19706000Y-16595000D01*
X19909000Y-16243000D01*
X20015000Y-15848000D01*
X20015000Y-15447000D01*
X19909000Y-15052000D01*
X19706000Y-14700000D01*
X19419000Y-14413000D01*
X19073000Y-14213000D01*
X19070000Y-14212000D01*
X18674000Y-14106000D01*
X18274000Y-14106000D01*
X17878000Y-14212000D01*
X17875000Y-14213000D01*
X17529000Y-14413000D01*
X17242000Y-14700000D01*
X17039000Y-15052000D01*
X16933000Y-15447000D01*
X14935000Y-15447000D01*
X14829000Y-15052000D01*
X14626000Y-14700000D01*
X14339000Y-14413000D01*
X13993000Y-14213000D01*
X13990000Y-14212000D01*
X13594000Y-14106000D01*
X13194000Y-14106000D01*
X12798000Y-14212000D01*
X12795000Y-14213000D01*
X12449000Y-14413000D01*
X12162000Y-14700000D01*
X11959000Y-15052000D01*
X11853000Y-15447000D01*
X-9585357Y-15447000D01*
X-9606000Y-15435000D01*
X-9609000Y-15434000D01*
X-9942000Y-15345000D01*
X-10277000Y-15345000D01*
X-10610000Y-15434000D01*
X-10613000Y-15435000D01*
X-10903000Y-15603000D01*
X-11145000Y-15845000D01*
X-11293000Y-16102000D01*
X-11467000Y-16102000D01*
X-11616000Y-15843000D01*
X-11856000Y-15604000D01*
X-11857000Y-15603000D01*
X-12146000Y-15435000D01*
X-12149000Y-15434000D01*
X-12482000Y-15345000D01*
X-12817000Y-15345000D01*
X-13150000Y-15434000D01*
X-13153000Y-15435000D01*
X-13443000Y-15603000D01*
X-13685000Y-15845000D01*
X-13833000Y-16102000D01*
X-14007000Y-16102000D01*
X-14156000Y-15843000D01*
X-14396000Y-15604000D01*
X-14397000Y-15603000D01*
X-14686000Y-15435000D01*
X-14689000Y-15434000D01*
X-15022000Y-15345000D01*
X-15357000Y-15345000D01*
X-15690000Y-15434000D01*
X-15693000Y-15435000D01*
X-15983000Y-15603000D01*
X-16225000Y-15845000D01*
X-16373000Y-16102000D01*
X-16547000Y-16102000D01*
X-16696000Y-15843000D01*
X-16936000Y-15604000D01*
X-16937000Y-15603000D01*
X-17226000Y-15435000D01*
X-17229000Y-15434000D01*
X-17562000Y-15345000D01*
X-17897000Y-15345000D01*
X-18230000Y-15434000D01*
X-18233000Y-15435000D01*
X-18523000Y-15603000D01*
X-18765000Y-15845000D01*
X-18913000Y-16102000D01*
X-19087000Y-16102000D01*
X-19236000Y-15843000D01*
X-19476000Y-15604000D01*
X-19477000Y-15603000D01*
X-19766000Y-15435000D01*
X-19769000Y-15434000D01*
X-20102000Y-15345000D01*
X-20437000Y-15345000D01*
X-20770000Y-15434000D01*
X-20773000Y-15435000D01*
X-21063000Y-15603000D01*
X-21305000Y-15845000D01*
X-21453000Y-16102000D01*
X-21627000Y-16102000D01*
X-21776000Y-15843000D01*
X-22016000Y-15604000D01*
X-22017000Y-15603000D01*
X-22306000Y-15435000D01*
X-22309000Y-15434000D01*
X-22642000Y-15345000D01*
X-22977000Y-15345000D01*
X-23310000Y-15434000D01*
X-23313000Y-15435000D01*
X-23603000Y-15603000D01*
X-23845000Y-15845000D01*
X-23993000Y-16102000D01*
X-24167000Y-16102000D01*
X-24316000Y-15843000D01*
X-24556000Y-15604000D01*
X-24557000Y-15603000D01*
X-24846000Y-15435000D01*
X-24849000Y-15434000D01*
X-25182000Y-15345000D01*
X-25517000Y-15345000D01*
X-25850000Y-15434000D01*
X-25853000Y-15435000D01*
X-26143000Y-15603000D01*
X-26385000Y-15845000D01*
X-26533000Y-16102000D01*
X-26707000Y-16102000D01*
X-26856000Y-15843000D01*
X-27096000Y-15604000D01*
X-27097000Y-15603000D01*
X-27386000Y-15435000D01*
X-27389000Y-15434000D01*
X-27722000Y-15345000D01*
X-28057000Y-15345000D01*
X-28390000Y-15434000D01*
X-28393000Y-15435000D01*
X-28683000Y-15603000D01*
X-28925000Y-15845000D01*
X-29073000Y-16102000D01*
X-29247000Y-16102000D01*
X-29396000Y-15843000D01*
X-29636000Y-15604000D01*
X-29637000Y-15603000D01*
X-29926000Y-15435000D01*
X-29929000Y-15434000D01*
X-30262000Y-15345000D01*
X-30597000Y-15345000D01*
X-30930000Y-15434000D01*
X-30933000Y-15435000D01*
X-31223000Y-15603000D01*
X-31465000Y-15845000D01*
X-31613000Y-16102000D01*
X-31787000Y-16102000D01*
X-31936000Y-15843000D01*
X-32176000Y-15604000D01*
X-32177000Y-15603000D01*
X-32466000Y-15435000D01*
X-32469000Y-15434000D01*
X-32802000Y-15345000D01*
X-33137000Y-15345000D01*
X-33470000Y-15434000D01*
X-33473000Y-15435000D01*
X-33763000Y-15603000D01*
X-34005000Y-15845000D01*
X-34153000Y-16102000D01*
X-34327000Y-16102000D01*
X-34476000Y-15843000D01*
X-34716000Y-15604000D01*
X-34717000Y-15603000D01*
X-35006000Y-15435000D01*
X-35009000Y-15434000D01*
X-35342000Y-15345000D01*
X-35677000Y-15345000D01*
X-36010000Y-15434000D01*
X-36013000Y-15435000D01*
X-36303000Y-15603000D01*
X-36545000Y-15845000D01*
X-36713000Y-16135000D01*
X-36714000Y-16138000D01*
X-36803000Y-16471000D01*
X-37555933Y-16471000D01*
X-37565000Y-16437000D01*
X-37634000Y-16318000D01*
X-37731000Y-16221000D01*
X-37845000Y-16155000D01*
X-37850000Y-16153000D01*
X-37982000Y-16118000D01*
X-38119000Y-16118000D01*
X-38252000Y-16154000D01*
X-38257000Y-16156000D01*
X-38367000Y-16220000D01*
X-38469000Y-16322000D01*
X-38532000Y-16431000D01*
X-38536000Y-16441000D01*
X-38570000Y-16569000D01*
X-39297000Y-16569000D01*
X-39297000Y-16471000D01*
X-39386000Y-16139000D01*
X-39556000Y-15843000D01*
X-39796000Y-15604000D01*
X-39797000Y-15603000D01*
X-40086000Y-15435000D01*
X-40089000Y-15434000D01*
X-40422000Y-15345000D01*
X-40757000Y-15345000D01*
X-41090000Y-15434000D01*
X-41093000Y-15435000D01*
X-41383000Y-15603000D01*
X-41625000Y-15845000D01*
X-41793000Y-16135000D01*
X-41794000Y-16138000D01*
X-41883000Y-16471000D01*
X-41883000Y-16806000D01*
X-41794000Y-17141000D01*
X-41625000Y-17431000D01*
X-41624000Y-17432000D01*
X-41364000Y-17693000D01*
X-41441000Y-17878000D01*
X-41890000Y-17878000D01*
X-79600000Y-17878000D01*
X-79600000Y-12003000D01*
X14630000Y-12003000D01*
X14630000Y-12403000D01*
X14736000Y-12798000D01*
X14939000Y-13150000D01*
X15226000Y-13437000D01*
X15572000Y-13637000D01*
X15575000Y-13638000D01*
X15971000Y-13744000D01*
X16371000Y-13744000D01*
X16767000Y-13638000D01*
X16770000Y-13637000D01*
X17116000Y-13437000D01*
X17403000Y-13150000D01*
X17606000Y-12798000D01*
X17712000Y-12403000D01*
X17712000Y-12003000D01*
X17586000Y-11530000D01*
X17746000Y-11408000D01*
X18021000Y-11568000D01*
X18024000Y-11569000D01*
X18420000Y-11675000D01*
X18820000Y-11675000D01*
X19216000Y-11569000D01*
X19219000Y-11568000D01*
X19565000Y-11368000D01*
X19771000Y-11162000D01*
X19980000Y-11322000D01*
X19816000Y-11607000D01*
X19710000Y-12003000D01*
X19710000Y-12403000D01*
X19816000Y-12798000D01*
X20019000Y-13150000D01*
X20306000Y-13437000D01*
X20652000Y-13637000D01*
X20655000Y-13638000D01*
X21051000Y-13744000D01*
X21451000Y-13744000D01*
X21847000Y-13638000D01*
X21850000Y-13637000D01*
X22196000Y-13437000D01*
X22483000Y-13150000D01*
X22686000Y-12798000D01*
X22792000Y-12403000D01*
X22792000Y-12003000D01*
X22666000Y-11530000D01*
X22826000Y-11408000D01*
X23101000Y-11568000D01*
X23104000Y-11569000D01*
X23500000Y-11675000D01*
X23900000Y-11675000D01*
X24296000Y-11569000D01*
X24299000Y-11568000D01*
X24645000Y-11368000D01*
X24934000Y-11079000D01*
X25134000Y-10733000D01*
X25135000Y-10730000D01*
X25241000Y-10334000D01*
X25241000Y-9934000D01*
X25135000Y-9538000D01*
X25134000Y-9535000D01*
X24934000Y-9189000D01*
X24767000Y-9022000D01*
X24882000Y-8822000D01*
X25241000Y-8918000D01*
X25641000Y-8918000D01*
X26037000Y-8812000D01*
X26040000Y-8811000D01*
X26386000Y-8611000D01*
X26675000Y-8322000D01*
X26875000Y-7976000D01*
X26876000Y-7973000D01*
X26982000Y-7577000D01*
X26982000Y-7177000D01*
X26876000Y-6781000D01*
X26875000Y-6778000D01*
X26675000Y-6432000D01*
X26386000Y-6143000D01*
X26040000Y-5943000D01*
X26037000Y-5942000D01*
X25641000Y-5836000D01*
X25241000Y-5836000D01*
X24845000Y-5942000D01*
X24842000Y-5943000D01*
X24496000Y-6143000D01*
X24207000Y-6432000D01*
X24007000Y-6778000D01*
X24006000Y-6781000D01*
X23900000Y-7177000D01*
X23900000Y-7577000D01*
X24006000Y-7973000D01*
X24007000Y-7976000D01*
X24207000Y-8322000D01*
X24374000Y-8489000D01*
X24259000Y-8689000D01*
X23900000Y-8593000D01*
X23500000Y-8593000D01*
X23104000Y-8699000D01*
X23101000Y-8700000D01*
X22755000Y-8900000D01*
X22466000Y-9189000D01*
X22266000Y-9535000D01*
X22265000Y-9538000D01*
X22159000Y-9934000D01*
X22159000Y-10335000D01*
X22285000Y-10807000D01*
X22125000Y-10929000D01*
X21850000Y-10769000D01*
X21847000Y-10768000D01*
X21451000Y-10662000D01*
X21051000Y-10662000D01*
X20655000Y-10768000D01*
X20652000Y-10769000D01*
X20306000Y-10969000D01*
X20100000Y-11175000D01*
X19891000Y-11015000D01*
X20054000Y-10733000D01*
X20055000Y-10730000D01*
X20161000Y-10334000D01*
X20161000Y-9934000D01*
X20055000Y-9538000D01*
X20054000Y-9535000D01*
X19854000Y-9189000D01*
X19687000Y-9022000D01*
X19802000Y-8822000D01*
X20161000Y-8918000D01*
X20561000Y-8918000D01*
X20957000Y-8812000D01*
X20960000Y-8811000D01*
X21306000Y-8611000D01*
X21595000Y-8322000D01*
X21795000Y-7976000D01*
X21796000Y-7973000D01*
X21902000Y-7577000D01*
X21902000Y-7177000D01*
X21796000Y-6781000D01*
X21795000Y-6778000D01*
X21595000Y-6432000D01*
X21306000Y-6143000D01*
X20960000Y-5943000D01*
X20957000Y-5942000D01*
X20561000Y-5836000D01*
X20161000Y-5836000D01*
X19765000Y-5942000D01*
X19762000Y-5943000D01*
X19416000Y-6143000D01*
X19127000Y-6432000D01*
X18927000Y-6778000D01*
X18926000Y-6781000D01*
X18820000Y-7177000D01*
X18820000Y-7577000D01*
X18926000Y-7973000D01*
X18927000Y-7976000D01*
X19127000Y-8322000D01*
X19294000Y-8489000D01*
X19179000Y-8689000D01*
X18820000Y-8593000D01*
X18420000Y-8593000D01*
X18024000Y-8699000D01*
X18021000Y-8700000D01*
X17675000Y-8900000D01*
X17386000Y-9189000D01*
X17186000Y-9535000D01*
X17185000Y-9538000D01*
X17079000Y-9934000D01*
X17079000Y-10335000D01*
X17205000Y-10807000D01*
X17045000Y-10929000D01*
X16770000Y-10769000D01*
X16767000Y-10768000D01*
X16371000Y-10662000D01*
X15971000Y-10662000D01*
X15575000Y-10768000D01*
X15572000Y-10769000D01*
X15226000Y-10969000D01*
X15225000Y-10970000D01*
X14938000Y-11256000D01*
X14937000Y-11257000D01*
X14736000Y-11607000D01*
X14630000Y-12003000D01*
X-79600000Y-12003000D01*
X-79600000Y-6541000D01*
X-40033000Y-6541000D01*
X-40033000Y-6941000D01*
X-39927000Y-7337000D01*
X-39726000Y-7687000D01*
X-39725000Y-7688000D01*
X-39438000Y-7974000D01*
X-39437000Y-7975000D01*
X-39091000Y-8175000D01*
X-39088000Y-8176000D01*
X-38692000Y-8282000D01*
X-38292000Y-8282000D01*
X-37896000Y-8176000D01*
X-37893000Y-8175000D01*
X-37547000Y-7975000D01*
X-37546000Y-7974000D01*
X-37259000Y-7688000D01*
X-37258000Y-7687000D01*
X-37057000Y-7337000D01*
X-36951000Y-6941000D01*
X-36951000Y-6541000D01*
X-34953000Y-6541000D01*
X-34953000Y-6941000D01*
X-34847000Y-7337000D01*
X-34646000Y-7687000D01*
X-34645000Y-7688000D01*
X-34358000Y-7974000D01*
X-34357000Y-7975000D01*
X-34011000Y-8175000D01*
X-34008000Y-8176000D01*
X-33612000Y-8282000D01*
X-33212000Y-8282000D01*
X-32816000Y-8176000D01*
X-32813000Y-8175000D01*
X-32467000Y-7975000D01*
X-32466000Y-7974000D01*
X-32179000Y-7688000D01*
X-32178000Y-7687000D01*
X-31977000Y-7337000D01*
X-31871000Y-6941000D01*
X-31871000Y-6722000D01*
X-24485000Y-6722000D01*
X-24485000Y-7122000D01*
X-24379000Y-7518000D01*
X-24378000Y-7521000D01*
X-24178000Y-7867000D01*
X-23889000Y-8156000D01*
X-23543000Y-8356000D01*
X-23540000Y-8357000D01*
X-23144000Y-8463000D01*
X-22744000Y-8463000D01*
X-22348000Y-8357000D01*
X-22345000Y-8356000D01*
X-21999000Y-8156000D01*
X-21710000Y-7867000D01*
X-21510000Y-7521000D01*
X-21509000Y-7518000D01*
X-21403000Y-7122000D01*
X-21403000Y-6722000D01*
X-19405000Y-6722000D01*
X-19405000Y-7122000D01*
X-19299000Y-7518000D01*
X-19298000Y-7521000D01*
X-19098000Y-7867000D01*
X-18809000Y-8156000D01*
X-18463000Y-8356000D01*
X-18460000Y-8357000D01*
X-18064000Y-8463000D01*
X-17664000Y-8463000D01*
X-17268000Y-8357000D01*
X-17265000Y-8356000D01*
X-16919000Y-8156000D01*
X-16630000Y-7867000D01*
X-16430000Y-7521000D01*
X-16429000Y-7518000D01*
X-16323000Y-7122000D01*
X-16323000Y-6722000D01*
X-16429000Y-6326000D01*
X-16430000Y-6323000D01*
X-16630000Y-5977000D01*
X-16918000Y-5689000D01*
X-17265000Y-5488000D01*
X-17268000Y-5487000D01*
X-17664000Y-5381000D01*
X-18064000Y-5381000D01*
X-18460000Y-5487000D01*
X-18463000Y-5488000D01*
X-18810000Y-5689000D01*
X-19098000Y-5977000D01*
X-19298000Y-6323000D01*
X-19299000Y-6326000D01*
X-19405000Y-6722000D01*
X-21403000Y-6722000D01*
X-21509000Y-6326000D01*
X-21510000Y-6323000D01*
X-21710000Y-5977000D01*
X-21998000Y-5689000D01*
X-22345000Y-5488000D01*
X-22348000Y-5487000D01*
X-22744000Y-5381000D01*
X-23144000Y-5381000D01*
X-23540000Y-5487000D01*
X-23543000Y-5488000D01*
X-23890000Y-5689000D01*
X-24178000Y-5977000D01*
X-24378000Y-6323000D01*
X-24379000Y-6326000D01*
X-24485000Y-6722000D01*
X-31871000Y-6722000D01*
X-31871000Y-6541000D01*
X-31976000Y-6149000D01*
X-31976000Y-6148000D01*
X-32180000Y-5794000D01*
X-32467000Y-5507000D01*
X-32813000Y-5307000D01*
X-32816000Y-5306000D01*
X-33212000Y-5200000D01*
X-33612000Y-5200000D01*
X-34008000Y-5306000D01*
X-34011000Y-5307000D01*
X-34357000Y-5507000D01*
X-34644000Y-5794000D01*
X-34848000Y-6148000D01*
X-34848000Y-6149000D01*
X-34953000Y-6541000D01*
X-36951000Y-6541000D01*
X-37056000Y-6149000D01*
X-37056000Y-6148000D01*
X-37260000Y-5794000D01*
X-37547000Y-5507000D01*
X-37893000Y-5307000D01*
X-37896000Y-5306000D01*
X-38292000Y-5200000D01*
X-38692000Y-5200000D01*
X-39088000Y-5306000D01*
X-39091000Y-5307000D01*
X-39437000Y-5507000D01*
X-39724000Y-5794000D01*
X-39928000Y-6148000D01*
X-39928000Y-6149000D01*
X-40033000Y-6541000D01*
X-79600000Y-6541000D01*
X-79600000Y-933000D01*
X-36784000Y-933000D01*
X-36784000Y-1333000D01*
X-36678000Y-1729000D01*
X-36677000Y-1732000D01*
X-36477000Y-2078000D01*
X-36188000Y-2367000D01*
X-35842000Y-2567000D01*
X-35839000Y-2568000D01*
X-35443000Y-2674000D01*
X-35043000Y-2674000D01*
X-34647000Y-2568000D01*
X-34644000Y-2567000D01*
X-34298000Y-2367000D01*
X-34009000Y-2078000D01*
X-33809000Y-1732000D01*
X-33808000Y-1729000D01*
X-33702000Y-1333000D01*
X-33702000Y-933000D01*
X-31704000Y-933000D01*
X-31704000Y-1333000D01*
X-31598000Y-1729000D01*
X-31597000Y-1732000D01*
X-31397000Y-2078000D01*
X-31108000Y-2367000D01*
X-30762000Y-2567000D01*
X-30759000Y-2568000D01*
X-30363000Y-2674000D01*
X-29963000Y-2674000D01*
X-29567000Y-2568000D01*
X-29464000Y-2509000D01*
X-29327000Y-2566000D01*
X-29288000Y-2713000D01*
X-29239000Y-2799000D01*
X-29232000Y-2808000D01*
X-29164000Y-2875000D01*
X-29072000Y-2929000D01*
X-28970000Y-2956000D01*
X-28868000Y-2956000D01*
X-28768000Y-2929000D01*
X-28677000Y-2877000D01*
X-28675000Y-2875000D01*
X-28607000Y-2808000D01*
X-28600000Y-2799000D01*
X-28551000Y-2713000D01*
X-28523000Y-2609000D01*
X-28523000Y-2510000D01*
X-28551000Y-2405000D01*
X-28558386Y-2392000D01*
X-27712000Y-2392000D01*
X-27712000Y-2727000D01*
X-27623000Y-3059000D01*
X-27453000Y-3354000D01*
X-27214000Y-3593000D01*
X-26919000Y-3763000D01*
X-26587000Y-3852000D01*
X-26252000Y-3852000D01*
X-25919000Y-3763000D01*
X-25920000Y-3763000D01*
X-25624000Y-3593000D01*
X-25385000Y-3353000D01*
X-25384000Y-3352000D01*
X-25216000Y-3063000D01*
X-25126000Y-2727000D01*
X-25126000Y-2392000D01*
X-25215000Y-2059000D01*
X-25216000Y-2056000D01*
X-25384000Y-1766000D01*
X-25385000Y-1765000D01*
X-25624000Y-1525000D01*
X-25920000Y-1355000D01*
X-25919000Y-1355000D01*
X-26252000Y-1266000D01*
X-26587000Y-1266000D01*
X-26919000Y-1355000D01*
X-27214000Y-1525000D01*
X-27453000Y-1764000D01*
X-27623000Y-2060000D01*
X-27712000Y-2392000D01*
X-28558386Y-2392000D01*
X-28601000Y-2317000D01*
X-28677000Y-2241000D01*
X-28764000Y-2191000D01*
X-28847000Y-2168000D01*
X-28903000Y-2031000D01*
X-28729000Y-1732000D01*
X-28728000Y-1729000D01*
X-28622000Y-1333000D01*
X-28622000Y-933000D01*
X-28728000Y-537000D01*
X-28729000Y-534000D01*
X-28929000Y-188000D01*
X-29218000Y101000D01*
X-29564000Y301000D01*
X-29567000Y302000D01*
X-29963000Y408000D01*
X-30363000Y408000D01*
X-30759000Y302000D01*
X-30762000Y301000D01*
X-31108000Y101000D01*
X-31397000Y-188000D01*
X-31597000Y-534000D01*
X-31598000Y-537000D01*
X-31704000Y-933000D01*
X-33702000Y-933000D01*
X-33808000Y-537000D01*
X-33809000Y-534000D01*
X-34009000Y-188000D01*
X-34298000Y101000D01*
X-34644000Y301000D01*
X-34647000Y302000D01*
X-35043000Y408000D01*
X-35443000Y408000D01*
X-35839000Y302000D01*
X-35842000Y301000D01*
X-36188000Y101000D01*
X-36477000Y-188000D01*
X-36677000Y-534000D01*
X-36678000Y-537000D01*
X-36784000Y-933000D01*
X-79600000Y-933000D01*
X-79600000Y3059000D01*
X-33272000Y3059000D01*
X-33272000Y2659000D01*
X-33166000Y2263000D01*
X-33165000Y2260000D01*
X-32965000Y1914000D01*
X-32676000Y1625000D01*
X-32330000Y1425000D01*
X-32327000Y1424000D01*
X-31931000Y1318000D01*
X-31531000Y1318000D01*
X-31135000Y1424000D01*
X-31132000Y1425000D01*
X-30786000Y1625000D01*
X-30497000Y1914000D01*
X-30297000Y2260000D01*
X-30296000Y2263000D01*
X-30190000Y2659000D01*
X-30190000Y3059000D01*
X-28192000Y3059000D01*
X-28192000Y2659000D01*
X-28086000Y2263000D01*
X-28085000Y2260000D01*
X-27885000Y1914000D01*
X-27596000Y1625000D01*
X-27250000Y1425000D01*
X-27247000Y1424000D01*
X-26851000Y1318000D01*
X-26451000Y1318000D01*
X-26055000Y1424000D01*
X-26052000Y1425000D01*
X-25706000Y1625000D01*
X-25417000Y1914000D01*
X-25217000Y2260000D01*
X-25216000Y2263000D01*
X-25110000Y2659000D01*
X-25110000Y3059000D01*
X-25216000Y3455000D01*
X-25217000Y3458000D01*
X-25417000Y3804000D01*
X-25560000Y3947000D01*
X32172000Y3947000D01*
X32172000Y3573000D01*
X32271000Y3202000D01*
X32461000Y2872000D01*
X32728000Y2604000D01*
X32731000Y2602000D01*
X33056000Y2416000D01*
X33058000Y2415000D01*
X33429000Y2316000D01*
X33803000Y2316000D01*
X34175000Y2415000D01*
X34174000Y2415000D01*
X34504000Y2605000D01*
X34771000Y2872000D01*
X34961000Y3202000D01*
X35060000Y3573000D01*
X35060000Y3947000D01*
X56302000Y3947000D01*
X56302000Y3573000D01*
X56401000Y3202000D01*
X56591000Y2872000D01*
X56858000Y2604000D01*
X56861000Y2602000D01*
X57186000Y2416000D01*
X57188000Y2415000D01*
X57559000Y2316000D01*
X57933000Y2316000D01*
X58305000Y2415000D01*
X58304000Y2415000D01*
X58634000Y2605000D01*
X58901000Y2872000D01*
X59091000Y3202000D01*
X59190000Y3573000D01*
X59190000Y3947000D01*
X59091000Y4318000D01*
X58901000Y4648000D01*
X58634000Y4915000D01*
X58304000Y5105000D01*
X58305000Y5105000D01*
X57933000Y5204000D01*
X57559000Y5204000D01*
X57188000Y5105000D01*
X57186000Y5104000D01*
X56861000Y4918000D01*
X56858000Y4916000D01*
X56591000Y4648000D01*
X56401000Y4318000D01*
X56302000Y3947000D01*
X35060000Y3947000D01*
X34961000Y4318000D01*
X34771000Y4648000D01*
X34504000Y4915000D01*
X34174000Y5105000D01*
X34175000Y5105000D01*
X33803000Y5204000D01*
X33429000Y5204000D01*
X33058000Y5105000D01*
X33056000Y5104000D01*
X32731000Y4918000D01*
X32728000Y4916000D01*
X32461000Y4648000D01*
X32271000Y4318000D01*
X32172000Y3947000D01*
X-25560000Y3947000D01*
X-25706000Y4093000D01*
X-26052000Y4293000D01*
X-26055000Y4294000D01*
X-26451000Y4400000D01*
X-26851000Y4400000D01*
X-27247000Y4294000D01*
X-27250000Y4293000D01*
X-27596000Y4093000D01*
X-27885000Y3804000D01*
X-28085000Y3458000D01*
X-28086000Y3455000D01*
X-28192000Y3059000D01*
X-30190000Y3059000D01*
X-30296000Y3455000D01*
X-30297000Y3458000D01*
X-30497000Y3804000D01*
X-30786000Y4093000D01*
X-31132000Y4293000D01*
X-31135000Y4294000D01*
X-31531000Y4400000D01*
X-31931000Y4400000D01*
X-32327000Y4294000D01*
X-32330000Y4293000D01*
X-32676000Y4093000D01*
X-32965000Y3804000D01*
X-33165000Y3458000D01*
X-33166000Y3455000D01*
X-33272000Y3059000D01*
X-79600000Y3059000D01*
X-79600000Y7414000D01*
X-33032000Y7414000D01*
X-33032000Y7014000D01*
X-32926000Y6618000D01*
X-32925000Y6615000D01*
X-32725000Y6269000D01*
X-32436000Y5980000D01*
X-32090000Y5780000D01*
X-32087000Y5779000D01*
X-31691000Y5673000D01*
X-31291000Y5673000D01*
X-30895000Y5779000D01*
X-30892000Y5780000D01*
X-30546000Y5980000D01*
X-30257000Y6269000D01*
X-30057000Y6615000D01*
X-30056000Y6618000D01*
X-29950000Y7014000D01*
X-29950000Y7414000D01*
X-27952000Y7414000D01*
X-27952000Y7014000D01*
X-27846000Y6618000D01*
X-27845000Y6615000D01*
X-27645000Y6269000D01*
X-27356000Y5980000D01*
X-27010000Y5780000D01*
X-27007000Y5779000D01*
X-26611000Y5673000D01*
X-26211000Y5673000D01*
X-25815000Y5779000D01*
X-25812000Y5780000D01*
X-25466000Y5980000D01*
X-25177000Y6269000D01*
X-24977000Y6615000D01*
X-24976000Y6618000D01*
X-24870000Y7014000D01*
X-24870000Y7414000D01*
X-24976000Y7810000D01*
X-24977000Y7813000D01*
X-25177000Y8159000D01*
X-25458000Y8440000D01*
X21690000Y8440000D01*
X21690000Y5490000D01*
X24640000Y5490000D01*
X24640000Y7047000D01*
X27520000Y7047000D01*
X27520000Y6882000D01*
X27565000Y6715000D01*
X27648000Y6571000D01*
X27770000Y6449000D01*
X27912000Y6367000D01*
X27915000Y6366000D01*
X28083000Y6321000D01*
X28247000Y6321000D01*
X28415000Y6366000D01*
X28418000Y6367000D01*
X28560000Y6449000D01*
X28680000Y6569000D01*
X28764000Y6716000D01*
X28809000Y6882000D01*
X28809000Y7047000D01*
X28764000Y7215000D01*
X28680000Y7362000D01*
X28560000Y7482000D01*
X28418000Y7564000D01*
X28415000Y7565000D01*
X28247000Y7610000D01*
X28083000Y7610000D01*
X27915000Y7565000D01*
X27912000Y7564000D01*
X27770000Y7482000D01*
X27648000Y7360000D01*
X27566000Y7218000D01*
X27565000Y7215000D01*
X27520000Y7047000D01*
X24640000Y7047000D01*
X24640000Y8440000D01*
X21690000Y8440000D01*
X-25458000Y8440000D01*
X-25466000Y8448000D01*
X-25812000Y8648000D01*
X-25815000Y8649000D01*
X-26211000Y8755000D01*
X-26611000Y8755000D01*
X-27007000Y8649000D01*
X-27010000Y8648000D01*
X-27356000Y8448000D01*
X-27645000Y8159000D01*
X-27845000Y7813000D01*
X-27846000Y7810000D01*
X-27952000Y7414000D01*
X-29950000Y7414000D01*
X-30056000Y7810000D01*
X-30057000Y7813000D01*
X-30257000Y8159000D01*
X-30546000Y8448000D01*
X-30892000Y8648000D01*
X-30895000Y8649000D01*
X-31291000Y8755000D01*
X-31691000Y8755000D01*
X-32087000Y8649000D01*
X-32090000Y8648000D01*
X-32436000Y8448000D01*
X-32725000Y8159000D01*
X-32925000Y7813000D01*
X-32926000Y7810000D01*
X-33032000Y7414000D01*
X-79600000Y7414000D01*
X-79600000Y12656000D01*
X-32222000Y12656000D01*
X-32222000Y12256000D01*
X-32116000Y11860000D01*
X-32115000Y11857000D01*
X-31915000Y11511000D01*
X-31626000Y11222000D01*
X-31280000Y11022000D01*
X-31277000Y11021000D01*
X-30881000Y10915000D01*
X-30481000Y10915000D01*
X-30085000Y11021000D01*
X-30082000Y11022000D01*
X-29736000Y11222000D01*
X-29447000Y11511000D01*
X-29247000Y11857000D01*
X-29246000Y11860000D01*
X-29140000Y12256000D01*
X-29140000Y12656000D01*
X-27142000Y12656000D01*
X-27142000Y12256000D01*
X-27036000Y11860000D01*
X-27035000Y11857000D01*
X-26835000Y11511000D01*
X-26546000Y11222000D01*
X-26200000Y11022000D01*
X-26197000Y11021000D01*
X-25801000Y10915000D01*
X-25401000Y10915000D01*
X-25005000Y11021000D01*
X-25002000Y11022000D01*
X-24656000Y11222000D01*
X-24367000Y11511000D01*
X-24167000Y11857000D01*
X-24166000Y11860000D01*
X-24060000Y12256000D01*
X-24060000Y12656000D01*
X-24166000Y13052000D01*
X-24167000Y13055000D01*
X-24367000Y13401000D01*
X-24656000Y13690000D01*
X-25002000Y13890000D01*
X-25005000Y13891000D01*
X-25401000Y13997000D01*
X-25801000Y13997000D01*
X-26197000Y13891000D01*
X-26200000Y13890000D01*
X-26546000Y13690000D01*
X-26835000Y13401000D01*
X-27035000Y13055000D01*
X-27036000Y13052000D01*
X-27142000Y12656000D01*
X-29140000Y12656000D01*
X-29246000Y13052000D01*
X-29247000Y13055000D01*
X-29447000Y13401000D01*
X-29736000Y13690000D01*
X-30082000Y13890000D01*
X-30085000Y13891000D01*
X-30481000Y13997000D01*
X-30881000Y13997000D01*
X-31277000Y13891000D01*
X-31280000Y13890000D01*
X-31626000Y13690000D01*
X-31915000Y13401000D01*
X-32115000Y13055000D01*
X-32116000Y13052000D01*
X-32222000Y12656000D01*
X-79600000Y12656000D01*
X-79600000Y17463000D01*
X33515000Y17463000D01*
X33515000Y14863000D01*
X36115000Y14863000D01*
X36115000Y15273000D01*
X36301000Y15350000D01*
X36520000Y15129000D01*
X36816000Y14959000D01*
X37148000Y14870000D01*
X37483000Y14870000D01*
X37816000Y14959000D01*
X37815000Y14959000D01*
X38110000Y15129000D01*
X38349000Y15368000D01*
X38519000Y15663000D01*
X38608000Y15995000D01*
X38608000Y16330000D01*
X38519000Y16662000D01*
X38349000Y16958000D01*
X38109000Y17197000D01*
X38108000Y17198000D01*
X37819000Y17366000D01*
X37816000Y17367000D01*
X37483000Y17456000D01*
X37148000Y17456000D01*
X36815000Y17367000D01*
X36812000Y17366000D01*
X36522000Y17198000D01*
X36300000Y16976000D01*
X36115000Y17053000D01*
X36115000Y17463000D01*
X33515000Y17463000D01*
X-79600000Y17463000D01*
X-79600000Y26537000D01*
X19409000Y26537000D01*
X19409000Y24037000D01*
X21909000Y24037000D01*
X21909000Y25350000D01*
X22703000Y25350000D01*
X22703000Y25224000D01*
X22738000Y25094000D01*
X22803000Y24982000D01*
X22894000Y24891000D01*
X23007000Y24826000D01*
X23136000Y24791000D01*
X23262000Y24791000D01*
X23392000Y24826000D01*
X23391000Y24826000D01*
X23504000Y24891000D01*
X23595000Y24982000D01*
X23660000Y25094000D01*
X23695000Y25224000D01*
X23695000Y25350000D01*
X23668411Y25448000D01*
X24495000Y25448000D01*
X24495000Y25126000D01*
X24581000Y24804000D01*
X24743000Y24524000D01*
X24976000Y24291000D01*
X25255000Y24130000D01*
X25258000Y24129000D01*
X25578000Y24043000D01*
X25900000Y24043000D01*
X26221000Y24129000D01*
X26224000Y24130000D01*
X26501000Y24291000D01*
X26502000Y24292000D01*
X26733000Y24521000D01*
X26897000Y24807000D01*
X26982000Y25126000D01*
X26982000Y25449000D01*
X26898000Y25766000D01*
X26896000Y25771000D01*
X26735000Y26049000D01*
X26501000Y26283000D01*
X26223000Y26444000D01*
X26218000Y26446000D01*
X25901000Y26530000D01*
X25578000Y26530000D01*
X25259000Y26445000D01*
X24973000Y26281000D01*
X24744000Y26050000D01*
X24743000Y26049000D01*
X24582000Y25772000D01*
X24581000Y25769000D01*
X24495000Y25448000D01*
X23668411Y25448000D01*
X23660000Y25479000D01*
X23595000Y25592000D01*
X23504000Y25683000D01*
X23391000Y25748000D01*
X23392000Y25748000D01*
X23262000Y25783000D01*
X23136000Y25783000D01*
X23007000Y25748000D01*
X22894000Y25683000D01*
X22803000Y25592000D01*
X22738000Y25479000D01*
X22703000Y25350000D01*
X21909000Y25350000D01*
X21909000Y26537000D01*
X19409000Y26537000D01*
X-79600000Y26537000D01*
X-79600000Y36404000D01*
X23187000Y36404000D01*
X23187000Y33404000D01*
X26092000Y33404000D01*
X26092000Y34973000D01*
X26634000Y34973000D01*
X26634000Y34834000D01*
X26672000Y34692000D01*
X26673000Y34689000D01*
X26741000Y34572000D01*
X26847000Y34465000D01*
X26964000Y34398000D01*
X26967000Y34397000D01*
X27110000Y34358000D01*
X27248000Y34358000D01*
X27391000Y34397000D01*
X27394000Y34398000D01*
X27511000Y34465000D01*
X27617000Y34572000D01*
X27685000Y34689000D01*
X27686000Y34692000D01*
X27724000Y34834000D01*
X27724000Y34973000D01*
X27686000Y35115000D01*
X27672176Y35139000D01*
X28275000Y35139000D01*
X28275000Y34669000D01*
X28374000Y34299000D01*
X28564000Y33968000D01*
X28832000Y33701000D01*
X28833000Y33700000D01*
X29157000Y33512000D01*
X29162000Y33510000D01*
X29531000Y33412000D01*
X29907000Y33412000D01*
X30276000Y33510000D01*
X30281000Y33512000D01*
X30605000Y33700000D01*
X30606000Y33701000D01*
X30874000Y33968000D01*
X31064000Y34299000D01*
X31163000Y34669000D01*
X31163000Y35139000D01*
X31064000Y35510000D01*
X30876000Y35837000D01*
X30605000Y36108000D01*
X30281000Y36295000D01*
X30278000Y36296000D01*
X29906000Y36396000D01*
X29532000Y36396000D01*
X29160000Y36296000D01*
X29157000Y36295000D01*
X28833000Y36108000D01*
X28562000Y35837000D01*
X28374000Y35510000D01*
X28275000Y35139000D01*
X27672176Y35139000D01*
X27614000Y35240000D01*
X27515000Y35339000D01*
X27390000Y35411000D01*
X27391000Y35411000D01*
X27248000Y35449000D01*
X27110000Y35449000D01*
X26968000Y35411000D01*
X26843000Y35339000D01*
X26744000Y35240000D01*
X26672000Y35115000D01*
X26634000Y34973000D01*
X26092000Y34973000D01*
X26092000Y36404000D01*
X23187000Y36404000D01*
X-79600000Y36404000D01*
X-79600000Y49512000D01*
X-79512000Y49600000D01*
X79512000Y49600000D01*
X79600000Y49512000D01*
X79600000Y-49512000D01*
X79512000Y-49600000D01*
G37*
%TD.AperFunction*%
%TD*%
M02*
