M48
; DRILL file {Flux 9.0.6-9.0.6~ubuntu22.04.1} date 2026-02-18T22:19:37+0000
; FORMAT={-:-/ absolute / metric / decimal}
; #@! TF.CreationDate,2026-02-18T22:19:37+00:00
; #@! TF.GenerationSoftware,Kicad,Pcbnew,9.0.6-9.0.6~ubuntu22.04.1
; #@! TF.FileFunction,MixedPlating,1,4
FMAT,2
METRIC
; #@! TA.AperFunction,Plated,PTH,ComponentDrill
T1C0.300
; #@! TA.AperFunction,Plated,PTH,ComponentDrill
T2C0.800
; #@! TA.AperFunction,Plated,PTH,ComponentDrill
T3C1.000
; #@! TA.AperFunction,Plated,PTH,ComponentDrill
T4C1.050
; #@! TA.AperFunction,Plated,PTH,ComponentDrill
T5C1.100
; #@! TA.AperFunction,Plated,PTH,ComponentDrill
T6C1.300
; #@! TA.AperFunction,Plated,PTH,ComponentDrill
T7C1.397
; #@! TA.AperFunction,Plated,PTH,ComponentDrill
T8C1.400
%
G90
G05
T1
X-65.0Y40.0
X-65.0Y25.0
X-65.0Y10.0
X-65.0Y-5.0
X-65.0Y-20.0
X-65.0Y-35.0
X-50.0Y40.0
X-50.0Y25.0
X-50.0Y10.0
X-50.0Y-5.0
X-50.0Y-20.0
X-50.0Y-35.0
X-36.795Y-17.908
X-35.0Y40.0
X-35.0Y25.0
X-35.0Y10.0
X-35.0Y-5.0
X-35.0Y-35.0
X-20.0Y40.0
X-20.0Y25.0
X-20.0Y10.0
X-20.0Y-35.0
X-5.0Y40.0
X-5.0Y25.0
X-5.0Y10.0
X-5.0Y-5.0
X-5.0Y-20.0
X-5.0Y-35.0
X10.0Y40.0
X10.0Y25.0
X10.0Y10.0
X10.0Y-5.0
X10.0Y-35.0
X10.499Y-15.649
X25.0Y40.0
X25.0Y10.0
X25.0Y-5.0
X25.0Y-20.0
X25.0Y-35.0
X40.0Y40.0
X40.0Y25.0
X40.0Y10.0
X40.0Y-5.0
X40.0Y-20.0
X40.0Y-35.0
X55.0Y40.0
X55.0Y25.0
X55.0Y10.0
X55.0Y-5.0
X55.0Y-20.0
X55.0Y-35.0
X70.0Y40.0
X70.0Y25.0
X70.0Y10.0
X70.0Y-5.0
X70.0Y-20.0
X70.0Y-35.0
T2
X-28.919Y-2.559
X-26.419Y-2.559
X34.815Y16.163
X37.315Y16.163
T3
X20.659Y25.287
X23.199Y25.287
X25.739Y25.287
T4
X-40.59Y-16.638
X-40.59Y-19.178
X-38.05Y-16.638
X-38.05Y-19.178
X-35.51Y-16.638
X-35.51Y-19.178
X-32.97Y-16.638
X-32.97Y-19.178
X-30.43Y-16.638
X-30.43Y-19.178
X-27.89Y-16.638
X-27.89Y-19.178
X-25.35Y-16.638
X-25.35Y-19.178
X-22.81Y-16.638
X-22.81Y-19.178
X-20.27Y-16.638
X-20.27Y-19.178
X-17.73Y-16.638
X-17.73Y-19.178
X-15.19Y-16.638
X-15.19Y-19.178
X-12.65Y-16.638
X-12.65Y-19.178
X-10.11Y-16.638
X-10.11Y-19.178
T5
X24.639Y34.904
X27.179Y34.904
X29.719Y34.904
T6
X23.165Y6.965
X28.165Y6.965
T7
X33.616Y3.76
X57.746Y3.76
T8
X-38.492Y-6.741
X-35.243Y-1.133
X-33.412Y-6.741
X-31.731Y2.859
X-31.491Y7.214
X-30.681Y12.456
X-30.163Y-1.133
X-26.651Y2.859
X-26.411Y7.214
X-25.601Y12.456
X-22.944Y-6.922
X-17.864Y-6.922
X11.681Y-18.97
X13.394Y-15.647
X16.171Y-12.203
X16.761Y-18.97
X18.474Y-15.647
X18.62Y-10.134
X20.361Y-7.377
X21.251Y-12.203
X23.7Y-10.134
X25.441Y-7.377
M30
